ISO-10303-21;
HEADER;
FILE_DESCRIPTION(('FreeCAD Model'),'2;1');
FILE_NAME('Open CASCADE Shape Model','2026-02-22T20:46:23',(''),(''),
  'Open CASCADE STEP processor 7.9','FreeCAD','Unknown');
FILE_SCHEMA(('AUTOMOTIVE_DESIGN { 1 0 10303 214 1 1 1 1 }'));
ENDSEC;
DATA;
#1 = APPLICATION_PROTOCOL_DEFINITION('international standard',
  'automotive_design',2000,#2);
#2 = APPLICATION_CONTEXT(
  'core data for automotive mechanical design processes');
#3 = SHAPE_DEFINITION_REPRESENTATION(#4,#10);
#4 = PRODUCT_DEFINITION_SHAPE('','',#5);
#5 = PRODUCT_DEFINITION('design','',#6,#9);
#6 = PRODUCT_DEFINITION_FORMATION('','',#7);
#7 = PRODUCT('Body','Body','',(#8));
#8 = PRODUCT_CONTEXT('',#2,'mechanical');
#9 = PRODUCT_DEFINITION_CONTEXT('part definition',#2,'design');
#10 = ADVANCED_BREP_SHAPE_REPRESENTATION('',(#11,#15),#1505);
#11 = AXIS2_PLACEMENT_3D('',#12,#13,#14);
#12 = CARTESIAN_POINT('',(0.,0.,0.));
#13 = DIRECTION('',(0.,0.,1.));
#14 = DIRECTION('',(1.,0.,-0.));
#15 = MANIFOLD_SOLID_BREP('',#16);
#16 = CLOSED_SHELL('',(#17,#59,#256,#303,#387,#471,#488,#519,#543,#567,
    #584,#609,#634,#659,#684,#709,#734,#759,#784,#809,#834,#859,#884,
    #908,#941,#965,#998,#1022,#1053,#1070,#1129,#1146,#1165,#1182,#1223,
    #1247,#1281,#1314,#1355,#1380,#1397,#1430,#1447,#1459,#1476,#1493));
#17 = ADVANCED_FACE('',(#18),#54,.F.);
#18 = FACE_BOUND('',#19,.T.);
#19 = EDGE_LOOP('',(#20,#30,#39,#47));
#20 = ORIENTED_EDGE('',*,*,#21,.T.);
#21 = EDGE_CURVE('',#22,#24,#26,.T.);
#22 = VERTEX_POINT('',#23);
#23 = CARTESIAN_POINT('',(3.133333076189,8.660233577827E-15,
    39.002224714041));
#24 = VERTEX_POINT('',#25);
#25 = CARTESIAN_POINT('',(3.133333076189,-135.,39.002224714041));
#26 = LINE('',#27,#28);
#27 = CARTESIAN_POINT('',(3.133333076189,8.660233577827E-15,
    39.002224714041));
#28 = VECTOR('',#29,1.);
#29 = DIRECTION('',(0.,-1.,2.22044604925E-16));
#30 = ORIENTED_EDGE('',*,*,#31,.T.);
#31 = EDGE_CURVE('',#24,#32,#34,.T.);
#32 = VERTEX_POINT('',#33);
#33 = CARTESIAN_POINT('',(1.,-135.,37.006674090581));
#34 = CIRCLE('',#35,2.);
#35 = AXIS2_PLACEMENT_3D('',#36,#37,#38);
#36 = CARTESIAN_POINT('',(3.,-135.,37.006674090581));
#37 = DIRECTION('',(0.,-1.,2.22044604925E-16));
#38 = DIRECTION('',(1.,0.,0.));
#39 = ORIENTED_EDGE('',*,*,#40,.F.);
#40 = EDGE_CURVE('',#41,#32,#43,.T.);
#41 = VERTEX_POINT('',#42);
#42 = CARTESIAN_POINT('',(1.,8.217132328032E-15,37.006674090581));
#43 = LINE('',#44,#45);
#44 = CARTESIAN_POINT('',(1.,8.217132328032E-15,37.006674090581));
#45 = VECTOR('',#46,1.);
#46 = DIRECTION('',(0.,-1.,2.22044604925E-16));
#47 = ORIENTED_EDGE('',*,*,#48,.F.);
#48 = EDGE_CURVE('',#22,#41,#49,.T.);
#49 = CIRCLE('',#50,2.);
#50 = AXIS2_PLACEMENT_3D('',#51,#52,#53);
#51 = CARTESIAN_POINT('',(3.,8.217132328032E-15,37.006674090581));
#52 = DIRECTION('',(0.,-1.,2.22044604925E-16));
#53 = DIRECTION('',(1.,0.,0.));
#54 = CYLINDRICAL_SURFACE('',#55,2.);
#55 = AXIS2_PLACEMENT_3D('',#56,#57,#58);
#56 = CARTESIAN_POINT('',(3.,8.217132328032E-15,37.006674090581));
#57 = DIRECTION('',(0.,1.,-2.22044604925E-16));
#58 = DIRECTION('',(1.,0.,0.));
#59 = ADVANCED_FACE('',(#60,#85,#119,#130,#141,#152,#163,#174,#185,#196,
    #207,#218,#229,#240),#251,.F.);
#60 = FACE_BOUND('',#61,.F.);
#61 = EDGE_LOOP('',(#62,#63,#71,#79));
#62 = ORIENTED_EDGE('',*,*,#21,.T.);
#63 = ORIENTED_EDGE('',*,*,#64,.T.);
#64 = EDGE_CURVE('',#24,#65,#67,.T.);
#65 = VERTEX_POINT('',#66);
#66 = CARTESIAN_POINT('',(123.13333145602,-135.,32.713291308328));
#67 = LINE('',#68,#69);
#68 = CARTESIAN_POINT('',(3.133333076189,-135.,39.002224714041));
#69 = VECTOR('',#70,1.);
#70 = DIRECTION('',(0.998629534765,-1.162091668432E-17,
    -5.233595604922E-02));
#71 = ORIENTED_EDGE('',*,*,#72,.F.);
#72 = EDGE_CURVE('',#73,#65,#75,.T.);
#73 = VERTEX_POINT('',#74);
#74 = CARTESIAN_POINT('',(123.13333145602,7.263809844355E-15,
    32.713291308328));
#75 = LINE('',#76,#77);
#76 = CARTESIAN_POINT('',(123.13333145602,7.263809844355E-15,
    32.713291308328));
#77 = VECTOR('',#78,1.);
#78 = DIRECTION('',(0.,-1.,2.22044604925E-16));
#79 = ORIENTED_EDGE('',*,*,#80,.F.);
#80 = EDGE_CURVE('',#22,#73,#81,.T.);
#81 = LINE('',#82,#83);
#82 = CARTESIAN_POINT('',(3.133333076189,8.660233577827E-15,
    39.002224714041));
#83 = VECTOR('',#84,1.);
#84 = DIRECTION('',(0.998629534765,-1.162091668432E-17,
    -5.233595604922E-02));
#85 = FACE_BOUND('',#86,.F.);
#86 = EDGE_LOOP('',(#87,#97,#105,#113));
#87 = ORIENTED_EDGE('',*,*,#88,.F.);
#88 = EDGE_CURVE('',#89,#91,#93,.T.);
#89 = VERTEX_POINT('',#90);
#90 = CARTESIAN_POINT('',(19.625056760762,-100.,38.137930102391));
#91 = VERTEX_POINT('',#92);
#92 = CARTESIAN_POINT('',(19.625056760762,-127.,38.137930102391));
#93 = LINE('',#94,#95);
#94 = CARTESIAN_POINT('',(19.625056760762,-50.,38.137930102391));
#95 = VECTOR('',#96,1.);
#96 = DIRECTION('',(1.160499066496E-17,-1.,2.214364131379E-16));
#97 = ORIENTED_EDGE('',*,*,#98,.F.);
#98 = EDGE_CURVE('',#99,#89,#101,.T.);
#99 = VERTEX_POINT('',#100);
#100 = CARTESIAN_POINT('',(34.604499782233,-100.,37.352890761653));
#101 = LINE('',#102,#103);
#102 = CARTESIAN_POINT('',(18.868916429308,-100.,38.177557737842));
#103 = VECTOR('',#104,1.);
#104 = DIRECTION('',(-0.998629534765,0.,5.233595604922E-02));
#105 = ORIENTED_EDGE('',*,*,#106,.F.);
#106 = EDGE_CURVE('',#107,#99,#109,.T.);
#107 = VERTEX_POINT('',#108);
#108 = CARTESIAN_POINT('',(34.604499782233,-127.,37.352890761653));
#109 = LINE('',#110,#111);
#110 = CARTESIAN_POINT('',(34.604499782233,-63.5,37.352890761653));
#111 = VECTOR('',#112,1.);
#112 = DIRECTION('',(-1.160499066496E-17,1.,-2.214364131379E-16));
#113 = ORIENTED_EDGE('',*,*,#114,.F.);
#114 = EDGE_CURVE('',#91,#107,#115,.T.);
#115 = LINE('',#116,#117);
#116 = CARTESIAN_POINT('',(11.379194918572,-127.,38.570077408211));
#117 = VECTOR('',#118,1.);
#118 = DIRECTION('',(0.998629534765,0.,-5.233595604922E-02));
#119 = FACE_BOUND('',#120,.F.);
#120 = EDGE_LOOP('',(#121));
#121 = ORIENTED_EDGE('',*,*,#122,.F.);
#122 = EDGE_CURVE('',#123,#123,#125,.T.);
#123 = VERTEX_POINT('',#124);
#124 = CARTESIAN_POINT('',(16.129853389086,-83.5,38.321105948564));
#125 = CIRCLE('',#126,4.);
#126 = AXIS2_PLACEMENT_3D('',#127,#128,#129);
#127 = CARTESIAN_POINT('',(20.124371528145,-83.5,38.111762124367));
#128 = DIRECTION('',(5.233595624294E-02,0.,0.998629534755));
#129 = DIRECTION('',(-0.998629534755,0.,5.233595624294E-02));
#130 = FACE_BOUND('',#131,.F.);
#131 = EDGE_LOOP('',(#132));
#132 = ORIENTED_EDGE('',*,*,#133,.F.);
#133 = EDGE_CURVE('',#134,#134,#136,.T.);
#134 = VERTEX_POINT('',#135);
#135 = CARTESIAN_POINT('',(31.109296410557,-89.,37.536066607825));
#136 = CIRCLE('',#137,3.5);
#137 = AXIS2_PLACEMENT_3D('',#138,#139,#140);
#138 = CARTESIAN_POINT('',(34.604499782233,-89.,37.352890761653));
#139 = DIRECTION('',(5.233595624294E-02,0.,0.998629534755));
#140 = DIRECTION('',(-0.998629534755,0.,5.233595624294E-02));
#141 = FACE_BOUND('',#142,.F.);
#142 = EDGE_LOOP('',(#143));
#143 = ORIENTED_EDGE('',*,*,#144,.F.);
#144 = EDGE_CURVE('',#145,#145,#147,.T.);
#145 = VERTEX_POINT('',#146);
#146 = CARTESIAN_POINT('',(31.109296410557,-78.,37.536066607825));
#147 = CIRCLE('',#148,3.5);
#148 = AXIS2_PLACEMENT_3D('',#149,#150,#151);
#149 = CARTESIAN_POINT('',(34.604499782233,-78.,37.352890761653));
#150 = DIRECTION('',(5.233595624294E-02,0.,0.998629534755));
#151 = DIRECTION('',(-0.998629534755,0.,5.233595624294E-02));
#152 = FACE_BOUND('',#153,.F.);
#153 = EDGE_LOOP('',(#154));
#154 = ORIENTED_EDGE('',*,*,#155,.F.);
#155 = EDGE_CURVE('',#156,#156,#158,.T.);
#156 = VERTEX_POINT('',#157);
#157 = CARTESIAN_POINT('',(108.16822641689,-122.,33.497579227256));
#158 = CIRCLE('',#159,4.);
#159 = AXIS2_PLACEMENT_3D('',#160,#161,#162);
#160 = CARTESIAN_POINT('',(112.16274455595,-122.,33.288235403059));
#161 = DIRECTION('',(5.233595624294E-02,0.,0.998629534755));
#162 = DIRECTION('',(-0.998629534755,0.,5.233595624294E-02));
#163 = FACE_BOUND('',#164,.F.);
#164 = EDGE_LOOP('',(#165));
#165 = ORIENTED_EDGE('',*,*,#166,.F.);
#166 = EDGE_CURVE('',#167,#167,#169,.T.);
#167 = VERTEX_POINT('',#168);
#168 = CARTESIAN_POINT('',(106.17096734736,-100.,33.602251139354));
#169 = CIRCLE('',#170,6.);
#170 = AXIS2_PLACEMENT_3D('',#171,#172,#173);
#171 = CARTESIAN_POINT('',(112.16274455595,-100.,33.288235403059));
#172 = DIRECTION('',(5.233595624294E-02,0.,0.998629534755));
#173 = DIRECTION('',(-0.998629534755,0.,5.233595624294E-02));
#174 = FACE_BOUND('',#175,.F.);
#175 = EDGE_LOOP('',(#176));
#176 = ORIENTED_EDGE('',*,*,#177,.F.);
#177 = EDGE_CURVE('',#178,#178,#180,.T.);
#178 = VERTEX_POINT('',#179);
#179 = CARTESIAN_POINT('',(10.138076180497,-58.,38.635121684859));
#180 = CIRCLE('',#181,4.);
#181 = AXIS2_PLACEMENT_3D('',#182,#183,#184);
#182 = CARTESIAN_POINT('',(14.132594319556,-58.,38.425777860662));
#183 = DIRECTION('',(5.233595624294E-02,0.,0.998629534755));
#184 = DIRECTION('',(-0.998629534755,0.,5.233595624294E-02));
#185 = FACE_BOUND('',#186,.F.);
#186 = EDGE_LOOP('',(#187));
#187 = ORIENTED_EDGE('',*,*,#188,.F.);
#188 = EDGE_CURVE('',#189,#189,#191,.T.);
#189 = VERTEX_POINT('',#190);
#190 = CARTESIAN_POINT('',(36.10244408438,-58.,37.274386827579));
#191 = CIRCLE('',#192,4.);
#192 = AXIS2_PLACEMENT_3D('',#193,#194,#195);
#193 = CARTESIAN_POINT('',(40.096962223439,-58.,37.065043003382));
#194 = DIRECTION('',(5.233595624294E-02,0.,0.998629534755));
#195 = DIRECTION('',(-0.998629534755,0.,5.233595624294E-02));
#196 = FACE_BOUND('',#197,.F.);
#197 = EDGE_LOOP('',(#198));
#198 = ORIENTED_EDGE('',*,*,#199,.F.);
#199 = EDGE_CURVE('',#200,#200,#202,.T.);
#200 = VERTEX_POINT('',#201);
#201 = CARTESIAN_POINT('',(10.138076180497,-36.,38.635121684859));
#202 = CIRCLE('',#203,4.);
#203 = AXIS2_PLACEMENT_3D('',#204,#205,#206);
#204 = CARTESIAN_POINT('',(14.132594319556,-36.,38.425777860662));
#205 = DIRECTION('',(5.233595624294E-02,0.,0.998629534755));
#206 = DIRECTION('',(-0.998629534755,0.,5.233595624294E-02));
#207 = FACE_BOUND('',#208,.F.);
#208 = EDGE_LOOP('',(#209));
#209 = ORIENTED_EDGE('',*,*,#210,.F.);
#210 = EDGE_CURVE('',#211,#211,#213,.T.);
#211 = VERTEX_POINT('',#212);
#212 = CARTESIAN_POINT('',(23.120260132439,-14.,37.954754256219));
#213 = CIRCLE('',#214,4.);
#214 = AXIS2_PLACEMENT_3D('',#215,#216,#217);
#215 = CARTESIAN_POINT('',(27.114778271498,-14.,37.745410432022));
#216 = DIRECTION('',(5.233595624294E-02,0.,0.998629534755));
#217 = DIRECTION('',(-0.998629534755,0.,5.233595624294E-02));
#218 = FACE_BOUND('',#219,.F.);
#219 = EDGE_LOOP('',(#220));
#220 = ORIENTED_EDGE('',*,*,#221,.F.);
#221 = EDGE_CURVE('',#222,#222,#224,.T.);
#222 = VERTEX_POINT('',#223);
#223 = CARTESIAN_POINT('',(36.10244408438,-36.,37.274386827579));
#224 = CIRCLE('',#225,4.);
#225 = AXIS2_PLACEMENT_3D('',#226,#227,#228);
#226 = CARTESIAN_POINT('',(40.096962223439,-36.,37.065043003382));
#227 = DIRECTION('',(5.233595624294E-02,0.,0.998629534755));
#228 = DIRECTION('',(-0.998629534755,0.,5.233595624294E-02));
#229 = FACE_BOUND('',#230,.F.);
#230 = EDGE_LOOP('',(#231));
#231 = ORIENTED_EDGE('',*,*,#232,.F.);
#232 = EDGE_CURVE('',#233,#233,#235,.T.);
#233 = VERTEX_POINT('',#234);
#234 = CARTESIAN_POINT('',(106.17096734736,-36.,33.602251139354));
#235 = CIRCLE('',#236,6.);
#236 = AXIS2_PLACEMENT_3D('',#237,#238,#239);
#237 = CARTESIAN_POINT('',(112.16274455595,-36.,33.288235403059));
#238 = DIRECTION('',(5.233595624294E-02,0.,0.998629534755));
#239 = DIRECTION('',(-0.998629534755,0.,5.233595624294E-02));
#240 = FACE_BOUND('',#241,.F.);
#241 = EDGE_LOOP('',(#242));
#242 = ORIENTED_EDGE('',*,*,#243,.F.);
#243 = EDGE_CURVE('',#244,#244,#246,.T.);
#244 = VERTEX_POINT('',#245);
#245 = CARTESIAN_POINT('',(108.16822641689,-14.,33.497579227256));
#246 = CIRCLE('',#247,4.);
#247 = AXIS2_PLACEMENT_3D('',#248,#249,#250);
#248 = CARTESIAN_POINT('',(112.16274455595,-14.,33.288235403059));
#249 = DIRECTION('',(5.233595624294E-02,0.,0.998629534755));
#250 = DIRECTION('',(-0.998629534755,0.,5.233595624294E-02));
#251 = PLANE('',#252);
#252 = AXIS2_PLACEMENT_3D('',#253,#254,#255);
#253 = CARTESIAN_POINT('',(3.133333076189,8.660233577827E-15,
    39.002224714041));
#254 = DIRECTION('',(5.233595604922E-02,2.217403005133E-16,
    0.998629534765));
#255 = DIRECTION('',(0.998629534765,-1.162091668432E-17,
    -5.233595604922E-02));
#256 = ADVANCED_FACE('',(#257),#298,.T.);
#257 = FACE_BOUND('',#258,.T.);
#258 = EDGE_LOOP('',(#259,#260,#268,#276,#284,#292));
#259 = ORIENTED_EDGE('',*,*,#40,.T.);
#260 = ORIENTED_EDGE('',*,*,#261,.T.);
#261 = EDGE_CURVE('',#32,#262,#264,.T.);
#262 = VERTEX_POINT('',#263);
#263 = CARTESIAN_POINT('',(1.,-135.,3.));
#264 = LINE('',#265,#266);
#265 = CARTESIAN_POINT('',(1.,-135.,37.006674090581));
#266 = VECTOR('',#267,1.);
#267 = DIRECTION('',(0.,-2.22044604925E-16,-1.));
#268 = ORIENTED_EDGE('',*,*,#269,.F.);
#269 = EDGE_CURVE('',#270,#262,#272,.T.);
#270 = VERTEX_POINT('',#271);
#271 = CARTESIAN_POINT('',(1.,-132.,3.));
#272 = LINE('',#273,#274);
#273 = CARTESIAN_POINT('',(1.,6.661338147751E-16,3.));
#274 = VECTOR('',#275,1.);
#275 = DIRECTION('',(0.,-1.,2.22044604925E-16));
#276 = ORIENTED_EDGE('',*,*,#277,.F.);
#277 = EDGE_CURVE('',#278,#270,#280,.T.);
#278 = VERTEX_POINT('',#279);
#279 = CARTESIAN_POINT('',(1.,-3.,3.));
#280 = LINE('',#281,#282);
#281 = CARTESIAN_POINT('',(1.,6.661338147751E-16,3.));
#282 = VECTOR('',#283,1.);
#283 = DIRECTION('',(0.,-1.,2.22044604925E-16));
#284 = ORIENTED_EDGE('',*,*,#285,.F.);
#285 = EDGE_CURVE('',#286,#278,#288,.T.);
#286 = VERTEX_POINT('',#287);
#287 = CARTESIAN_POINT('',(1.,6.661338147751E-16,3.));
#288 = LINE('',#289,#290);
#289 = CARTESIAN_POINT('',(1.,6.661338147751E-16,3.));
#290 = VECTOR('',#291,1.);
#291 = DIRECTION('',(0.,-1.,2.22044604925E-16));
#292 = ORIENTED_EDGE('',*,*,#293,.F.);
#293 = EDGE_CURVE('',#41,#286,#294,.T.);
#294 = LINE('',#295,#296);
#295 = CARTESIAN_POINT('',(1.,8.217132328032E-15,37.006674090581));
#296 = VECTOR('',#297,1.);
#297 = DIRECTION('',(0.,-2.22044604925E-16,-1.));
#298 = PLANE('',#299);
#299 = AXIS2_PLACEMENT_3D('',#300,#301,#302);
#300 = CARTESIAN_POINT('',(1.,8.217132328032E-15,37.006674090581));
#301 = DIRECTION('',(1.,0.,0.));
#302 = DIRECTION('',(0.,-2.22044604925E-16,-1.));
#303 = ADVANCED_FACE('',(#304),#382,.T.);
#304 = FACE_BOUND('',#305,.T.);
#305 = EDGE_LOOP('',(#306,#307,#308,#309,#317,#325,#334,#342,#351,#359,
    #367,#375));
#306 = ORIENTED_EDGE('',*,*,#80,.F.);
#307 = ORIENTED_EDGE('',*,*,#48,.T.);
#308 = ORIENTED_EDGE('',*,*,#293,.T.);
#309 = ORIENTED_EDGE('',*,*,#310,.F.);
#310 = EDGE_CURVE('',#311,#286,#313,.T.);
#311 = VERTEX_POINT('',#312);
#312 = CARTESIAN_POINT('',(-2.22044604925E-16,7.401486830834E-16,3.));
#313 = LINE('',#314,#315);
#314 = CARTESIAN_POINT('',(-6.661338147751E-16,8.881784197001E-16,3.));
#315 = VECTOR('',#316,1.);
#316 = DIRECTION('',(1.,0.,2.22044604925E-16));
#317 = ORIENTED_EDGE('',*,*,#318,.T.);
#318 = EDGE_CURVE('',#311,#319,#321,.T.);
#319 = VERTEX_POINT('',#320);
#320 = CARTESIAN_POINT('',(0.,8.217132328032E-15,37.006674090581));
#321 = LINE('',#322,#323);
#322 = CARTESIAN_POINT('',(0.,6.661338147751E-16,3.));
#323 = VECTOR('',#324,1.);
#324 = DIRECTION('',(0.,2.22044604925E-16,1.));
#325 = ORIENTED_EDGE('',*,*,#326,.F.);
#326 = EDGE_CURVE('',#327,#319,#329,.T.);
#327 = VERTEX_POINT('',#328);
#328 = CARTESIAN_POINT('',(3.2,8.881784197001E-15,40.));
#329 = CIRCLE('',#330,3.);
#330 = AXIS2_PLACEMENT_3D('',#331,#332,#333);
#331 = CARTESIAN_POINT('',(3.,8.217132328032E-15,37.006674090581));
#332 = DIRECTION('',(0.,-1.,2.22044604925E-16));
#333 = DIRECTION('',(1.,0.,0.));
#334 = ORIENTED_EDGE('',*,*,#335,.F.);
#335 = EDGE_CURVE('',#336,#327,#338,.T.);
#336 = VERTEX_POINT('',#337);
#337 = CARTESIAN_POINT('',(123.2,7.485360439493E-15,33.711066486035));
#338 = LINE('',#339,#340);
#339 = CARTESIAN_POINT('',(123.2,7.485360439493E-15,33.711066486035));
#340 = VECTOR('',#341,1.);
#341 = DIRECTION('',(-0.998629534755,1.162091672734E-17,
    5.233595624294E-02));
#342 = ORIENTED_EDGE('',*,*,#343,.F.);
#343 = EDGE_CURVE('',#344,#336,#346,.T.);
#344 = VERTEX_POINT('',#345);
#345 = CARTESIAN_POINT('',(126.,6.820708570524E-15,30.717740576616));
#346 = CIRCLE('',#347,3.);
#347 = AXIS2_PLACEMENT_3D('',#348,#349,#350);
#348 = CARTESIAN_POINT('',(123.,6.820708570524E-15,30.717740576616));
#349 = DIRECTION('',(0.,-1.,2.22044604925E-16));
#350 = DIRECTION('',(1.,0.,0.));
#351 = ORIENTED_EDGE('',*,*,#352,.T.);
#352 = EDGE_CURVE('',#344,#353,#355,.T.);
#353 = VERTEX_POINT('',#354);
#354 = CARTESIAN_POINT('',(126.,6.661338147751E-16,3.));
#355 = LINE('',#356,#357);
#356 = CARTESIAN_POINT('',(126.,6.820708570524E-15,30.717740576616));
#357 = VECTOR('',#358,1.);
#358 = DIRECTION('',(0.,-2.22044604925E-16,-1.));
#359 = ORIENTED_EDGE('',*,*,#360,.F.);
#360 = EDGE_CURVE('',#361,#353,#363,.T.);
#361 = VERTEX_POINT('',#362);
#362 = CARTESIAN_POINT('',(125.,6.661338147751E-16,3.));
#363 = LINE('',#364,#365);
#364 = CARTESIAN_POINT('',(-6.661338147751E-16,8.881784197001E-16,3.));
#365 = VECTOR('',#366,1.);
#366 = DIRECTION('',(1.,0.,2.22044604925E-16));
#367 = ORIENTED_EDGE('',*,*,#368,.T.);
#368 = EDGE_CURVE('',#361,#369,#371,.T.);
#369 = VERTEX_POINT('',#370);
#370 = CARTESIAN_POINT('',(125.,6.820708570524E-15,30.717740576616));
#371 = LINE('',#372,#373);
#372 = CARTESIAN_POINT('',(125.,6.661338147751E-16,3.));
#373 = VECTOR('',#374,1.);
#374 = DIRECTION('',(0.,2.22044604925E-16,1.));
#375 = ORIENTED_EDGE('',*,*,#376,.T.);
#376 = EDGE_CURVE('',#369,#73,#377,.T.);
#377 = CIRCLE('',#378,2.);
#378 = AXIS2_PLACEMENT_3D('',#379,#380,#381);
#379 = CARTESIAN_POINT('',(123.,6.820708570524E-15,30.717740576616));
#380 = DIRECTION('',(0.,-1.,2.22044604925E-16));
#381 = DIRECTION('',(1.,0.,0.));
#382 = PLANE('',#383);
#383 = AXIS2_PLACEMENT_3D('',#384,#385,#386);
#384 = CARTESIAN_POINT('',(61.170272695724,6.018768617044E-15,
    27.106124100947));
#385 = DIRECTION('',(0.,1.,0.));
#386 = DIRECTION('',(0.,0.,1.));
#387 = ADVANCED_FACE('',(#388),#466,.F.);
#388 = FACE_BOUND('',#389,.F.);
#389 = EDGE_LOOP('',(#390,#391,#392,#393,#401,#409,#418,#426,#435,#443,
    #451,#459));
#390 = ORIENTED_EDGE('',*,*,#64,.F.);
#391 = ORIENTED_EDGE('',*,*,#31,.T.);
#392 = ORIENTED_EDGE('',*,*,#261,.T.);
#393 = ORIENTED_EDGE('',*,*,#394,.F.);
#394 = EDGE_CURVE('',#395,#262,#397,.T.);
#395 = VERTEX_POINT('',#396);
#396 = CARTESIAN_POINT('',(0.,-135.,3.));
#397 = LINE('',#398,#399);
#398 = CARTESIAN_POINT('',(-6.661338147751E-16,-135.,3.));
#399 = VECTOR('',#400,1.);
#400 = DIRECTION('',(1.,0.,2.22044604925E-16));
#401 = ORIENTED_EDGE('',*,*,#402,.T.);
#402 = EDGE_CURVE('',#395,#403,#405,.T.);
#403 = VERTEX_POINT('',#404);
#404 = CARTESIAN_POINT('',(0.,-135.,37.006674090581));
#405 = LINE('',#406,#407);
#406 = CARTESIAN_POINT('',(0.,-135.,3.));
#407 = VECTOR('',#408,1.);
#408 = DIRECTION('',(0.,2.22044604925E-16,1.));
#409 = ORIENTED_EDGE('',*,*,#410,.F.);
#410 = EDGE_CURVE('',#411,#403,#413,.T.);
#411 = VERTEX_POINT('',#412);
#412 = CARTESIAN_POINT('',(3.2,-135.,40.));
#413 = CIRCLE('',#414,3.);
#414 = AXIS2_PLACEMENT_3D('',#415,#416,#417);
#415 = CARTESIAN_POINT('',(3.,-135.,37.006674090581));
#416 = DIRECTION('',(0.,-1.,2.22044604925E-16));
#417 = DIRECTION('',(1.,0.,0.));
#418 = ORIENTED_EDGE('',*,*,#419,.F.);
#419 = EDGE_CURVE('',#420,#411,#422,.T.);
#420 = VERTEX_POINT('',#421);
#421 = CARTESIAN_POINT('',(123.2,-135.,33.711066486035));
#422 = LINE('',#423,#424);
#423 = CARTESIAN_POINT('',(123.2,-135.,33.711066486035));
#424 = VECTOR('',#425,1.);
#425 = DIRECTION('',(-0.998629534755,1.162091672734E-17,
    5.233595624294E-02));
#426 = ORIENTED_EDGE('',*,*,#427,.F.);
#427 = EDGE_CURVE('',#428,#420,#430,.T.);
#428 = VERTEX_POINT('',#429);
#429 = CARTESIAN_POINT('',(126.,-135.,30.717740576616));
#430 = CIRCLE('',#431,3.);
#431 = AXIS2_PLACEMENT_3D('',#432,#433,#434);
#432 = CARTESIAN_POINT('',(123.,-135.,30.717740576616));
#433 = DIRECTION('',(0.,-1.,2.22044604925E-16));
#434 = DIRECTION('',(1.,0.,0.));
#435 = ORIENTED_EDGE('',*,*,#436,.T.);
#436 = EDGE_CURVE('',#428,#437,#439,.T.);
#437 = VERTEX_POINT('',#438);
#438 = CARTESIAN_POINT('',(126.,-135.,3.));
#439 = LINE('',#440,#441);
#440 = CARTESIAN_POINT('',(126.,-135.,30.717740576616));
#441 = VECTOR('',#442,1.);
#442 = DIRECTION('',(0.,-2.22044604925E-16,-1.));
#443 = ORIENTED_EDGE('',*,*,#444,.F.);
#444 = EDGE_CURVE('',#445,#437,#447,.T.);
#445 = VERTEX_POINT('',#446);
#446 = CARTESIAN_POINT('',(125.,-135.,3.));
#447 = LINE('',#448,#449);
#448 = CARTESIAN_POINT('',(-6.661338147751E-16,-135.,3.));
#449 = VECTOR('',#450,1.);
#450 = DIRECTION('',(1.,0.,2.22044604925E-16));
#451 = ORIENTED_EDGE('',*,*,#452,.T.);
#452 = EDGE_CURVE('',#445,#453,#455,.T.);
#453 = VERTEX_POINT('',#454);
#454 = CARTESIAN_POINT('',(125.,-135.,30.717740576616));
#455 = LINE('',#456,#457);
#456 = CARTESIAN_POINT('',(125.,-135.,3.));
#457 = VECTOR('',#458,1.);
#458 = DIRECTION('',(0.,2.22044604925E-16,1.));
#459 = ORIENTED_EDGE('',*,*,#460,.T.);
#460 = EDGE_CURVE('',#453,#65,#461,.T.);
#461 = CIRCLE('',#462,2.);
#462 = AXIS2_PLACEMENT_3D('',#463,#464,#465);
#463 = CARTESIAN_POINT('',(123.,-135.,30.717740576616));
#464 = DIRECTION('',(0.,-1.,2.22044604925E-16));
#465 = DIRECTION('',(1.,0.,0.));
#466 = PLANE('',#467);
#467 = AXIS2_PLACEMENT_3D('',#468,#469,#470);
#468 = CARTESIAN_POINT('',(61.170272695724,-135.,27.106124100947));
#469 = DIRECTION('',(0.,1.,0.));
#470 = DIRECTION('',(0.,0.,1.));
#471 = ADVANCED_FACE('',(#472),#483,.F.);
#472 = FACE_BOUND('',#473,.T.);
#473 = EDGE_LOOP('',(#474,#480,#481,#482));
#474 = ORIENTED_EDGE('',*,*,#475,.T.);
#475 = EDGE_CURVE('',#369,#453,#476,.T.);
#476 = LINE('',#477,#478);
#477 = CARTESIAN_POINT('',(125.,6.820708570524E-15,30.717740576616));
#478 = VECTOR('',#479,1.);
#479 = DIRECTION('',(0.,-1.,2.22044604925E-16));
#480 = ORIENTED_EDGE('',*,*,#460,.T.);
#481 = ORIENTED_EDGE('',*,*,#72,.F.);
#482 = ORIENTED_EDGE('',*,*,#376,.F.);
#483 = CYLINDRICAL_SURFACE('',#484,2.);
#484 = AXIS2_PLACEMENT_3D('',#485,#486,#487);
#485 = CARTESIAN_POINT('',(123.,6.820708570524E-15,30.717740576616));
#486 = DIRECTION('',(0.,1.,-2.22044604925E-16));
#487 = DIRECTION('',(1.,0.,0.));
#488 = ADVANCED_FACE('',(#489),#514,.F.);
#489 = FACE_BOUND('',#490,.F.);
#490 = EDGE_LOOP('',(#491,#501,#507,#508));
#491 = ORIENTED_EDGE('',*,*,#492,.F.);
#492 = EDGE_CURVE('',#493,#495,#497,.T.);
#493 = VERTEX_POINT('',#494);
#494 = CARTESIAN_POINT('',(19.67738732345,-100.,39.136456721991));
#495 = VERTEX_POINT('',#496);
#496 = CARTESIAN_POINT('',(19.67738732345,-127.,39.136456721991));
#497 = LINE('',#498,#499);
#498 = CARTESIAN_POINT('',(19.67738732345,-100.,39.136456721991));
#499 = VECTOR('',#500,1.);
#500 = DIRECTION('',(0.,-1.,2.465190328816E-32));
#501 = ORIENTED_EDGE('',*,*,#502,.T.);
#502 = EDGE_CURVE('',#493,#89,#503,.T.);
#503 = LINE('',#504,#505);
#504 = CARTESIAN_POINT('',(19.67738732345,-100.,39.136456721991));
#505 = VECTOR('',#506,1.);
#506 = DIRECTION('',(-5.233595624294E-02,0.,-0.998629534755));
#507 = ORIENTED_EDGE('',*,*,#88,.T.);
#508 = ORIENTED_EDGE('',*,*,#509,.F.);
#509 = EDGE_CURVE('',#495,#91,#510,.T.);
#510 = LINE('',#511,#512);
#511 = CARTESIAN_POINT('',(19.67738732345,-127.,39.136456721991));
#512 = VECTOR('',#513,1.);
#513 = DIRECTION('',(-5.233595624294E-02,0.,-0.998629534755));
#514 = PLANE('',#515);
#515 = AXIS2_PLACEMENT_3D('',#516,#517,#518);
#516 = CARTESIAN_POINT('',(19.67738732345,-100.,39.136456721991));
#517 = DIRECTION('',(-0.998629534755,0.,5.233595624294E-02));
#518 = DIRECTION('',(0.,-1.,0.));
#519 = ADVANCED_FACE('',(#520),#538,.F.);
#520 = FACE_BOUND('',#521,.F.);
#521 = EDGE_LOOP('',(#522,#530,#531,#532));
#522 = ORIENTED_EDGE('',*,*,#523,.F.);
#523 = EDGE_CURVE('',#495,#524,#526,.T.);
#524 = VERTEX_POINT('',#525);
#525 = CARTESIAN_POINT('',(34.656830344769,-127.,38.351417378347));
#526 = LINE('',#527,#528);
#527 = CARTESIAN_POINT('',(19.67738732345,-127.,39.136456721991));
#528 = VECTOR('',#529,1.);
#529 = DIRECTION('',(0.998629534755,6.938893903907E-18,
    -5.233595624294E-02));
#530 = ORIENTED_EDGE('',*,*,#509,.T.);
#531 = ORIENTED_EDGE('',*,*,#114,.T.);
#532 = ORIENTED_EDGE('',*,*,#533,.F.);
#533 = EDGE_CURVE('',#524,#107,#534,.T.);
#534 = LINE('',#535,#536);
#535 = CARTESIAN_POINT('',(34.656830344769,-127.,38.351417378347));
#536 = VECTOR('',#537,1.);
#537 = DIRECTION('',(-5.233595624294E-02,0.,-0.998629534755));
#538 = PLANE('',#539);
#539 = AXIS2_PLACEMENT_3D('',#540,#541,#542);
#540 = CARTESIAN_POINT('',(19.67738732345,-127.,39.136456721991));
#541 = DIRECTION('',(0.,-1.,0.));
#542 = DIRECTION('',(0.998629534755,0.,-5.233595624294E-02));
#543 = ADVANCED_FACE('',(#544),#562,.F.);
#544 = FACE_BOUND('',#545,.F.);
#545 = EDGE_LOOP('',(#546,#554,#555,#556));
#546 = ORIENTED_EDGE('',*,*,#547,.F.);
#547 = EDGE_CURVE('',#524,#548,#550,.T.);
#548 = VERTEX_POINT('',#549);
#549 = CARTESIAN_POINT('',(34.656830344769,-100.,38.351417378347));
#550 = LINE('',#551,#552);
#551 = CARTESIAN_POINT('',(34.656830344769,-127.,38.351417378347));
#552 = VECTOR('',#553,1.);
#553 = DIRECTION('',(0.,1.,-2.465190328816E-32));
#554 = ORIENTED_EDGE('',*,*,#533,.T.);
#555 = ORIENTED_EDGE('',*,*,#106,.T.);
#556 = ORIENTED_EDGE('',*,*,#557,.F.);
#557 = EDGE_CURVE('',#548,#99,#558,.T.);
#558 = LINE('',#559,#560);
#559 = CARTESIAN_POINT('',(34.656830344769,-100.,38.351417378347));
#560 = VECTOR('',#561,1.);
#561 = DIRECTION('',(-5.233595624294E-02,0.,-0.998629534755));
#562 = PLANE('',#563);
#563 = AXIS2_PLACEMENT_3D('',#564,#565,#566);
#564 = CARTESIAN_POINT('',(34.656830344769,-127.,38.351417378347));
#565 = DIRECTION('',(0.998629534755,0.,-5.233595624294E-02));
#566 = DIRECTION('',(0.,1.,0.));
#567 = ADVANCED_FACE('',(#568),#579,.F.);
#568 = FACE_BOUND('',#569,.F.);
#569 = EDGE_LOOP('',(#570,#576,#577,#578));
#570 = ORIENTED_EDGE('',*,*,#571,.F.);
#571 = EDGE_CURVE('',#548,#493,#572,.T.);
#572 = LINE('',#573,#574);
#573 = CARTESIAN_POINT('',(34.656830344769,-100.,38.351417378347));
#574 = VECTOR('',#575,1.);
#575 = DIRECTION('',(-0.998629534755,-6.938893903907E-18,
    5.233595624294E-02));
#576 = ORIENTED_EDGE('',*,*,#557,.T.);
#577 = ORIENTED_EDGE('',*,*,#98,.T.);
#578 = ORIENTED_EDGE('',*,*,#502,.F.);
#579 = PLANE('',#580);
#580 = AXIS2_PLACEMENT_3D('',#581,#582,#583);
#581 = CARTESIAN_POINT('',(34.656830344769,-100.,38.351417378347));
#582 = DIRECTION('',(0.,1.,0.));
#583 = DIRECTION('',(-0.998629534755,0.,5.233595624294E-02));
#584 = ADVANCED_FACE('',(#585),#604,.F.);
#585 = FACE_BOUND('',#586,.F.);
#586 = EDGE_LOOP('',(#587,#596,#602,#603));
#587 = ORIENTED_EDGE('',*,*,#588,.F.);
#588 = EDGE_CURVE('',#589,#589,#591,.T.);
#589 = VERTEX_POINT('',#590);
#590 = CARTESIAN_POINT('',(16.182183951809,-83.5,39.319632568842));
#591 = CIRCLE('',#592,4.);
#592 = AXIS2_PLACEMENT_3D('',#593,#594,#595);
#593 = CARTESIAN_POINT('',(20.176702090828,-83.5,39.11028874387));
#594 = DIRECTION('',(5.233595624294E-02,2.461811871147E-32,
    0.998629534755));
#595 = DIRECTION('',(-0.998629534755,-6.938893903907E-18,
    5.233595624294E-02));
#596 = ORIENTED_EDGE('',*,*,#597,.T.);
#597 = EDGE_CURVE('',#589,#123,#598,.T.);
#598 = LINE('',#599,#600);
#599 = CARTESIAN_POINT('',(16.182183951809,-83.5,39.319632568842));
#600 = VECTOR('',#601,1.);
#601 = DIRECTION('',(-5.233595624294E-02,0.,-0.998629534755));
#602 = ORIENTED_EDGE('',*,*,#122,.T.);
#603 = ORIENTED_EDGE('',*,*,#597,.F.);
#604 = CYLINDRICAL_SURFACE('',#605,4.);
#605 = AXIS2_PLACEMENT_3D('',#606,#607,#608);
#606 = CARTESIAN_POINT('',(20.176702090828,-83.5,39.11028874387));
#607 = DIRECTION('',(5.233595624294E-02,0.,0.998629534755));
#608 = DIRECTION('',(-0.998629534755,0.,5.233595624294E-02));
#609 = ADVANCED_FACE('',(#610),#629,.F.);
#610 = FACE_BOUND('',#611,.F.);
#611 = EDGE_LOOP('',(#612,#621,#627,#628));
#612 = ORIENTED_EDGE('',*,*,#613,.F.);
#613 = EDGE_CURVE('',#614,#614,#616,.T.);
#614 = VERTEX_POINT('',#615);
#615 = CARTESIAN_POINT('',(31.161626973128,-89.,38.534593225198));
#616 = CIRCLE('',#617,3.5);
#617 = AXIS2_PLACEMENT_3D('',#618,#619,#620);
#618 = CARTESIAN_POINT('',(34.656830344769,-89.,38.351417378347));
#619 = DIRECTION('',(5.233595624294E-02,2.461811871147E-32,
    0.998629534755));
#620 = DIRECTION('',(-0.998629534755,-6.938893903907E-18,
    5.233595624294E-02));
#621 = ORIENTED_EDGE('',*,*,#622,.T.);
#622 = EDGE_CURVE('',#614,#134,#623,.T.);
#623 = LINE('',#624,#625);
#624 = CARTESIAN_POINT('',(31.161626973128,-89.,38.534593225198));
#625 = VECTOR('',#626,1.);
#626 = DIRECTION('',(-5.233595624294E-02,0.,-0.998629534755));
#627 = ORIENTED_EDGE('',*,*,#133,.T.);
#628 = ORIENTED_EDGE('',*,*,#622,.F.);
#629 = CYLINDRICAL_SURFACE('',#630,3.5);
#630 = AXIS2_PLACEMENT_3D('',#631,#632,#633);
#631 = CARTESIAN_POINT('',(34.656830344769,-89.,38.351417378347));
#632 = DIRECTION('',(5.233595624294E-02,0.,0.998629534755));
#633 = DIRECTION('',(-0.998629534755,0.,5.233595624294E-02));
#634 = ADVANCED_FACE('',(#635),#654,.F.);
#635 = FACE_BOUND('',#636,.F.);
#636 = EDGE_LOOP('',(#637,#646,#652,#653));
#637 = ORIENTED_EDGE('',*,*,#638,.F.);
#638 = EDGE_CURVE('',#639,#639,#641,.T.);
#639 = VERTEX_POINT('',#640);
#640 = CARTESIAN_POINT('',(31.161626973128,-78.,38.534593225198));
#641 = CIRCLE('',#642,3.5);
#642 = AXIS2_PLACEMENT_3D('',#643,#644,#645);
#643 = CARTESIAN_POINT('',(34.656830344769,-78.,38.351417378347));
#644 = DIRECTION('',(5.233595624294E-02,2.461811871147E-32,
    0.998629534755));
#645 = DIRECTION('',(-0.998629534755,-6.938893903907E-18,
    5.233595624294E-02));
#646 = ORIENTED_EDGE('',*,*,#647,.T.);
#647 = EDGE_CURVE('',#639,#145,#648,.T.);
#648 = LINE('',#649,#650);
#649 = CARTESIAN_POINT('',(31.161626973128,-78.,38.534593225198));
#650 = VECTOR('',#651,1.);
#651 = DIRECTION('',(-5.233595624294E-02,0.,-0.998629534755));
#652 = ORIENTED_EDGE('',*,*,#144,.T.);
#653 = ORIENTED_EDGE('',*,*,#647,.F.);
#654 = CYLINDRICAL_SURFACE('',#655,3.5);
#655 = AXIS2_PLACEMENT_3D('',#656,#657,#658);
#656 = CARTESIAN_POINT('',(34.656830344769,-78.,38.351417378347));
#657 = DIRECTION('',(5.233595624294E-02,0.,0.998629534755));
#658 = DIRECTION('',(-0.998629534755,0.,5.233595624294E-02));
#659 = ADVANCED_FACE('',(#660),#679,.F.);
#660 = FACE_BOUND('',#661,.F.);
#661 = EDGE_LOOP('',(#662,#671,#677,#678));
#662 = ORIENTED_EDGE('',*,*,#663,.F.);
#663 = EDGE_CURVE('',#664,#664,#666,.T.);
#664 = VERTEX_POINT('',#665);
#665 = CARTESIAN_POINT('',(108.22055697868,-122.,34.496105829679));
#666 = CIRCLE('',#667,4.);
#667 = AXIS2_PLACEMENT_3D('',#668,#669,#670);
#668 = CARTESIAN_POINT('',(112.2150751177,-122.,34.286762004707));
#669 = DIRECTION('',(5.233595624294E-02,2.461811871147E-32,
    0.998629534755));
#670 = DIRECTION('',(-0.998629534755,-6.938893903907E-18,
    5.233595624294E-02));
#671 = ORIENTED_EDGE('',*,*,#672,.T.);
#672 = EDGE_CURVE('',#664,#156,#673,.T.);
#673 = LINE('',#674,#675);
#674 = CARTESIAN_POINT('',(108.22055697868,-122.,34.496105829679));
#675 = VECTOR('',#676,1.);
#676 = DIRECTION('',(-5.233595624294E-02,0.,-0.998629534755));
#677 = ORIENTED_EDGE('',*,*,#155,.T.);
#678 = ORIENTED_EDGE('',*,*,#672,.F.);
#679 = CYLINDRICAL_SURFACE('',#680,4.);
#680 = AXIS2_PLACEMENT_3D('',#681,#682,#683);
#681 = CARTESIAN_POINT('',(112.2150751177,-122.,34.286762004707));
#682 = DIRECTION('',(5.233595624294E-02,0.,0.998629534755));
#683 = DIRECTION('',(-0.998629534755,0.,5.233595624294E-02));
#684 = ADVANCED_FACE('',(#685),#704,.F.);
#685 = FACE_BOUND('',#686,.F.);
#686 = EDGE_LOOP('',(#687,#696,#702,#703));
#687 = ORIENTED_EDGE('',*,*,#688,.F.);
#688 = EDGE_CURVE('',#689,#689,#691,.T.);
#689 = VERTEX_POINT('',#690);
#690 = CARTESIAN_POINT('',(106.22329790917,-100.,34.600777742165));
#691 = CIRCLE('',#692,6.);
#692 = AXIS2_PLACEMENT_3D('',#693,#694,#695);
#693 = CARTESIAN_POINT('',(112.2150751177,-100.,34.286762004707));
#694 = DIRECTION('',(5.233595624294E-02,2.461811871147E-32,
    0.998629534755));
#695 = DIRECTION('',(-0.998629534755,-6.938893903907E-18,
    5.233595624294E-02));
#696 = ORIENTED_EDGE('',*,*,#697,.T.);
#697 = EDGE_CURVE('',#689,#167,#698,.T.);
#698 = LINE('',#699,#700);
#699 = CARTESIAN_POINT('',(106.22329790917,-100.,34.600777742165));
#700 = VECTOR('',#701,1.);
#701 = DIRECTION('',(-5.233595624294E-02,0.,-0.998629534755));
#702 = ORIENTED_EDGE('',*,*,#166,.T.);
#703 = ORIENTED_EDGE('',*,*,#697,.F.);
#704 = CYLINDRICAL_SURFACE('',#705,6.);
#705 = AXIS2_PLACEMENT_3D('',#706,#707,#708);
#706 = CARTESIAN_POINT('',(112.2150751177,-100.,34.286762004707));
#707 = DIRECTION('',(5.233595624294E-02,0.,0.998629534755));
#708 = DIRECTION('',(-0.998629534755,0.,5.233595624294E-02));
#709 = ADVANCED_FACE('',(#710),#729,.F.);
#710 = FACE_BOUND('',#711,.F.);
#711 = EDGE_LOOP('',(#712,#721,#727,#728));
#712 = ORIENTED_EDGE('',*,*,#713,.F.);
#713 = EDGE_CURVE('',#714,#714,#716,.T.);
#714 = VERTEX_POINT('',#715);
#715 = CARTESIAN_POINT('',(10.190406743282,-58.,39.633648306299));
#716 = CIRCLE('',#717,4.);
#717 = AXIS2_PLACEMENT_3D('',#718,#719,#720);
#718 = CARTESIAN_POINT('',(14.1849248823,-58.,39.424304481328));
#719 = DIRECTION('',(5.233595624294E-02,2.461811871147E-32,
    0.998629534755));
#720 = DIRECTION('',(-0.998629534755,-6.938893903907E-18,
    5.233595624294E-02));
#721 = ORIENTED_EDGE('',*,*,#722,.T.);
#722 = EDGE_CURVE('',#714,#178,#723,.T.);
#723 = LINE('',#724,#725);
#724 = CARTESIAN_POINT('',(10.190406743282,-58.,39.633648306299));
#725 = VECTOR('',#726,1.);
#726 = DIRECTION('',(-5.233595624294E-02,0.,-0.998629534755));
#727 = ORIENTED_EDGE('',*,*,#177,.T.);
#728 = ORIENTED_EDGE('',*,*,#722,.F.);
#729 = CYLINDRICAL_SURFACE('',#730,4.);
#730 = AXIS2_PLACEMENT_3D('',#731,#732,#733);
#731 = CARTESIAN_POINT('',(14.1849248823,-58.,39.424304481328));
#732 = DIRECTION('',(5.233595624294E-02,0.,0.998629534755));
#733 = DIRECTION('',(-0.998629534755,0.,5.233595624294E-02));
#734 = ADVANCED_FACE('',(#735),#754,.F.);
#735 = FACE_BOUND('',#736,.F.);
#736 = EDGE_LOOP('',(#737,#746,#752,#753));
#737 = ORIENTED_EDGE('',*,*,#738,.F.);
#738 = EDGE_CURVE('',#739,#739,#741,.T.);
#739 = VERTEX_POINT('',#740);
#740 = CARTESIAN_POINT('',(36.154774646901,-58.,38.272913443983));
#741 = CIRCLE('',#742,4.);
#742 = AXIS2_PLACEMENT_3D('',#743,#744,#745);
#743 = CARTESIAN_POINT('',(40.149292785919,-58.,38.063569619011));
#744 = DIRECTION('',(5.233595624294E-02,2.461811871147E-32,
    0.998629534755));
#745 = DIRECTION('',(-0.998629534755,-6.938893903907E-18,
    5.233595624294E-02));
#746 = ORIENTED_EDGE('',*,*,#747,.T.);
#747 = EDGE_CURVE('',#739,#189,#748,.T.);
#748 = LINE('',#749,#750);
#749 = CARTESIAN_POINT('',(36.154774646901,-58.,38.272913443983));
#750 = VECTOR('',#751,1.);
#751 = DIRECTION('',(-5.233595624294E-02,0.,-0.998629534755));
#752 = ORIENTED_EDGE('',*,*,#188,.T.);
#753 = ORIENTED_EDGE('',*,*,#747,.F.);
#754 = CYLINDRICAL_SURFACE('',#755,4.);
#755 = AXIS2_PLACEMENT_3D('',#756,#757,#758);
#756 = CARTESIAN_POINT('',(40.149292785919,-58.,38.063569619011));
#757 = DIRECTION('',(5.233595624294E-02,0.,0.998629534755));
#758 = DIRECTION('',(-0.998629534755,0.,5.233595624294E-02));
#759 = ADVANCED_FACE('',(#760),#779,.F.);
#760 = FACE_BOUND('',#761,.F.);
#761 = EDGE_LOOP('',(#762,#771,#777,#778));
#762 = ORIENTED_EDGE('',*,*,#763,.F.);
#763 = EDGE_CURVE('',#764,#764,#766,.T.);
#764 = VERTEX_POINT('',#765);
#765 = CARTESIAN_POINT('',(10.190406743282,-36.,39.633648306299));
#766 = CIRCLE('',#767,4.);
#767 = AXIS2_PLACEMENT_3D('',#768,#769,#770);
#768 = CARTESIAN_POINT('',(14.1849248823,-36.,39.424304481328));
#769 = DIRECTION('',(5.233595624294E-02,2.461811871147E-32,
    0.998629534755));
#770 = DIRECTION('',(-0.998629534755,-6.938893903907E-18,
    5.233595624294E-02));
#771 = ORIENTED_EDGE('',*,*,#772,.T.);
#772 = EDGE_CURVE('',#764,#200,#773,.T.);
#773 = LINE('',#774,#775);
#774 = CARTESIAN_POINT('',(10.190406743282,-36.,39.633648306299));
#775 = VECTOR('',#776,1.);
#776 = DIRECTION('',(-5.233595624294E-02,0.,-0.998629534755));
#777 = ORIENTED_EDGE('',*,*,#199,.T.);
#778 = ORIENTED_EDGE('',*,*,#772,.F.);
#779 = CYLINDRICAL_SURFACE('',#780,4.);
#780 = AXIS2_PLACEMENT_3D('',#781,#782,#783);
#781 = CARTESIAN_POINT('',(14.1849248823,-36.,39.424304481328));
#782 = DIRECTION('',(5.233595624294E-02,0.,0.998629534755));
#783 = DIRECTION('',(-0.998629534755,0.,5.233595624294E-02));
#784 = ADVANCED_FACE('',(#785),#804,.F.);
#785 = FACE_BOUND('',#786,.F.);
#786 = EDGE_LOOP('',(#787,#796,#802,#803));
#787 = ORIENTED_EDGE('',*,*,#788,.F.);
#788 = EDGE_CURVE('',#789,#789,#791,.T.);
#789 = VERTEX_POINT('',#790);
#790 = CARTESIAN_POINT('',(23.172590695091,-14.,38.953280875141));
#791 = CIRCLE('',#792,4.);
#792 = AXIS2_PLACEMENT_3D('',#793,#794,#795);
#793 = CARTESIAN_POINT('',(27.16710883411,-14.,38.743937050169));
#794 = DIRECTION('',(5.233595624294E-02,2.461811871147E-32,
    0.998629534755));
#795 = DIRECTION('',(-0.998629534755,-6.938893903907E-18,
    5.233595624294E-02));
#796 = ORIENTED_EDGE('',*,*,#797,.T.);
#797 = EDGE_CURVE('',#789,#211,#798,.T.);
#798 = LINE('',#799,#800);
#799 = CARTESIAN_POINT('',(23.172590695091,-14.,38.953280875141));
#800 = VECTOR('',#801,1.);
#801 = DIRECTION('',(-5.233595624294E-02,0.,-0.998629534755));
#802 = ORIENTED_EDGE('',*,*,#210,.T.);
#803 = ORIENTED_EDGE('',*,*,#797,.F.);
#804 = CYLINDRICAL_SURFACE('',#805,4.);
#805 = AXIS2_PLACEMENT_3D('',#806,#807,#808);
#806 = CARTESIAN_POINT('',(27.16710883411,-14.,38.743937050169));
#807 = DIRECTION('',(5.233595624294E-02,0.,0.998629534755));
#808 = DIRECTION('',(-0.998629534755,0.,5.233595624294E-02));
#809 = ADVANCED_FACE('',(#810),#829,.F.);
#810 = FACE_BOUND('',#811,.F.);
#811 = EDGE_LOOP('',(#812,#821,#827,#828));
#812 = ORIENTED_EDGE('',*,*,#813,.F.);
#813 = EDGE_CURVE('',#814,#814,#816,.T.);
#814 = VERTEX_POINT('',#815);
#815 = CARTESIAN_POINT('',(36.154774646901,-36.,38.272913443983));
#816 = CIRCLE('',#817,4.);
#817 = AXIS2_PLACEMENT_3D('',#818,#819,#820);
#818 = CARTESIAN_POINT('',(40.149292785919,-36.,38.063569619011));
#819 = DIRECTION('',(5.233595624294E-02,2.461811871147E-32,
    0.998629534755));
#820 = DIRECTION('',(-0.998629534755,-6.938893903907E-18,
    5.233595624294E-02));
#821 = ORIENTED_EDGE('',*,*,#822,.T.);
#822 = EDGE_CURVE('',#814,#222,#823,.T.);
#823 = LINE('',#824,#825);
#824 = CARTESIAN_POINT('',(36.154774646901,-36.,38.272913443983));
#825 = VECTOR('',#826,1.);
#826 = DIRECTION('',(-5.233595624294E-02,0.,-0.998629534755));
#827 = ORIENTED_EDGE('',*,*,#221,.T.);
#828 = ORIENTED_EDGE('',*,*,#822,.F.);
#829 = CYLINDRICAL_SURFACE('',#830,4.);
#830 = AXIS2_PLACEMENT_3D('',#831,#832,#833);
#831 = CARTESIAN_POINT('',(40.149292785919,-36.,38.063569619011));
#832 = DIRECTION('',(5.233595624294E-02,0.,0.998629534755));
#833 = DIRECTION('',(-0.998629534755,0.,5.233595624294E-02));
#834 = ADVANCED_FACE('',(#835),#854,.F.);
#835 = FACE_BOUND('',#836,.F.);
#836 = EDGE_LOOP('',(#837,#846,#852,#853));
#837 = ORIENTED_EDGE('',*,*,#838,.F.);
#838 = EDGE_CURVE('',#839,#839,#841,.T.);
#839 = VERTEX_POINT('',#840);
#840 = CARTESIAN_POINT('',(106.22329790917,-36.,34.600777742165));
#841 = CIRCLE('',#842,6.);
#842 = AXIS2_PLACEMENT_3D('',#843,#844,#845);
#843 = CARTESIAN_POINT('',(112.2150751177,-36.,34.286762004707));
#844 = DIRECTION('',(5.233595624294E-02,2.461811871147E-32,
    0.998629534755));
#845 = DIRECTION('',(-0.998629534755,-6.938893903907E-18,
    5.233595624294E-02));
#846 = ORIENTED_EDGE('',*,*,#847,.T.);
#847 = EDGE_CURVE('',#839,#233,#848,.T.);
#848 = LINE('',#849,#850);
#849 = CARTESIAN_POINT('',(106.22329790917,-36.,34.600777742165));
#850 = VECTOR('',#851,1.);
#851 = DIRECTION('',(-5.233595624294E-02,0.,-0.998629534755));
#852 = ORIENTED_EDGE('',*,*,#232,.T.);
#853 = ORIENTED_EDGE('',*,*,#847,.F.);
#854 = CYLINDRICAL_SURFACE('',#855,6.);
#855 = AXIS2_PLACEMENT_3D('',#856,#857,#858);
#856 = CARTESIAN_POINT('',(112.2150751177,-36.,34.286762004707));
#857 = DIRECTION('',(5.233595624294E-02,0.,0.998629534755));
#858 = DIRECTION('',(-0.998629534755,0.,5.233595624294E-02));
#859 = ADVANCED_FACE('',(#860),#879,.F.);
#860 = FACE_BOUND('',#861,.F.);
#861 = EDGE_LOOP('',(#862,#871,#877,#878));
#862 = ORIENTED_EDGE('',*,*,#863,.F.);
#863 = EDGE_CURVE('',#864,#864,#866,.T.);
#864 = VERTEX_POINT('',#865);
#865 = CARTESIAN_POINT('',(108.22055697868,-14.,34.496105829679));
#866 = CIRCLE('',#867,4.);
#867 = AXIS2_PLACEMENT_3D('',#868,#869,#870);
#868 = CARTESIAN_POINT('',(112.2150751177,-14.,34.286762004707));
#869 = DIRECTION('',(5.233595624294E-02,2.461811871147E-32,
    0.998629534755));
#870 = DIRECTION('',(-0.998629534755,-6.938893903907E-18,
    5.233595624294E-02));
#871 = ORIENTED_EDGE('',*,*,#872,.T.);
#872 = EDGE_CURVE('',#864,#244,#873,.T.);
#873 = LINE('',#874,#875);
#874 = CARTESIAN_POINT('',(108.22055697868,-14.,34.496105829679));
#875 = VECTOR('',#876,1.);
#876 = DIRECTION('',(-5.233595624294E-02,0.,-0.998629534755));
#877 = ORIENTED_EDGE('',*,*,#243,.T.);
#878 = ORIENTED_EDGE('',*,*,#872,.F.);
#879 = CYLINDRICAL_SURFACE('',#880,4.);
#880 = AXIS2_PLACEMENT_3D('',#881,#882,#883);
#881 = CARTESIAN_POINT('',(112.2150751177,-14.,34.286762004707));
#882 = DIRECTION('',(5.233595624294E-02,0.,0.998629534755));
#883 = DIRECTION('',(-0.998629534755,0.,5.233595624294E-02));
#884 = ADVANCED_FACE('',(#885),#903,.F.);
#885 = FACE_BOUND('',#886,.F.);
#886 = EDGE_LOOP('',(#887,#895,#901,#902));
#887 = ORIENTED_EDGE('',*,*,#888,.T.);
#888 = EDGE_CURVE('',#311,#889,#891,.T.);
#889 = VERTEX_POINT('',#890);
#890 = CARTESIAN_POINT('',(-6.661338147751E-16,-3.,3.));
#891 = LINE('',#892,#893);
#892 = CARTESIAN_POINT('',(0.,6.661338147751E-16,3.));
#893 = VECTOR('',#894,1.);
#894 = DIRECTION('',(0.,-1.,2.22044604925E-16));
#895 = ORIENTED_EDGE('',*,*,#896,.T.);
#896 = EDGE_CURVE('',#889,#278,#897,.T.);
#897 = LINE('',#898,#899);
#898 = CARTESIAN_POINT('',(-6.661338147751E-16,-3.,3.));
#899 = VECTOR('',#900,1.);
#900 = DIRECTION('',(1.,0.,2.22044604925E-16));
#901 = ORIENTED_EDGE('',*,*,#285,.F.);
#902 = ORIENTED_EDGE('',*,*,#310,.F.);
#903 = PLANE('',#904);
#904 = AXIS2_PLACEMENT_3D('',#905,#906,#907);
#905 = CARTESIAN_POINT('',(-6.661338147751E-16,-3.,3.));
#906 = DIRECTION('',(-2.22044604925E-16,0.,1.));
#907 = DIRECTION('',(0.,1.,0.));
#908 = ADVANCED_FACE('',(#909),#936,.F.);
#909 = FACE_BOUND('',#910,.T.);
#910 = EDGE_LOOP('',(#911,#920,#921,#930));
#911 = ORIENTED_EDGE('',*,*,#912,.T.);
#912 = EDGE_CURVE('',#913,#278,#915,.T.);
#913 = VERTEX_POINT('',#914);
#914 = CARTESIAN_POINT('',(3.,-3.,1.));
#915 = CIRCLE('',#916,2.);
#916 = AXIS2_PLACEMENT_3D('',#917,#918,#919);
#917 = CARTESIAN_POINT('',(3.,-3.,3.));
#918 = DIRECTION('',(0.,1.,-2.22044604925E-16));
#919 = DIRECTION('',(1.,0.,0.));
#920 = ORIENTED_EDGE('',*,*,#277,.T.);
#921 = ORIENTED_EDGE('',*,*,#922,.F.);
#922 = EDGE_CURVE('',#923,#270,#925,.T.);
#923 = VERTEX_POINT('',#924);
#924 = CARTESIAN_POINT('',(3.,-132.,1.));
#925 = CIRCLE('',#926,2.);
#926 = AXIS2_PLACEMENT_3D('',#927,#928,#929);
#927 = CARTESIAN_POINT('',(3.,-132.,3.));
#928 = DIRECTION('',(0.,1.,-2.22044604925E-16));
#929 = DIRECTION('',(1.,0.,0.));
#930 = ORIENTED_EDGE('',*,*,#931,.F.);
#931 = EDGE_CURVE('',#913,#923,#932,.T.);
#932 = LINE('',#933,#934);
#933 = CARTESIAN_POINT('',(3.,2.22044604925E-16,1.));
#934 = VECTOR('',#935,1.);
#935 = DIRECTION('',(0.,-1.,2.22044604925E-16));
#936 = CYLINDRICAL_SURFACE('',#937,2.);
#937 = AXIS2_PLACEMENT_3D('',#938,#939,#940);
#938 = CARTESIAN_POINT('',(3.,6.661338147751E-16,3.));
#939 = DIRECTION('',(0.,1.,-2.22044604925E-16));
#940 = DIRECTION('',(1.,0.,0.));
#941 = ADVANCED_FACE('',(#942),#960,.T.);
#942 = FACE_BOUND('',#943,.T.);
#943 = EDGE_LOOP('',(#944,#952,#958,#959));
#944 = ORIENTED_EDGE('',*,*,#945,.F.);
#945 = EDGE_CURVE('',#946,#395,#948,.T.);
#946 = VERTEX_POINT('',#947);
#947 = CARTESIAN_POINT('',(-6.661338147751E-16,-132.,3.));
#948 = LINE('',#949,#950);
#949 = CARTESIAN_POINT('',(0.,6.661338147751E-16,3.));
#950 = VECTOR('',#951,1.);
#951 = DIRECTION('',(0.,-1.,2.22044604925E-16));
#952 = ORIENTED_EDGE('',*,*,#953,.T.);
#953 = EDGE_CURVE('',#946,#270,#954,.T.);
#954 = LINE('',#955,#956);
#955 = CARTESIAN_POINT('',(-6.661338147751E-16,-132.,3.));
#956 = VECTOR('',#957,1.);
#957 = DIRECTION('',(1.,0.,2.22044604925E-16));
#958 = ORIENTED_EDGE('',*,*,#269,.T.);
#959 = ORIENTED_EDGE('',*,*,#394,.F.);
#960 = PLANE('',#961);
#961 = AXIS2_PLACEMENT_3D('',#962,#963,#964);
#962 = CARTESIAN_POINT('',(-6.661338147751E-16,-132.,3.));
#963 = DIRECTION('',(2.22044604925E-16,0.,-1.));
#964 = DIRECTION('',(0.,-1.,0.));
#965 = ADVANCED_FACE('',(#966),#993,.T.);
#966 = FACE_BOUND('',#967,.T.);
#967 = EDGE_LOOP('',(#968,#976,#984,#990,#991,#992));
#968 = ORIENTED_EDGE('',*,*,#969,.T.);
#969 = EDGE_CURVE('',#361,#970,#972,.T.);
#970 = VERTEX_POINT('',#971);
#971 = CARTESIAN_POINT('',(125.,-3.,3.));
#972 = LINE('',#973,#974);
#973 = CARTESIAN_POINT('',(125.,6.661338147751E-16,3.));
#974 = VECTOR('',#975,1.);
#975 = DIRECTION('',(0.,-1.,2.22044604925E-16));
#976 = ORIENTED_EDGE('',*,*,#977,.T.);
#977 = EDGE_CURVE('',#970,#978,#980,.T.);
#978 = VERTEX_POINT('',#979);
#979 = CARTESIAN_POINT('',(125.,-132.,3.));
#980 = LINE('',#981,#982);
#981 = CARTESIAN_POINT('',(125.,6.661338147751E-16,3.));
#982 = VECTOR('',#983,1.);
#983 = DIRECTION('',(0.,-1.,2.22044604925E-16));
#984 = ORIENTED_EDGE('',*,*,#985,.T.);
#985 = EDGE_CURVE('',#978,#445,#986,.T.);
#986 = LINE('',#987,#988);
#987 = CARTESIAN_POINT('',(125.,6.661338147751E-16,3.));
#988 = VECTOR('',#989,1.);
#989 = DIRECTION('',(0.,-1.,2.22044604925E-16));
#990 = ORIENTED_EDGE('',*,*,#452,.T.);
#991 = ORIENTED_EDGE('',*,*,#475,.F.);
#992 = ORIENTED_EDGE('',*,*,#368,.F.);
#993 = PLANE('',#994);
#994 = AXIS2_PLACEMENT_3D('',#995,#996,#997);
#995 = CARTESIAN_POINT('',(125.,6.661338147751E-16,3.));
#996 = DIRECTION('',(-1.,0.,0.));
#997 = DIRECTION('',(0.,2.22044604925E-16,1.));
#998 = ADVANCED_FACE('',(#999),#1017,.F.);
#999 = FACE_BOUND('',#1000,.F.);
#1000 = EDGE_LOOP('',(#1001,#1002,#1010,#1016));
#1001 = ORIENTED_EDGE('',*,*,#969,.T.);
#1002 = ORIENTED_EDGE('',*,*,#1003,.T.);
#1003 = EDGE_CURVE('',#970,#1004,#1006,.T.);
#1004 = VERTEX_POINT('',#1005);
#1005 = CARTESIAN_POINT('',(126.,-3.,3.));
#1006 = LINE('',#1007,#1008);
#1007 = CARTESIAN_POINT('',(-6.661338147751E-16,-3.,3.));
#1008 = VECTOR('',#1009,1.);
#1009 = DIRECTION('',(1.,0.,2.22044604925E-16));
#1010 = ORIENTED_EDGE('',*,*,#1011,.F.);
#1011 = EDGE_CURVE('',#353,#1004,#1012,.T.);
#1012 = LINE('',#1013,#1014);
#1013 = CARTESIAN_POINT('',(126.,6.661338147751E-16,3.));
#1014 = VECTOR('',#1015,1.);
#1015 = DIRECTION('',(0.,-1.,2.22044604925E-16));
#1016 = ORIENTED_EDGE('',*,*,#360,.F.);
#1017 = PLANE('',#1018);
#1018 = AXIS2_PLACEMENT_3D('',#1019,#1020,#1021);
#1019 = CARTESIAN_POINT('',(-6.661338147751E-16,-3.,3.));
#1020 = DIRECTION('',(-2.22044604925E-16,0.,1.));
#1021 = DIRECTION('',(0.,1.,0.));
#1022 = ADVANCED_FACE('',(#1023),#1048,.T.);
#1023 = FACE_BOUND('',#1024,.T.);
#1024 = EDGE_LOOP('',(#1025,#1031,#1032,#1040,#1046,#1047));
#1025 = ORIENTED_EDGE('',*,*,#1026,.T.);
#1026 = EDGE_CURVE('',#344,#428,#1027,.T.);
#1027 = LINE('',#1028,#1029);
#1028 = CARTESIAN_POINT('',(126.,6.820708570524E-15,30.717740576616));
#1029 = VECTOR('',#1030,1.);
#1030 = DIRECTION('',(0.,-1.,2.22044604925E-16));
#1031 = ORIENTED_EDGE('',*,*,#436,.T.);
#1032 = ORIENTED_EDGE('',*,*,#1033,.F.);
#1033 = EDGE_CURVE('',#1034,#437,#1036,.T.);
#1034 = VERTEX_POINT('',#1035);
#1035 = CARTESIAN_POINT('',(126.,-132.,3.));
#1036 = LINE('',#1037,#1038);
#1037 = CARTESIAN_POINT('',(126.,6.661338147751E-16,3.));
#1038 = VECTOR('',#1039,1.);
#1039 = DIRECTION('',(0.,-1.,2.22044604925E-16));
#1040 = ORIENTED_EDGE('',*,*,#1041,.F.);
#1041 = EDGE_CURVE('',#1004,#1034,#1042,.T.);
#1042 = LINE('',#1043,#1044);
#1043 = CARTESIAN_POINT('',(126.,6.661338147751E-16,3.));
#1044 = VECTOR('',#1045,1.);
#1045 = DIRECTION('',(0.,-1.,2.22044604925E-16));
#1046 = ORIENTED_EDGE('',*,*,#1011,.F.);
#1047 = ORIENTED_EDGE('',*,*,#352,.F.);
#1048 = PLANE('',#1049);
#1049 = AXIS2_PLACEMENT_3D('',#1050,#1051,#1052);
#1050 = CARTESIAN_POINT('',(126.,6.820708570524E-15,30.717740576616));
#1051 = DIRECTION('',(1.,0.,0.));
#1052 = DIRECTION('',(0.,-2.22044604925E-16,-1.));
#1053 = ADVANCED_FACE('',(#1054),#1065,.T.);
#1054 = FACE_BOUND('',#1055,.F.);
#1055 = EDGE_LOOP('',(#1056,#1057,#1058,#1064));
#1056 = ORIENTED_EDGE('',*,*,#1026,.T.);
#1057 = ORIENTED_EDGE('',*,*,#427,.T.);
#1058 = ORIENTED_EDGE('',*,*,#1059,.F.);
#1059 = EDGE_CURVE('',#336,#420,#1060,.T.);
#1060 = LINE('',#1061,#1062);
#1061 = CARTESIAN_POINT('',(123.2,7.485360439493E-15,33.711066486035));
#1062 = VECTOR('',#1063,1.);
#1063 = DIRECTION('',(0.,-1.,2.22044604925E-16));
#1064 = ORIENTED_EDGE('',*,*,#343,.F.);
#1065 = CYLINDRICAL_SURFACE('',#1066,3.);
#1066 = AXIS2_PLACEMENT_3D('',#1067,#1068,#1069);
#1067 = CARTESIAN_POINT('',(123.,6.820708570524E-15,30.717740576616));
#1068 = DIRECTION('',(0.,1.,-2.22044604925E-16));
#1069 = DIRECTION('',(1.,0.,0.));
#1070 = ADVANCED_FACE('',(#1071,#1082,#1085,#1088,#1094,#1097,#1100,
    #1103,#1106,#1109,#1112,#1115,#1118,#1121),#1124,.F.);
#1071 = FACE_BOUND('',#1072,.F.);
#1072 = EDGE_LOOP('',(#1073,#1074,#1075,#1081));
#1073 = ORIENTED_EDGE('',*,*,#1059,.T.);
#1074 = ORIENTED_EDGE('',*,*,#419,.T.);
#1075 = ORIENTED_EDGE('',*,*,#1076,.F.);
#1076 = EDGE_CURVE('',#327,#411,#1077,.T.);
#1077 = LINE('',#1078,#1079);
#1078 = CARTESIAN_POINT('',(3.2,8.881784197001E-15,40.));
#1079 = VECTOR('',#1080,1.);
#1080 = DIRECTION('',(0.,-1.,2.22044604925E-16));
#1081 = ORIENTED_EDGE('',*,*,#335,.F.);
#1082 = FACE_BOUND('',#1083,.F.);
#1083 = EDGE_LOOP('',(#1084));
#1084 = ORIENTED_EDGE('',*,*,#663,.T.);
#1085 = FACE_BOUND('',#1086,.F.);
#1086 = EDGE_LOOP('',(#1087));
#1087 = ORIENTED_EDGE('',*,*,#688,.T.);
#1088 = FACE_BOUND('',#1089,.F.);
#1089 = EDGE_LOOP('',(#1090,#1091,#1092,#1093));
#1090 = ORIENTED_EDGE('',*,*,#571,.T.);
#1091 = ORIENTED_EDGE('',*,*,#492,.T.);
#1092 = ORIENTED_EDGE('',*,*,#523,.T.);
#1093 = ORIENTED_EDGE('',*,*,#547,.T.);
#1094 = FACE_BOUND('',#1095,.F.);
#1095 = EDGE_LOOP('',(#1096));
#1096 = ORIENTED_EDGE('',*,*,#613,.T.);
#1097 = FACE_BOUND('',#1098,.F.);
#1098 = EDGE_LOOP('',(#1099));
#1099 = ORIENTED_EDGE('',*,*,#588,.T.);
#1100 = FACE_BOUND('',#1101,.F.);
#1101 = EDGE_LOOP('',(#1102));
#1102 = ORIENTED_EDGE('',*,*,#638,.T.);
#1103 = FACE_BOUND('',#1104,.F.);
#1104 = EDGE_LOOP('',(#1105));
#1105 = ORIENTED_EDGE('',*,*,#838,.T.);
#1106 = FACE_BOUND('',#1107,.F.);
#1107 = EDGE_LOOP('',(#1108));
#1108 = ORIENTED_EDGE('',*,*,#863,.T.);
#1109 = FACE_BOUND('',#1110,.F.);
#1110 = EDGE_LOOP('',(#1111));
#1111 = ORIENTED_EDGE('',*,*,#738,.T.);
#1112 = FACE_BOUND('',#1113,.F.);
#1113 = EDGE_LOOP('',(#1114));
#1114 = ORIENTED_EDGE('',*,*,#713,.T.);
#1115 = FACE_BOUND('',#1116,.F.);
#1116 = EDGE_LOOP('',(#1117));
#1117 = ORIENTED_EDGE('',*,*,#813,.T.);
#1118 = FACE_BOUND('',#1119,.F.);
#1119 = EDGE_LOOP('',(#1120));
#1120 = ORIENTED_EDGE('',*,*,#763,.T.);
#1121 = FACE_BOUND('',#1122,.F.);
#1122 = EDGE_LOOP('',(#1123));
#1123 = ORIENTED_EDGE('',*,*,#788,.T.);
#1124 = PLANE('',#1125);
#1125 = AXIS2_PLACEMENT_3D('',#1126,#1127,#1128);
#1126 = CARTESIAN_POINT('',(123.2,7.485360439493E-15,33.711066486035));
#1127 = DIRECTION('',(-5.233595624294E-02,-2.21740300511E-16,
    -0.998629534755));
#1128 = DIRECTION('',(-0.998629534755,1.162091672734E-17,
    5.233595624294E-02));
#1129 = ADVANCED_FACE('',(#1130),#1141,.T.);
#1130 = FACE_BOUND('',#1131,.F.);
#1131 = EDGE_LOOP('',(#1132,#1133,#1134,#1140));
#1132 = ORIENTED_EDGE('',*,*,#1076,.T.);
#1133 = ORIENTED_EDGE('',*,*,#410,.T.);
#1134 = ORIENTED_EDGE('',*,*,#1135,.F.);
#1135 = EDGE_CURVE('',#319,#403,#1136,.T.);
#1136 = LINE('',#1137,#1138);
#1137 = CARTESIAN_POINT('',(0.,8.217132328032E-15,37.006674090581));
#1138 = VECTOR('',#1139,1.);
#1139 = DIRECTION('',(0.,-1.,2.22044604925E-16));
#1140 = ORIENTED_EDGE('',*,*,#326,.F.);
#1141 = CYLINDRICAL_SURFACE('',#1142,3.);
#1142 = AXIS2_PLACEMENT_3D('',#1143,#1144,#1145);
#1143 = CARTESIAN_POINT('',(3.,8.217132328032E-15,37.006674090581));
#1144 = DIRECTION('',(0.,1.,-2.22044604925E-16));
#1145 = DIRECTION('',(1.,0.,0.));
#1146 = ADVANCED_FACE('',(#1147),#1160,.T.);
#1147 = FACE_BOUND('',#1148,.T.);
#1148 = EDGE_LOOP('',(#1149,#1150,#1156,#1157,#1158,#1159));
#1149 = ORIENTED_EDGE('',*,*,#888,.T.);
#1150 = ORIENTED_EDGE('',*,*,#1151,.T.);
#1151 = EDGE_CURVE('',#889,#946,#1152,.T.);
#1152 = LINE('',#1153,#1154);
#1153 = CARTESIAN_POINT('',(0.,6.661338147751E-16,3.));
#1154 = VECTOR('',#1155,1.);
#1155 = DIRECTION('',(0.,-1.,2.22044604925E-16));
#1156 = ORIENTED_EDGE('',*,*,#945,.T.);
#1157 = ORIENTED_EDGE('',*,*,#402,.T.);
#1158 = ORIENTED_EDGE('',*,*,#1135,.F.);
#1159 = ORIENTED_EDGE('',*,*,#318,.F.);
#1160 = PLANE('',#1161);
#1161 = AXIS2_PLACEMENT_3D('',#1162,#1163,#1164);
#1162 = CARTESIAN_POINT('',(0.,6.661338147751E-16,3.));
#1163 = DIRECTION('',(-1.,0.,0.));
#1164 = DIRECTION('',(0.,2.22044604925E-16,1.));
#1165 = ADVANCED_FACE('',(#1166),#1177,.T.);
#1166 = FACE_BOUND('',#1167,.T.);
#1167 = EDGE_LOOP('',(#1168,#1169,#1175,#1176));
#1168 = ORIENTED_EDGE('',*,*,#985,.F.);
#1169 = ORIENTED_EDGE('',*,*,#1170,.T.);
#1170 = EDGE_CURVE('',#978,#1034,#1171,.T.);
#1171 = LINE('',#1172,#1173);
#1172 = CARTESIAN_POINT('',(-6.661338147751E-16,-132.,3.));
#1173 = VECTOR('',#1174,1.);
#1174 = DIRECTION('',(1.,0.,2.22044604925E-16));
#1175 = ORIENTED_EDGE('',*,*,#1033,.T.);
#1176 = ORIENTED_EDGE('',*,*,#444,.F.);
#1177 = PLANE('',#1178);
#1178 = AXIS2_PLACEMENT_3D('',#1179,#1180,#1181);
#1179 = CARTESIAN_POINT('',(-6.661338147751E-16,-132.,3.));
#1180 = DIRECTION('',(2.22044604925E-16,0.,-1.));
#1181 = DIRECTION('',(0.,-1.,0.));
#1182 = ADVANCED_FACE('',(#1183),#1218,.F.);
#1183 = FACE_BOUND('',#1184,.F.);
#1184 = EDGE_LOOP('',(#1185,#1194,#1202,#1210,#1216,#1217));
#1185 = ORIENTED_EDGE('',*,*,#1186,.F.);
#1186 = EDGE_CURVE('',#1187,#889,#1189,.T.);
#1187 = VERTEX_POINT('',#1188);
#1188 = CARTESIAN_POINT('',(3.,-3.,6.661338147751E-16));
#1189 = CIRCLE('',#1190,3.);
#1190 = AXIS2_PLACEMENT_3D('',#1191,#1192,#1193);
#1191 = CARTESIAN_POINT('',(3.,-3.,3.));
#1192 = DIRECTION('',(0.,1.,-2.22044604925E-16));
#1193 = DIRECTION('',(1.,0.,0.));
#1194 = ORIENTED_EDGE('',*,*,#1195,.T.);
#1195 = EDGE_CURVE('',#1187,#1196,#1198,.T.);
#1196 = VERTEX_POINT('',#1197);
#1197 = CARTESIAN_POINT('',(11.,-3.,1.554312234475E-15));
#1198 = LINE('',#1199,#1200);
#1199 = CARTESIAN_POINT('',(0.,-3.,0.));
#1200 = VECTOR('',#1201,1.);
#1201 = DIRECTION('',(1.,0.,2.22044604925E-16));
#1202 = ORIENTED_EDGE('',*,*,#1203,.F.);
#1203 = EDGE_CURVE('',#1204,#1196,#1206,.T.);
#1204 = VERTEX_POINT('',#1205);
#1205 = CARTESIAN_POINT('',(11.,-3.,1.));
#1206 = LINE('',#1207,#1208);
#1207 = CARTESIAN_POINT('',(11.,-3.,0.5));
#1208 = VECTOR('',#1209,1.);
#1209 = DIRECTION('',(0.,0.,-1.));
#1210 = ORIENTED_EDGE('',*,*,#1211,.F.);
#1211 = EDGE_CURVE('',#913,#1204,#1212,.T.);
#1212 = LINE('',#1213,#1214);
#1213 = CARTESIAN_POINT('',(1.5,-3.,1.));
#1214 = VECTOR('',#1215,1.);
#1215 = DIRECTION('',(1.,0.,0.));
#1216 = ORIENTED_EDGE('',*,*,#912,.T.);
#1217 = ORIENTED_EDGE('',*,*,#896,.F.);
#1218 = PLANE('',#1219);
#1219 = AXIS2_PLACEMENT_3D('',#1220,#1221,#1222);
#1220 = CARTESIAN_POINT('',(0.,-3.,0.));
#1221 = DIRECTION('',(0.,-1.,0.));
#1222 = DIRECTION('',(-2.22044604925E-16,0.,1.));
#1223 = ADVANCED_FACE('',(#1224),#1242,.T.);
#1224 = FACE_BOUND('',#1225,.T.);
#1225 = EDGE_LOOP('',(#1226,#1227,#1228,#1236));
#1226 = ORIENTED_EDGE('',*,*,#1211,.F.);
#1227 = ORIENTED_EDGE('',*,*,#931,.T.);
#1228 = ORIENTED_EDGE('',*,*,#1229,.T.);
#1229 = EDGE_CURVE('',#923,#1230,#1232,.T.);
#1230 = VERTEX_POINT('',#1231);
#1231 = CARTESIAN_POINT('',(11.,-132.,1.));
#1232 = LINE('',#1233,#1234);
#1233 = CARTESIAN_POINT('',(1.5,-132.,1.));
#1234 = VECTOR('',#1235,1.);
#1235 = DIRECTION('',(1.,0.,0.));
#1236 = ORIENTED_EDGE('',*,*,#1237,.F.);
#1237 = EDGE_CURVE('',#1204,#1230,#1238,.T.);
#1238 = LINE('',#1239,#1240);
#1239 = CARTESIAN_POINT('',(11.,2.22044604925E-16,1.));
#1240 = VECTOR('',#1241,1.);
#1241 = DIRECTION('',(0.,-1.,2.22044604925E-16));
#1242 = PLANE('',#1243);
#1243 = AXIS2_PLACEMENT_3D('',#1244,#1245,#1246);
#1244 = CARTESIAN_POINT('',(3.,2.22044604925E-16,1.));
#1245 = DIRECTION('',(0.,2.22044604925E-16,1.));
#1246 = DIRECTION('',(1.,0.,0.));
#1247 = ADVANCED_FACE('',(#1248),#1276,.T.);
#1248 = FACE_BOUND('',#1249,.T.);
#1249 = EDGE_LOOP('',(#1250,#1259,#1267,#1273,#1274,#1275));
#1250 = ORIENTED_EDGE('',*,*,#1251,.F.);
#1251 = EDGE_CURVE('',#1252,#946,#1254,.T.);
#1252 = VERTEX_POINT('',#1253);
#1253 = CARTESIAN_POINT('',(3.,-132.,1.498801083244E-14));
#1254 = CIRCLE('',#1255,3.);
#1255 = AXIS2_PLACEMENT_3D('',#1256,#1257,#1258);
#1256 = CARTESIAN_POINT('',(3.,-132.,3.));
#1257 = DIRECTION('',(0.,1.,-2.22044604925E-16));
#1258 = DIRECTION('',(1.,0.,0.));
#1259 = ORIENTED_EDGE('',*,*,#1260,.T.);
#1260 = EDGE_CURVE('',#1252,#1261,#1263,.T.);
#1261 = VERTEX_POINT('',#1262);
#1262 = CARTESIAN_POINT('',(11.,-132.,1.587618925214E-14));
#1263 = LINE('',#1264,#1265);
#1264 = CARTESIAN_POINT('',(0.,-132.,0.));
#1265 = VECTOR('',#1266,1.);
#1266 = DIRECTION('',(1.,0.,2.22044604925E-16));
#1267 = ORIENTED_EDGE('',*,*,#1268,.F.);
#1268 = EDGE_CURVE('',#1230,#1261,#1269,.T.);
#1269 = LINE('',#1270,#1271);
#1270 = CARTESIAN_POINT('',(11.,-132.,0.5));
#1271 = VECTOR('',#1272,1.);
#1272 = DIRECTION('',(0.,0.,-1.));
#1273 = ORIENTED_EDGE('',*,*,#1229,.F.);
#1274 = ORIENTED_EDGE('',*,*,#922,.T.);
#1275 = ORIENTED_EDGE('',*,*,#953,.F.);
#1276 = PLANE('',#1277);
#1277 = AXIS2_PLACEMENT_3D('',#1278,#1279,#1280);
#1278 = CARTESIAN_POINT('',(0.,-132.,0.));
#1279 = DIRECTION('',(0.,-1.,0.));
#1280 = DIRECTION('',(-2.22044604925E-16,0.,1.));
#1281 = ADVANCED_FACE('',(#1282),#1309,.F.);
#1282 = FACE_BOUND('',#1283,.T.);
#1283 = EDGE_LOOP('',(#1284,#1293,#1301,#1308));
#1284 = ORIENTED_EDGE('',*,*,#1285,.T.);
#1285 = EDGE_CURVE('',#970,#1286,#1288,.T.);
#1286 = VERTEX_POINT('',#1287);
#1287 = CARTESIAN_POINT('',(123.,-3.,1.));
#1288 = CIRCLE('',#1289,2.);
#1289 = AXIS2_PLACEMENT_3D('',#1290,#1291,#1292);
#1290 = CARTESIAN_POINT('',(123.,-3.,3.));
#1291 = DIRECTION('',(0.,1.,-2.22044604925E-16));
#1292 = DIRECTION('',(1.,0.,0.));
#1293 = ORIENTED_EDGE('',*,*,#1294,.T.);
#1294 = EDGE_CURVE('',#1286,#1295,#1297,.T.);
#1295 = VERTEX_POINT('',#1296);
#1296 = CARTESIAN_POINT('',(123.,-132.,1.));
#1297 = LINE('',#1298,#1299);
#1298 = CARTESIAN_POINT('',(123.,2.22044604925E-16,1.));
#1299 = VECTOR('',#1300,1.);
#1300 = DIRECTION('',(0.,-1.,2.22044604925E-16));
#1301 = ORIENTED_EDGE('',*,*,#1302,.F.);
#1302 = EDGE_CURVE('',#978,#1295,#1303,.T.);
#1303 = CIRCLE('',#1304,2.);
#1304 = AXIS2_PLACEMENT_3D('',#1305,#1306,#1307);
#1305 = CARTESIAN_POINT('',(123.,-132.,3.));
#1306 = DIRECTION('',(0.,1.,-2.22044604925E-16));
#1307 = DIRECTION('',(1.,0.,0.));
#1308 = ORIENTED_EDGE('',*,*,#977,.F.);
#1309 = CYLINDRICAL_SURFACE('',#1310,2.);
#1310 = AXIS2_PLACEMENT_3D('',#1311,#1312,#1313);
#1311 = CARTESIAN_POINT('',(123.,6.661338147751E-16,3.));
#1312 = DIRECTION('',(0.,1.,-2.22044604925E-16));
#1313 = DIRECTION('',(1.,0.,0.));
#1314 = ADVANCED_FACE('',(#1315),#1350,.F.);
#1315 = FACE_BOUND('',#1316,.F.);
#1316 = EDGE_LOOP('',(#1317,#1327,#1335,#1342,#1343,#1344));
#1317 = ORIENTED_EDGE('',*,*,#1318,.F.);
#1318 = EDGE_CURVE('',#1319,#1321,#1323,.T.);
#1319 = VERTEX_POINT('',#1320);
#1320 = CARTESIAN_POINT('',(115.,-3.,1.310063169058E-14));
#1321 = VERTEX_POINT('',#1322);
#1322 = CARTESIAN_POINT('',(115.,-3.,1.));
#1323 = LINE('',#1324,#1325);
#1324 = CARTESIAN_POINT('',(115.,-3.,0.));
#1325 = VECTOR('',#1326,1.);
#1326 = DIRECTION('',(0.,0.,1.));
#1327 = ORIENTED_EDGE('',*,*,#1328,.T.);
#1328 = EDGE_CURVE('',#1319,#1329,#1331,.T.);
#1329 = VERTEX_POINT('',#1330);
#1330 = CARTESIAN_POINT('',(123.,-3.,1.398881011028E-14));
#1331 = LINE('',#1332,#1333);
#1332 = CARTESIAN_POINT('',(0.,-3.,0.));
#1333 = VECTOR('',#1334,1.);
#1334 = DIRECTION('',(1.,0.,2.22044604925E-16));
#1335 = ORIENTED_EDGE('',*,*,#1336,.F.);
#1336 = EDGE_CURVE('',#1004,#1329,#1337,.T.);
#1337 = CIRCLE('',#1338,3.);
#1338 = AXIS2_PLACEMENT_3D('',#1339,#1340,#1341);
#1339 = CARTESIAN_POINT('',(123.,-3.,3.));
#1340 = DIRECTION('',(0.,1.,-2.22044604925E-16));
#1341 = DIRECTION('',(1.,0.,0.));
#1342 = ORIENTED_EDGE('',*,*,#1003,.F.);
#1343 = ORIENTED_EDGE('',*,*,#1285,.T.);
#1344 = ORIENTED_EDGE('',*,*,#1345,.F.);
#1345 = EDGE_CURVE('',#1321,#1286,#1346,.T.);
#1346 = LINE('',#1347,#1348);
#1347 = CARTESIAN_POINT('',(57.5,-3.,1.));
#1348 = VECTOR('',#1349,1.);
#1349 = DIRECTION('',(1.,0.,0.));
#1350 = PLANE('',#1351);
#1351 = AXIS2_PLACEMENT_3D('',#1352,#1353,#1354);
#1352 = CARTESIAN_POINT('',(0.,-3.,0.));
#1353 = DIRECTION('',(0.,-1.,0.));
#1354 = DIRECTION('',(-2.22044604925E-16,0.,1.));
#1355 = ADVANCED_FACE('',(#1356),#1375,.T.);
#1356 = FACE_BOUND('',#1357,.F.);
#1357 = EDGE_LOOP('',(#1358,#1359,#1367,#1374));
#1358 = ORIENTED_EDGE('',*,*,#1336,.T.);
#1359 = ORIENTED_EDGE('',*,*,#1360,.T.);
#1360 = EDGE_CURVE('',#1329,#1361,#1363,.T.);
#1361 = VERTEX_POINT('',#1362);
#1362 = CARTESIAN_POINT('',(123.,-132.,2.831068712794E-14));
#1363 = LINE('',#1364,#1365);
#1364 = CARTESIAN_POINT('',(123.,0.,0.));
#1365 = VECTOR('',#1366,1.);
#1366 = DIRECTION('',(0.,-1.,2.22044604925E-16));
#1367 = ORIENTED_EDGE('',*,*,#1368,.F.);
#1368 = EDGE_CURVE('',#1034,#1361,#1369,.T.);
#1369 = CIRCLE('',#1370,3.);
#1370 = AXIS2_PLACEMENT_3D('',#1371,#1372,#1373);
#1371 = CARTESIAN_POINT('',(123.,-132.,3.));
#1372 = DIRECTION('',(0.,1.,-2.22044604925E-16));
#1373 = DIRECTION('',(1.,0.,0.));
#1374 = ORIENTED_EDGE('',*,*,#1041,.F.);
#1375 = CYLINDRICAL_SURFACE('',#1376,3.);
#1376 = AXIS2_PLACEMENT_3D('',#1377,#1378,#1379);
#1377 = CARTESIAN_POINT('',(123.,6.661338147751E-16,3.));
#1378 = DIRECTION('',(0.,1.,-2.22044604925E-16));
#1379 = DIRECTION('',(1.,0.,0.));
#1380 = ADVANCED_FACE('',(#1381),#1392,.T.);
#1381 = FACE_BOUND('',#1382,.F.);
#1382 = EDGE_LOOP('',(#1383,#1384,#1385,#1386));
#1383 = ORIENTED_EDGE('',*,*,#1186,.T.);
#1384 = ORIENTED_EDGE('',*,*,#1151,.T.);
#1385 = ORIENTED_EDGE('',*,*,#1251,.F.);
#1386 = ORIENTED_EDGE('',*,*,#1387,.F.);
#1387 = EDGE_CURVE('',#1187,#1252,#1388,.T.);
#1388 = LINE('',#1389,#1390);
#1389 = CARTESIAN_POINT('',(3.,0.,0.));
#1390 = VECTOR('',#1391,1.);
#1391 = DIRECTION('',(0.,-1.,2.22044604925E-16));
#1392 = CYLINDRICAL_SURFACE('',#1393,3.);
#1393 = AXIS2_PLACEMENT_3D('',#1394,#1395,#1396);
#1394 = CARTESIAN_POINT('',(3.,6.661338147751E-16,3.));
#1395 = DIRECTION('',(0.,1.,-2.22044604925E-16));
#1396 = DIRECTION('',(1.,0.,0.));
#1397 = ADVANCED_FACE('',(#1398),#1425,.T.);
#1398 = FACE_BOUND('',#1399,.T.);
#1399 = EDGE_LOOP('',(#1400,#1410,#1416,#1417,#1418,#1419));
#1400 = ORIENTED_EDGE('',*,*,#1401,.F.);
#1401 = EDGE_CURVE('',#1402,#1404,#1406,.T.);
#1402 = VERTEX_POINT('',#1403);
#1403 = CARTESIAN_POINT('',(115.,-132.,2.742250870824E-14));
#1404 = VERTEX_POINT('',#1405);
#1405 = CARTESIAN_POINT('',(115.,-132.,1.));
#1406 = LINE('',#1407,#1408);
#1407 = CARTESIAN_POINT('',(115.,-132.,0.));
#1408 = VECTOR('',#1409,1.);
#1409 = DIRECTION('',(0.,0.,1.));
#1410 = ORIENTED_EDGE('',*,*,#1411,.T.);
#1411 = EDGE_CURVE('',#1402,#1361,#1412,.T.);
#1412 = LINE('',#1413,#1414);
#1413 = CARTESIAN_POINT('',(0.,-132.,0.));
#1414 = VECTOR('',#1415,1.);
#1415 = DIRECTION('',(1.,0.,2.22044604925E-16));
#1416 = ORIENTED_EDGE('',*,*,#1368,.F.);
#1417 = ORIENTED_EDGE('',*,*,#1170,.F.);
#1418 = ORIENTED_EDGE('',*,*,#1302,.T.);
#1419 = ORIENTED_EDGE('',*,*,#1420,.F.);
#1420 = EDGE_CURVE('',#1404,#1295,#1421,.T.);
#1421 = LINE('',#1422,#1423);
#1422 = CARTESIAN_POINT('',(57.5,-132.,1.));
#1423 = VECTOR('',#1424,1.);
#1424 = DIRECTION('',(1.,0.,0.));
#1425 = PLANE('',#1426);
#1426 = AXIS2_PLACEMENT_3D('',#1427,#1428,#1429);
#1427 = CARTESIAN_POINT('',(0.,-132.,0.));
#1428 = DIRECTION('',(0.,-1.,0.));
#1429 = DIRECTION('',(-2.22044604925E-16,0.,1.));
#1430 = ADVANCED_FACE('',(#1431),#1442,.T.);
#1431 = FACE_BOUND('',#1432,.T.);
#1432 = EDGE_LOOP('',(#1433,#1434,#1435,#1436));
#1433 = ORIENTED_EDGE('',*,*,#1203,.F.);
#1434 = ORIENTED_EDGE('',*,*,#1237,.T.);
#1435 = ORIENTED_EDGE('',*,*,#1268,.T.);
#1436 = ORIENTED_EDGE('',*,*,#1437,.F.);
#1437 = EDGE_CURVE('',#1196,#1261,#1438,.T.);
#1438 = LINE('',#1439,#1440);
#1439 = CARTESIAN_POINT('',(11.,0.,0.));
#1440 = VECTOR('',#1441,1.);
#1441 = DIRECTION('',(0.,-1.,2.22044604925E-16));
#1442 = PLANE('',#1443);
#1443 = AXIS2_PLACEMENT_3D('',#1444,#1445,#1446);
#1444 = CARTESIAN_POINT('',(11.,2.22044604925E-16,1.));
#1445 = DIRECTION('',(1.,0.,0.));
#1446 = DIRECTION('',(0.,-2.22044604925E-16,-1.));
#1447 = ADVANCED_FACE('',(#1448),#1454,.T.);
#1448 = FACE_BOUND('',#1449,.T.);
#1449 = EDGE_LOOP('',(#1450,#1451,#1452,#1453));
#1450 = ORIENTED_EDGE('',*,*,#1195,.T.);
#1451 = ORIENTED_EDGE('',*,*,#1437,.T.);
#1452 = ORIENTED_EDGE('',*,*,#1260,.F.);
#1453 = ORIENTED_EDGE('',*,*,#1387,.F.);
#1454 = PLANE('',#1455);
#1455 = AXIS2_PLACEMENT_3D('',#1456,#1457,#1458);
#1456 = CARTESIAN_POINT('',(11.,0.,0.));
#1457 = DIRECTION('',(0.,-2.22044604925E-16,-1.));
#1458 = DIRECTION('',(-1.,0.,0.));
#1459 = ADVANCED_FACE('',(#1460),#1471,.T.);
#1460 = FACE_BOUND('',#1461,.T.);
#1461 = EDGE_LOOP('',(#1462,#1463,#1469,#1470));
#1462 = ORIENTED_EDGE('',*,*,#1345,.F.);
#1463 = ORIENTED_EDGE('',*,*,#1464,.T.);
#1464 = EDGE_CURVE('',#1321,#1404,#1465,.T.);
#1465 = LINE('',#1466,#1467);
#1466 = CARTESIAN_POINT('',(115.,2.22044604925E-16,1.));
#1467 = VECTOR('',#1468,1.);
#1468 = DIRECTION('',(0.,-1.,2.22044604925E-16));
#1469 = ORIENTED_EDGE('',*,*,#1420,.T.);
#1470 = ORIENTED_EDGE('',*,*,#1294,.F.);
#1471 = PLANE('',#1472);
#1472 = AXIS2_PLACEMENT_3D('',#1473,#1474,#1475);
#1473 = CARTESIAN_POINT('',(115.,2.22044604925E-16,1.));
#1474 = DIRECTION('',(0.,2.22044604925E-16,1.));
#1475 = DIRECTION('',(1.,0.,0.));
#1476 = ADVANCED_FACE('',(#1477),#1488,.T.);
#1477 = FACE_BOUND('',#1478,.T.);
#1478 = EDGE_LOOP('',(#1479,#1480,#1486,#1487));
#1479 = ORIENTED_EDGE('',*,*,#1318,.F.);
#1480 = ORIENTED_EDGE('',*,*,#1481,.T.);
#1481 = EDGE_CURVE('',#1319,#1402,#1482,.T.);
#1482 = LINE('',#1483,#1484);
#1483 = CARTESIAN_POINT('',(115.,0.,0.));
#1484 = VECTOR('',#1485,1.);
#1485 = DIRECTION('',(0.,-1.,2.22044604925E-16));
#1486 = ORIENTED_EDGE('',*,*,#1401,.T.);
#1487 = ORIENTED_EDGE('',*,*,#1464,.F.);
#1488 = PLANE('',#1489);
#1489 = AXIS2_PLACEMENT_3D('',#1490,#1491,#1492);
#1490 = CARTESIAN_POINT('',(115.,0.,0.));
#1491 = DIRECTION('',(-1.,0.,0.));
#1492 = DIRECTION('',(0.,2.22044604925E-16,1.));
#1493 = ADVANCED_FACE('',(#1494),#1500,.T.);
#1494 = FACE_BOUND('',#1495,.T.);
#1495 = EDGE_LOOP('',(#1496,#1497,#1498,#1499));
#1496 = ORIENTED_EDGE('',*,*,#1328,.T.);
#1497 = ORIENTED_EDGE('',*,*,#1360,.T.);
#1498 = ORIENTED_EDGE('',*,*,#1411,.F.);
#1499 = ORIENTED_EDGE('',*,*,#1481,.F.);
#1500 = PLANE('',#1501);
#1501 = AXIS2_PLACEMENT_3D('',#1502,#1503,#1504);
#1502 = CARTESIAN_POINT('',(123.,0.,0.));
#1503 = DIRECTION('',(0.,-2.22044604925E-16,-1.));
#1504 = DIRECTION('',(-1.,0.,0.));
#1505 = ( GEOMETRIC_REPRESENTATION_CONTEXT(3) 
GLOBAL_UNCERTAINTY_ASSIGNED_CONTEXT((#1509)) 
GLOBAL_UNIT_ASSIGNED_CONTEXT((#1506,#1507,#1508)) REPRESENTATION_CONTEXT
('Context #1','3D Context with UNIT and UNCERTAINTY') );
#1506 = ( LENGTH_UNIT() NAMED_UNIT(*) SI_UNIT(.MILLI.,.METRE.) );
#1507 = ( NAMED_UNIT(*) PLANE_ANGLE_UNIT() SI_UNIT($,.RADIAN.) );
#1508 = ( NAMED_UNIT(*) SI_UNIT($,.STERADIAN.) SOLID_ANGLE_UNIT() );
#1509 = UNCERTAINTY_MEASURE_WITH_UNIT(LENGTH_MEASURE(2.E-05),#1506,
  'distance_accuracy_value','confusion accuracy');
#1510 = PRODUCT_RELATED_PRODUCT_CATEGORY('part',$,(#7));
#1511 = MECHANICAL_DESIGN_GEOMETRIC_PRESENTATION_REPRESENTATION('',(
    #1512),#1505);
#1512 = STYLED_ITEM('color',(#1513),#15);
#1513 = PRESENTATION_STYLE_ASSIGNMENT((#1514,#1520));
#1514 = SURFACE_STYLE_USAGE(.BOTH.,#1515);
#1515 = SURFACE_SIDE_STYLE('',(#1516));
#1516 = SURFACE_STYLE_FILL_AREA(#1517);
#1517 = FILL_AREA_STYLE('',(#1518));
#1518 = FILL_AREA_STYLE_COLOUR('',#1519);
#1519 = COLOUR_RGB('',0.800000010877,0.800000010877,0.800000010877);
#1520 = CURVE_STYLE('',#1521,POSITIVE_LENGTH_MEASURE(0.1),#1522);
#1521 = DRAUGHTING_PRE_DEFINED_CURVE_FONT('continuous');
#1522 = COLOUR_RGB('',9.803921802644E-02,9.803921802644E-02,
  9.803921802644E-02);
ENDSEC;
END-ISO-10303-21;
