ISO-10303-21;
HEADER;
FILE_DESCRIPTION(('FreeCAD Model'),'2;1');
FILE_NAME('Open CASCADE Shape Model','2025-12-30T19:42:26',(''),(''),
  'Open CASCADE STEP processor 7.9','FreeCAD','Unknown');
FILE_SCHEMA(('AUTOMOTIVE_DESIGN { 1 0 10303 214 1 1 1 1 }'));
ENDSEC;
DATA;
#1 = APPLICATION_PROTOCOL_DEFINITION('international standard',
  'automotive_design',2000,#2);
#2 = APPLICATION_CONTEXT(
  'core data for automotive mechanical design processes');
#3 = SHAPE_DEFINITION_REPRESENTATION(#4,#10);
#4 = PRODUCT_DEFINITION_SHAPE('','',#5);
#5 = PRODUCT_DEFINITION('design','',#6,#9);
#6 = PRODUCT_DEFINITION_FORMATION('','',#7);
#7 = PRODUCT('Body','Body','',(#8));
#8 = PRODUCT_CONTEXT('',#2,'mechanical');
#9 = PRODUCT_DEFINITION_CONTEXT('part definition',#2,'design');
#10 = ADVANCED_BREP_SHAPE_REPRESENTATION('',(#11,#15),#2157);
#11 = AXIS2_PLACEMENT_3D('',#12,#13,#14);
#12 = CARTESIAN_POINT('',(0.,0.,0.));
#13 = DIRECTION('',(0.,0.,1.));
#14 = DIRECTION('',(1.,0.,-0.));
#15 = MANIFOLD_SOLID_BREP('',#16);
#16 = CLOSED_SHELL('',(#17,#124,#223,#248,#273,#297,#388,#421,#446,#470,
    #495,#520,#545,#601,#626,#643,#691,#890,#907,#1111,#1128,#1158,#1199
    ,#1216,#1262,#1296,#1313,#1346,#1363,#1396,#1413,#1430,#1447,#1464,
    #1481,#1498,#1515,#1532,#1549,#1566,#1583,#1600,#1617,#1634,#1651,
    #1668,#1685,#1702,#1719,#1753,#1778,#1803,#1836,#1869,#1908,#1947,
    #1972,#1997,#2009,#2021,#2033,#2058,#2083,#2108,#2133,#2145));
#17 = ADVANCED_FACE('',(#18,#86,#97,#108),#119,.T.);
#18 = FACE_BOUND('',#19,.T.);
#19 = EDGE_LOOP('',(#20,#30,#38,#46,#55,#63,#71,#79));
#20 = ORIENTED_EDGE('',*,*,#21,.F.);
#21 = EDGE_CURVE('',#22,#24,#26,.T.);
#22 = VERTEX_POINT('',#23);
#23 = CARTESIAN_POINT('',(1.,8.217132328032E-15,37.006674090581));
#24 = VERTEX_POINT('',#25);
#25 = CARTESIAN_POINT('',(1.,6.328271240363E-15,4.5));
#26 = LINE('',#27,#28);
#27 = CARTESIAN_POINT('',(1.,8.217132328032E-15,37.006674090581));
#28 = VECTOR('',#29,1.);
#29 = DIRECTION('',(0.,-2.22044604925E-16,-1.));
#30 = ORIENTED_EDGE('',*,*,#31,.T.);
#31 = EDGE_CURVE('',#22,#32,#34,.T.);
#32 = VERTEX_POINT('',#33);
#33 = CARTESIAN_POINT('',(1.,-140.,37.006674090581));
#34 = LINE('',#35,#36);
#35 = CARTESIAN_POINT('',(1.,8.217132328032E-15,37.006674090581));
#36 = VECTOR('',#37,1.);
#37 = DIRECTION('',(0.,-1.,2.22044604925E-16));
#38 = ORIENTED_EDGE('',*,*,#39,.T.);
#39 = EDGE_CURVE('',#32,#40,#42,.T.);
#40 = VERTEX_POINT('',#41);
#41 = CARTESIAN_POINT('',(1.,-140.,4.5));
#42 = LINE('',#43,#44);
#43 = CARTESIAN_POINT('',(1.,-140.,37.006674090581));
#44 = VECTOR('',#45,1.);
#45 = DIRECTION('',(0.,-2.22044604925E-16,-1.));
#46 = ORIENTED_EDGE('',*,*,#47,.T.);
#47 = EDGE_CURVE('',#40,#48,#50,.T.);
#48 = VERTEX_POINT('',#49);
#49 = CARTESIAN_POINT('',(1.,-138.5,3.));
#50 = CIRCLE('',#51,1.5);
#51 = AXIS2_PLACEMENT_3D('',#52,#53,#54);
#52 = CARTESIAN_POINT('',(1.,-138.5,4.5));
#53 = DIRECTION('',(1.,0.,2.22044604925E-16));
#54 = DIRECTION('',(-2.22044604925E-16,-2.22044604925E-16,1.));
#55 = ORIENTED_EDGE('',*,*,#56,.F.);
#56 = EDGE_CURVE('',#57,#48,#59,.T.);
#57 = VERTEX_POINT('',#58);
#58 = CARTESIAN_POINT('',(1.,-137.,3.));
#59 = LINE('',#60,#61);
#60 = CARTESIAN_POINT('',(1.,6.661338147751E-16,3.));
#61 = VECTOR('',#62,1.);
#62 = DIRECTION('',(0.,-1.,2.22044604925E-16));
#63 = ORIENTED_EDGE('',*,*,#64,.F.);
#64 = EDGE_CURVE('',#65,#57,#67,.T.);
#65 = VERTEX_POINT('',#66);
#66 = CARTESIAN_POINT('',(1.,-3.,3.));
#67 = LINE('',#68,#69);
#68 = CARTESIAN_POINT('',(1.,6.661338147751E-16,3.));
#69 = VECTOR('',#70,1.);
#70 = DIRECTION('',(0.,-1.,2.22044604925E-16));
#71 = ORIENTED_EDGE('',*,*,#72,.F.);
#72 = EDGE_CURVE('',#73,#65,#75,.T.);
#73 = VERTEX_POINT('',#74);
#74 = CARTESIAN_POINT('',(1.,-1.5,3.));
#75 = LINE('',#76,#77);
#76 = CARTESIAN_POINT('',(1.,6.661338147751E-16,3.));
#77 = VECTOR('',#78,1.);
#78 = DIRECTION('',(0.,-1.,2.22044604925E-16));
#79 = ORIENTED_EDGE('',*,*,#80,.F.);
#80 = EDGE_CURVE('',#24,#73,#81,.T.);
#81 = CIRCLE('',#82,1.5);
#82 = AXIS2_PLACEMENT_3D('',#83,#84,#85);
#83 = CARTESIAN_POINT('',(1.,-1.5,4.5));
#84 = DIRECTION('',(-1.,0.,-2.22044604925E-16));
#85 = DIRECTION('',(-2.22044604925E-16,-2.22044604925E-16,1.));
#86 = FACE_BOUND('',#87,.T.);
#87 = EDGE_LOOP('',(#88));
#88 = ORIENTED_EDGE('',*,*,#89,.T.);
#89 = EDGE_CURVE('',#90,#90,#92,.T.);
#90 = VERTEX_POINT('',#91);
#91 = CARTESIAN_POINT('',(1.,-55.,13.));
#92 = CIRCLE('',#93,5.);
#93 = AXIS2_PLACEMENT_3D('',#94,#95,#96);
#94 = CARTESIAN_POINT('',(1.,-55.,18.));
#95 = DIRECTION('',(-1.,-8.659560562355E-17,-2.22044604925E-16));
#96 = DIRECTION('',(2.22044604925E-16,-8.659560562355E-17,-1.));
#97 = FACE_BOUND('',#98,.T.);
#98 = EDGE_LOOP('',(#99));
#99 = ORIENTED_EDGE('',*,*,#100,.T.);
#100 = EDGE_CURVE('',#101,#101,#103,.T.);
#101 = VERTEX_POINT('',#102);
#102 = CARTESIAN_POINT('',(1.,-35.,18.));
#103 = CIRCLE('',#104,4.);
#104 = AXIS2_PLACEMENT_3D('',#105,#106,#107);
#105 = CARTESIAN_POINT('',(1.,-35.,22.));
#106 = DIRECTION('',(-1.,-8.659560562355E-17,-2.22044604925E-16));
#107 = DIRECTION('',(2.22044604925E-16,-8.659560562355E-17,-1.));
#108 = FACE_BOUND('',#109,.T.);
#109 = EDGE_LOOP('',(#110));
#110 = ORIENTED_EDGE('',*,*,#111,.T.);
#111 = EDGE_CURVE('',#112,#112,#114,.T.);
#112 = VERTEX_POINT('',#113);
#113 = CARTESIAN_POINT('',(1.,-15.,13.));
#114 = CIRCLE('',#115,5.);
#115 = AXIS2_PLACEMENT_3D('',#116,#117,#118);
#116 = CARTESIAN_POINT('',(1.,-15.,18.));
#117 = DIRECTION('',(-1.,-8.659560562355E-17,-2.22044604925E-16));
#118 = DIRECTION('',(2.22044604925E-16,-8.659560562355E-17,-1.));
#119 = PLANE('',#120);
#120 = AXIS2_PLACEMENT_3D('',#121,#122,#123);
#121 = CARTESIAN_POINT('',(1.,8.217132328032E-15,37.006674090581));
#122 = DIRECTION('',(1.,0.,0.));
#123 = DIRECTION('',(0.,-2.22044604925E-16,-1.));
#124 = ADVANCED_FACE('',(#125),#218,.T.);
#125 = FACE_BOUND('',#126,.T.);
#126 = EDGE_LOOP('',(#127,#137,#146,#154,#161,#162,#170,#178,#187,#195,
    #204,#212));
#127 = ORIENTED_EDGE('',*,*,#128,.T.);
#128 = EDGE_CURVE('',#129,#131,#133,.T.);
#129 = VERTEX_POINT('',#130);
#130 = CARTESIAN_POINT('',(125.,6.328271240363E-15,4.5));
#131 = VERTEX_POINT('',#132);
#132 = CARTESIAN_POINT('',(125.,6.820708570524E-15,30.717740576616));
#133 = LINE('',#134,#135);
#134 = CARTESIAN_POINT('',(125.,6.661338147751E-16,3.));
#135 = VECTOR('',#136,1.);
#136 = DIRECTION('',(0.,2.22044604925E-16,1.));
#137 = ORIENTED_EDGE('',*,*,#138,.T.);
#138 = EDGE_CURVE('',#131,#139,#141,.T.);
#139 = VERTEX_POINT('',#140);
#140 = CARTESIAN_POINT('',(123.13333145602,7.263809844355E-15,
    32.713291308328));
#141 = CIRCLE('',#142,2.);
#142 = AXIS2_PLACEMENT_3D('',#143,#144,#145);
#143 = CARTESIAN_POINT('',(123.,6.820708570524E-15,30.717740576616));
#144 = DIRECTION('',(0.,-1.,2.22044604925E-16));
#145 = DIRECTION('',(1.,0.,0.));
#146 = ORIENTED_EDGE('',*,*,#147,.F.);
#147 = EDGE_CURVE('',#148,#139,#150,.T.);
#148 = VERTEX_POINT('',#149);
#149 = CARTESIAN_POINT('',(3.133333076189,8.660233577827E-15,
    39.002224714041));
#150 = LINE('',#151,#152);
#151 = CARTESIAN_POINT('',(3.133333076189,8.660233577827E-15,
    39.002224714041));
#152 = VECTOR('',#153,1.);
#153 = DIRECTION('',(0.998629534765,-1.162091668432E-17,
    -5.233595604922E-02));
#154 = ORIENTED_EDGE('',*,*,#155,.T.);
#155 = EDGE_CURVE('',#148,#22,#156,.T.);
#156 = CIRCLE('',#157,2.);
#157 = AXIS2_PLACEMENT_3D('',#158,#159,#160);
#158 = CARTESIAN_POINT('',(3.,8.217132328032E-15,37.006674090581));
#159 = DIRECTION('',(0.,-1.,2.22044604925E-16));
#160 = DIRECTION('',(1.,0.,0.));
#161 = ORIENTED_EDGE('',*,*,#21,.T.);
#162 = ORIENTED_EDGE('',*,*,#163,.F.);
#163 = EDGE_CURVE('',#164,#24,#166,.T.);
#164 = VERTEX_POINT('',#165);
#165 = CARTESIAN_POINT('',(-3.330669073875E-16,6.328271240363E-15,4.5));
#166 = LINE('',#167,#168);
#167 = CARTESIAN_POINT('',(-3.330669073875E-16,6.328271240363E-15,4.5));
#168 = VECTOR('',#169,1.);
#169 = DIRECTION('',(1.,0.,2.22044604925E-16));
#170 = ORIENTED_EDGE('',*,*,#171,.T.);
#171 = EDGE_CURVE('',#164,#172,#174,.T.);
#172 = VERTEX_POINT('',#173);
#173 = CARTESIAN_POINT('',(0.,8.217132328032E-15,37.006674090581));
#174 = LINE('',#175,#176);
#175 = CARTESIAN_POINT('',(0.,6.661338147751E-16,3.));
#176 = VECTOR('',#177,1.);
#177 = DIRECTION('',(0.,2.22044604925E-16,1.));
#178 = ORIENTED_EDGE('',*,*,#179,.F.);
#179 = EDGE_CURVE('',#180,#172,#182,.T.);
#180 = VERTEX_POINT('',#181);
#181 = CARTESIAN_POINT('',(3.2,8.881784197001E-15,40.));
#182 = CIRCLE('',#183,3.);
#183 = AXIS2_PLACEMENT_3D('',#184,#185,#186);
#184 = CARTESIAN_POINT('',(3.,8.217132328032E-15,37.006674090581));
#185 = DIRECTION('',(0.,-1.,2.22044604925E-16));
#186 = DIRECTION('',(1.,0.,0.));
#187 = ORIENTED_EDGE('',*,*,#188,.F.);
#188 = EDGE_CURVE('',#189,#180,#191,.T.);
#189 = VERTEX_POINT('',#190);
#190 = CARTESIAN_POINT('',(123.2,7.485360439493E-15,33.711066486035));
#191 = LINE('',#192,#193);
#192 = CARTESIAN_POINT('',(123.2,7.485360439493E-15,33.711066486035));
#193 = VECTOR('',#194,1.);
#194 = DIRECTION('',(-0.998629534755,1.162091672734E-17,
    5.233595624294E-02));
#195 = ORIENTED_EDGE('',*,*,#196,.F.);
#196 = EDGE_CURVE('',#197,#189,#199,.T.);
#197 = VERTEX_POINT('',#198);
#198 = CARTESIAN_POINT('',(126.,6.820708570524E-15,30.717740576616));
#199 = CIRCLE('',#200,3.);
#200 = AXIS2_PLACEMENT_3D('',#201,#202,#203);
#201 = CARTESIAN_POINT('',(123.,6.820708570524E-15,30.717740576616));
#202 = DIRECTION('',(0.,-1.,2.22044604925E-16));
#203 = DIRECTION('',(1.,0.,0.));
#204 = ORIENTED_EDGE('',*,*,#205,.T.);
#205 = EDGE_CURVE('',#197,#206,#208,.T.);
#206 = VERTEX_POINT('',#207);
#207 = CARTESIAN_POINT('',(126.,6.328271240363E-15,4.5));
#208 = LINE('',#209,#210);
#209 = CARTESIAN_POINT('',(126.,6.820708570524E-15,30.717740576616));
#210 = VECTOR('',#211,1.);
#211 = DIRECTION('',(0.,-2.22044604925E-16,-1.));
#212 = ORIENTED_EDGE('',*,*,#213,.F.);
#213 = EDGE_CURVE('',#129,#206,#214,.T.);
#214 = LINE('',#215,#216);
#215 = CARTESIAN_POINT('',(125.,6.328271240363E-15,4.5));
#216 = VECTOR('',#217,1.);
#217 = DIRECTION('',(1.,0.,2.22044604925E-16));
#218 = PLANE('',#219);
#219 = AXIS2_PLACEMENT_3D('',#220,#221,#222);
#220 = CARTESIAN_POINT('',(61.170272695724,6.018768617044E-15,
    27.106124100947));
#221 = DIRECTION('',(0.,1.,0.));
#222 = DIRECTION('',(0.,0.,1.));
#223 = ADVANCED_FACE('',(#224),#243,.T.);
#224 = FACE_BOUND('',#225,.F.);
#225 = EDGE_LOOP('',(#226,#235,#241,#242));
#226 = ORIENTED_EDGE('',*,*,#227,.T.);
#227 = EDGE_CURVE('',#164,#228,#230,.T.);
#228 = VERTEX_POINT('',#229);
#229 = CARTESIAN_POINT('',(0.,-1.5,3.));
#230 = CIRCLE('',#231,1.5);
#231 = AXIS2_PLACEMENT_3D('',#232,#233,#234);
#232 = CARTESIAN_POINT('',(0.,-1.5,4.5));
#233 = DIRECTION('',(-1.,0.,-2.22044604925E-16));
#234 = DIRECTION('',(-2.22044604925E-16,-2.22044604925E-16,1.));
#235 = ORIENTED_EDGE('',*,*,#236,.T.);
#236 = EDGE_CURVE('',#228,#73,#237,.T.);
#237 = LINE('',#238,#239);
#238 = CARTESIAN_POINT('',(4.930380657631E-32,-1.5,3.));
#239 = VECTOR('',#240,1.);
#240 = DIRECTION('',(1.,0.,2.22044604925E-16));
#241 = ORIENTED_EDGE('',*,*,#80,.F.);
#242 = ORIENTED_EDGE('',*,*,#163,.F.);
#243 = CYLINDRICAL_SURFACE('',#244,1.5);
#244 = AXIS2_PLACEMENT_3D('',#245,#246,#247);
#245 = CARTESIAN_POINT('',(-3.330669073875E-16,-1.5,4.5));
#246 = DIRECTION('',(1.,0.,2.22044604925E-16));
#247 = DIRECTION('',(0.,1.,0.));
#248 = ADVANCED_FACE('',(#249),#268,.F.);
#249 = FACE_BOUND('',#250,.T.);
#250 = EDGE_LOOP('',(#251,#259,#266,#267));
#251 = ORIENTED_EDGE('',*,*,#252,.T.);
#252 = EDGE_CURVE('',#148,#253,#255,.T.);
#253 = VERTEX_POINT('',#254);
#254 = CARTESIAN_POINT('',(3.133333076189,-140.,39.002224714041));
#255 = LINE('',#256,#257);
#256 = CARTESIAN_POINT('',(3.133333076189,8.660233577827E-15,
    39.002224714041));
#257 = VECTOR('',#258,1.);
#258 = DIRECTION('',(0.,-1.,2.22044604925E-16));
#259 = ORIENTED_EDGE('',*,*,#260,.T.);
#260 = EDGE_CURVE('',#253,#32,#261,.T.);
#261 = CIRCLE('',#262,2.);
#262 = AXIS2_PLACEMENT_3D('',#263,#264,#265);
#263 = CARTESIAN_POINT('',(3.,-140.,37.006674090581));
#264 = DIRECTION('',(0.,-1.,2.22044604925E-16));
#265 = DIRECTION('',(1.,0.,0.));
#266 = ORIENTED_EDGE('',*,*,#31,.F.);
#267 = ORIENTED_EDGE('',*,*,#155,.F.);
#268 = CYLINDRICAL_SURFACE('',#269,2.);
#269 = AXIS2_PLACEMENT_3D('',#270,#271,#272);
#270 = CARTESIAN_POINT('',(3.,8.217132328032E-15,37.006674090581));
#271 = DIRECTION('',(0.,1.,-2.22044604925E-16));
#272 = DIRECTION('',(1.,0.,0.));
#273 = ADVANCED_FACE('',(#274),#292,.F.);
#274 = FACE_BOUND('',#275,.F.);
#275 = EDGE_LOOP('',(#276,#284,#290,#291));
#276 = ORIENTED_EDGE('',*,*,#277,.T.);
#277 = EDGE_CURVE('',#228,#278,#280,.T.);
#278 = VERTEX_POINT('',#279);
#279 = CARTESIAN_POINT('',(-6.661338147751E-16,-3.,3.));
#280 = LINE('',#281,#282);
#281 = CARTESIAN_POINT('',(0.,6.661338147751E-16,3.));
#282 = VECTOR('',#283,1.);
#283 = DIRECTION('',(0.,-1.,2.22044604925E-16));
#284 = ORIENTED_EDGE('',*,*,#285,.T.);
#285 = EDGE_CURVE('',#278,#65,#286,.T.);
#286 = LINE('',#287,#288);
#287 = CARTESIAN_POINT('',(-6.661338147751E-16,-3.,3.));
#288 = VECTOR('',#289,1.);
#289 = DIRECTION('',(1.,0.,2.22044604925E-16));
#290 = ORIENTED_EDGE('',*,*,#72,.F.);
#291 = ORIENTED_EDGE('',*,*,#236,.F.);
#292 = PLANE('',#293);
#293 = AXIS2_PLACEMENT_3D('',#294,#295,#296);
#294 = CARTESIAN_POINT('',(-6.661338147751E-16,-3.,3.));
#295 = DIRECTION('',(-2.22044604925E-16,0.,1.));
#296 = DIRECTION('',(0.,1.,0.));
#297 = ADVANCED_FACE('',(#298),#383,.F.);
#298 = FACE_BOUND('',#299,.F.);
#299 = EDGE_LOOP('',(#300,#310,#319,#325,#326,#327,#335,#343,#352,#360,
    #369,#377));
#300 = ORIENTED_EDGE('',*,*,#301,.T.);
#301 = EDGE_CURVE('',#302,#304,#306,.T.);
#302 = VERTEX_POINT('',#303);
#303 = CARTESIAN_POINT('',(125.,-140.,4.5));
#304 = VERTEX_POINT('',#305);
#305 = CARTESIAN_POINT('',(125.,-140.,30.717740576616));
#306 = LINE('',#307,#308);
#307 = CARTESIAN_POINT('',(125.,-140.,3.));
#308 = VECTOR('',#309,1.);
#309 = DIRECTION('',(0.,2.22044604925E-16,1.));
#310 = ORIENTED_EDGE('',*,*,#311,.T.);
#311 = EDGE_CURVE('',#304,#312,#314,.T.);
#312 = VERTEX_POINT('',#313);
#313 = CARTESIAN_POINT('',(123.13333145602,-140.,32.713291308328));
#314 = CIRCLE('',#315,2.);
#315 = AXIS2_PLACEMENT_3D('',#316,#317,#318);
#316 = CARTESIAN_POINT('',(123.,-140.,30.717740576616));
#317 = DIRECTION('',(0.,-1.,2.22044604925E-16));
#318 = DIRECTION('',(1.,0.,0.));
#319 = ORIENTED_EDGE('',*,*,#320,.F.);
#320 = EDGE_CURVE('',#253,#312,#321,.T.);
#321 = LINE('',#322,#323);
#322 = CARTESIAN_POINT('',(3.133333076189,-140.,39.002224714041));
#323 = VECTOR('',#324,1.);
#324 = DIRECTION('',(0.998629534765,-1.162091668432E-17,
    -5.233595604922E-02));
#325 = ORIENTED_EDGE('',*,*,#260,.T.);
#326 = ORIENTED_EDGE('',*,*,#39,.T.);
#327 = ORIENTED_EDGE('',*,*,#328,.F.);
#328 = EDGE_CURVE('',#329,#40,#331,.T.);
#329 = VERTEX_POINT('',#330);
#330 = CARTESIAN_POINT('',(-3.330669073875E-16,-140.,4.5));
#331 = LINE('',#332,#333);
#332 = CARTESIAN_POINT('',(-3.330669073875E-16,-140.,4.5));
#333 = VECTOR('',#334,1.);
#334 = DIRECTION('',(1.,0.,2.22044604925E-16));
#335 = ORIENTED_EDGE('',*,*,#336,.T.);
#336 = EDGE_CURVE('',#329,#337,#339,.T.);
#337 = VERTEX_POINT('',#338);
#338 = CARTESIAN_POINT('',(0.,-140.,37.006674090581));
#339 = LINE('',#340,#341);
#340 = CARTESIAN_POINT('',(0.,-140.,3.));
#341 = VECTOR('',#342,1.);
#342 = DIRECTION('',(0.,2.22044604925E-16,1.));
#343 = ORIENTED_EDGE('',*,*,#344,.F.);
#344 = EDGE_CURVE('',#345,#337,#347,.T.);
#345 = VERTEX_POINT('',#346);
#346 = CARTESIAN_POINT('',(3.2,-140.,40.));
#347 = CIRCLE('',#348,3.);
#348 = AXIS2_PLACEMENT_3D('',#349,#350,#351);
#349 = CARTESIAN_POINT('',(3.,-140.,37.006674090581));
#350 = DIRECTION('',(0.,-1.,2.22044604925E-16));
#351 = DIRECTION('',(1.,0.,0.));
#352 = ORIENTED_EDGE('',*,*,#353,.F.);
#353 = EDGE_CURVE('',#354,#345,#356,.T.);
#354 = VERTEX_POINT('',#355);
#355 = CARTESIAN_POINT('',(123.2,-140.,33.711066486035));
#356 = LINE('',#357,#358);
#357 = CARTESIAN_POINT('',(123.2,-140.,33.711066486035));
#358 = VECTOR('',#359,1.);
#359 = DIRECTION('',(-0.998629534755,1.162091672734E-17,
    5.233595624294E-02));
#360 = ORIENTED_EDGE('',*,*,#361,.F.);
#361 = EDGE_CURVE('',#362,#354,#364,.T.);
#362 = VERTEX_POINT('',#363);
#363 = CARTESIAN_POINT('',(126.,-140.,30.717740576616));
#364 = CIRCLE('',#365,3.);
#365 = AXIS2_PLACEMENT_3D('',#366,#367,#368);
#366 = CARTESIAN_POINT('',(123.,-140.,30.717740576616));
#367 = DIRECTION('',(0.,-1.,2.22044604925E-16));
#368 = DIRECTION('',(1.,0.,0.));
#369 = ORIENTED_EDGE('',*,*,#370,.T.);
#370 = EDGE_CURVE('',#362,#371,#373,.T.);
#371 = VERTEX_POINT('',#372);
#372 = CARTESIAN_POINT('',(126.,-140.,4.5));
#373 = LINE('',#374,#375);
#374 = CARTESIAN_POINT('',(126.,-140.,30.717740576616));
#375 = VECTOR('',#376,1.);
#376 = DIRECTION('',(0.,-2.22044604925E-16,-1.));
#377 = ORIENTED_EDGE('',*,*,#378,.F.);
#378 = EDGE_CURVE('',#302,#371,#379,.T.);
#379 = LINE('',#380,#381);
#380 = CARTESIAN_POINT('',(125.,-140.,4.5));
#381 = VECTOR('',#382,1.);
#382 = DIRECTION('',(1.,0.,2.22044604925E-16));
#383 = PLANE('',#384);
#384 = AXIS2_PLACEMENT_3D('',#385,#386,#387);
#385 = CARTESIAN_POINT('',(61.170272695724,-140.,27.106124100947));
#386 = DIRECTION('',(0.,1.,0.));
#387 = DIRECTION('',(0.,0.,1.));
#388 = ADVANCED_FACE('',(#389),#416,.F.);
#389 = FACE_BOUND('',#390,.T.);
#390 = EDGE_LOOP('',(#391,#400,#401,#410));
#391 = ORIENTED_EDGE('',*,*,#392,.T.);
#392 = EDGE_CURVE('',#393,#65,#395,.T.);
#393 = VERTEX_POINT('',#394);
#394 = CARTESIAN_POINT('',(3.,-3.,1.));
#395 = CIRCLE('',#396,2.);
#396 = AXIS2_PLACEMENT_3D('',#397,#398,#399);
#397 = CARTESIAN_POINT('',(3.,-3.,3.));
#398 = DIRECTION('',(0.,1.,-2.22044604925E-16));
#399 = DIRECTION('',(1.,0.,0.));
#400 = ORIENTED_EDGE('',*,*,#64,.T.);
#401 = ORIENTED_EDGE('',*,*,#402,.F.);
#402 = EDGE_CURVE('',#403,#57,#405,.T.);
#403 = VERTEX_POINT('',#404);
#404 = CARTESIAN_POINT('',(3.,-137.,1.));
#405 = CIRCLE('',#406,2.);
#406 = AXIS2_PLACEMENT_3D('',#407,#408,#409);
#407 = CARTESIAN_POINT('',(3.,-137.,3.));
#408 = DIRECTION('',(0.,1.,-2.22044604925E-16));
#409 = DIRECTION('',(1.,0.,0.));
#410 = ORIENTED_EDGE('',*,*,#411,.F.);
#411 = EDGE_CURVE('',#393,#403,#412,.T.);
#412 = LINE('',#413,#414);
#413 = CARTESIAN_POINT('',(3.,2.22044604925E-16,1.));
#414 = VECTOR('',#415,1.);
#415 = DIRECTION('',(0.,-1.,2.22044604925E-16));
#416 = CYLINDRICAL_SURFACE('',#417,2.);
#417 = AXIS2_PLACEMENT_3D('',#418,#419,#420);
#418 = CARTESIAN_POINT('',(3.,6.661338147751E-16,3.));
#419 = DIRECTION('',(0.,1.,-2.22044604925E-16));
#420 = DIRECTION('',(1.,0.,0.));
#421 = ADVANCED_FACE('',(#422),#441,.T.);
#422 = FACE_BOUND('',#423,.T.);
#423 = EDGE_LOOP('',(#424,#433,#439,#440));
#424 = ORIENTED_EDGE('',*,*,#425,.T.);
#425 = EDGE_CURVE('',#329,#426,#428,.T.);
#426 = VERTEX_POINT('',#427);
#427 = CARTESIAN_POINT('',(-4.437342591868E-31,-138.5,3.));
#428 = CIRCLE('',#429,1.5);
#429 = AXIS2_PLACEMENT_3D('',#430,#431,#432);
#430 = CARTESIAN_POINT('',(0.,-138.5,4.5));
#431 = DIRECTION('',(1.,0.,2.22044604925E-16));
#432 = DIRECTION('',(-2.22044604925E-16,-2.22044604925E-16,1.));
#433 = ORIENTED_EDGE('',*,*,#434,.T.);
#434 = EDGE_CURVE('',#426,#48,#435,.T.);
#435 = LINE('',#436,#437);
#436 = CARTESIAN_POINT('',(4.930380657631E-32,-138.5,3.));
#437 = VECTOR('',#438,1.);
#438 = DIRECTION('',(1.,0.,2.22044604925E-16));
#439 = ORIENTED_EDGE('',*,*,#47,.F.);
#440 = ORIENTED_EDGE('',*,*,#328,.F.);
#441 = CYLINDRICAL_SURFACE('',#442,1.5);
#442 = AXIS2_PLACEMENT_3D('',#443,#444,#445);
#443 = CARTESIAN_POINT('',(-3.330669073875E-16,-138.5,4.5));
#444 = DIRECTION('',(1.,0.,2.22044604925E-16));
#445 = DIRECTION('',(0.,-1.,0.));
#446 = ADVANCED_FACE('',(#447),#465,.T.);
#447 = FACE_BOUND('',#448,.T.);
#448 = EDGE_LOOP('',(#449,#457,#463,#464));
#449 = ORIENTED_EDGE('',*,*,#450,.F.);
#450 = EDGE_CURVE('',#451,#426,#453,.T.);
#451 = VERTEX_POINT('',#452);
#452 = CARTESIAN_POINT('',(-6.661338147751E-16,-137.,3.));
#453 = LINE('',#454,#455);
#454 = CARTESIAN_POINT('',(0.,6.661338147751E-16,3.));
#455 = VECTOR('',#456,1.);
#456 = DIRECTION('',(0.,-1.,2.22044604925E-16));
#457 = ORIENTED_EDGE('',*,*,#458,.T.);
#458 = EDGE_CURVE('',#451,#57,#459,.T.);
#459 = LINE('',#460,#461);
#460 = CARTESIAN_POINT('',(-6.661338147751E-16,-137.,3.));
#461 = VECTOR('',#462,1.);
#462 = DIRECTION('',(1.,0.,2.22044604925E-16));
#463 = ORIENTED_EDGE('',*,*,#56,.T.);
#464 = ORIENTED_EDGE('',*,*,#434,.F.);
#465 = PLANE('',#466);
#466 = AXIS2_PLACEMENT_3D('',#467,#468,#469);
#467 = CARTESIAN_POINT('',(-6.661338147751E-16,-137.,3.));
#468 = DIRECTION('',(2.22044604925E-16,0.,-1.));
#469 = DIRECTION('',(0.,-1.,0.));
#470 = ADVANCED_FACE('',(#471),#490,.F.);
#471 = FACE_BOUND('',#472,.F.);
#472 = EDGE_LOOP('',(#473,#482,#488,#489));
#473 = ORIENTED_EDGE('',*,*,#474,.F.);
#474 = EDGE_CURVE('',#475,#475,#477,.T.);
#475 = VERTEX_POINT('',#476);
#476 = CARTESIAN_POINT('',(1.87617844527E-15,-55.,13.));
#477 = CIRCLE('',#478,5.);
#478 = AXIS2_PLACEMENT_3D('',#479,#480,#481);
#479 = CARTESIAN_POINT('',(7.659554206446E-16,-55.,18.));
#480 = DIRECTION('',(-1.,-8.659560562355E-17,-2.22044604925E-16));
#481 = DIRECTION('',(2.22044604925E-16,-8.659560562355E-17,-1.));
#482 = ORIENTED_EDGE('',*,*,#483,.T.);
#483 = EDGE_CURVE('',#475,#90,#484,.T.);
#484 = LINE('',#485,#486);
#485 = CARTESIAN_POINT('',(1.87617844527E-15,-55.,13.));
#486 = VECTOR('',#487,1.);
#487 = DIRECTION('',(1.,8.659560562355E-17,2.22044604925E-16));
#488 = ORIENTED_EDGE('',*,*,#89,.T.);
#489 = ORIENTED_EDGE('',*,*,#483,.F.);
#490 = CYLINDRICAL_SURFACE('',#491,5.);
#491 = AXIS2_PLACEMENT_3D('',#492,#493,#494);
#492 = CARTESIAN_POINT('',(7.659554206446E-16,-55.,18.));
#493 = DIRECTION('',(-1.,-8.659560562355E-17,-2.22044604925E-16));
#494 = DIRECTION('',(2.22044604925E-16,-8.659560562355E-17,-1.));
#495 = ADVANCED_FACE('',(#496),#515,.F.);
#496 = FACE_BOUND('',#497,.F.);
#497 = EDGE_LOOP('',(#498,#507,#513,#514));
#498 = ORIENTED_EDGE('',*,*,#499,.F.);
#499 = EDGE_CURVE('',#500,#500,#502,.T.);
#500 = VERTEX_POINT('',#501);
#501 = CARTESIAN_POINT('',(-9.659566918263E-16,-35.,18.));
#502 = CIRCLE('',#503,4.);
#503 = AXIS2_PLACEMENT_3D('',#504,#505,#506);
#504 = CARTESIAN_POINT('',(-1.854135111526E-15,-35.,22.));
#505 = DIRECTION('',(-1.,-8.659560562355E-17,-2.22044604925E-16));
#506 = DIRECTION('',(2.22044604925E-16,-8.659560562355E-17,-1.));
#507 = ORIENTED_EDGE('',*,*,#508,.T.);
#508 = EDGE_CURVE('',#500,#101,#509,.T.);
#509 = LINE('',#510,#511);
#510 = CARTESIAN_POINT('',(-9.659566918263E-16,-35.,18.));
#511 = VECTOR('',#512,1.);
#512 = DIRECTION('',(1.,8.659560562355E-17,2.22044604925E-16));
#513 = ORIENTED_EDGE('',*,*,#100,.T.);
#514 = ORIENTED_EDGE('',*,*,#508,.F.);
#515 = CYLINDRICAL_SURFACE('',#516,4.);
#516 = AXIS2_PLACEMENT_3D('',#517,#518,#519);
#517 = CARTESIAN_POINT('',(-1.854135111526E-15,-35.,22.));
#518 = DIRECTION('',(-1.,-8.659560562355E-17,-2.22044604925E-16));
#519 = DIRECTION('',(2.22044604925E-16,-8.659560562355E-17,-1.));
#520 = ADVANCED_FACE('',(#521),#540,.F.);
#521 = FACE_BOUND('',#522,.F.);
#522 = EDGE_LOOP('',(#523,#532,#538,#539));
#523 = ORIENTED_EDGE('',*,*,#524,.F.);
#524 = EDGE_CURVE('',#525,#525,#527,.T.);
#525 = VERTEX_POINT('',#526);
#526 = CARTESIAN_POINT('',(-1.587645779672E-15,-15.,13.));
#527 = CIRCLE('',#528,5.);
#528 = AXIS2_PLACEMENT_3D('',#529,#530,#531);
#529 = CARTESIAN_POINT('',(-2.697868804297E-15,-15.,18.));
#530 = DIRECTION('',(-1.,-8.659560562355E-17,-2.22044604925E-16));
#531 = DIRECTION('',(2.22044604925E-16,-8.659560562355E-17,-1.));
#532 = ORIENTED_EDGE('',*,*,#533,.T.);
#533 = EDGE_CURVE('',#525,#112,#534,.T.);
#534 = LINE('',#535,#536);
#535 = CARTESIAN_POINT('',(-1.587645779672E-15,-15.,13.));
#536 = VECTOR('',#537,1.);
#537 = DIRECTION('',(1.,8.659560562355E-17,2.22044604925E-16));
#538 = ORIENTED_EDGE('',*,*,#111,.T.);
#539 = ORIENTED_EDGE('',*,*,#533,.F.);
#540 = CYLINDRICAL_SURFACE('',#541,5.);
#541 = AXIS2_PLACEMENT_3D('',#542,#543,#544);
#542 = CARTESIAN_POINT('',(-2.697868804297E-15,-15.,18.));
#543 = DIRECTION('',(-1.,-8.659560562355E-17,-2.22044604925E-16));
#544 = DIRECTION('',(2.22044604925E-16,-8.659560562355E-17,-1.));
#545 = ADVANCED_FACE('',(#546),#596,.T.);
#546 = FACE_BOUND('',#547,.T.);
#547 = EDGE_LOOP('',(#548,#558,#566,#574,#581,#582,#588,#589));
#548 = ORIENTED_EDGE('',*,*,#549,.T.);
#549 = EDGE_CURVE('',#550,#552,#554,.T.);
#550 = VERTEX_POINT('',#551);
#551 = CARTESIAN_POINT('',(125.,-1.5,3.));
#552 = VERTEX_POINT('',#553);
#553 = CARTESIAN_POINT('',(125.,-3.,3.));
#554 = LINE('',#555,#556);
#555 = CARTESIAN_POINT('',(125.,6.661338147751E-16,3.));
#556 = VECTOR('',#557,1.);
#557 = DIRECTION('',(0.,-1.,2.22044604925E-16));
#558 = ORIENTED_EDGE('',*,*,#559,.T.);
#559 = EDGE_CURVE('',#552,#560,#562,.T.);
#560 = VERTEX_POINT('',#561);
#561 = CARTESIAN_POINT('',(125.,-137.,3.));
#562 = LINE('',#563,#564);
#563 = CARTESIAN_POINT('',(125.,6.661338147751E-16,3.));
#564 = VECTOR('',#565,1.);
#565 = DIRECTION('',(0.,-1.,2.22044604925E-16));
#566 = ORIENTED_EDGE('',*,*,#567,.T.);
#567 = EDGE_CURVE('',#560,#568,#570,.T.);
#568 = VERTEX_POINT('',#569);
#569 = CARTESIAN_POINT('',(125.,-138.5,3.));
#570 = LINE('',#571,#572);
#571 = CARTESIAN_POINT('',(125.,6.661338147751E-16,3.));
#572 = VECTOR('',#573,1.);
#573 = DIRECTION('',(0.,-1.,2.22044604925E-16));
#574 = ORIENTED_EDGE('',*,*,#575,.F.);
#575 = EDGE_CURVE('',#302,#568,#576,.T.);
#576 = CIRCLE('',#577,1.5);
#577 = AXIS2_PLACEMENT_3D('',#578,#579,#580);
#578 = CARTESIAN_POINT('',(125.,-138.5,4.5));
#579 = DIRECTION('',(1.,0.,2.22044604925E-16));
#580 = DIRECTION('',(-2.22044604925E-16,-2.22044604925E-16,1.));
#581 = ORIENTED_EDGE('',*,*,#301,.T.);
#582 = ORIENTED_EDGE('',*,*,#583,.F.);
#583 = EDGE_CURVE('',#131,#304,#584,.T.);
#584 = LINE('',#585,#586);
#585 = CARTESIAN_POINT('',(125.,6.820708570524E-15,30.717740576616));
#586 = VECTOR('',#587,1.);
#587 = DIRECTION('',(0.,-1.,2.22044604925E-16));
#588 = ORIENTED_EDGE('',*,*,#128,.F.);
#589 = ORIENTED_EDGE('',*,*,#590,.T.);
#590 = EDGE_CURVE('',#129,#550,#591,.T.);
#591 = CIRCLE('',#592,1.5);
#592 = AXIS2_PLACEMENT_3D('',#593,#594,#595);
#593 = CARTESIAN_POINT('',(125.,-1.5,4.5));
#594 = DIRECTION('',(-1.,0.,-2.22044604925E-16));
#595 = DIRECTION('',(-2.22044604925E-16,-2.22044604925E-16,1.));
#596 = PLANE('',#597);
#597 = AXIS2_PLACEMENT_3D('',#598,#599,#600);
#598 = CARTESIAN_POINT('',(125.,6.661338147751E-16,3.));
#599 = DIRECTION('',(-1.,0.,0.));
#600 = DIRECTION('',(0.,2.22044604925E-16,1.));
#601 = ADVANCED_FACE('',(#602),#621,.T.);
#602 = FACE_BOUND('',#603,.F.);
#603 = EDGE_LOOP('',(#604,#605,#613,#620));
#604 = ORIENTED_EDGE('',*,*,#590,.T.);
#605 = ORIENTED_EDGE('',*,*,#606,.T.);
#606 = EDGE_CURVE('',#550,#607,#609,.T.);
#607 = VERTEX_POINT('',#608);
#608 = CARTESIAN_POINT('',(126.,-1.5,3.));
#609 = LINE('',#610,#611);
#610 = CARTESIAN_POINT('',(125.,-1.5,3.));
#611 = VECTOR('',#612,1.);
#612 = DIRECTION('',(1.,0.,2.22044604925E-16));
#613 = ORIENTED_EDGE('',*,*,#614,.F.);
#614 = EDGE_CURVE('',#206,#607,#615,.T.);
#615 = CIRCLE('',#616,1.5);
#616 = AXIS2_PLACEMENT_3D('',#617,#618,#619);
#617 = CARTESIAN_POINT('',(126.,-1.5,4.5));
#618 = DIRECTION('',(-1.,0.,-2.22044604925E-16));
#619 = DIRECTION('',(-2.22044604925E-16,-2.22044604925E-16,1.));
#620 = ORIENTED_EDGE('',*,*,#213,.F.);
#621 = CYLINDRICAL_SURFACE('',#622,1.5);
#622 = AXIS2_PLACEMENT_3D('',#623,#624,#625);
#623 = CARTESIAN_POINT('',(125.,-1.5,4.5));
#624 = DIRECTION('',(1.,0.,2.22044604925E-16));
#625 = DIRECTION('',(0.,1.,0.));
#626 = ADVANCED_FACE('',(#627),#638,.F.);
#627 = FACE_BOUND('',#628,.T.);
#628 = EDGE_LOOP('',(#629,#630,#631,#637));
#629 = ORIENTED_EDGE('',*,*,#583,.T.);
#630 = ORIENTED_EDGE('',*,*,#311,.T.);
#631 = ORIENTED_EDGE('',*,*,#632,.F.);
#632 = EDGE_CURVE('',#139,#312,#633,.T.);
#633 = LINE('',#634,#635);
#634 = CARTESIAN_POINT('',(123.13333145602,7.263809844355E-15,
    32.713291308328));
#635 = VECTOR('',#636,1.);
#636 = DIRECTION('',(0.,-1.,2.22044604925E-16));
#637 = ORIENTED_EDGE('',*,*,#138,.F.);
#638 = CYLINDRICAL_SURFACE('',#639,2.);
#639 = AXIS2_PLACEMENT_3D('',#640,#641,#642);
#640 = CARTESIAN_POINT('',(123.,6.820708570524E-15,30.717740576616));
#641 = DIRECTION('',(0.,1.,-2.22044604925E-16));
#642 = DIRECTION('',(1.,0.,0.));
#643 = ADVANCED_FACE('',(#644),#686,.T.);
#644 = FACE_BOUND('',#645,.T.);
#645 = EDGE_LOOP('',(#646,#654,#655,#656,#662,#663,#672,#680));
#646 = ORIENTED_EDGE('',*,*,#647,.F.);
#647 = EDGE_CURVE('',#607,#648,#650,.T.);
#648 = VERTEX_POINT('',#649);
#649 = CARTESIAN_POINT('',(126.,-3.,3.));
#650 = LINE('',#651,#652);
#651 = CARTESIAN_POINT('',(126.,6.661338147751E-16,3.));
#652 = VECTOR('',#653,1.);
#653 = DIRECTION('',(0.,-1.,2.22044604925E-16));
#654 = ORIENTED_EDGE('',*,*,#614,.F.);
#655 = ORIENTED_EDGE('',*,*,#205,.F.);
#656 = ORIENTED_EDGE('',*,*,#657,.T.);
#657 = EDGE_CURVE('',#197,#362,#658,.T.);
#658 = LINE('',#659,#660);
#659 = CARTESIAN_POINT('',(126.,6.820708570524E-15,30.717740576616));
#660 = VECTOR('',#661,1.);
#661 = DIRECTION('',(0.,-1.,2.22044604925E-16));
#662 = ORIENTED_EDGE('',*,*,#370,.T.);
#663 = ORIENTED_EDGE('',*,*,#664,.T.);
#664 = EDGE_CURVE('',#371,#665,#667,.T.);
#665 = VERTEX_POINT('',#666);
#666 = CARTESIAN_POINT('',(126.,-138.5,3.));
#667 = CIRCLE('',#668,1.5);
#668 = AXIS2_PLACEMENT_3D('',#669,#670,#671);
#669 = CARTESIAN_POINT('',(126.,-138.5,4.5));
#670 = DIRECTION('',(1.,0.,2.22044604925E-16));
#671 = DIRECTION('',(-2.22044604925E-16,-2.22044604925E-16,1.));
#672 = ORIENTED_EDGE('',*,*,#673,.F.);
#673 = EDGE_CURVE('',#674,#665,#676,.T.);
#674 = VERTEX_POINT('',#675);
#675 = CARTESIAN_POINT('',(126.,-137.,3.));
#676 = LINE('',#677,#678);
#677 = CARTESIAN_POINT('',(126.,6.661338147751E-16,3.));
#678 = VECTOR('',#679,1.);
#679 = DIRECTION('',(0.,-1.,2.22044604925E-16));
#680 = ORIENTED_EDGE('',*,*,#681,.F.);
#681 = EDGE_CURVE('',#648,#674,#682,.T.);
#682 = LINE('',#683,#684);
#683 = CARTESIAN_POINT('',(126.,6.661338147751E-16,3.));
#684 = VECTOR('',#685,1.);
#685 = DIRECTION('',(0.,-1.,2.22044604925E-16));
#686 = PLANE('',#687);
#687 = AXIS2_PLACEMENT_3D('',#688,#689,#690);
#688 = CARTESIAN_POINT('',(126.,6.820708570524E-15,30.717740576616));
#689 = DIRECTION('',(1.,0.,0.));
#690 = DIRECTION('',(0.,-2.22044604925E-16,-1.));
#691 = ADVANCED_FACE('',(#692,#698,#709,#720,#731,#742,#753,#764,#775,
    #786,#797,#808,#819,#830,#841,#852,#863,#874),#885,.F.);
#692 = FACE_BOUND('',#693,.F.);
#693 = EDGE_LOOP('',(#694,#695,#696,#697));
#694 = ORIENTED_EDGE('',*,*,#252,.T.);
#695 = ORIENTED_EDGE('',*,*,#320,.T.);
#696 = ORIENTED_EDGE('',*,*,#632,.F.);
#697 = ORIENTED_EDGE('',*,*,#147,.F.);
#698 = FACE_BOUND('',#699,.F.);
#699 = EDGE_LOOP('',(#700));
#700 = ORIENTED_EDGE('',*,*,#701,.F.);
#701 = EDGE_CURVE('',#702,#702,#704,.T.);
#702 = VERTEX_POINT('',#703);
#703 = CARTESIAN_POINT('',(10.138076180497,-128.,38.635121684859));
#704 = CIRCLE('',#705,4.);
#705 = AXIS2_PLACEMENT_3D('',#706,#707,#708);
#706 = CARTESIAN_POINT('',(14.132594319556,-128.,38.425777860662));
#707 = DIRECTION('',(5.233595624294E-02,0.,0.998629534755));
#708 = DIRECTION('',(-0.998629534755,0.,5.233595624294E-02));
#709 = FACE_BOUND('',#710,.F.);
#710 = EDGE_LOOP('',(#711));
#711 = ORIENTED_EDGE('',*,*,#712,.F.);
#712 = EDGE_CURVE('',#713,#713,#715,.T.);
#713 = VERTEX_POINT('',#714);
#714 = CARTESIAN_POINT('',(10.138076180497,-106.,38.635121684859));
#715 = CIRCLE('',#716,4.);
#716 = AXIS2_PLACEMENT_3D('',#717,#718,#719);
#717 = CARTESIAN_POINT('',(14.132594319556,-106.,38.425777860662));
#718 = DIRECTION('',(5.233595624294E-02,0.,0.998629534755));
#719 = DIRECTION('',(-0.998629534755,0.,5.233595624294E-02));
#720 = FACE_BOUND('',#721,.F.);
#721 = EDGE_LOOP('',(#722));
#722 = ORIENTED_EDGE('',*,*,#723,.F.);
#723 = EDGE_CURVE('',#724,#724,#726,.T.);
#724 = VERTEX_POINT('',#725);
#725 = CARTESIAN_POINT('',(36.10244408438,-128.,37.274386827579));
#726 = CIRCLE('',#727,4.);
#727 = AXIS2_PLACEMENT_3D('',#728,#729,#730);
#728 = CARTESIAN_POINT('',(40.096962223439,-128.,37.065043003382));
#729 = DIRECTION('',(5.233595624294E-02,0.,0.998629534755));
#730 = DIRECTION('',(-0.998629534755,0.,5.233595624294E-02));
#731 = FACE_BOUND('',#732,.F.);
#732 = EDGE_LOOP('',(#733));
#733 = ORIENTED_EDGE('',*,*,#734,.F.);
#734 = EDGE_CURVE('',#735,#735,#737,.T.);
#735 = VERTEX_POINT('',#736);
#736 = CARTESIAN_POINT('',(36.601758851763,-106.,37.248218849555));
#737 = CIRCLE('',#738,3.5);
#738 = AXIS2_PLACEMENT_3D('',#739,#740,#741);
#739 = CARTESIAN_POINT('',(40.096962223439,-106.,37.065043003382));
#740 = DIRECTION('',(5.233595624294E-02,0.,0.998629534755));
#741 = DIRECTION('',(-0.998629534755,0.,5.233595624294E-02));
#742 = FACE_BOUND('',#743,.F.);
#743 = EDGE_LOOP('',(#744));
#744 = ORIENTED_EDGE('',*,*,#745,.F.);
#745 = EDGE_CURVE('',#746,#746,#748,.T.);
#746 = VERTEX_POINT('',#747);
#747 = CARTESIAN_POINT('',(10.138076180497,-84.,38.635121684859));
#748 = CIRCLE('',#749,4.);
#749 = AXIS2_PLACEMENT_3D('',#750,#751,#752);
#750 = CARTESIAN_POINT('',(14.132594319556,-84.,38.425777860662));
#751 = DIRECTION('',(5.233595624294E-02,0.,0.998629534755));
#752 = DIRECTION('',(-0.998629534755,0.,5.233595624294E-02));
#753 = FACE_BOUND('',#754,.F.);
#754 = EDGE_LOOP('',(#755));
#755 = ORIENTED_EDGE('',*,*,#756,.F.);
#756 = EDGE_CURVE('',#757,#757,#759,.T.);
#757 = VERTEX_POINT('',#758);
#758 = CARTESIAN_POINT('',(36.10244408438,-84.,37.274386827579));
#759 = CIRCLE('',#760,4.);
#760 = AXIS2_PLACEMENT_3D('',#761,#762,#763);
#761 = CARTESIAN_POINT('',(40.096962223439,-84.,37.065043003382));
#762 = DIRECTION('',(5.233595624294E-02,0.,0.998629534755));
#763 = DIRECTION('',(-0.998629534755,0.,5.233595624294E-02));
#764 = FACE_BOUND('',#765,.F.);
#765 = EDGE_LOOP('',(#766));
#766 = ORIENTED_EDGE('',*,*,#767,.F.);
#767 = EDGE_CURVE('',#768,#768,#770,.T.);
#768 = VERTEX_POINT('',#769);
#769 = CARTESIAN_POINT('',(108.16822641689,-128.,33.497579227256));
#770 = CIRCLE('',#771,4.);
#771 = AXIS2_PLACEMENT_3D('',#772,#773,#774);
#772 = CARTESIAN_POINT('',(112.16274455595,-128.,33.288235403059));
#773 = DIRECTION('',(5.233595624294E-02,0.,0.998629534755));
#774 = DIRECTION('',(-0.998629534755,0.,5.233595624294E-02));
#775 = FACE_BOUND('',#776,.F.);
#776 = EDGE_LOOP('',(#777));
#777 = ORIENTED_EDGE('',*,*,#778,.F.);
#778 = EDGE_CURVE('',#779,#779,#781,.T.);
#779 = VERTEX_POINT('',#780);
#780 = CARTESIAN_POINT('',(106.17096734736,-106.,33.602251139354));
#781 = CIRCLE('',#782,6.);
#782 = AXIS2_PLACEMENT_3D('',#783,#784,#785);
#783 = CARTESIAN_POINT('',(112.16274455595,-106.,33.288235403059));
#784 = DIRECTION('',(5.233595624294E-02,0.,0.998629534755));
#785 = DIRECTION('',(-0.998629534755,0.,5.233595624294E-02));
#786 = FACE_BOUND('',#787,.F.);
#787 = EDGE_LOOP('',(#788));
#788 = ORIENTED_EDGE('',*,*,#789,.F.);
#789 = EDGE_CURVE('',#790,#790,#792,.T.);
#790 = VERTEX_POINT('',#791);
#791 = CARTESIAN_POINT('',(10.138076180497,-56.,38.635121684859));
#792 = CIRCLE('',#793,4.);
#793 = AXIS2_PLACEMENT_3D('',#794,#795,#796);
#794 = CARTESIAN_POINT('',(14.132594319556,-56.,38.425777860662));
#795 = DIRECTION('',(5.233595624294E-02,0.,0.998629534755));
#796 = DIRECTION('',(-0.998629534755,0.,5.233595624294E-02));
#797 = FACE_BOUND('',#798,.F.);
#798 = EDGE_LOOP('',(#799));
#799 = ORIENTED_EDGE('',*,*,#800,.F.);
#800 = EDGE_CURVE('',#801,#801,#803,.T.);
#801 = VERTEX_POINT('',#802);
#802 = CARTESIAN_POINT('',(23.619574899821,-70.,37.928586278195));
#803 = CIRCLE('',#804,3.5);
#804 = AXIS2_PLACEMENT_3D('',#805,#806,#807);
#805 = CARTESIAN_POINT('',(27.114778271498,-70.,37.745410432022));
#806 = DIRECTION('',(5.233595624294E-02,0.,0.998629534755));
#807 = DIRECTION('',(-0.998629534755,0.,5.233595624294E-02));
#808 = FACE_BOUND('',#809,.F.);
#809 = EDGE_LOOP('',(#810));
#810 = ORIENTED_EDGE('',*,*,#811,.F.);
#811 = EDGE_CURVE('',#812,#812,#814,.T.);
#812 = VERTEX_POINT('',#813);
#813 = CARTESIAN_POINT('',(36.10244408438,-56.,37.274386827579));
#814 = CIRCLE('',#815,4.);
#815 = AXIS2_PLACEMENT_3D('',#816,#817,#818);
#816 = CARTESIAN_POINT('',(40.096962223439,-56.,37.065043003382));
#817 = DIRECTION('',(5.233595624294E-02,0.,0.998629534755));
#818 = DIRECTION('',(-0.998629534755,0.,5.233595624294E-02));
#819 = FACE_BOUND('',#820,.F.);
#820 = EDGE_LOOP('',(#821));
#821 = ORIENTED_EDGE('',*,*,#822,.F.);
#822 = EDGE_CURVE('',#823,#823,#825,.T.);
#823 = VERTEX_POINT('',#824);
#824 = CARTESIAN_POINT('',(10.138076180497,-34.,38.635121684859));
#825 = CIRCLE('',#826,4.);
#826 = AXIS2_PLACEMENT_3D('',#827,#828,#829);
#827 = CARTESIAN_POINT('',(14.132594319556,-34.,38.425777860662));
#828 = DIRECTION('',(5.233595624294E-02,0.,0.998629534755));
#829 = DIRECTION('',(-0.998629534755,0.,5.233595624294E-02));
#830 = FACE_BOUND('',#831,.F.);
#831 = EDGE_LOOP('',(#832));
#832 = ORIENTED_EDGE('',*,*,#833,.F.);
#833 = EDGE_CURVE('',#834,#834,#836,.T.);
#834 = VERTEX_POINT('',#835);
#835 = CARTESIAN_POINT('',(10.138076180497,-12.,38.635121684859));
#836 = CIRCLE('',#837,4.);
#837 = AXIS2_PLACEMENT_3D('',#838,#839,#840);
#838 = CARTESIAN_POINT('',(14.132594319556,-12.,38.425777860662));
#839 = DIRECTION('',(5.233595624294E-02,0.,0.998629534755));
#840 = DIRECTION('',(-0.998629534755,0.,5.233595624294E-02));
#841 = FACE_BOUND('',#842,.F.);
#842 = EDGE_LOOP('',(#843));
#843 = ORIENTED_EDGE('',*,*,#844,.F.);
#844 = EDGE_CURVE('',#845,#845,#847,.T.);
#845 = VERTEX_POINT('',#846);
#846 = CARTESIAN_POINT('',(36.601758851763,-34.,37.248218849555));
#847 = CIRCLE('',#848,3.5);
#848 = AXIS2_PLACEMENT_3D('',#849,#850,#851);
#849 = CARTESIAN_POINT('',(40.096962223439,-34.,37.065043003382));
#850 = DIRECTION('',(5.233595624294E-02,0.,0.998629534755));
#851 = DIRECTION('',(-0.998629534755,0.,5.233595624294E-02));
#852 = FACE_BOUND('',#853,.F.);
#853 = EDGE_LOOP('',(#854));
#854 = ORIENTED_EDGE('',*,*,#855,.F.);
#855 = EDGE_CURVE('',#856,#856,#858,.T.);
#856 = VERTEX_POINT('',#857);
#857 = CARTESIAN_POINT('',(36.10244408438,-12.,37.274386827579));
#858 = CIRCLE('',#859,4.);
#859 = AXIS2_PLACEMENT_3D('',#860,#861,#862);
#860 = CARTESIAN_POINT('',(40.096962223439,-12.,37.065043003382));
#861 = DIRECTION('',(5.233595624294E-02,0.,0.998629534755));
#862 = DIRECTION('',(-0.998629534755,0.,5.233595624294E-02));
#863 = FACE_BOUND('',#864,.F.);
#864 = EDGE_LOOP('',(#865));
#865 = ORIENTED_EDGE('',*,*,#866,.F.);
#866 = EDGE_CURVE('',#867,#867,#869,.T.);
#867 = VERTEX_POINT('',#868);
#868 = CARTESIAN_POINT('',(106.17096734736,-34.,33.602251139354));
#869 = CIRCLE('',#870,6.);
#870 = AXIS2_PLACEMENT_3D('',#871,#872,#873);
#871 = CARTESIAN_POINT('',(112.16274455595,-34.,33.288235403059));
#872 = DIRECTION('',(5.233595624294E-02,0.,0.998629534755));
#873 = DIRECTION('',(-0.998629534755,0.,5.233595624294E-02));
#874 = FACE_BOUND('',#875,.F.);
#875 = EDGE_LOOP('',(#876));
#876 = ORIENTED_EDGE('',*,*,#877,.F.);
#877 = EDGE_CURVE('',#878,#878,#880,.T.);
#878 = VERTEX_POINT('',#879);
#879 = CARTESIAN_POINT('',(108.16822641689,-12.,33.497579227256));
#880 = CIRCLE('',#881,4.);
#881 = AXIS2_PLACEMENT_3D('',#882,#883,#884);
#882 = CARTESIAN_POINT('',(112.16274455595,-12.,33.288235403059));
#883 = DIRECTION('',(5.233595624294E-02,0.,0.998629534755));
#884 = DIRECTION('',(-0.998629534755,0.,5.233595624294E-02));
#885 = PLANE('',#886);
#886 = AXIS2_PLACEMENT_3D('',#887,#888,#889);
#887 = CARTESIAN_POINT('',(3.133333076189,8.660233577827E-15,
    39.002224714041));
#888 = DIRECTION('',(5.233595604922E-02,2.217403005133E-16,
    0.998629534765));
#889 = DIRECTION('',(0.998629534765,-1.162091668432E-17,
    -5.233595604922E-02));
#890 = ADVANCED_FACE('',(#891),#902,.T.);
#891 = FACE_BOUND('',#892,.F.);
#892 = EDGE_LOOP('',(#893,#894,#895,#901));
#893 = ORIENTED_EDGE('',*,*,#657,.T.);
#894 = ORIENTED_EDGE('',*,*,#361,.T.);
#895 = ORIENTED_EDGE('',*,*,#896,.F.);
#896 = EDGE_CURVE('',#189,#354,#897,.T.);
#897 = LINE('',#898,#899);
#898 = CARTESIAN_POINT('',(123.2,7.485360439493E-15,33.711066486035));
#899 = VECTOR('',#900,1.);
#900 = DIRECTION('',(0.,-1.,2.22044604925E-16));
#901 = ORIENTED_EDGE('',*,*,#196,.F.);
#902 = CYLINDRICAL_SURFACE('',#903,3.);
#903 = AXIS2_PLACEMENT_3D('',#904,#905,#906);
#904 = CARTESIAN_POINT('',(123.,6.820708570524E-15,30.717740576616));
#905 = DIRECTION('',(0.,1.,-2.22044604925E-16));
#906 = DIRECTION('',(1.,0.,0.));
#907 = ADVANCED_FACE('',(#908,#919,#930,#941,#952,#963,#974,#985,#996,
    #1007,#1018,#1029,#1040,#1051,#1062,#1073,#1084,#1095),#1106,.F.);
#908 = FACE_BOUND('',#909,.F.);
#909 = EDGE_LOOP('',(#910,#911,#912,#918));
#910 = ORIENTED_EDGE('',*,*,#896,.T.);
#911 = ORIENTED_EDGE('',*,*,#353,.T.);
#912 = ORIENTED_EDGE('',*,*,#913,.F.);
#913 = EDGE_CURVE('',#180,#345,#914,.T.);
#914 = LINE('',#915,#916);
#915 = CARTESIAN_POINT('',(3.2,8.881784197001E-15,40.));
#916 = VECTOR('',#917,1.);
#917 = DIRECTION('',(0.,-1.,2.22044604925E-16));
#918 = ORIENTED_EDGE('',*,*,#188,.F.);
#919 = FACE_BOUND('',#920,.F.);
#920 = EDGE_LOOP('',(#921));
#921 = ORIENTED_EDGE('',*,*,#922,.T.);
#922 = EDGE_CURVE('',#923,#923,#925,.T.);
#923 = VERTEX_POINT('',#924);
#924 = CARTESIAN_POINT('',(108.22055697868,-128.,34.496105829679));
#925 = CIRCLE('',#926,4.);
#926 = AXIS2_PLACEMENT_3D('',#927,#928,#929);
#927 = CARTESIAN_POINT('',(112.2150751177,-128.,34.286762004707));
#928 = DIRECTION('',(5.233595624294E-02,2.461811871147E-32,
    0.998629534755));
#929 = DIRECTION('',(-0.998629534755,-6.938893903907E-18,
    5.233595624294E-02));
#930 = FACE_BOUND('',#931,.F.);
#931 = EDGE_LOOP('',(#932));
#932 = ORIENTED_EDGE('',*,*,#933,.T.);
#933 = EDGE_CURVE('',#934,#934,#936,.T.);
#934 = VERTEX_POINT('',#935);
#935 = CARTESIAN_POINT('',(106.22329790917,-106.,34.600777742165));
#936 = CIRCLE('',#937,6.);
#937 = AXIS2_PLACEMENT_3D('',#938,#939,#940);
#938 = CARTESIAN_POINT('',(112.2150751177,-106.,34.286762004707));
#939 = DIRECTION('',(5.233595624294E-02,2.461811871147E-32,
    0.998629534755));
#940 = DIRECTION('',(-0.998629534755,-6.938893903907E-18,
    5.233595624294E-02));
#941 = FACE_BOUND('',#942,.F.);
#942 = EDGE_LOOP('',(#943));
#943 = ORIENTED_EDGE('',*,*,#944,.T.);
#944 = EDGE_CURVE('',#945,#945,#947,.T.);
#945 = VERTEX_POINT('',#946);
#946 = CARTESIAN_POINT('',(36.154774646901,-128.,38.272913443983));
#947 = CIRCLE('',#948,4.);
#948 = AXIS2_PLACEMENT_3D('',#949,#950,#951);
#949 = CARTESIAN_POINT('',(40.149292785919,-128.,38.063569619011));
#950 = DIRECTION('',(5.233595624294E-02,2.461811871147E-32,
    0.998629534755));
#951 = DIRECTION('',(-0.998629534755,-6.938893903907E-18,
    5.233595624294E-02));
#952 = FACE_BOUND('',#953,.F.);
#953 = EDGE_LOOP('',(#954));
#954 = ORIENTED_EDGE('',*,*,#955,.T.);
#955 = EDGE_CURVE('',#956,#956,#958,.T.);
#956 = VERTEX_POINT('',#957);
#957 = CARTESIAN_POINT('',(36.654089414278,-106.,38.246745465861));
#958 = CIRCLE('',#959,3.5);
#959 = AXIS2_PLACEMENT_3D('',#960,#961,#962);
#960 = CARTESIAN_POINT('',(40.149292785919,-106.,38.063569619011));
#961 = DIRECTION('',(5.233595624294E-02,2.461811871147E-32,
    0.998629534755));
#962 = DIRECTION('',(-0.998629534755,-6.938893903907E-18,
    5.233595624294E-02));
#963 = FACE_BOUND('',#964,.F.);
#964 = EDGE_LOOP('',(#965));
#965 = ORIENTED_EDGE('',*,*,#966,.T.);
#966 = EDGE_CURVE('',#967,#967,#969,.T.);
#967 = VERTEX_POINT('',#968);
#968 = CARTESIAN_POINT('',(10.190406743282,-128.,39.633648306299));
#969 = CIRCLE('',#970,4.);
#970 = AXIS2_PLACEMENT_3D('',#971,#972,#973);
#971 = CARTESIAN_POINT('',(14.1849248823,-128.,39.424304481328));
#972 = DIRECTION('',(5.233595624294E-02,2.461811871147E-32,
    0.998629534755));
#973 = DIRECTION('',(-0.998629534755,-6.938893903907E-18,
    5.233595624294E-02));
#974 = FACE_BOUND('',#975,.F.);
#975 = EDGE_LOOP('',(#976));
#976 = ORIENTED_EDGE('',*,*,#977,.T.);
#977 = EDGE_CURVE('',#978,#978,#980,.T.);
#978 = VERTEX_POINT('',#979);
#979 = CARTESIAN_POINT('',(10.190406743282,-106.,39.633648306299));
#980 = CIRCLE('',#981,4.);
#981 = AXIS2_PLACEMENT_3D('',#982,#983,#984);
#982 = CARTESIAN_POINT('',(14.1849248823,-106.,39.424304481328));
#983 = DIRECTION('',(5.233595624294E-02,2.461811871147E-32,
    0.998629534755));
#984 = DIRECTION('',(-0.998629534755,-6.938893903907E-18,
    5.233595624294E-02));
#985 = FACE_BOUND('',#986,.F.);
#986 = EDGE_LOOP('',(#987));
#987 = ORIENTED_EDGE('',*,*,#988,.T.);
#988 = EDGE_CURVE('',#989,#989,#991,.T.);
#989 = VERTEX_POINT('',#990);
#990 = CARTESIAN_POINT('',(36.154774646901,-84.,38.272913443983));
#991 = CIRCLE('',#992,4.);
#992 = AXIS2_PLACEMENT_3D('',#993,#994,#995);
#993 = CARTESIAN_POINT('',(40.149292785919,-84.,38.063569619011));
#994 = DIRECTION('',(5.233595624294E-02,2.461811871147E-32,
    0.998629534755));
#995 = DIRECTION('',(-0.998629534755,-6.938893903907E-18,
    5.233595624294E-02));
#996 = FACE_BOUND('',#997,.F.);
#997 = EDGE_LOOP('',(#998));
#998 = ORIENTED_EDGE('',*,*,#999,.T.);
#999 = EDGE_CURVE('',#1000,#1000,#1002,.T.);
#1000 = VERTEX_POINT('',#1001);
#1001 = CARTESIAN_POINT('',(10.190406743282,-84.,39.633648306299));
#1002 = CIRCLE('',#1003,4.);
#1003 = AXIS2_PLACEMENT_3D('',#1004,#1005,#1006);
#1004 = CARTESIAN_POINT('',(14.1849248823,-84.,39.424304481328));
#1005 = DIRECTION('',(5.233595624294E-02,2.461811871147E-32,
    0.998629534755));
#1006 = DIRECTION('',(-0.998629534755,-6.938893903907E-18,
    5.233595624294E-02));
#1007 = FACE_BOUND('',#1008,.F.);
#1008 = EDGE_LOOP('',(#1009));
#1009 = ORIENTED_EDGE('',*,*,#1010,.T.);
#1010 = EDGE_CURVE('',#1011,#1011,#1013,.T.);
#1011 = VERTEX_POINT('',#1012);
#1012 = CARTESIAN_POINT('',(106.22329790917,-34.,34.600777742165));
#1013 = CIRCLE('',#1014,6.);
#1014 = AXIS2_PLACEMENT_3D('',#1015,#1016,#1017);
#1015 = CARTESIAN_POINT('',(112.2150751177,-34.,34.286762004707));
#1016 = DIRECTION('',(5.233595624294E-02,2.461811871147E-32,
    0.998629534755));
#1017 = DIRECTION('',(-0.998629534755,-6.938893903907E-18,
    5.233595624294E-02));
#1018 = FACE_BOUND('',#1019,.F.);
#1019 = EDGE_LOOP('',(#1020));
#1020 = ORIENTED_EDGE('',*,*,#1021,.T.);
#1021 = EDGE_CURVE('',#1022,#1022,#1024,.T.);
#1022 = VERTEX_POINT('',#1023);
#1023 = CARTESIAN_POINT('',(108.22055697868,-12.,34.496105829679));
#1024 = CIRCLE('',#1025,4.);
#1025 = AXIS2_PLACEMENT_3D('',#1026,#1027,#1028);
#1026 = CARTESIAN_POINT('',(112.2150751177,-12.,34.286762004707));
#1027 = DIRECTION('',(5.233595624294E-02,2.461811871147E-32,
    0.998629534755));
#1028 = DIRECTION('',(-0.998629534755,-6.938893903907E-18,
    5.233595624294E-02));
#1029 = FACE_BOUND('',#1030,.F.);
#1030 = EDGE_LOOP('',(#1031));
#1031 = ORIENTED_EDGE('',*,*,#1032,.T.);
#1032 = EDGE_CURVE('',#1033,#1033,#1035,.T.);
#1033 = VERTEX_POINT('',#1034);
#1034 = CARTESIAN_POINT('',(36.154774646901,-56.,38.272913443983));
#1035 = CIRCLE('',#1036,4.);
#1036 = AXIS2_PLACEMENT_3D('',#1037,#1038,#1039);
#1037 = CARTESIAN_POINT('',(40.149292785919,-56.,38.063569619011));
#1038 = DIRECTION('',(5.233595624294E-02,2.461811871147E-32,
    0.998629534755));
#1039 = DIRECTION('',(-0.998629534755,-6.938893903907E-18,
    5.233595624294E-02));
#1040 = FACE_BOUND('',#1041,.F.);
#1041 = EDGE_LOOP('',(#1042));
#1042 = ORIENTED_EDGE('',*,*,#1043,.T.);
#1043 = EDGE_CURVE('',#1044,#1044,#1046,.T.);
#1044 = VERTEX_POINT('',#1045);
#1045 = CARTESIAN_POINT('',(23.671905462469,-70.,38.92711289702));
#1046 = CIRCLE('',#1047,3.5);
#1047 = AXIS2_PLACEMENT_3D('',#1048,#1049,#1050);
#1048 = CARTESIAN_POINT('',(27.16710883411,-70.,38.743937050169));
#1049 = DIRECTION('',(5.233595624294E-02,2.461811871147E-32,
    0.998629534755));
#1050 = DIRECTION('',(-0.998629534755,-6.938893903907E-18,
    5.233595624294E-02));
#1051 = FACE_BOUND('',#1052,.F.);
#1052 = EDGE_LOOP('',(#1053));
#1053 = ORIENTED_EDGE('',*,*,#1054,.T.);
#1054 = EDGE_CURVE('',#1055,#1055,#1057,.T.);
#1055 = VERTEX_POINT('',#1056);
#1056 = CARTESIAN_POINT('',(10.190406743282,-56.,39.633648306299));
#1057 = CIRCLE('',#1058,4.);
#1058 = AXIS2_PLACEMENT_3D('',#1059,#1060,#1061);
#1059 = CARTESIAN_POINT('',(14.1849248823,-56.,39.424304481328));
#1060 = DIRECTION('',(5.233595624294E-02,2.461811871147E-32,
    0.998629534755));
#1061 = DIRECTION('',(-0.998629534755,-6.938893903907E-18,
    5.233595624294E-02));
#1062 = FACE_BOUND('',#1063,.F.);
#1063 = EDGE_LOOP('',(#1064));
#1064 = ORIENTED_EDGE('',*,*,#1065,.T.);
#1065 = EDGE_CURVE('',#1066,#1066,#1068,.T.);
#1066 = VERTEX_POINT('',#1067);
#1067 = CARTESIAN_POINT('',(36.654089414278,-34.,38.246745465861));
#1068 = CIRCLE('',#1069,3.5);
#1069 = AXIS2_PLACEMENT_3D('',#1070,#1071,#1072);
#1070 = CARTESIAN_POINT('',(40.149292785919,-34.,38.063569619011));
#1071 = DIRECTION('',(5.233595624294E-02,2.461811871147E-32,
    0.998629534755));
#1072 = DIRECTION('',(-0.998629534755,-6.938893903907E-18,
    5.233595624294E-02));
#1073 = FACE_BOUND('',#1074,.F.);
#1074 = EDGE_LOOP('',(#1075));
#1075 = ORIENTED_EDGE('',*,*,#1076,.T.);
#1076 = EDGE_CURVE('',#1077,#1077,#1079,.T.);
#1077 = VERTEX_POINT('',#1078);
#1078 = CARTESIAN_POINT('',(36.154774646901,-12.,38.272913443983));
#1079 = CIRCLE('',#1080,4.);
#1080 = AXIS2_PLACEMENT_3D('',#1081,#1082,#1083);
#1081 = CARTESIAN_POINT('',(40.149292785919,-12.,38.063569619011));
#1082 = DIRECTION('',(5.233595624294E-02,2.461811871147E-32,
    0.998629534755));
#1083 = DIRECTION('',(-0.998629534755,-6.938893903907E-18,
    5.233595624294E-02));
#1084 = FACE_BOUND('',#1085,.F.);
#1085 = EDGE_LOOP('',(#1086));
#1086 = ORIENTED_EDGE('',*,*,#1087,.T.);
#1087 = EDGE_CURVE('',#1088,#1088,#1090,.T.);
#1088 = VERTEX_POINT('',#1089);
#1089 = CARTESIAN_POINT('',(10.190406743282,-34.,39.633648306299));
#1090 = CIRCLE('',#1091,4.);
#1091 = AXIS2_PLACEMENT_3D('',#1092,#1093,#1094);
#1092 = CARTESIAN_POINT('',(14.1849248823,-34.,39.424304481328));
#1093 = DIRECTION('',(5.233595624294E-02,2.461811871147E-32,
    0.998629534755));
#1094 = DIRECTION('',(-0.998629534755,-6.938893903907E-18,
    5.233595624294E-02));
#1095 = FACE_BOUND('',#1096,.F.);
#1096 = EDGE_LOOP('',(#1097));
#1097 = ORIENTED_EDGE('',*,*,#1098,.T.);
#1098 = EDGE_CURVE('',#1099,#1099,#1101,.T.);
#1099 = VERTEX_POINT('',#1100);
#1100 = CARTESIAN_POINT('',(10.190406743282,-12.,39.633648306299));
#1101 = CIRCLE('',#1102,4.);
#1102 = AXIS2_PLACEMENT_3D('',#1103,#1104,#1105);
#1103 = CARTESIAN_POINT('',(14.1849248823,-12.,39.424304481328));
#1104 = DIRECTION('',(5.233595624294E-02,2.461811871147E-32,
    0.998629534755));
#1105 = DIRECTION('',(-0.998629534755,-6.938893903907E-18,
    5.233595624294E-02));
#1106 = PLANE('',#1107);
#1107 = AXIS2_PLACEMENT_3D('',#1108,#1109,#1110);
#1108 = CARTESIAN_POINT('',(123.2,7.485360439493E-15,33.711066486035));
#1109 = DIRECTION('',(-5.233595624294E-02,-2.21740300511E-16,
    -0.998629534755));
#1110 = DIRECTION('',(-0.998629534755,1.162091672734E-17,
    5.233595624294E-02));
#1111 = ADVANCED_FACE('',(#1112),#1123,.T.);
#1112 = FACE_BOUND('',#1113,.F.);
#1113 = EDGE_LOOP('',(#1114,#1115,#1116,#1122));
#1114 = ORIENTED_EDGE('',*,*,#913,.T.);
#1115 = ORIENTED_EDGE('',*,*,#344,.T.);
#1116 = ORIENTED_EDGE('',*,*,#1117,.F.);
#1117 = EDGE_CURVE('',#172,#337,#1118,.T.);
#1118 = LINE('',#1119,#1120);
#1119 = CARTESIAN_POINT('',(0.,8.217132328032E-15,37.006674090581));
#1120 = VECTOR('',#1121,1.);
#1121 = DIRECTION('',(0.,-1.,2.22044604925E-16));
#1122 = ORIENTED_EDGE('',*,*,#179,.F.);
#1123 = CYLINDRICAL_SURFACE('',#1124,3.);
#1124 = AXIS2_PLACEMENT_3D('',#1125,#1126,#1127);
#1125 = CARTESIAN_POINT('',(3.,8.217132328032E-15,37.006674090581));
#1126 = DIRECTION('',(0.,1.,-2.22044604925E-16));
#1127 = DIRECTION('',(1.,0.,0.));
#1128 = ADVANCED_FACE('',(#1129,#1144,#1147,#1150),#1153,.T.);
#1129 = FACE_BOUND('',#1130,.T.);
#1130 = EDGE_LOOP('',(#1131,#1132,#1138,#1139,#1140,#1141,#1142,#1143));
#1131 = ORIENTED_EDGE('',*,*,#277,.T.);
#1132 = ORIENTED_EDGE('',*,*,#1133,.T.);
#1133 = EDGE_CURVE('',#278,#451,#1134,.T.);
#1134 = LINE('',#1135,#1136);
#1135 = CARTESIAN_POINT('',(0.,6.661338147751E-16,3.));
#1136 = VECTOR('',#1137,1.);
#1137 = DIRECTION('',(0.,-1.,2.22044604925E-16));
#1138 = ORIENTED_EDGE('',*,*,#450,.T.);
#1139 = ORIENTED_EDGE('',*,*,#425,.F.);
#1140 = ORIENTED_EDGE('',*,*,#336,.T.);
#1141 = ORIENTED_EDGE('',*,*,#1117,.F.);
#1142 = ORIENTED_EDGE('',*,*,#171,.F.);
#1143 = ORIENTED_EDGE('',*,*,#227,.T.);
#1144 = FACE_BOUND('',#1145,.T.);
#1145 = EDGE_LOOP('',(#1146));
#1146 = ORIENTED_EDGE('',*,*,#474,.F.);
#1147 = FACE_BOUND('',#1148,.T.);
#1148 = EDGE_LOOP('',(#1149));
#1149 = ORIENTED_EDGE('',*,*,#524,.F.);
#1150 = FACE_BOUND('',#1151,.T.);
#1151 = EDGE_LOOP('',(#1152));
#1152 = ORIENTED_EDGE('',*,*,#499,.F.);
#1153 = PLANE('',#1154);
#1154 = AXIS2_PLACEMENT_3D('',#1155,#1156,#1157);
#1155 = CARTESIAN_POINT('',(0.,6.661338147751E-16,3.));
#1156 = DIRECTION('',(-1.,0.,0.));
#1157 = DIRECTION('',(0.,2.22044604925E-16,1.));
#1158 = ADVANCED_FACE('',(#1159),#1194,.F.);
#1159 = FACE_BOUND('',#1160,.F.);
#1160 = EDGE_LOOP('',(#1161,#1170,#1178,#1186,#1192,#1193));
#1161 = ORIENTED_EDGE('',*,*,#1162,.F.);
#1162 = EDGE_CURVE('',#1163,#278,#1165,.T.);
#1163 = VERTEX_POINT('',#1164);
#1164 = CARTESIAN_POINT('',(3.,-3.,6.661338147751E-16));
#1165 = CIRCLE('',#1166,3.);
#1166 = AXIS2_PLACEMENT_3D('',#1167,#1168,#1169);
#1167 = CARTESIAN_POINT('',(3.,-3.,3.));
#1168 = DIRECTION('',(0.,1.,-2.22044604925E-16));
#1169 = DIRECTION('',(1.,0.,0.));
#1170 = ORIENTED_EDGE('',*,*,#1171,.T.);
#1171 = EDGE_CURVE('',#1163,#1172,#1174,.T.);
#1172 = VERTEX_POINT('',#1173);
#1173 = CARTESIAN_POINT('',(11.,-3.,1.554312234475E-15));
#1174 = LINE('',#1175,#1176);
#1175 = CARTESIAN_POINT('',(0.,-3.,0.));
#1176 = VECTOR('',#1177,1.);
#1177 = DIRECTION('',(1.,0.,2.22044604925E-16));
#1178 = ORIENTED_EDGE('',*,*,#1179,.F.);
#1179 = EDGE_CURVE('',#1180,#1172,#1182,.T.);
#1180 = VERTEX_POINT('',#1181);
#1181 = CARTESIAN_POINT('',(11.,-3.,1.));
#1182 = LINE('',#1183,#1184);
#1183 = CARTESIAN_POINT('',(11.,-3.,0.5));
#1184 = VECTOR('',#1185,1.);
#1185 = DIRECTION('',(0.,0.,-1.));
#1186 = ORIENTED_EDGE('',*,*,#1187,.F.);
#1187 = EDGE_CURVE('',#393,#1180,#1188,.T.);
#1188 = LINE('',#1189,#1190);
#1189 = CARTESIAN_POINT('',(1.5,-3.,1.));
#1190 = VECTOR('',#1191,1.);
#1191 = DIRECTION('',(1.,0.,0.));
#1192 = ORIENTED_EDGE('',*,*,#392,.T.);
#1193 = ORIENTED_EDGE('',*,*,#285,.F.);
#1194 = PLANE('',#1195);
#1195 = AXIS2_PLACEMENT_3D('',#1196,#1197,#1198);
#1196 = CARTESIAN_POINT('',(0.,-3.,0.));
#1197 = DIRECTION('',(0.,-1.,0.));
#1198 = DIRECTION('',(-2.22044604925E-16,0.,1.));
#1199 = ADVANCED_FACE('',(#1200),#1211,.T.);
#1200 = FACE_BOUND('',#1201,.T.);
#1201 = EDGE_LOOP('',(#1202,#1203,#1209,#1210));
#1202 = ORIENTED_EDGE('',*,*,#575,.T.);
#1203 = ORIENTED_EDGE('',*,*,#1204,.T.);
#1204 = EDGE_CURVE('',#568,#665,#1205,.T.);
#1205 = LINE('',#1206,#1207);
#1206 = CARTESIAN_POINT('',(125.,-138.5,3.));
#1207 = VECTOR('',#1208,1.);
#1208 = DIRECTION('',(1.,0.,2.22044604925E-16));
#1209 = ORIENTED_EDGE('',*,*,#664,.F.);
#1210 = ORIENTED_EDGE('',*,*,#378,.F.);
#1211 = CYLINDRICAL_SURFACE('',#1212,1.5);
#1212 = AXIS2_PLACEMENT_3D('',#1213,#1214,#1215);
#1213 = CARTESIAN_POINT('',(125.,-138.5,4.5));
#1214 = DIRECTION('',(1.,0.,2.22044604925E-16));
#1215 = DIRECTION('',(0.,-1.,0.));
#1216 = ADVANCED_FACE('',(#1217,#1235,#1246),#1257,.T.);
#1217 = FACE_BOUND('',#1218,.T.);
#1218 = EDGE_LOOP('',(#1219,#1220,#1221,#1229));
#1219 = ORIENTED_EDGE('',*,*,#1187,.F.);
#1220 = ORIENTED_EDGE('',*,*,#411,.T.);
#1221 = ORIENTED_EDGE('',*,*,#1222,.T.);
#1222 = EDGE_CURVE('',#403,#1223,#1225,.T.);
#1223 = VERTEX_POINT('',#1224);
#1224 = CARTESIAN_POINT('',(11.,-137.,1.));
#1225 = LINE('',#1226,#1227);
#1226 = CARTESIAN_POINT('',(1.5,-137.,1.));
#1227 = VECTOR('',#1228,1.);
#1228 = DIRECTION('',(1.,0.,0.));
#1229 = ORIENTED_EDGE('',*,*,#1230,.F.);
#1230 = EDGE_CURVE('',#1180,#1223,#1231,.T.);
#1231 = LINE('',#1232,#1233);
#1232 = CARTESIAN_POINT('',(11.,2.22044604925E-16,1.));
#1233 = VECTOR('',#1234,1.);
#1234 = DIRECTION('',(0.,-1.,2.22044604925E-16));
#1235 = FACE_BOUND('',#1236,.T.);
#1236 = EDGE_LOOP('',(#1237));
#1237 = ORIENTED_EDGE('',*,*,#1238,.T.);
#1238 = EDGE_CURVE('',#1239,#1239,#1241,.T.);
#1239 = VERTEX_POINT('',#1240);
#1240 = CARTESIAN_POINT('',(9.5,-62.,1.));
#1241 = CIRCLE('',#1242,2.5);
#1242 = AXIS2_PLACEMENT_3D('',#1243,#1244,#1245);
#1243 = CARTESIAN_POINT('',(7.,-62.,1.));
#1244 = DIRECTION('',(0.,-1.224646799147E-16,-1.));
#1245 = DIRECTION('',(1.,0.,0.));
#1246 = FACE_BOUND('',#1247,.T.);
#1247 = EDGE_LOOP('',(#1248));
#1248 = ORIENTED_EDGE('',*,*,#1249,.T.);
#1249 = EDGE_CURVE('',#1250,#1250,#1252,.T.);
#1250 = VERTEX_POINT('',#1251);
#1251 = CARTESIAN_POINT('',(9.5,-8.,1.));
#1252 = CIRCLE('',#1253,2.5);
#1253 = AXIS2_PLACEMENT_3D('',#1254,#1255,#1256);
#1254 = CARTESIAN_POINT('',(7.,-8.,1.));
#1255 = DIRECTION('',(0.,-1.224646799147E-16,-1.));
#1256 = DIRECTION('',(1.,0.,0.));
#1257 = PLANE('',#1258);
#1258 = AXIS2_PLACEMENT_3D('',#1259,#1260,#1261);
#1259 = CARTESIAN_POINT('',(3.,2.22044604925E-16,1.));
#1260 = DIRECTION('',(0.,2.22044604925E-16,1.));
#1261 = DIRECTION('',(1.,0.,0.));
#1262 = ADVANCED_FACE('',(#1263),#1291,.T.);
#1263 = FACE_BOUND('',#1264,.T.);
#1264 = EDGE_LOOP('',(#1265,#1274,#1282,#1288,#1289,#1290));
#1265 = ORIENTED_EDGE('',*,*,#1266,.F.);
#1266 = EDGE_CURVE('',#1267,#451,#1269,.T.);
#1267 = VERTEX_POINT('',#1268);
#1268 = CARTESIAN_POINT('',(3.,-137.,1.554312234475E-14));
#1269 = CIRCLE('',#1270,3.);
#1270 = AXIS2_PLACEMENT_3D('',#1271,#1272,#1273);
#1271 = CARTESIAN_POINT('',(3.,-137.,3.));
#1272 = DIRECTION('',(0.,1.,-2.22044604925E-16));
#1273 = DIRECTION('',(1.,0.,0.));
#1274 = ORIENTED_EDGE('',*,*,#1275,.T.);
#1275 = EDGE_CURVE('',#1267,#1276,#1278,.T.);
#1276 = VERTEX_POINT('',#1277);
#1277 = CARTESIAN_POINT('',(11.,-137.,1.643130076445E-14));
#1278 = LINE('',#1279,#1280);
#1279 = CARTESIAN_POINT('',(0.,-137.,0.));
#1280 = VECTOR('',#1281,1.);
#1281 = DIRECTION('',(1.,0.,2.22044604925E-16));
#1282 = ORIENTED_EDGE('',*,*,#1283,.F.);
#1283 = EDGE_CURVE('',#1223,#1276,#1284,.T.);
#1284 = LINE('',#1285,#1286);
#1285 = CARTESIAN_POINT('',(11.,-137.,0.5));
#1286 = VECTOR('',#1287,1.);
#1287 = DIRECTION('',(0.,0.,-1.));
#1288 = ORIENTED_EDGE('',*,*,#1222,.F.);
#1289 = ORIENTED_EDGE('',*,*,#402,.T.);
#1290 = ORIENTED_EDGE('',*,*,#458,.F.);
#1291 = PLANE('',#1292);
#1292 = AXIS2_PLACEMENT_3D('',#1293,#1294,#1295);
#1293 = CARTESIAN_POINT('',(0.,-137.,0.));
#1294 = DIRECTION('',(0.,-1.,0.));
#1295 = DIRECTION('',(-2.22044604925E-16,0.,1.));
#1296 = ADVANCED_FACE('',(#1297),#1308,.F.);
#1297 = FACE_BOUND('',#1298,.F.);
#1298 = EDGE_LOOP('',(#1299,#1300,#1306,#1307));
#1299 = ORIENTED_EDGE('',*,*,#549,.T.);
#1300 = ORIENTED_EDGE('',*,*,#1301,.T.);
#1301 = EDGE_CURVE('',#552,#648,#1302,.T.);
#1302 = LINE('',#1303,#1304);
#1303 = CARTESIAN_POINT('',(-6.661338147751E-16,-3.,3.));
#1304 = VECTOR('',#1305,1.);
#1305 = DIRECTION('',(1.,0.,2.22044604925E-16));
#1306 = ORIENTED_EDGE('',*,*,#647,.F.);
#1307 = ORIENTED_EDGE('',*,*,#606,.F.);
#1308 = PLANE('',#1309);
#1309 = AXIS2_PLACEMENT_3D('',#1310,#1311,#1312);
#1310 = CARTESIAN_POINT('',(-6.661338147751E-16,-3.,3.));
#1311 = DIRECTION('',(-2.22044604925E-16,0.,1.));
#1312 = DIRECTION('',(0.,1.,0.));
#1313 = ADVANCED_FACE('',(#1314),#1341,.F.);
#1314 = FACE_BOUND('',#1315,.T.);
#1315 = EDGE_LOOP('',(#1316,#1325,#1333,#1340));
#1316 = ORIENTED_EDGE('',*,*,#1317,.T.);
#1317 = EDGE_CURVE('',#552,#1318,#1320,.T.);
#1318 = VERTEX_POINT('',#1319);
#1319 = CARTESIAN_POINT('',(123.,-3.,1.));
#1320 = CIRCLE('',#1321,2.);
#1321 = AXIS2_PLACEMENT_3D('',#1322,#1323,#1324);
#1322 = CARTESIAN_POINT('',(123.,-3.,3.));
#1323 = DIRECTION('',(0.,1.,-2.22044604925E-16));
#1324 = DIRECTION('',(1.,0.,0.));
#1325 = ORIENTED_EDGE('',*,*,#1326,.T.);
#1326 = EDGE_CURVE('',#1318,#1327,#1329,.T.);
#1327 = VERTEX_POINT('',#1328);
#1328 = CARTESIAN_POINT('',(123.,-137.,1.));
#1329 = LINE('',#1330,#1331);
#1330 = CARTESIAN_POINT('',(123.,2.22044604925E-16,1.));
#1331 = VECTOR('',#1332,1.);
#1332 = DIRECTION('',(0.,-1.,2.22044604925E-16));
#1333 = ORIENTED_EDGE('',*,*,#1334,.F.);
#1334 = EDGE_CURVE('',#560,#1327,#1335,.T.);
#1335 = CIRCLE('',#1336,2.);
#1336 = AXIS2_PLACEMENT_3D('',#1337,#1338,#1339);
#1337 = CARTESIAN_POINT('',(123.,-137.,3.));
#1338 = DIRECTION('',(0.,1.,-2.22044604925E-16));
#1339 = DIRECTION('',(1.,0.,0.));
#1340 = ORIENTED_EDGE('',*,*,#559,.F.);
#1341 = CYLINDRICAL_SURFACE('',#1342,2.);
#1342 = AXIS2_PLACEMENT_3D('',#1343,#1344,#1345);
#1343 = CARTESIAN_POINT('',(123.,6.661338147751E-16,3.));
#1344 = DIRECTION('',(0.,1.,-2.22044604925E-16));
#1345 = DIRECTION('',(1.,0.,0.));
#1346 = ADVANCED_FACE('',(#1347),#1358,.T.);
#1347 = FACE_BOUND('',#1348,.T.);
#1348 = EDGE_LOOP('',(#1349,#1350,#1356,#1357));
#1349 = ORIENTED_EDGE('',*,*,#567,.F.);
#1350 = ORIENTED_EDGE('',*,*,#1351,.T.);
#1351 = EDGE_CURVE('',#560,#674,#1352,.T.);
#1352 = LINE('',#1353,#1354);
#1353 = CARTESIAN_POINT('',(-6.661338147751E-16,-137.,3.));
#1354 = VECTOR('',#1355,1.);
#1355 = DIRECTION('',(1.,0.,2.22044604925E-16));
#1356 = ORIENTED_EDGE('',*,*,#673,.T.);
#1357 = ORIENTED_EDGE('',*,*,#1204,.F.);
#1358 = PLANE('',#1359);
#1359 = AXIS2_PLACEMENT_3D('',#1360,#1361,#1362);
#1360 = CARTESIAN_POINT('',(-6.661338147751E-16,-137.,3.));
#1361 = DIRECTION('',(2.22044604925E-16,0.,-1.));
#1362 = DIRECTION('',(0.,-1.,0.));
#1363 = ADVANCED_FACE('',(#1364),#1391,.T.);
#1364 = FACE_BOUND('',#1365,.F.);
#1365 = EDGE_LOOP('',(#1366,#1375,#1383,#1390));
#1366 = ORIENTED_EDGE('',*,*,#1367,.T.);
#1367 = EDGE_CURVE('',#648,#1368,#1370,.T.);
#1368 = VERTEX_POINT('',#1369);
#1369 = CARTESIAN_POINT('',(123.,-3.,1.398881011028E-14));
#1370 = CIRCLE('',#1371,3.);
#1371 = AXIS2_PLACEMENT_3D('',#1372,#1373,#1374);
#1372 = CARTESIAN_POINT('',(123.,-3.,3.));
#1373 = DIRECTION('',(0.,1.,-2.22044604925E-16));
#1374 = DIRECTION('',(1.,0.,0.));
#1375 = ORIENTED_EDGE('',*,*,#1376,.T.);
#1376 = EDGE_CURVE('',#1368,#1377,#1379,.T.);
#1377 = VERTEX_POINT('',#1378);
#1378 = CARTESIAN_POINT('',(123.,-137.,2.886579864025E-14));
#1379 = LINE('',#1380,#1381);
#1380 = CARTESIAN_POINT('',(123.,0.,0.));
#1381 = VECTOR('',#1382,1.);
#1382 = DIRECTION('',(0.,-1.,2.22044604925E-16));
#1383 = ORIENTED_EDGE('',*,*,#1384,.F.);
#1384 = EDGE_CURVE('',#674,#1377,#1385,.T.);
#1385 = CIRCLE('',#1386,3.);
#1386 = AXIS2_PLACEMENT_3D('',#1387,#1388,#1389);
#1387 = CARTESIAN_POINT('',(123.,-137.,3.));
#1388 = DIRECTION('',(0.,1.,-2.22044604925E-16));
#1389 = DIRECTION('',(1.,0.,0.));
#1390 = ORIENTED_EDGE('',*,*,#681,.F.);
#1391 = CYLINDRICAL_SURFACE('',#1392,3.);
#1392 = AXIS2_PLACEMENT_3D('',#1393,#1394,#1395);
#1393 = CARTESIAN_POINT('',(123.,6.661338147751E-16,3.));
#1394 = DIRECTION('',(0.,1.,-2.22044604925E-16));
#1395 = DIRECTION('',(1.,0.,0.));
#1396 = ADVANCED_FACE('',(#1397),#1408,.F.);
#1397 = FACE_BOUND('',#1398,.F.);
#1398 = EDGE_LOOP('',(#1399,#1400,#1406,#1407));
#1399 = ORIENTED_EDGE('',*,*,#966,.F.);
#1400 = ORIENTED_EDGE('',*,*,#1401,.T.);
#1401 = EDGE_CURVE('',#967,#702,#1402,.T.);
#1402 = LINE('',#1403,#1404);
#1403 = CARTESIAN_POINT('',(10.190406743282,-128.,39.633648306299));
#1404 = VECTOR('',#1405,1.);
#1405 = DIRECTION('',(-5.233595624294E-02,0.,-0.998629534755));
#1406 = ORIENTED_EDGE('',*,*,#701,.T.);
#1407 = ORIENTED_EDGE('',*,*,#1401,.F.);
#1408 = CYLINDRICAL_SURFACE('',#1409,4.);
#1409 = AXIS2_PLACEMENT_3D('',#1410,#1411,#1412);
#1410 = CARTESIAN_POINT('',(14.1849248823,-128.,39.424304481328));
#1411 = DIRECTION('',(5.233595624294E-02,0.,0.998629534755));
#1412 = DIRECTION('',(-0.998629534755,0.,5.233595624294E-02));
#1413 = ADVANCED_FACE('',(#1414),#1425,.F.);
#1414 = FACE_BOUND('',#1415,.F.);
#1415 = EDGE_LOOP('',(#1416,#1417,#1423,#1424));
#1416 = ORIENTED_EDGE('',*,*,#977,.F.);
#1417 = ORIENTED_EDGE('',*,*,#1418,.T.);
#1418 = EDGE_CURVE('',#978,#713,#1419,.T.);
#1419 = LINE('',#1420,#1421);
#1420 = CARTESIAN_POINT('',(10.190406743282,-106.,39.633648306299));
#1421 = VECTOR('',#1422,1.);
#1422 = DIRECTION('',(-5.233595624294E-02,0.,-0.998629534755));
#1423 = ORIENTED_EDGE('',*,*,#712,.T.);
#1424 = ORIENTED_EDGE('',*,*,#1418,.F.);
#1425 = CYLINDRICAL_SURFACE('',#1426,4.);
#1426 = AXIS2_PLACEMENT_3D('',#1427,#1428,#1429);
#1427 = CARTESIAN_POINT('',(14.1849248823,-106.,39.424304481328));
#1428 = DIRECTION('',(5.233595624294E-02,0.,0.998629534755));
#1429 = DIRECTION('',(-0.998629534755,0.,5.233595624294E-02));
#1430 = ADVANCED_FACE('',(#1431),#1442,.F.);
#1431 = FACE_BOUND('',#1432,.F.);
#1432 = EDGE_LOOP('',(#1433,#1434,#1440,#1441));
#1433 = ORIENTED_EDGE('',*,*,#944,.F.);
#1434 = ORIENTED_EDGE('',*,*,#1435,.T.);
#1435 = EDGE_CURVE('',#945,#724,#1436,.T.);
#1436 = LINE('',#1437,#1438);
#1437 = CARTESIAN_POINT('',(36.154774646901,-128.,38.272913443983));
#1438 = VECTOR('',#1439,1.);
#1439 = DIRECTION('',(-5.233595624294E-02,0.,-0.998629534755));
#1440 = ORIENTED_EDGE('',*,*,#723,.T.);
#1441 = ORIENTED_EDGE('',*,*,#1435,.F.);
#1442 = CYLINDRICAL_SURFACE('',#1443,4.);
#1443 = AXIS2_PLACEMENT_3D('',#1444,#1445,#1446);
#1444 = CARTESIAN_POINT('',(40.149292785919,-128.,38.063569619011));
#1445 = DIRECTION('',(5.233595624294E-02,0.,0.998629534755));
#1446 = DIRECTION('',(-0.998629534755,0.,5.233595624294E-02));
#1447 = ADVANCED_FACE('',(#1448),#1459,.F.);
#1448 = FACE_BOUND('',#1449,.F.);
#1449 = EDGE_LOOP('',(#1450,#1451,#1457,#1458));
#1450 = ORIENTED_EDGE('',*,*,#955,.F.);
#1451 = ORIENTED_EDGE('',*,*,#1452,.T.);
#1452 = EDGE_CURVE('',#956,#735,#1453,.T.);
#1453 = LINE('',#1454,#1455);
#1454 = CARTESIAN_POINT('',(36.654089414278,-106.,38.246745465861));
#1455 = VECTOR('',#1456,1.);
#1456 = DIRECTION('',(-5.233595624294E-02,0.,-0.998629534755));
#1457 = ORIENTED_EDGE('',*,*,#734,.T.);
#1458 = ORIENTED_EDGE('',*,*,#1452,.F.);
#1459 = CYLINDRICAL_SURFACE('',#1460,3.5);
#1460 = AXIS2_PLACEMENT_3D('',#1461,#1462,#1463);
#1461 = CARTESIAN_POINT('',(40.149292785919,-106.,38.063569619011));
#1462 = DIRECTION('',(5.233595624294E-02,0.,0.998629534755));
#1463 = DIRECTION('',(-0.998629534755,0.,5.233595624294E-02));
#1464 = ADVANCED_FACE('',(#1465),#1476,.F.);
#1465 = FACE_BOUND('',#1466,.F.);
#1466 = EDGE_LOOP('',(#1467,#1468,#1474,#1475));
#1467 = ORIENTED_EDGE('',*,*,#999,.F.);
#1468 = ORIENTED_EDGE('',*,*,#1469,.T.);
#1469 = EDGE_CURVE('',#1000,#746,#1470,.T.);
#1470 = LINE('',#1471,#1472);
#1471 = CARTESIAN_POINT('',(10.190406743282,-84.,39.633648306299));
#1472 = VECTOR('',#1473,1.);
#1473 = DIRECTION('',(-5.233595624294E-02,0.,-0.998629534755));
#1474 = ORIENTED_EDGE('',*,*,#745,.T.);
#1475 = ORIENTED_EDGE('',*,*,#1469,.F.);
#1476 = CYLINDRICAL_SURFACE('',#1477,4.);
#1477 = AXIS2_PLACEMENT_3D('',#1478,#1479,#1480);
#1478 = CARTESIAN_POINT('',(14.1849248823,-84.,39.424304481328));
#1479 = DIRECTION('',(5.233595624294E-02,0.,0.998629534755));
#1480 = DIRECTION('',(-0.998629534755,0.,5.233595624294E-02));
#1481 = ADVANCED_FACE('',(#1482),#1493,.F.);
#1482 = FACE_BOUND('',#1483,.F.);
#1483 = EDGE_LOOP('',(#1484,#1485,#1491,#1492));
#1484 = ORIENTED_EDGE('',*,*,#988,.F.);
#1485 = ORIENTED_EDGE('',*,*,#1486,.T.);
#1486 = EDGE_CURVE('',#989,#757,#1487,.T.);
#1487 = LINE('',#1488,#1489);
#1488 = CARTESIAN_POINT('',(36.154774646901,-84.,38.272913443983));
#1489 = VECTOR('',#1490,1.);
#1490 = DIRECTION('',(-5.233595624294E-02,0.,-0.998629534755));
#1491 = ORIENTED_EDGE('',*,*,#756,.T.);
#1492 = ORIENTED_EDGE('',*,*,#1486,.F.);
#1493 = CYLINDRICAL_SURFACE('',#1494,4.);
#1494 = AXIS2_PLACEMENT_3D('',#1495,#1496,#1497);
#1495 = CARTESIAN_POINT('',(40.149292785919,-84.,38.063569619011));
#1496 = DIRECTION('',(5.233595624294E-02,0.,0.998629534755));
#1497 = DIRECTION('',(-0.998629534755,0.,5.233595624294E-02));
#1498 = ADVANCED_FACE('',(#1499),#1510,.F.);
#1499 = FACE_BOUND('',#1500,.F.);
#1500 = EDGE_LOOP('',(#1501,#1502,#1508,#1509));
#1501 = ORIENTED_EDGE('',*,*,#922,.F.);
#1502 = ORIENTED_EDGE('',*,*,#1503,.T.);
#1503 = EDGE_CURVE('',#923,#768,#1504,.T.);
#1504 = LINE('',#1505,#1506);
#1505 = CARTESIAN_POINT('',(108.22055697868,-128.,34.496105829679));
#1506 = VECTOR('',#1507,1.);
#1507 = DIRECTION('',(-5.233595624294E-02,0.,-0.998629534755));
#1508 = ORIENTED_EDGE('',*,*,#767,.T.);
#1509 = ORIENTED_EDGE('',*,*,#1503,.F.);
#1510 = CYLINDRICAL_SURFACE('',#1511,4.);
#1511 = AXIS2_PLACEMENT_3D('',#1512,#1513,#1514);
#1512 = CARTESIAN_POINT('',(112.2150751177,-128.,34.286762004707));
#1513 = DIRECTION('',(5.233595624294E-02,0.,0.998629534755));
#1514 = DIRECTION('',(-0.998629534755,0.,5.233595624294E-02));
#1515 = ADVANCED_FACE('',(#1516),#1527,.F.);
#1516 = FACE_BOUND('',#1517,.F.);
#1517 = EDGE_LOOP('',(#1518,#1519,#1525,#1526));
#1518 = ORIENTED_EDGE('',*,*,#933,.F.);
#1519 = ORIENTED_EDGE('',*,*,#1520,.T.);
#1520 = EDGE_CURVE('',#934,#779,#1521,.T.);
#1521 = LINE('',#1522,#1523);
#1522 = CARTESIAN_POINT('',(106.22329790917,-106.,34.600777742165));
#1523 = VECTOR('',#1524,1.);
#1524 = DIRECTION('',(-5.233595624294E-02,0.,-0.998629534755));
#1525 = ORIENTED_EDGE('',*,*,#778,.T.);
#1526 = ORIENTED_EDGE('',*,*,#1520,.F.);
#1527 = CYLINDRICAL_SURFACE('',#1528,6.);
#1528 = AXIS2_PLACEMENT_3D('',#1529,#1530,#1531);
#1529 = CARTESIAN_POINT('',(112.2150751177,-106.,34.286762004707));
#1530 = DIRECTION('',(5.233595624294E-02,0.,0.998629534755));
#1531 = DIRECTION('',(-0.998629534755,0.,5.233595624294E-02));
#1532 = ADVANCED_FACE('',(#1533),#1544,.F.);
#1533 = FACE_BOUND('',#1534,.F.);
#1534 = EDGE_LOOP('',(#1535,#1536,#1542,#1543));
#1535 = ORIENTED_EDGE('',*,*,#1054,.F.);
#1536 = ORIENTED_EDGE('',*,*,#1537,.T.);
#1537 = EDGE_CURVE('',#1055,#790,#1538,.T.);
#1538 = LINE('',#1539,#1540);
#1539 = CARTESIAN_POINT('',(10.190406743282,-56.,39.633648306299));
#1540 = VECTOR('',#1541,1.);
#1541 = DIRECTION('',(-5.233595624294E-02,0.,-0.998629534755));
#1542 = ORIENTED_EDGE('',*,*,#789,.T.);
#1543 = ORIENTED_EDGE('',*,*,#1537,.F.);
#1544 = CYLINDRICAL_SURFACE('',#1545,4.);
#1545 = AXIS2_PLACEMENT_3D('',#1546,#1547,#1548);
#1546 = CARTESIAN_POINT('',(14.1849248823,-56.,39.424304481328));
#1547 = DIRECTION('',(5.233595624294E-02,0.,0.998629534755));
#1548 = DIRECTION('',(-0.998629534755,0.,5.233595624294E-02));
#1549 = ADVANCED_FACE('',(#1550),#1561,.F.);
#1550 = FACE_BOUND('',#1551,.F.);
#1551 = EDGE_LOOP('',(#1552,#1553,#1559,#1560));
#1552 = ORIENTED_EDGE('',*,*,#1043,.F.);
#1553 = ORIENTED_EDGE('',*,*,#1554,.T.);
#1554 = EDGE_CURVE('',#1044,#801,#1555,.T.);
#1555 = LINE('',#1556,#1557);
#1556 = CARTESIAN_POINT('',(23.671905462469,-70.,38.92711289702));
#1557 = VECTOR('',#1558,1.);
#1558 = DIRECTION('',(-5.233595624294E-02,0.,-0.998629534755));
#1559 = ORIENTED_EDGE('',*,*,#800,.T.);
#1560 = ORIENTED_EDGE('',*,*,#1554,.F.);
#1561 = CYLINDRICAL_SURFACE('',#1562,3.5);
#1562 = AXIS2_PLACEMENT_3D('',#1563,#1564,#1565);
#1563 = CARTESIAN_POINT('',(27.16710883411,-70.,38.743937050169));
#1564 = DIRECTION('',(5.233595624294E-02,0.,0.998629534755));
#1565 = DIRECTION('',(-0.998629534755,0.,5.233595624294E-02));
#1566 = ADVANCED_FACE('',(#1567),#1578,.F.);
#1567 = FACE_BOUND('',#1568,.F.);
#1568 = EDGE_LOOP('',(#1569,#1570,#1576,#1577));
#1569 = ORIENTED_EDGE('',*,*,#1032,.F.);
#1570 = ORIENTED_EDGE('',*,*,#1571,.T.);
#1571 = EDGE_CURVE('',#1033,#812,#1572,.T.);
#1572 = LINE('',#1573,#1574);
#1573 = CARTESIAN_POINT('',(36.154774646901,-56.,38.272913443983));
#1574 = VECTOR('',#1575,1.);
#1575 = DIRECTION('',(-5.233595624294E-02,0.,-0.998629534755));
#1576 = ORIENTED_EDGE('',*,*,#811,.T.);
#1577 = ORIENTED_EDGE('',*,*,#1571,.F.);
#1578 = CYLINDRICAL_SURFACE('',#1579,4.);
#1579 = AXIS2_PLACEMENT_3D('',#1580,#1581,#1582);
#1580 = CARTESIAN_POINT('',(40.149292785919,-56.,38.063569619011));
#1581 = DIRECTION('',(5.233595624294E-02,0.,0.998629534755));
#1582 = DIRECTION('',(-0.998629534755,0.,5.233595624294E-02));
#1583 = ADVANCED_FACE('',(#1584),#1595,.F.);
#1584 = FACE_BOUND('',#1585,.F.);
#1585 = EDGE_LOOP('',(#1586,#1587,#1593,#1594));
#1586 = ORIENTED_EDGE('',*,*,#1087,.F.);
#1587 = ORIENTED_EDGE('',*,*,#1588,.T.);
#1588 = EDGE_CURVE('',#1088,#823,#1589,.T.);
#1589 = LINE('',#1590,#1591);
#1590 = CARTESIAN_POINT('',(10.190406743282,-34.,39.633648306299));
#1591 = VECTOR('',#1592,1.);
#1592 = DIRECTION('',(-5.233595624294E-02,0.,-0.998629534755));
#1593 = ORIENTED_EDGE('',*,*,#822,.T.);
#1594 = ORIENTED_EDGE('',*,*,#1588,.F.);
#1595 = CYLINDRICAL_SURFACE('',#1596,4.);
#1596 = AXIS2_PLACEMENT_3D('',#1597,#1598,#1599);
#1597 = CARTESIAN_POINT('',(14.1849248823,-34.,39.424304481328));
#1598 = DIRECTION('',(5.233595624294E-02,0.,0.998629534755));
#1599 = DIRECTION('',(-0.998629534755,0.,5.233595624294E-02));
#1600 = ADVANCED_FACE('',(#1601),#1612,.F.);
#1601 = FACE_BOUND('',#1602,.F.);
#1602 = EDGE_LOOP('',(#1603,#1604,#1610,#1611));
#1603 = ORIENTED_EDGE('',*,*,#1098,.F.);
#1604 = ORIENTED_EDGE('',*,*,#1605,.T.);
#1605 = EDGE_CURVE('',#1099,#834,#1606,.T.);
#1606 = LINE('',#1607,#1608);
#1607 = CARTESIAN_POINT('',(10.190406743282,-12.,39.633648306299));
#1608 = VECTOR('',#1609,1.);
#1609 = DIRECTION('',(-5.233595624294E-02,0.,-0.998629534755));
#1610 = ORIENTED_EDGE('',*,*,#833,.T.);
#1611 = ORIENTED_EDGE('',*,*,#1605,.F.);
#1612 = CYLINDRICAL_SURFACE('',#1613,4.);
#1613 = AXIS2_PLACEMENT_3D('',#1614,#1615,#1616);
#1614 = CARTESIAN_POINT('',(14.1849248823,-12.,39.424304481328));
#1615 = DIRECTION('',(5.233595624294E-02,0.,0.998629534755));
#1616 = DIRECTION('',(-0.998629534755,0.,5.233595624294E-02));
#1617 = ADVANCED_FACE('',(#1618),#1629,.F.);
#1618 = FACE_BOUND('',#1619,.F.);
#1619 = EDGE_LOOP('',(#1620,#1621,#1627,#1628));
#1620 = ORIENTED_EDGE('',*,*,#1065,.F.);
#1621 = ORIENTED_EDGE('',*,*,#1622,.T.);
#1622 = EDGE_CURVE('',#1066,#845,#1623,.T.);
#1623 = LINE('',#1624,#1625);
#1624 = CARTESIAN_POINT('',(36.654089414278,-34.,38.246745465861));
#1625 = VECTOR('',#1626,1.);
#1626 = DIRECTION('',(-5.233595624294E-02,0.,-0.998629534755));
#1627 = ORIENTED_EDGE('',*,*,#844,.T.);
#1628 = ORIENTED_EDGE('',*,*,#1622,.F.);
#1629 = CYLINDRICAL_SURFACE('',#1630,3.5);
#1630 = AXIS2_PLACEMENT_3D('',#1631,#1632,#1633);
#1631 = CARTESIAN_POINT('',(40.149292785919,-34.,38.063569619011));
#1632 = DIRECTION('',(5.233595624294E-02,0.,0.998629534755));
#1633 = DIRECTION('',(-0.998629534755,0.,5.233595624294E-02));
#1634 = ADVANCED_FACE('',(#1635),#1646,.F.);
#1635 = FACE_BOUND('',#1636,.F.);
#1636 = EDGE_LOOP('',(#1637,#1638,#1644,#1645));
#1637 = ORIENTED_EDGE('',*,*,#1076,.F.);
#1638 = ORIENTED_EDGE('',*,*,#1639,.T.);
#1639 = EDGE_CURVE('',#1077,#856,#1640,.T.);
#1640 = LINE('',#1641,#1642);
#1641 = CARTESIAN_POINT('',(36.154774646901,-12.,38.272913443983));
#1642 = VECTOR('',#1643,1.);
#1643 = DIRECTION('',(-5.233595624294E-02,0.,-0.998629534755));
#1644 = ORIENTED_EDGE('',*,*,#855,.T.);
#1645 = ORIENTED_EDGE('',*,*,#1639,.F.);
#1646 = CYLINDRICAL_SURFACE('',#1647,4.);
#1647 = AXIS2_PLACEMENT_3D('',#1648,#1649,#1650);
#1648 = CARTESIAN_POINT('',(40.149292785919,-12.,38.063569619011));
#1649 = DIRECTION('',(5.233595624294E-02,0.,0.998629534755));
#1650 = DIRECTION('',(-0.998629534755,0.,5.233595624294E-02));
#1651 = ADVANCED_FACE('',(#1652),#1663,.F.);
#1652 = FACE_BOUND('',#1653,.F.);
#1653 = EDGE_LOOP('',(#1654,#1655,#1661,#1662));
#1654 = ORIENTED_EDGE('',*,*,#1010,.F.);
#1655 = ORIENTED_EDGE('',*,*,#1656,.T.);
#1656 = EDGE_CURVE('',#1011,#867,#1657,.T.);
#1657 = LINE('',#1658,#1659);
#1658 = CARTESIAN_POINT('',(106.22329790917,-34.,34.600777742165));
#1659 = VECTOR('',#1660,1.);
#1660 = DIRECTION('',(-5.233595624294E-02,0.,-0.998629534755));
#1661 = ORIENTED_EDGE('',*,*,#866,.T.);
#1662 = ORIENTED_EDGE('',*,*,#1656,.F.);
#1663 = CYLINDRICAL_SURFACE('',#1664,6.);
#1664 = AXIS2_PLACEMENT_3D('',#1665,#1666,#1667);
#1665 = CARTESIAN_POINT('',(112.2150751177,-34.,34.286762004707));
#1666 = DIRECTION('',(5.233595624294E-02,0.,0.998629534755));
#1667 = DIRECTION('',(-0.998629534755,0.,5.233595624294E-02));
#1668 = ADVANCED_FACE('',(#1669),#1680,.F.);
#1669 = FACE_BOUND('',#1670,.F.);
#1670 = EDGE_LOOP('',(#1671,#1672,#1678,#1679));
#1671 = ORIENTED_EDGE('',*,*,#1021,.F.);
#1672 = ORIENTED_EDGE('',*,*,#1673,.T.);
#1673 = EDGE_CURVE('',#1022,#878,#1674,.T.);
#1674 = LINE('',#1675,#1676);
#1675 = CARTESIAN_POINT('',(108.22055697868,-12.,34.496105829679));
#1676 = VECTOR('',#1677,1.);
#1677 = DIRECTION('',(-5.233595624294E-02,0.,-0.998629534755));
#1678 = ORIENTED_EDGE('',*,*,#877,.T.);
#1679 = ORIENTED_EDGE('',*,*,#1673,.F.);
#1680 = CYLINDRICAL_SURFACE('',#1681,4.);
#1681 = AXIS2_PLACEMENT_3D('',#1682,#1683,#1684);
#1682 = CARTESIAN_POINT('',(112.2150751177,-12.,34.286762004707));
#1683 = DIRECTION('',(5.233595624294E-02,0.,0.998629534755));
#1684 = DIRECTION('',(-0.998629534755,0.,5.233595624294E-02));
#1685 = ADVANCED_FACE('',(#1686),#1697,.T.);
#1686 = FACE_BOUND('',#1687,.F.);
#1687 = EDGE_LOOP('',(#1688,#1689,#1690,#1691));
#1688 = ORIENTED_EDGE('',*,*,#1162,.T.);
#1689 = ORIENTED_EDGE('',*,*,#1133,.T.);
#1690 = ORIENTED_EDGE('',*,*,#1266,.F.);
#1691 = ORIENTED_EDGE('',*,*,#1692,.F.);
#1692 = EDGE_CURVE('',#1163,#1267,#1693,.T.);
#1693 = LINE('',#1694,#1695);
#1694 = CARTESIAN_POINT('',(3.,0.,0.));
#1695 = VECTOR('',#1696,1.);
#1696 = DIRECTION('',(0.,-1.,2.22044604925E-16));
#1697 = CYLINDRICAL_SURFACE('',#1698,3.);
#1698 = AXIS2_PLACEMENT_3D('',#1699,#1700,#1701);
#1699 = CARTESIAN_POINT('',(3.,6.661338147751E-16,3.));
#1700 = DIRECTION('',(0.,1.,-2.22044604925E-16));
#1701 = DIRECTION('',(1.,0.,0.));
#1702 = ADVANCED_FACE('',(#1703),#1714,.T.);
#1703 = FACE_BOUND('',#1704,.T.);
#1704 = EDGE_LOOP('',(#1705,#1706,#1707,#1708));
#1705 = ORIENTED_EDGE('',*,*,#1179,.F.);
#1706 = ORIENTED_EDGE('',*,*,#1230,.T.);
#1707 = ORIENTED_EDGE('',*,*,#1283,.T.);
#1708 = ORIENTED_EDGE('',*,*,#1709,.F.);
#1709 = EDGE_CURVE('',#1172,#1276,#1710,.T.);
#1710 = LINE('',#1711,#1712);
#1711 = CARTESIAN_POINT('',(11.,0.,0.));
#1712 = VECTOR('',#1713,1.);
#1713 = DIRECTION('',(0.,-1.,2.22044604925E-16));
#1714 = PLANE('',#1715);
#1715 = AXIS2_PLACEMENT_3D('',#1716,#1717,#1718);
#1716 = CARTESIAN_POINT('',(11.,2.22044604925E-16,1.));
#1717 = DIRECTION('',(1.,0.,0.));
#1718 = DIRECTION('',(0.,-2.22044604925E-16,-1.));
#1719 = ADVANCED_FACE('',(#1720,#1726,#1737),#1748,.T.);
#1720 = FACE_BOUND('',#1721,.T.);
#1721 = EDGE_LOOP('',(#1722,#1723,#1724,#1725));
#1722 = ORIENTED_EDGE('',*,*,#1171,.T.);
#1723 = ORIENTED_EDGE('',*,*,#1709,.T.);
#1724 = ORIENTED_EDGE('',*,*,#1275,.F.);
#1725 = ORIENTED_EDGE('',*,*,#1692,.F.);
#1726 = FACE_BOUND('',#1727,.T.);
#1727 = EDGE_LOOP('',(#1728));
#1728 = ORIENTED_EDGE('',*,*,#1729,.F.);
#1729 = EDGE_CURVE('',#1730,#1730,#1732,.T.);
#1730 = VERTEX_POINT('',#1731);
#1731 = CARTESIAN_POINT('',(10.,-62.,7.592810154714E-15));
#1732 = CIRCLE('',#1733,3.);
#1733 = AXIS2_PLACEMENT_3D('',#1734,#1735,#1736);
#1734 = CARTESIAN_POINT('',(7.,-62.,7.592810154714E-15));
#1735 = DIRECTION('',(0.,-1.224646799147E-16,-1.));
#1736 = DIRECTION('',(1.,0.,0.));
#1737 = FACE_BOUND('',#1738,.T.);
#1738 = EDGE_LOOP('',(#1739));
#1739 = ORIENTED_EDGE('',*,*,#1740,.F.);
#1740 = EDGE_CURVE('',#1741,#1741,#1743,.T.);
#1741 = VERTEX_POINT('',#1742);
#1742 = CARTESIAN_POINT('',(10.,-8.,9.797174393179E-16));
#1743 = CIRCLE('',#1744,3.);
#1744 = AXIS2_PLACEMENT_3D('',#1745,#1746,#1747);
#1745 = CARTESIAN_POINT('',(7.,-8.,9.797174393179E-16));
#1746 = DIRECTION('',(0.,-1.224646799147E-16,-1.));
#1747 = DIRECTION('',(1.,0.,0.));
#1748 = PLANE('',#1749);
#1749 = AXIS2_PLACEMENT_3D('',#1750,#1751,#1752);
#1750 = CARTESIAN_POINT('',(11.,0.,0.));
#1751 = DIRECTION('',(0.,-2.22044604925E-16,-1.));
#1752 = DIRECTION('',(-1.,0.,0.));
#1753 = ADVANCED_FACE('',(#1754),#1773,.F.);
#1754 = FACE_BOUND('',#1755,.F.);
#1755 = EDGE_LOOP('',(#1756,#1765,#1771,#1772));
#1756 = ORIENTED_EDGE('',*,*,#1757,.F.);
#1757 = EDGE_CURVE('',#1758,#1758,#1760,.T.);
#1758 = VERTEX_POINT('',#1759);
#1759 = CARTESIAN_POINT('',(9.5,-62.,0.5));
#1760 = CIRCLE('',#1761,2.5);
#1761 = AXIS2_PLACEMENT_3D('',#1762,#1763,#1764);
#1762 = CARTESIAN_POINT('',(7.,-62.,0.5));
#1763 = DIRECTION('',(0.,-1.224646799147E-16,-1.));
#1764 = DIRECTION('',(1.,0.,0.));
#1765 = ORIENTED_EDGE('',*,*,#1766,.T.);
#1766 = EDGE_CURVE('',#1758,#1239,#1767,.T.);
#1767 = LINE('',#1768,#1769);
#1768 = CARTESIAN_POINT('',(9.5,-62.,7.592810154714E-15));
#1769 = VECTOR('',#1770,1.);
#1770 = DIRECTION('',(0.,1.224646799147E-16,1.));
#1771 = ORIENTED_EDGE('',*,*,#1238,.T.);
#1772 = ORIENTED_EDGE('',*,*,#1766,.F.);
#1773 = CYLINDRICAL_SURFACE('',#1774,2.5);
#1774 = AXIS2_PLACEMENT_3D('',#1775,#1776,#1777);
#1775 = CARTESIAN_POINT('',(7.,-62.,7.592810154714E-15));
#1776 = DIRECTION('',(0.,-1.224646799147E-16,-1.));
#1777 = DIRECTION('',(1.,0.,0.));
#1778 = ADVANCED_FACE('',(#1779),#1798,.F.);
#1779 = FACE_BOUND('',#1780,.F.);
#1780 = EDGE_LOOP('',(#1781,#1790,#1796,#1797));
#1781 = ORIENTED_EDGE('',*,*,#1782,.F.);
#1782 = EDGE_CURVE('',#1783,#1783,#1785,.T.);
#1783 = VERTEX_POINT('',#1784);
#1784 = CARTESIAN_POINT('',(9.5,-8.,0.5));
#1785 = CIRCLE('',#1786,2.5);
#1786 = AXIS2_PLACEMENT_3D('',#1787,#1788,#1789);
#1787 = CARTESIAN_POINT('',(7.,-8.,0.5));
#1788 = DIRECTION('',(0.,-1.224646799147E-16,-1.));
#1789 = DIRECTION('',(1.,0.,0.));
#1790 = ORIENTED_EDGE('',*,*,#1791,.T.);
#1791 = EDGE_CURVE('',#1783,#1250,#1792,.T.);
#1792 = LINE('',#1793,#1794);
#1793 = CARTESIAN_POINT('',(9.5,-8.,9.797174393179E-16));
#1794 = VECTOR('',#1795,1.);
#1795 = DIRECTION('',(0.,1.224646799147E-16,1.));
#1796 = ORIENTED_EDGE('',*,*,#1249,.T.);
#1797 = ORIENTED_EDGE('',*,*,#1791,.F.);
#1798 = CYLINDRICAL_SURFACE('',#1799,2.5);
#1799 = AXIS2_PLACEMENT_3D('',#1800,#1801,#1802);
#1800 = CARTESIAN_POINT('',(7.,-8.,9.797174393179E-16));
#1801 = DIRECTION('',(0.,-1.224646799147E-16,-1.));
#1802 = DIRECTION('',(1.,0.,0.));
#1803 = ADVANCED_FACE('',(#1804),#1831,.F.);
#1804 = FACE_BOUND('',#1805,.F.);
#1805 = EDGE_LOOP('',(#1806,#1816,#1822,#1823,#1824,#1825));
#1806 = ORIENTED_EDGE('',*,*,#1807,.F.);
#1807 = EDGE_CURVE('',#1808,#1810,#1812,.T.);
#1808 = VERTEX_POINT('',#1809);
#1809 = CARTESIAN_POINT('',(115.,-3.,1.310063169058E-14));
#1810 = VERTEX_POINT('',#1811);
#1811 = CARTESIAN_POINT('',(115.,-3.,1.));
#1812 = LINE('',#1813,#1814);
#1813 = CARTESIAN_POINT('',(115.,-3.,0.));
#1814 = VECTOR('',#1815,1.);
#1815 = DIRECTION('',(0.,0.,1.));
#1816 = ORIENTED_EDGE('',*,*,#1817,.T.);
#1817 = EDGE_CURVE('',#1808,#1368,#1818,.T.);
#1818 = LINE('',#1819,#1820);
#1819 = CARTESIAN_POINT('',(0.,-3.,0.));
#1820 = VECTOR('',#1821,1.);
#1821 = DIRECTION('',(1.,0.,2.22044604925E-16));
#1822 = ORIENTED_EDGE('',*,*,#1367,.F.);
#1823 = ORIENTED_EDGE('',*,*,#1301,.F.);
#1824 = ORIENTED_EDGE('',*,*,#1317,.T.);
#1825 = ORIENTED_EDGE('',*,*,#1826,.F.);
#1826 = EDGE_CURVE('',#1810,#1318,#1827,.T.);
#1827 = LINE('',#1828,#1829);
#1828 = CARTESIAN_POINT('',(57.5,-3.,1.));
#1829 = VECTOR('',#1830,1.);
#1830 = DIRECTION('',(1.,0.,0.));
#1831 = PLANE('',#1832);
#1832 = AXIS2_PLACEMENT_3D('',#1833,#1834,#1835);
#1833 = CARTESIAN_POINT('',(0.,-3.,0.));
#1834 = DIRECTION('',(0.,-1.,0.));
#1835 = DIRECTION('',(-2.22044604925E-16,0.,1.));
#1836 = ADVANCED_FACE('',(#1837),#1864,.T.);
#1837 = FACE_BOUND('',#1838,.T.);
#1838 = EDGE_LOOP('',(#1839,#1849,#1855,#1856,#1857,#1858));
#1839 = ORIENTED_EDGE('',*,*,#1840,.F.);
#1840 = EDGE_CURVE('',#1841,#1843,#1845,.T.);
#1841 = VERTEX_POINT('',#1842);
#1842 = CARTESIAN_POINT('',(115.,-137.,2.797762022055E-14));
#1843 = VERTEX_POINT('',#1844);
#1844 = CARTESIAN_POINT('',(115.,-137.,1.));
#1845 = LINE('',#1846,#1847);
#1846 = CARTESIAN_POINT('',(115.,-137.,0.));
#1847 = VECTOR('',#1848,1.);
#1848 = DIRECTION('',(0.,0.,1.));
#1849 = ORIENTED_EDGE('',*,*,#1850,.T.);
#1850 = EDGE_CURVE('',#1841,#1377,#1851,.T.);
#1851 = LINE('',#1852,#1853);
#1852 = CARTESIAN_POINT('',(0.,-137.,0.));
#1853 = VECTOR('',#1854,1.);
#1854 = DIRECTION('',(1.,0.,2.22044604925E-16));
#1855 = ORIENTED_EDGE('',*,*,#1384,.F.);
#1856 = ORIENTED_EDGE('',*,*,#1351,.F.);
#1857 = ORIENTED_EDGE('',*,*,#1334,.T.);
#1858 = ORIENTED_EDGE('',*,*,#1859,.F.);
#1859 = EDGE_CURVE('',#1843,#1327,#1860,.T.);
#1860 = LINE('',#1861,#1862);
#1861 = CARTESIAN_POINT('',(57.5,-137.,1.));
#1862 = VECTOR('',#1863,1.);
#1863 = DIRECTION('',(1.,0.,0.));
#1864 = PLANE('',#1865);
#1865 = AXIS2_PLACEMENT_3D('',#1866,#1867,#1868);
#1866 = CARTESIAN_POINT('',(0.,-137.,0.));
#1867 = DIRECTION('',(0.,-1.,0.));
#1868 = DIRECTION('',(-2.22044604925E-16,0.,1.));
#1869 = ADVANCED_FACE('',(#1870,#1881,#1892),#1903,.T.);
#1870 = FACE_BOUND('',#1871,.T.);
#1871 = EDGE_LOOP('',(#1872,#1873,#1879,#1880));
#1872 = ORIENTED_EDGE('',*,*,#1826,.F.);
#1873 = ORIENTED_EDGE('',*,*,#1874,.T.);
#1874 = EDGE_CURVE('',#1810,#1843,#1875,.T.);
#1875 = LINE('',#1876,#1877);
#1876 = CARTESIAN_POINT('',(115.,2.22044604925E-16,1.));
#1877 = VECTOR('',#1878,1.);
#1878 = DIRECTION('',(0.,-1.,2.22044604925E-16));
#1879 = ORIENTED_EDGE('',*,*,#1859,.T.);
#1880 = ORIENTED_EDGE('',*,*,#1326,.F.);
#1881 = FACE_BOUND('',#1882,.T.);
#1882 = EDGE_LOOP('',(#1883));
#1883 = ORIENTED_EDGE('',*,*,#1884,.T.);
#1884 = EDGE_CURVE('',#1885,#1885,#1887,.T.);
#1885 = VERTEX_POINT('',#1886);
#1886 = CARTESIAN_POINT('',(121.5,-62.,1.));
#1887 = CIRCLE('',#1888,2.5);
#1888 = AXIS2_PLACEMENT_3D('',#1889,#1890,#1891);
#1889 = CARTESIAN_POINT('',(119.,-62.,1.));
#1890 = DIRECTION('',(0.,-1.224646799147E-16,-1.));
#1891 = DIRECTION('',(1.,0.,0.));
#1892 = FACE_BOUND('',#1893,.T.);
#1893 = EDGE_LOOP('',(#1894));
#1894 = ORIENTED_EDGE('',*,*,#1895,.T.);
#1895 = EDGE_CURVE('',#1896,#1896,#1898,.T.);
#1896 = VERTEX_POINT('',#1897);
#1897 = CARTESIAN_POINT('',(121.5,-8.,1.));
#1898 = CIRCLE('',#1899,2.5);
#1899 = AXIS2_PLACEMENT_3D('',#1900,#1901,#1902);
#1900 = CARTESIAN_POINT('',(119.,-8.,1.));
#1901 = DIRECTION('',(0.,-1.224646799147E-16,-1.));
#1902 = DIRECTION('',(1.,0.,0.));
#1903 = PLANE('',#1904);
#1904 = AXIS2_PLACEMENT_3D('',#1905,#1906,#1907);
#1905 = CARTESIAN_POINT('',(115.,2.22044604925E-16,1.));
#1906 = DIRECTION('',(0.,2.22044604925E-16,1.));
#1907 = DIRECTION('',(1.,0.,0.));
#1908 = ADVANCED_FACE('',(#1909,#1920,#1931),#1942,.T.);
#1909 = FACE_BOUND('',#1910,.T.);
#1910 = EDGE_LOOP('',(#1911,#1912,#1913,#1914));
#1911 = ORIENTED_EDGE('',*,*,#1817,.T.);
#1912 = ORIENTED_EDGE('',*,*,#1376,.T.);
#1913 = ORIENTED_EDGE('',*,*,#1850,.F.);
#1914 = ORIENTED_EDGE('',*,*,#1915,.F.);
#1915 = EDGE_CURVE('',#1808,#1841,#1916,.T.);
#1916 = LINE('',#1917,#1918);
#1917 = CARTESIAN_POINT('',(115.,0.,0.));
#1918 = VECTOR('',#1919,1.);
#1919 = DIRECTION('',(0.,-1.,2.22044604925E-16));
#1920 = FACE_BOUND('',#1921,.T.);
#1921 = EDGE_LOOP('',(#1922));
#1922 = ORIENTED_EDGE('',*,*,#1923,.F.);
#1923 = EDGE_CURVE('',#1924,#1924,#1926,.T.);
#1924 = VERTEX_POINT('',#1925);
#1925 = CARTESIAN_POINT('',(122.,-62.,7.592810154714E-15));
#1926 = CIRCLE('',#1927,3.);
#1927 = AXIS2_PLACEMENT_3D('',#1928,#1929,#1930);
#1928 = CARTESIAN_POINT('',(119.,-62.,7.592810154714E-15));
#1929 = DIRECTION('',(0.,-1.224646799147E-16,-1.));
#1930 = DIRECTION('',(1.,0.,0.));
#1931 = FACE_BOUND('',#1932,.T.);
#1932 = EDGE_LOOP('',(#1933));
#1933 = ORIENTED_EDGE('',*,*,#1934,.F.);
#1934 = EDGE_CURVE('',#1935,#1935,#1937,.T.);
#1935 = VERTEX_POINT('',#1936);
#1936 = CARTESIAN_POINT('',(122.,-8.,9.797174393179E-16));
#1937 = CIRCLE('',#1938,3.);
#1938 = AXIS2_PLACEMENT_3D('',#1939,#1940,#1941);
#1939 = CARTESIAN_POINT('',(119.,-8.,9.797174393179E-16));
#1940 = DIRECTION('',(0.,-1.224646799147E-16,-1.));
#1941 = DIRECTION('',(1.,0.,0.));
#1942 = PLANE('',#1943);
#1943 = AXIS2_PLACEMENT_3D('',#1944,#1945,#1946);
#1944 = CARTESIAN_POINT('',(123.,0.,0.));
#1945 = DIRECTION('',(0.,-2.22044604925E-16,-1.));
#1946 = DIRECTION('',(-1.,0.,0.));
#1947 = ADVANCED_FACE('',(#1948),#1967,.F.);
#1948 = FACE_BOUND('',#1949,.F.);
#1949 = EDGE_LOOP('',(#1950,#1958,#1965,#1966));
#1950 = ORIENTED_EDGE('',*,*,#1951,.T.);
#1951 = EDGE_CURVE('',#1730,#1952,#1954,.T.);
#1952 = VERTEX_POINT('',#1953);
#1953 = CARTESIAN_POINT('',(10.,-62.,0.5));
#1954 = LINE('',#1955,#1956);
#1955 = CARTESIAN_POINT('',(10.,-62.,7.592810154714E-15));
#1956 = VECTOR('',#1957,1.);
#1957 = DIRECTION('',(0.,1.224646799147E-16,1.));
#1958 = ORIENTED_EDGE('',*,*,#1959,.T.);
#1959 = EDGE_CURVE('',#1952,#1952,#1960,.T.);
#1960 = CIRCLE('',#1961,3.);
#1961 = AXIS2_PLACEMENT_3D('',#1962,#1963,#1964);
#1962 = CARTESIAN_POINT('',(7.,-62.,0.5));
#1963 = DIRECTION('',(0.,-1.224646799147E-16,-1.));
#1964 = DIRECTION('',(1.,0.,0.));
#1965 = ORIENTED_EDGE('',*,*,#1951,.F.);
#1966 = ORIENTED_EDGE('',*,*,#1729,.F.);
#1967 = CYLINDRICAL_SURFACE('',#1968,3.);
#1968 = AXIS2_PLACEMENT_3D('',#1969,#1970,#1971);
#1969 = CARTESIAN_POINT('',(7.,-62.,7.592810154714E-15));
#1970 = DIRECTION('',(0.,-1.224646799147E-16,-1.));
#1971 = DIRECTION('',(1.,0.,0.));
#1972 = ADVANCED_FACE('',(#1973),#1992,.F.);
#1973 = FACE_BOUND('',#1974,.F.);
#1974 = EDGE_LOOP('',(#1975,#1983,#1990,#1991));
#1975 = ORIENTED_EDGE('',*,*,#1976,.T.);
#1976 = EDGE_CURVE('',#1741,#1977,#1979,.T.);
#1977 = VERTEX_POINT('',#1978);
#1978 = CARTESIAN_POINT('',(10.,-8.,0.5));
#1979 = LINE('',#1980,#1981);
#1980 = CARTESIAN_POINT('',(10.,-8.,9.797174393179E-16));
#1981 = VECTOR('',#1982,1.);
#1982 = DIRECTION('',(0.,1.224646799147E-16,1.));
#1983 = ORIENTED_EDGE('',*,*,#1984,.T.);
#1984 = EDGE_CURVE('',#1977,#1977,#1985,.T.);
#1985 = CIRCLE('',#1986,3.);
#1986 = AXIS2_PLACEMENT_3D('',#1987,#1988,#1989);
#1987 = CARTESIAN_POINT('',(7.,-8.,0.5));
#1988 = DIRECTION('',(0.,-1.224646799147E-16,-1.));
#1989 = DIRECTION('',(1.,0.,0.));
#1990 = ORIENTED_EDGE('',*,*,#1976,.F.);
#1991 = ORIENTED_EDGE('',*,*,#1740,.F.);
#1992 = CYLINDRICAL_SURFACE('',#1993,3.);
#1993 = AXIS2_PLACEMENT_3D('',#1994,#1995,#1996);
#1994 = CARTESIAN_POINT('',(7.,-8.,9.797174393179E-16));
#1995 = DIRECTION('',(0.,-1.224646799147E-16,-1.));
#1996 = DIRECTION('',(1.,0.,0.));
#1997 = ADVANCED_FACE('',(#1998,#2001),#2004,.F.);
#1998 = FACE_BOUND('',#1999,.F.);
#1999 = EDGE_LOOP('',(#2000));
#2000 = ORIENTED_EDGE('',*,*,#1959,.F.);
#2001 = FACE_BOUND('',#2002,.F.);
#2002 = EDGE_LOOP('',(#2003));
#2003 = ORIENTED_EDGE('',*,*,#1757,.T.);
#2004 = PLANE('',#2005);
#2005 = AXIS2_PLACEMENT_3D('',#2006,#2007,#2008);
#2006 = CARTESIAN_POINT('',(63.,-35.,0.5));
#2007 = DIRECTION('',(0.,0.,1.));
#2008 = DIRECTION('',(1.,0.,0.));
#2009 = ADVANCED_FACE('',(#2010,#2013),#2016,.F.);
#2010 = FACE_BOUND('',#2011,.F.);
#2011 = EDGE_LOOP('',(#2012));
#2012 = ORIENTED_EDGE('',*,*,#1984,.F.);
#2013 = FACE_BOUND('',#2014,.F.);
#2014 = EDGE_LOOP('',(#2015));
#2015 = ORIENTED_EDGE('',*,*,#1782,.T.);
#2016 = PLANE('',#2017);
#2017 = AXIS2_PLACEMENT_3D('',#2018,#2019,#2020);
#2018 = CARTESIAN_POINT('',(63.,-35.,0.5));
#2019 = DIRECTION('',(0.,0.,1.));
#2020 = DIRECTION('',(1.,0.,0.));
#2021 = ADVANCED_FACE('',(#2022),#2028,.T.);
#2022 = FACE_BOUND('',#2023,.T.);
#2023 = EDGE_LOOP('',(#2024,#2025,#2026,#2027));
#2024 = ORIENTED_EDGE('',*,*,#1807,.F.);
#2025 = ORIENTED_EDGE('',*,*,#1915,.T.);
#2026 = ORIENTED_EDGE('',*,*,#1840,.T.);
#2027 = ORIENTED_EDGE('',*,*,#1874,.F.);
#2028 = PLANE('',#2029);
#2029 = AXIS2_PLACEMENT_3D('',#2030,#2031,#2032);
#2030 = CARTESIAN_POINT('',(115.,0.,0.));
#2031 = DIRECTION('',(-1.,0.,0.));
#2032 = DIRECTION('',(0.,2.22044604925E-16,1.));
#2033 = ADVANCED_FACE('',(#2034),#2053,.F.);
#2034 = FACE_BOUND('',#2035,.F.);
#2035 = EDGE_LOOP('',(#2036,#2045,#2051,#2052));
#2036 = ORIENTED_EDGE('',*,*,#2037,.F.);
#2037 = EDGE_CURVE('',#2038,#2038,#2040,.T.);
#2038 = VERTEX_POINT('',#2039);
#2039 = CARTESIAN_POINT('',(121.5,-62.,0.5));
#2040 = CIRCLE('',#2041,2.5);
#2041 = AXIS2_PLACEMENT_3D('',#2042,#2043,#2044);
#2042 = CARTESIAN_POINT('',(119.,-62.,0.5));
#2043 = DIRECTION('',(0.,-1.224646799147E-16,-1.));
#2044 = DIRECTION('',(1.,0.,0.));
#2045 = ORIENTED_EDGE('',*,*,#2046,.T.);
#2046 = EDGE_CURVE('',#2038,#1885,#2047,.T.);
#2047 = LINE('',#2048,#2049);
#2048 = CARTESIAN_POINT('',(121.5,-62.,7.592810154714E-15));
#2049 = VECTOR('',#2050,1.);
#2050 = DIRECTION('',(0.,1.224646799147E-16,1.));
#2051 = ORIENTED_EDGE('',*,*,#1884,.T.);
#2052 = ORIENTED_EDGE('',*,*,#2046,.F.);
#2053 = CYLINDRICAL_SURFACE('',#2054,2.5);
#2054 = AXIS2_PLACEMENT_3D('',#2055,#2056,#2057);
#2055 = CARTESIAN_POINT('',(119.,-62.,7.592810154714E-15));
#2056 = DIRECTION('',(0.,-1.224646799147E-16,-1.));
#2057 = DIRECTION('',(1.,0.,0.));
#2058 = ADVANCED_FACE('',(#2059),#2078,.F.);
#2059 = FACE_BOUND('',#2060,.F.);
#2060 = EDGE_LOOP('',(#2061,#2070,#2076,#2077));
#2061 = ORIENTED_EDGE('',*,*,#2062,.F.);
#2062 = EDGE_CURVE('',#2063,#2063,#2065,.T.);
#2063 = VERTEX_POINT('',#2064);
#2064 = CARTESIAN_POINT('',(121.5,-8.,0.5));
#2065 = CIRCLE('',#2066,2.5);
#2066 = AXIS2_PLACEMENT_3D('',#2067,#2068,#2069);
#2067 = CARTESIAN_POINT('',(119.,-8.,0.5));
#2068 = DIRECTION('',(0.,-1.224646799147E-16,-1.));
#2069 = DIRECTION('',(1.,0.,0.));
#2070 = ORIENTED_EDGE('',*,*,#2071,.T.);
#2071 = EDGE_CURVE('',#2063,#1896,#2072,.T.);
#2072 = LINE('',#2073,#2074);
#2073 = CARTESIAN_POINT('',(121.5,-8.,9.797174393179E-16));
#2074 = VECTOR('',#2075,1.);
#2075 = DIRECTION('',(0.,1.224646799147E-16,1.));
#2076 = ORIENTED_EDGE('',*,*,#1895,.T.);
#2077 = ORIENTED_EDGE('',*,*,#2071,.F.);
#2078 = CYLINDRICAL_SURFACE('',#2079,2.5);
#2079 = AXIS2_PLACEMENT_3D('',#2080,#2081,#2082);
#2080 = CARTESIAN_POINT('',(119.,-8.,9.797174393179E-16));
#2081 = DIRECTION('',(0.,-1.224646799147E-16,-1.));
#2082 = DIRECTION('',(1.,0.,0.));
#2083 = ADVANCED_FACE('',(#2084),#2103,.F.);
#2084 = FACE_BOUND('',#2085,.F.);
#2085 = EDGE_LOOP('',(#2086,#2094,#2101,#2102));
#2086 = ORIENTED_EDGE('',*,*,#2087,.T.);
#2087 = EDGE_CURVE('',#1924,#2088,#2090,.T.);
#2088 = VERTEX_POINT('',#2089);
#2089 = CARTESIAN_POINT('',(122.,-62.,0.5));
#2090 = LINE('',#2091,#2092);
#2091 = CARTESIAN_POINT('',(122.,-62.,7.592810154714E-15));
#2092 = VECTOR('',#2093,1.);
#2093 = DIRECTION('',(0.,1.224646799147E-16,1.));
#2094 = ORIENTED_EDGE('',*,*,#2095,.T.);
#2095 = EDGE_CURVE('',#2088,#2088,#2096,.T.);
#2096 = CIRCLE('',#2097,3.);
#2097 = AXIS2_PLACEMENT_3D('',#2098,#2099,#2100);
#2098 = CARTESIAN_POINT('',(119.,-62.,0.5));
#2099 = DIRECTION('',(0.,-1.224646799147E-16,-1.));
#2100 = DIRECTION('',(1.,0.,0.));
#2101 = ORIENTED_EDGE('',*,*,#2087,.F.);
#2102 = ORIENTED_EDGE('',*,*,#1923,.F.);
#2103 = CYLINDRICAL_SURFACE('',#2104,3.);
#2104 = AXIS2_PLACEMENT_3D('',#2105,#2106,#2107);
#2105 = CARTESIAN_POINT('',(119.,-62.,7.592810154714E-15));
#2106 = DIRECTION('',(0.,-1.224646799147E-16,-1.));
#2107 = DIRECTION('',(1.,0.,0.));
#2108 = ADVANCED_FACE('',(#2109),#2128,.F.);
#2109 = FACE_BOUND('',#2110,.F.);
#2110 = EDGE_LOOP('',(#2111,#2119,#2126,#2127));
#2111 = ORIENTED_EDGE('',*,*,#2112,.T.);
#2112 = EDGE_CURVE('',#1935,#2113,#2115,.T.);
#2113 = VERTEX_POINT('',#2114);
#2114 = CARTESIAN_POINT('',(122.,-8.,0.5));
#2115 = LINE('',#2116,#2117);
#2116 = CARTESIAN_POINT('',(122.,-8.,9.797174393179E-16));
#2117 = VECTOR('',#2118,1.);
#2118 = DIRECTION('',(0.,1.224646799147E-16,1.));
#2119 = ORIENTED_EDGE('',*,*,#2120,.T.);
#2120 = EDGE_CURVE('',#2113,#2113,#2121,.T.);
#2121 = CIRCLE('',#2122,3.);
#2122 = AXIS2_PLACEMENT_3D('',#2123,#2124,#2125);
#2123 = CARTESIAN_POINT('',(119.,-8.,0.5));
#2124 = DIRECTION('',(0.,-1.224646799147E-16,-1.));
#2125 = DIRECTION('',(1.,0.,0.));
#2126 = ORIENTED_EDGE('',*,*,#2112,.F.);
#2127 = ORIENTED_EDGE('',*,*,#1934,.F.);
#2128 = CYLINDRICAL_SURFACE('',#2129,3.);
#2129 = AXIS2_PLACEMENT_3D('',#2130,#2131,#2132);
#2130 = CARTESIAN_POINT('',(119.,-8.,9.797174393179E-16));
#2131 = DIRECTION('',(0.,-1.224646799147E-16,-1.));
#2132 = DIRECTION('',(1.,0.,0.));
#2133 = ADVANCED_FACE('',(#2134,#2137),#2140,.F.);
#2134 = FACE_BOUND('',#2135,.F.);
#2135 = EDGE_LOOP('',(#2136));
#2136 = ORIENTED_EDGE('',*,*,#2095,.F.);
#2137 = FACE_BOUND('',#2138,.F.);
#2138 = EDGE_LOOP('',(#2139));
#2139 = ORIENTED_EDGE('',*,*,#2037,.T.);
#2140 = PLANE('',#2141);
#2141 = AXIS2_PLACEMENT_3D('',#2142,#2143,#2144);
#2142 = CARTESIAN_POINT('',(63.,-35.,0.5));
#2143 = DIRECTION('',(0.,0.,1.));
#2144 = DIRECTION('',(1.,0.,0.));
#2145 = ADVANCED_FACE('',(#2146,#2149),#2152,.F.);
#2146 = FACE_BOUND('',#2147,.F.);
#2147 = EDGE_LOOP('',(#2148));
#2148 = ORIENTED_EDGE('',*,*,#2120,.F.);
#2149 = FACE_BOUND('',#2150,.F.);
#2150 = EDGE_LOOP('',(#2151));
#2151 = ORIENTED_EDGE('',*,*,#2062,.T.);
#2152 = PLANE('',#2153);
#2153 = AXIS2_PLACEMENT_3D('',#2154,#2155,#2156);
#2154 = CARTESIAN_POINT('',(63.,-35.,0.5));
#2155 = DIRECTION('',(0.,0.,1.));
#2156 = DIRECTION('',(1.,0.,0.));
#2157 = ( GEOMETRIC_REPRESENTATION_CONTEXT(3) 
GLOBAL_UNCERTAINTY_ASSIGNED_CONTEXT((#2161)) 
GLOBAL_UNIT_ASSIGNED_CONTEXT((#2158,#2159,#2160)) REPRESENTATION_CONTEXT
('Context #1','3D Context with UNIT and UNCERTAINTY') );
#2158 = ( LENGTH_UNIT() NAMED_UNIT(*) SI_UNIT(.MILLI.,.METRE.) );
#2159 = ( NAMED_UNIT(*) PLANE_ANGLE_UNIT() SI_UNIT($,.RADIAN.) );
#2160 = ( NAMED_UNIT(*) SI_UNIT($,.STERADIAN.) SOLID_ANGLE_UNIT() );
#2161 = UNCERTAINTY_MEASURE_WITH_UNIT(LENGTH_MEASURE(2.E-05),#2158,
  'distance_accuracy_value','confusion accuracy');
#2162 = PRODUCT_RELATED_PRODUCT_CATEGORY('part',$,(#7));
#2163 = MECHANICAL_DESIGN_GEOMETRIC_PRESENTATION_REPRESENTATION('',(
    #2164),#2157);
#2164 = STYLED_ITEM('color',(#2165),#15);
#2165 = PRESENTATION_STYLE_ASSIGNMENT((#2166,#2172));
#2166 = SURFACE_STYLE_USAGE(.BOTH.,#2167);
#2167 = SURFACE_SIDE_STYLE('',(#2168));
#2168 = SURFACE_STYLE_FILL_AREA(#2169);
#2169 = FILL_AREA_STYLE('',(#2170));
#2170 = FILL_AREA_STYLE_COLOUR('',#2171);
#2171 = COLOUR_RGB('',0.800000010877,0.800000010877,0.800000010877);
#2172 = CURVE_STYLE('',#2173,POSITIVE_LENGTH_MEASURE(0.1),#2174);
#2173 = DRAUGHTING_PRE_DEFINED_CURVE_FONT('continuous');
#2174 = COLOUR_RGB('',9.803921802644E-02,9.803921802644E-02,
  9.803921802644E-02);
ENDSEC;
END-ISO-10303-21;
