ISO-10303-21;
HEADER;
FILE_DESCRIPTION(('FreeCAD Model'),'2;1');
FILE_NAME('Open CASCADE Shape Model','2025-12-06T09:41:52',(''),(''),
  'Open CASCADE STEP processor 7.9','FreeCAD','Unknown');
FILE_SCHEMA(('AUTOMOTIVE_DESIGN { 1 0 10303 214 1 1 1 1 }'));
ENDSEC;
DATA;
#1 = APPLICATION_PROTOCOL_DEFINITION('international standard',
  'automotive_design',2000,#2);
#2 = APPLICATION_CONTEXT(
  'core data for automotive mechanical design processes');
#3 = SHAPE_DEFINITION_REPRESENTATION(#4,#10);
#4 = PRODUCT_DEFINITION_SHAPE('','',#5);
#5 = PRODUCT_DEFINITION('design','',#6,#9);
#6 = PRODUCT_DEFINITION_FORMATION('','',#7);
#7 = PRODUCT('Body','Body','',(#8));
#8 = PRODUCT_CONTEXT('',#2,'mechanical');
#9 = PRODUCT_DEFINITION_CONTEXT('part definition',#2,'design');
#10 = ADVANCED_BREP_SHAPE_REPRESENTATION('',(#11,#15),#1193);
#11 = AXIS2_PLACEMENT_3D('',#12,#13,#14);
#12 = CARTESIAN_POINT('',(0.,0.,0.));
#13 = DIRECTION('',(0.,0.,1.));
#14 = DIRECTION('',(1.,0.,-0.));
#15 = MANIFOLD_SOLID_BREP('',#16);
#16 = CLOSED_SHELL('',(#17,#101,#126,#159,#250,#341,#358,#383,#408,#433,
    #458,#507,#556,#580,#611,#628,#681,#698,#731,#748,#765,#782,#799,
    #816,#833,#883,#908,#950,#1000,#1025,#1067,#1084,#1101,#1118,#1135,
    #1147,#1164,#1181));
#17 = ADVANCED_FACE('',(#18,#29,#63,#74,#85),#96,.T.);
#18 = FACE_BOUND('',#19,.T.);
#19 = EDGE_LOOP('',(#20));
#20 = ORIENTED_EDGE('',*,*,#21,.F.);
#21 = EDGE_CURVE('',#22,#22,#24,.T.);
#22 = VERTEX_POINT('',#23);
#23 = CARTESIAN_POINT('',(6.,10.49,-1.393218873602E-14));
#24 = CIRCLE('',#25,2.49);
#25 = AXIS2_PLACEMENT_3D('',#26,#27,#28);
#26 = CARTESIAN_POINT('',(6.,8.,-9.957312752018E-15));
#27 = DIRECTION('',(5.551115123126E-16,-1.658395643016E-15,-1.));
#28 = DIRECTION('',(-3.493501784154E-14,1.,-1.658395643016E-15));
#29 = FACE_BOUND('',#30,.T.);
#30 = EDGE_LOOP('',(#31,#41,#49,#57));
#31 = ORIENTED_EDGE('',*,*,#32,.T.);
#32 = EDGE_CURVE('',#33,#35,#37,.T.);
#33 = VERTEX_POINT('',#34);
#34 = CARTESIAN_POINT('',(8.204153414299E-29,66.999999835363,
    -1.111333244908E-13));
#35 = VERTEX_POINT('',#36);
#36 = CARTESIAN_POINT('',(124.,66.999999835363,-4.229949696404E-14));
#37 = LINE('',#38,#39);
#38 = CARTESIAN_POINT('',(-5.950795397368E-14,66.999999835364,
    -1.706412784645E-13));
#39 = VECTOR('',#40,1.);
#40 = DIRECTION('',(1.,-1.998401444325E-15,-3.330669073875E-16));
#41 = ORIENTED_EDGE('',*,*,#42,.T.);
#42 = EDGE_CURVE('',#35,#43,#45,.T.);
#43 = VERTEX_POINT('',#44);
#44 = CARTESIAN_POINT('',(124.,3.,6.383782391595E-14));
#45 = LINE('',#46,#47);
#46 = CARTESIAN_POINT('',(124.,66.999999835363,-5.400124791777E-13));
#47 = VECTOR('',#48,1.);
#48 = DIRECTION('',(1.110223024625E-15,-1.,2.768618667641E-15));
#49 = ORIENTED_EDGE('',*,*,#50,.F.);
#50 = EDGE_CURVE('',#51,#43,#53,.T.);
#51 = VERTEX_POINT('',#52);
#52 = CARTESIAN_POINT('',(3.697785493223E-30,3.,-4.996003610813E-15));
#53 = LINE('',#54,#55);
#54 = CARTESIAN_POINT('',(-2.6645352591E-15,3.,-7.660538869914E-15));
#55 = VECTOR('',#56,1.);
#56 = DIRECTION('',(1.,-1.998401444325E-15,-3.330669073875E-16));
#57 = ORIENTED_EDGE('',*,*,#58,.F.);
#58 = EDGE_CURVE('',#33,#51,#59,.T.);
#59 = LINE('',#60,#61);
#60 = CARTESIAN_POINT('',(-7.43849424671E-14,66.999999835364,
    -1.855182669579E-13));
#61 = VECTOR('',#62,1.);
#62 = DIRECTION('',(1.110223024625E-15,-1.,2.768618667641E-15));
#63 = FACE_BOUND('',#64,.T.);
#64 = EDGE_LOOP('',(#65));
#65 = ORIENTED_EDGE('',*,*,#66,.F.);
#66 = EDGE_CURVE('',#67,#67,#69,.T.);
#67 = VERTEX_POINT('',#68);
#68 = CARTESIAN_POINT('',(118.,10.49,4.824030064299E-14));
#69 = CIRCLE('',#70,2.49);
#70 = AXIS2_PLACEMENT_3D('',#71,#72,#73);
#71 = CARTESIAN_POINT('',(118.,8.,5.221517662699E-14));
#72 = DIRECTION('',(5.551115123126E-16,-1.658395643016E-15,-1.));
#73 = DIRECTION('',(-3.789561257387E-14,1.,-1.658395643016E-15));
#74 = FACE_BOUND('',#75,.T.);
#75 = EDGE_LOOP('',(#76));
#76 = ORIENTED_EDGE('',*,*,#77,.F.);
#77 = EDGE_CURVE('',#78,#78,#80,.T.);
#78 = VERTEX_POINT('',#79);
#79 = CARTESIAN_POINT('',(118.,64.49,-4.12436751418E-14));
#80 = CIRCLE('',#81,2.49);
#81 = AXIS2_PLACEMENT_3D('',#82,#83,#84);
#82 = CARTESIAN_POINT('',(118.,62.,-3.733818809587E-14));
#83 = DIRECTION('',(5.551115123126E-16,-1.658395643016E-15,-1.));
#84 = DIRECTION('',(3.51456536106E-29,1.,-1.658395643016E-15));
#85 = FACE_BOUND('',#86,.T.);
#86 = EDGE_LOOP('',(#87));
#87 = ORIENTED_EDGE('',*,*,#88,.F.);
#88 = EDGE_CURVE('',#89,#89,#91,.T.);
#89 = VERTEX_POINT('',#90);
#90 = CARTESIAN_POINT('',(6.,64.49,-1.034161645208E-13));
#91 = CIRCLE('',#92,2.49);
#92 = AXIS2_PLACEMENT_3D('',#93,#94,#95);
#93 = CARTESIAN_POINT('',(6.,62.,-9.951067747488E-14));
#94 = DIRECTION('',(5.551115123126E-16,-1.658395643016E-15,-1.));
#95 = DIRECTION('',(-2.960594732334E-15,1.,-1.658395643016E-15));
#96 = PLANE('',#97);
#97 = AXIS2_PLACEMENT_3D('',#98,#99,#100);
#98 = CARTESIAN_POINT('',(-5.950795397368E-14,66.999999835364,
    -1.706412784645E-13));
#99 = DIRECTION('',(2.331468351713E-15,1.179611963843E-16,-1.));
#100 = DIRECTION('',(8.881784197001E-16,-1.,2.546574062716E-15));
#101 = ADVANCED_FACE('',(#102),#121,.F.);
#102 = FACE_BOUND('',#103,.T.);
#103 = EDGE_LOOP('',(#104,#112,#113,#114));
#104 = ORIENTED_EDGE('',*,*,#105,.F.);
#105 = EDGE_CURVE('',#22,#106,#108,.T.);
#106 = VERTEX_POINT('',#107);
#107 = CARTESIAN_POINT('',(6.,9.5,0.99));
#108 = LINE('',#109,#110);
#109 = CARTESIAN_POINT('',(6.,9.5,0.99));
#110 = VECTOR('',#111,1.);
#111 = DIRECTION('',(2.431026490195E-14,-0.707106781187,0.707106781187)
  );
#112 = ORIENTED_EDGE('',*,*,#21,.T.);
#113 = ORIENTED_EDGE('',*,*,#105,.T.);
#114 = ORIENTED_EDGE('',*,*,#115,.F.);
#115 = EDGE_CURVE('',#106,#106,#116,.T.);
#116 = CIRCLE('',#117,1.5);
#117 = AXIS2_PLACEMENT_3D('',#118,#119,#120);
#118 = CARTESIAN_POINT('',(6.,8.,0.99));
#119 = DIRECTION('',(5.551115123126E-16,-1.658395643016E-15,-1.));
#120 = DIRECTION('',(-3.493501784154E-14,1.,-1.658395643016E-15));
#121 = CONICAL_SURFACE('',#122,1.5,0.785398163397);
#122 = AXIS2_PLACEMENT_3D('',#123,#124,#125);
#123 = CARTESIAN_POINT('',(6.,8.,0.99));
#124 = DIRECTION('',(5.551115123126E-16,-1.658395643016E-15,-1.));
#125 = DIRECTION('',(-3.493501784154E-14,1.,-1.658395643016E-15));
#126 = ADVANCED_FACE('',(#127),#154,.T.);
#127 = FACE_BOUND('',#128,.F.);
#128 = EDGE_LOOP('',(#129,#130,#139,#147));
#129 = ORIENTED_EDGE('',*,*,#32,.T.);
#130 = ORIENTED_EDGE('',*,*,#131,.T.);
#131 = EDGE_CURVE('',#35,#132,#134,.T.);
#132 = VERTEX_POINT('',#133);
#133 = CARTESIAN_POINT('',(124.,70.,3.));
#134 = CIRCLE('',#135,3.);
#135 = AXIS2_PLACEMENT_3D('',#136,#137,#138);
#136 = CARTESIAN_POINT('',(124.,67.,2.999999999999));
#137 = DIRECTION('',(1.,1.110223024625E-15,2.775557561563E-15));
#138 = DIRECTION('',(-1.110223024625E-15,1.,-2.775557561563E-15));
#139 = ORIENTED_EDGE('',*,*,#140,.F.);
#140 = EDGE_CURVE('',#141,#132,#143,.T.);
#141 = VERTEX_POINT('',#142);
#142 = CARTESIAN_POINT('',(-4.996003610813E-15,70.,3.));
#143 = LINE('',#144,#145);
#144 = CARTESIAN_POINT('',(-6.983302824892E-14,70.,3.));
#145 = VECTOR('',#146,1.);
#146 = DIRECTION('',(1.,-1.998401444325E-15,-3.330669073875E-16));
#147 = ORIENTED_EDGE('',*,*,#148,.F.);
#148 = EDGE_CURVE('',#33,#141,#149,.T.);
#149 = CIRCLE('',#150,3.);
#150 = AXIS2_PLACEMENT_3D('',#151,#152,#153);
#151 = CARTESIAN_POINT('',(-8.271161533457E-14,67.,3.));
#152 = DIRECTION('',(1.,1.110223024625E-15,2.775557561563E-15));
#153 = DIRECTION('',(-1.110223024625E-15,1.,-2.775557561563E-15));
#154 = CYLINDRICAL_SURFACE('',#155,3.);
#155 = AXIS2_PLACEMENT_3D('',#156,#157,#158);
#156 = CARTESIAN_POINT('',(-6.716849298982E-14,67.,3.));
#157 = DIRECTION('',(-1.,1.7763568394E-15,1.110223024625E-16));
#158 = DIRECTION('',(-8.881784197001E-16,1.,-2.553512956638E-15));
#159 = ADVANCED_FACE('',(#160),#245,.F.);
#160 = FACE_BOUND('',#161,.T.);
#161 = EDGE_LOOP('',(#162,#163,#172,#180,#188,#196,#205,#213,#222,#230,
    #238,#244));
#162 = ORIENTED_EDGE('',*,*,#58,.T.);
#163 = ORIENTED_EDGE('',*,*,#164,.F.);
#164 = EDGE_CURVE('',#165,#51,#167,.T.);
#165 = VERTEX_POINT('',#166);
#166 = CARTESIAN_POINT('',(-4.996003610813E-15,1.665334536938E-15,3.));
#167 = CIRCLE('',#168,3.);
#168 = AXIS2_PLACEMENT_3D('',#169,#170,#171);
#169 = CARTESIAN_POINT('',(-1.165734175856E-14,3.,3.));
#170 = DIRECTION('',(1.,1.110223024625E-15,2.775557561563E-15));
#171 = DIRECTION('',(-1.110223024625E-15,1.,-2.775557561563E-15));
#172 = ORIENTED_EDGE('',*,*,#173,.T.);
#173 = EDGE_CURVE('',#165,#174,#176,.T.);
#174 = VERTEX_POINT('',#175);
#175 = CARTESIAN_POINT('',(-6.212443760885E-14,1.833192472503E-14,37.));
#176 = LINE('',#177,#178);
#177 = CARTESIAN_POINT('',(-8.326672684689E-15,-1.665334536938E-15,3.));
#178 = VECTOR('',#179,1.);
#179 = DIRECTION('',(-2.775557561563E-15,-5.551115123126E-16,1.));
#180 = ORIENTED_EDGE('',*,*,#181,.T.);
#181 = EDGE_CURVE('',#174,#182,#184,.T.);
#182 = VERTEX_POINT('',#183);
#183 = CARTESIAN_POINT('',(-6.16173778667E-14,1.,37.));
#184 = LINE('',#185,#186);
#185 = CARTESIAN_POINT('',(-1.026956297778E-13,-2.053912595557E-14,37.)
  );
#186 = VECTOR('',#187,1.);
#187 = DIRECTION('',(-1.110223024625E-15,1.,-2.775557561563E-15));
#188 = ORIENTED_EDGE('',*,*,#189,.T.);
#189 = EDGE_CURVE('',#182,#190,#192,.T.);
#190 = VERTEX_POINT('',#191);
#191 = CARTESIAN_POINT('',(-4.996003610813E-15,1.,3.));
#192 = LINE('',#193,#194);
#193 = CARTESIAN_POINT('',(-1.038058528025E-13,1.,37.));
#194 = VECTOR('',#195,1.);
#195 = DIRECTION('',(2.775557561563E-15,5.551115123126E-16,-1.));
#196 = ORIENTED_EDGE('',*,*,#197,.T.);
#197 = EDGE_CURVE('',#190,#198,#200,.T.);
#198 = VERTEX_POINT('',#199);
#199 = CARTESIAN_POINT('',(-1.665334536938E-15,3.000000122925,1.));
#200 = CIRCLE('',#201,2.);
#201 = AXIS2_PLACEMENT_3D('',#202,#203,#204);
#202 = CARTESIAN_POINT('',(-1.165734175856E-14,3.,3.));
#203 = DIRECTION('',(1.,1.110223024625E-15,2.775557561563E-15));
#204 = DIRECTION('',(-1.110223024625E-15,1.,-2.775557561563E-15));
#205 = ORIENTED_EDGE('',*,*,#206,.T.);
#206 = EDGE_CURVE('',#198,#207,#209,.T.);
#207 = VERTEX_POINT('',#208);
#208 = CARTESIAN_POINT('',(-1.665334536938E-15,67.,1.));
#209 = LINE('',#210,#211);
#210 = CARTESIAN_POINT('',(-6.106226771913E-15,3.000000122925,1.));
#211 = VECTOR('',#212,1.);
#212 = DIRECTION('',(-1.110223024625E-15,1.,-2.775557561563E-15));
#213 = ORIENTED_EDGE('',*,*,#214,.T.);
#214 = EDGE_CURVE('',#207,#215,#217,.T.);
#215 = VERTEX_POINT('',#216);
#216 = CARTESIAN_POINT('',(-4.996004033096E-15,69.,3.000000253572));
#217 = CIRCLE('',#218,2.);
#218 = AXIS2_PLACEMENT_3D('',#219,#220,#221);
#219 = CARTESIAN_POINT('',(-8.271161533457E-14,67.,3.));
#220 = DIRECTION('',(1.,1.110223024625E-15,2.775557561563E-15));
#221 = DIRECTION('',(-1.110223024625E-15,1.,-2.775557561563E-15));
#222 = ORIENTED_EDGE('',*,*,#223,.T.);
#223 = EDGE_CURVE('',#215,#224,#226,.T.);
#224 = VERTEX_POINT('',#225);
#225 = CARTESIAN_POINT('',(-6.16173778667E-14,69.,37.));
#226 = LINE('',#227,#228);
#227 = CARTESIAN_POINT('',(-8.493206208763E-14,69.,3.000000253572));
#228 = VECTOR('',#229,1.);
#229 = DIRECTION('',(-2.775557561563E-15,-5.551115123126E-16,1.));
#230 = ORIENTED_EDGE('',*,*,#231,.T.);
#231 = EDGE_CURVE('',#224,#232,#234,.T.);
#232 = VERTEX_POINT('',#233);
#233 = CARTESIAN_POINT('',(-6.16173778667E-14,70.,37.));
#234 = LINE('',#235,#236);
#235 = CARTESIAN_POINT('',(-1.79301018477E-13,69.,37.));
#236 = VECTOR('',#237,1.);
#237 = DIRECTION('',(-1.110223024625E-15,1.,-2.775557561563E-15));
#238 = ORIENTED_EDGE('',*,*,#239,.T.);
#239 = EDGE_CURVE('',#232,#141,#240,.T.);
#240 = LINE('',#241,#242);
#241 = CARTESIAN_POINT('',(-1.804112415016E-13,70.,37.));
#242 = VECTOR('',#243,1.);
#243 = DIRECTION('',(2.775557561563E-15,5.551115123126E-16,-1.));
#244 = ORIENTED_EDGE('',*,*,#148,.F.);
#245 = PLANE('',#246);
#246 = AXIS2_PLACEMENT_3D('',#247,#248,#249);
#247 = CARTESIAN_POINT('',(-6.724614240026E-14,34.999999998679,
    10.227976149001));
#248 = DIRECTION('',(1.,-2.22044604925E-15,-5.551115123126E-16));
#249 = DIRECTION('',(-2.775557561563E-15,-5.551115123126E-16,1.));
#250 = ADVANCED_FACE('',(#251),#336,.T.);
#251 = FACE_BOUND('',#252,.T.);
#252 = EDGE_LOOP('',(#253,#254,#255,#263,#271,#279,#288,#296,#305,#313,
    #321,#329));
#253 = ORIENTED_EDGE('',*,*,#42,.F.);
#254 = ORIENTED_EDGE('',*,*,#131,.T.);
#255 = ORIENTED_EDGE('',*,*,#256,.F.);
#256 = EDGE_CURVE('',#257,#132,#259,.T.);
#257 = VERTEX_POINT('',#258);
#258 = CARTESIAN_POINT('',(124.,70.,30.501435368947));
#259 = LINE('',#260,#261);
#260 = CARTESIAN_POINT('',(124.,70.,37.));
#261 = VECTOR('',#262,1.);
#262 = DIRECTION('',(2.775557561563E-15,5.551115123126E-16,-1.));
#263 = ORIENTED_EDGE('',*,*,#264,.F.);
#264 = EDGE_CURVE('',#265,#257,#267,.T.);
#265 = VERTEX_POINT('',#266);
#266 = CARTESIAN_POINT('',(124.,69.,30.501435368947));
#267 = LINE('',#268,#269);
#268 = CARTESIAN_POINT('',(124.,-1.995073962411E-13,30.501435368947));
#269 = VECTOR('',#270,1.);
#270 = DIRECTION('',(-6.661338147751E-16,1.,-1.998401444325E-15));
#271 = ORIENTED_EDGE('',*,*,#272,.F.);
#272 = EDGE_CURVE('',#273,#265,#275,.T.);
#273 = VERTEX_POINT('',#274);
#274 = CARTESIAN_POINT('',(124.,69.,3.000000253572));
#275 = LINE('',#276,#277);
#276 = CARTESIAN_POINT('',(124.,69.,3.000000253572));
#277 = VECTOR('',#278,1.);
#278 = DIRECTION('',(-2.775557561563E-15,-5.551115123126E-16,1.));
#279 = ORIENTED_EDGE('',*,*,#280,.F.);
#280 = EDGE_CURVE('',#281,#273,#283,.T.);
#281 = VERTEX_POINT('',#282);
#282 = CARTESIAN_POINT('',(124.,67.,1.));
#283 = CIRCLE('',#284,2.);
#284 = AXIS2_PLACEMENT_3D('',#285,#286,#287);
#285 = CARTESIAN_POINT('',(124.,67.,2.999999999999));
#286 = DIRECTION('',(1.,1.110223024625E-15,2.775557561563E-15));
#287 = DIRECTION('',(-1.110223024625E-15,1.,-2.775557561563E-15));
#288 = ORIENTED_EDGE('',*,*,#289,.F.);
#289 = EDGE_CURVE('',#290,#281,#292,.T.);
#290 = VERTEX_POINT('',#291);
#291 = CARTESIAN_POINT('',(124.,3.000000122925,1.));
#292 = LINE('',#293,#294);
#293 = CARTESIAN_POINT('',(124.,3.000000122925,1.));
#294 = VECTOR('',#295,1.);
#295 = DIRECTION('',(-1.110223024625E-15,1.,-2.775557561563E-15));
#296 = ORIENTED_EDGE('',*,*,#297,.F.);
#297 = EDGE_CURVE('',#298,#290,#300,.T.);
#298 = VERTEX_POINT('',#299);
#299 = CARTESIAN_POINT('',(124.,1.,3.));
#300 = CIRCLE('',#301,2.);
#301 = AXIS2_PLACEMENT_3D('',#302,#303,#304);
#302 = CARTESIAN_POINT('',(124.,3.,3.));
#303 = DIRECTION('',(1.,1.110223024625E-15,2.775557561563E-15));
#304 = DIRECTION('',(-1.110223024625E-15,1.,-2.775557561563E-15));
#305 = ORIENTED_EDGE('',*,*,#306,.F.);
#306 = EDGE_CURVE('',#307,#298,#309,.T.);
#307 = VERTEX_POINT('',#308);
#308 = CARTESIAN_POINT('',(124.,1.,30.501435368947));
#309 = LINE('',#310,#311);
#310 = CARTESIAN_POINT('',(124.,1.,37.));
#311 = VECTOR('',#312,1.);
#312 = DIRECTION('',(2.775557561563E-15,5.551115123126E-16,-1.));
#313 = ORIENTED_EDGE('',*,*,#314,.F.);
#314 = EDGE_CURVE('',#315,#307,#317,.T.);
#315 = VERTEX_POINT('',#316);
#316 = CARTESIAN_POINT('',(124.,-9.658876571053E-14,30.501435368947));
#317 = LINE('',#318,#319);
#318 = CARTESIAN_POINT('',(124.,-1.995073962411E-13,30.501435368947));
#319 = VECTOR('',#320,1.);
#320 = DIRECTION('',(-6.661338147751E-16,1.,-1.998401444325E-15));
#321 = ORIENTED_EDGE('',*,*,#322,.F.);
#322 = EDGE_CURVE('',#323,#315,#325,.T.);
#323 = VERTEX_POINT('',#324);
#324 = CARTESIAN_POINT('',(124.,-1.360023205166E-13,3.));
#325 = LINE('',#326,#327);
#326 = CARTESIAN_POINT('',(124.,-1.393329895905E-13,3.));
#327 = VECTOR('',#328,1.);
#328 = DIRECTION('',(-2.775557561563E-15,-5.551115123126E-16,1.));
#329 = ORIENTED_EDGE('',*,*,#330,.T.);
#330 = EDGE_CURVE('',#323,#43,#331,.T.);
#331 = CIRCLE('',#332,3.);
#332 = AXIS2_PLACEMENT_3D('',#333,#334,#335);
#333 = CARTESIAN_POINT('',(124.,3.,3.));
#334 = DIRECTION('',(1.,1.110223024625E-15,2.775557561563E-15));
#335 = DIRECTION('',(-1.110223024625E-15,1.,-2.775557561563E-15));
#336 = PLANE('',#337);
#337 = AXIS2_PLACEMENT_3D('',#338,#339,#340);
#338 = CARTESIAN_POINT('',(124.,34.999999998679,10.227976149001));
#339 = DIRECTION('',(1.,-2.22044604925E-15,-5.551115123126E-16));
#340 = DIRECTION('',(-2.775557561563E-15,-5.551115123126E-16,1.));
#341 = ADVANCED_FACE('',(#342),#353,.T.);
#342 = FACE_BOUND('',#343,.F.);
#343 = EDGE_LOOP('',(#344,#350,#351,#352));
#344 = ORIENTED_EDGE('',*,*,#345,.T.);
#345 = EDGE_CURVE('',#165,#323,#346,.T.);
#346 = LINE('',#347,#348);
#347 = CARTESIAN_POINT('',(-7.660538869914E-15,-9.992007221626E-16,3.));
#348 = VECTOR('',#349,1.);
#349 = DIRECTION('',(1.,-1.998401444325E-15,-3.330669073875E-16));
#350 = ORIENTED_EDGE('',*,*,#330,.T.);
#351 = ORIENTED_EDGE('',*,*,#50,.F.);
#352 = ORIENTED_EDGE('',*,*,#164,.F.);
#353 = CYLINDRICAL_SURFACE('',#354,3.);
#354 = AXIS2_PLACEMENT_3D('',#355,#356,#357);
#355 = CARTESIAN_POINT('',(-1.032507412901E-14,3.,3.));
#356 = DIRECTION('',(-1.,1.7763568394E-15,1.110223024625E-16));
#357 = DIRECTION('',(-8.881784197001E-16,1.,-2.553512956638E-15));
#358 = ADVANCED_FACE('',(#359),#378,.F.);
#359 = FACE_BOUND('',#360,.T.);
#360 = EDGE_LOOP('',(#361,#369,#370,#371));
#361 = ORIENTED_EDGE('',*,*,#362,.F.);
#362 = EDGE_CURVE('',#67,#363,#365,.T.);
#363 = VERTEX_POINT('',#364);
#364 = CARTESIAN_POINT('',(118.,9.5,0.99));
#365 = LINE('',#366,#367);
#366 = CARTESIAN_POINT('',(118.,9.5,0.99));
#367 = VECTOR('',#368,1.);
#368 = DIRECTION('',(2.640372151353E-14,-0.707106781187,0.707106781187)
  );
#369 = ORIENTED_EDGE('',*,*,#66,.T.);
#370 = ORIENTED_EDGE('',*,*,#362,.T.);
#371 = ORIENTED_EDGE('',*,*,#372,.F.);
#372 = EDGE_CURVE('',#363,#363,#373,.T.);
#373 = CIRCLE('',#374,1.5);
#374 = AXIS2_PLACEMENT_3D('',#375,#376,#377);
#375 = CARTESIAN_POINT('',(118.,8.,0.99));
#376 = DIRECTION('',(5.551115123126E-16,-1.658395643016E-15,-1.));
#377 = DIRECTION('',(-3.789561257387E-14,1.,-1.658395643016E-15));
#378 = CONICAL_SURFACE('',#379,1.5,0.785398163397);
#379 = AXIS2_PLACEMENT_3D('',#380,#381,#382);
#380 = CARTESIAN_POINT('',(118.,8.,0.99));
#381 = DIRECTION('',(5.551115123126E-16,-1.658395643016E-15,-1.));
#382 = DIRECTION('',(-3.789561257387E-14,1.,-1.658395643016E-15));
#383 = ADVANCED_FACE('',(#384),#403,.F.);
#384 = FACE_BOUND('',#385,.T.);
#385 = EDGE_LOOP('',(#386,#394,#395,#396));
#386 = ORIENTED_EDGE('',*,*,#387,.F.);
#387 = EDGE_CURVE('',#78,#388,#390,.T.);
#388 = VERTEX_POINT('',#389);
#389 = CARTESIAN_POINT('',(118.,63.5,0.99));
#390 = LINE('',#391,#392);
#391 = CARTESIAN_POINT('',(118.,63.5,0.99));
#392 = VECTOR('',#393,1.);
#393 = DIRECTION('',(-3.92523114671E-16,-0.707106781187,0.707106781187)
  );
#394 = ORIENTED_EDGE('',*,*,#77,.T.);
#395 = ORIENTED_EDGE('',*,*,#387,.T.);
#396 = ORIENTED_EDGE('',*,*,#397,.F.);
#397 = EDGE_CURVE('',#388,#388,#398,.T.);
#398 = CIRCLE('',#399,1.5);
#399 = AXIS2_PLACEMENT_3D('',#400,#401,#402);
#400 = CARTESIAN_POINT('',(118.,62.,0.99));
#401 = DIRECTION('',(5.551115123126E-16,-1.658395643016E-15,-1.));
#402 = DIRECTION('',(3.51456536106E-29,1.,-1.658395643016E-15));
#403 = CONICAL_SURFACE('',#404,1.5,0.785398163397);
#404 = AXIS2_PLACEMENT_3D('',#405,#406,#407);
#405 = CARTESIAN_POINT('',(118.,62.,0.99));
#406 = DIRECTION('',(5.551115123126E-16,-1.658395643016E-15,-1.));
#407 = DIRECTION('',(3.51456536106E-29,1.,-1.658395643016E-15));
#408 = ADVANCED_FACE('',(#409),#428,.F.);
#409 = FACE_BOUND('',#410,.T.);
#410 = EDGE_LOOP('',(#411,#419,#420,#421));
#411 = ORIENTED_EDGE('',*,*,#412,.F.);
#412 = EDGE_CURVE('',#89,#413,#415,.T.);
#413 = VERTEX_POINT('',#414);
#414 = CARTESIAN_POINT('',(6.,63.5,0.99));
#415 = LINE('',#416,#417);
#416 = CARTESIAN_POINT('',(6.,63.5,0.99));
#417 = VECTOR('',#418,1.);
#418 = DIRECTION('',(1.700933496907E-15,-0.707106781187,0.707106781187)
  );
#419 = ORIENTED_EDGE('',*,*,#88,.T.);
#420 = ORIENTED_EDGE('',*,*,#412,.T.);
#421 = ORIENTED_EDGE('',*,*,#422,.F.);
#422 = EDGE_CURVE('',#413,#413,#423,.T.);
#423 = CIRCLE('',#424,1.5);
#424 = AXIS2_PLACEMENT_3D('',#425,#426,#427);
#425 = CARTESIAN_POINT('',(6.,62.,0.99));
#426 = DIRECTION('',(5.551115123126E-16,-1.658395643016E-15,-1.));
#427 = DIRECTION('',(-2.960594732334E-15,1.,-1.658395643016E-15));
#428 = CONICAL_SURFACE('',#429,1.5,0.785398163397);
#429 = AXIS2_PLACEMENT_3D('',#430,#431,#432);
#430 = CARTESIAN_POINT('',(6.,62.,0.99));
#431 = DIRECTION('',(5.551115123126E-16,-1.658395643016E-15,-1.));
#432 = DIRECTION('',(-2.960594732334E-15,1.,-1.658395643016E-15));
#433 = ADVANCED_FACE('',(#434),#453,.F.);
#434 = FACE_BOUND('',#435,.F.);
#435 = EDGE_LOOP('',(#436,#444,#445,#446));
#436 = ORIENTED_EDGE('',*,*,#437,.F.);
#437 = EDGE_CURVE('',#106,#438,#440,.T.);
#438 = VERTEX_POINT('',#439);
#439 = CARTESIAN_POINT('',(6.,9.5,1.));
#440 = LINE('',#441,#442);
#441 = CARTESIAN_POINT('',(6.,9.5,-4.048844581968E-14));
#442 = VECTOR('',#443,1.);
#443 = DIRECTION('',(-1.443289932013E-15,1.110223024625E-16,1.));
#444 = ORIENTED_EDGE('',*,*,#115,.F.);
#445 = ORIENTED_EDGE('',*,*,#437,.T.);
#446 = ORIENTED_EDGE('',*,*,#447,.T.);
#447 = EDGE_CURVE('',#438,#438,#448,.T.);
#448 = CIRCLE('',#449,1.5);
#449 = AXIS2_PLACEMENT_3D('',#450,#451,#452);
#450 = CARTESIAN_POINT('',(6.,8.,1.));
#451 = DIRECTION('',(1.221245327088E-15,-3.330669073875E-16,-1.));
#452 = DIRECTION('',(2.22044604925E-16,1.,-3.330669073875E-16));
#453 = CYLINDRICAL_SURFACE('',#454,1.5);
#454 = AXIS2_PLACEMENT_3D('',#455,#456,#457);
#455 = CARTESIAN_POINT('',(6.,8.,-3.99888454586E-14));
#456 = DIRECTION('',(1.221245327088E-15,-3.330669073875E-16,-1.));
#457 = DIRECTION('',(2.22044604925E-16,1.,-3.330669073875E-16));
#458 = ADVANCED_FACE('',(#459),#502,.T.);
#459 = FACE_BOUND('',#460,.T.);
#460 = EDGE_LOOP('',(#461,#471,#479,#487,#493,#494,#495,#496));
#461 = ORIENTED_EDGE('',*,*,#462,.T.);
#462 = EDGE_CURVE('',#463,#465,#467,.T.);
#463 = VERTEX_POINT('',#464);
#464 = CARTESIAN_POINT('',(2.995888604264,70.,36.842992131272));
#465 = VERTEX_POINT('',#466);
#466 = CARTESIAN_POINT('',(3.048224560506,70.,37.841621666027));
#467 = LINE('',#468,#469);
#468 = CARTESIAN_POINT('',(2.995888604264,70.,36.842992131272));
#469 = VECTOR('',#470,1.);
#470 = DIRECTION('',(5.233595624259E-02,6.091703639453E-17,
    0.998629534755));
#471 = ORIENTED_EDGE('',*,*,#472,.F.);
#472 = EDGE_CURVE('',#473,#465,#475,.T.);
#473 = VERTEX_POINT('',#474);
#474 = CARTESIAN_POINT('',(121.05644735197,70.,31.657072772429));
#475 = LINE('',#476,#477);
#476 = CARTESIAN_POINT('',(121.05644735197,70.,31.657072772429));
#477 = VECTOR('',#478,1.);
#478 = DIRECTION('',(-0.998629534755,1.488430506834E-15,
    5.233595624259E-02));
#479 = ORIENTED_EDGE('',*,*,#480,.F.);
#480 = EDGE_CURVE('',#481,#473,#483,.T.);
#481 = VERTEX_POINT('',#482);
#482 = CARTESIAN_POINT('',(121.00411139573,70.,30.658443237675));
#483 = LINE('',#484,#485);
#484 = CARTESIAN_POINT('',(121.10878330822,70.,32.655702307184));
#485 = VECTOR('',#486,1.);
#486 = DIRECTION('',(5.233595624259E-02,-3.833219713373E-17,
    0.998629534755));
#487 = ORIENTED_EDGE('',*,*,#488,.T.);
#488 = EDGE_CURVE('',#481,#257,#489,.T.);
#489 = LINE('',#490,#491);
#490 = CARTESIAN_POINT('',(62.,70.,33.750717684473));
#491 = VECTOR('',#492,1.);
#492 = DIRECTION('',(0.998629534755,-1.557992561941E-15,
    -5.233595624259E-02));
#493 = ORIENTED_EDGE('',*,*,#256,.T.);
#494 = ORIENTED_EDGE('',*,*,#140,.F.);
#495 = ORIENTED_EDGE('',*,*,#239,.F.);
#496 = ORIENTED_EDGE('',*,*,#497,.T.);
#497 = EDGE_CURVE('',#232,#463,#498,.T.);
#498 = LINE('',#499,#500);
#499 = CARTESIAN_POINT('',(62.,70.,33.750717684473));
#500 = VECTOR('',#501,1.);
#501 = DIRECTION('',(0.998629534755,-1.557992561941E-15,
    -5.233595624259E-02));
#502 = PLANE('',#503);
#503 = AXIS2_PLACEMENT_3D('',#504,#505,#506);
#504 = CARTESIAN_POINT('',(60.783906030159,70.,19.859302130793));
#505 = DIRECTION('',(7.332347489041E-16,1.,-1.306054529878E-15));
#506 = DIRECTION('',(1.,-1.399368563679E-15,8.458850580914E-31));
#507 = ADVANCED_FACE('',(#508),#551,.T.);
#508 = FACE_BOUND('',#509,.T.);
#509 = EDGE_LOOP('',(#510,#520,#528,#536,#542,#543,#544,#545));
#510 = ORIENTED_EDGE('',*,*,#511,.T.);
#511 = EDGE_CURVE('',#512,#514,#516,.T.);
#512 = VERTEX_POINT('',#513);
#513 = CARTESIAN_POINT('',(121.00411139573,-1.004678879677E-13,
    30.658443237675));
#514 = VERTEX_POINT('',#515);
#515 = CARTESIAN_POINT('',(121.05644735197,-1.006748850018E-13,
    31.657072772429));
#516 = LINE('',#517,#518);
#517 = CARTESIAN_POINT('',(121.00411139573,-1.341437399932E-13,
    30.658443237675));
#518 = VECTOR('',#519,1.);
#519 = DIRECTION('',(5.233595624259E-02,6.091703639453E-17,
    0.998629534755));
#520 = ORIENTED_EDGE('',*,*,#521,.F.);
#521 = EDGE_CURVE('',#522,#514,#524,.T.);
#522 = VERTEX_POINT('',#523);
#523 = CARTESIAN_POINT('',(3.048224560506,1.30547566325E-14,
    37.841621666027));
#524 = LINE('',#525,#526);
#525 = CARTESIAN_POINT('',(3.048224560506,3.97538688168E-15,
    37.841621666027));
#526 = VECTOR('',#527,1.);
#527 = DIRECTION('',(0.998629534755,-1.172836729373E-15,
    -5.233595624259E-02));
#528 = ORIENTED_EDGE('',*,*,#529,.F.);
#529 = EDGE_CURVE('',#530,#522,#532,.T.);
#530 = VERTEX_POINT('',#531);
#531 = CARTESIAN_POINT('',(2.995888604264,6.38389657777E-15,
    36.842992131272));
#532 = LINE('',#533,#534);
#533 = CARTESIAN_POINT('',(3.100560516749,-1.988443794823E-15,
    38.840251200781));
#534 = VECTOR('',#535,1.);
#535 = DIRECTION('',(5.233595624259E-02,-3.833219713373E-17,
    0.998629534755));
#536 = ORIENTED_EDGE('',*,*,#537,.T.);
#537 = EDGE_CURVE('',#530,#174,#538,.T.);
#538 = LINE('',#539,#540);
#539 = CARTESIAN_POINT('',(124.,-2.338136064179E-13,30.501435368947));
#540 = VECTOR('',#541,1.);
#541 = DIRECTION('',(-0.998629534755,1.750680570634E-15,
    5.233595624259E-02));
#542 = ORIENTED_EDGE('',*,*,#173,.F.);
#543 = ORIENTED_EDGE('',*,*,#345,.T.);
#544 = ORIENTED_EDGE('',*,*,#322,.T.);
#545 = ORIENTED_EDGE('',*,*,#546,.T.);
#546 = EDGE_CURVE('',#315,#512,#547,.T.);
#547 = LINE('',#548,#549);
#548 = CARTESIAN_POINT('',(124.,-2.338136064179E-13,30.501435368947));
#549 = VECTOR('',#550,1.);
#550 = DIRECTION('',(-0.998629534755,1.750680570634E-15,
    5.233595624259E-02));
#551 = PLANE('',#552);
#552 = AXIS2_PLACEMENT_3D('',#553,#554,#555);
#553 = CARTESIAN_POINT('',(60.783906030159,-7.442513029611E-14,
    19.859302130793));
#554 = DIRECTION('',(-5.970272189335E-16,-1.,9.675779155952E-16));
#555 = DIRECTION('',(-1.,1.263161033709E-15,-7.55152616551E-31));
#556 = ADVANCED_FACE('',(#557),#575,.T.);
#557 = FACE_BOUND('',#558,.T.);
#558 = EDGE_LOOP('',(#559,#560,#568,#574));
#559 = ORIENTED_EDGE('',*,*,#537,.F.);
#560 = ORIENTED_EDGE('',*,*,#561,.F.);
#561 = EDGE_CURVE('',#562,#530,#564,.T.);
#562 = VERTEX_POINT('',#563);
#563 = CARTESIAN_POINT('',(2.995888604264,1.,36.842992131272));
#564 = LINE('',#565,#566);
#565 = CARTESIAN_POINT('',(2.995888604264,1.,36.842992131272));
#566 = VECTOR('',#567,1.);
#567 = DIRECTION('',(4.440892098501E-16,-1.,1.658395643034E-15));
#568 = ORIENTED_EDGE('',*,*,#569,.F.);
#569 = EDGE_CURVE('',#182,#562,#570,.T.);
#570 = LINE('',#571,#572);
#571 = CARTESIAN_POINT('',(62.,1.,33.750717684473));
#572 = VECTOR('',#573,1.);
#573 = DIRECTION('',(0.998629534755,-1.557992561941E-15,
    -5.233595624259E-02));
#574 = ORIENTED_EDGE('',*,*,#181,.F.);
#575 = PLANE('',#576);
#576 = AXIS2_PLACEMENT_3D('',#577,#578,#579);
#577 = CARTESIAN_POINT('',(124.,-1.995073962411E-13,30.501435368947));
#578 = DIRECTION('',(5.233595624259E-02,-6.972550036356E-17,
    0.998629534755));
#579 = DIRECTION('',(-0.998629534755,1.54056118685E-15,
    5.233595624259E-02));
#580 = ADVANCED_FACE('',(#581),#606,.T.);
#581 = FACE_BOUND('',#582,.T.);
#582 = EDGE_LOOP('',(#583,#591,#597,#598,#604,#605));
#583 = ORIENTED_EDGE('',*,*,#584,.F.);
#584 = EDGE_CURVE('',#585,#562,#587,.T.);
#585 = VERTEX_POINT('',#586);
#586 = CARTESIAN_POINT('',(121.00411139573,1.,30.658443237675));
#587 = LINE('',#588,#589);
#588 = CARTESIAN_POINT('',(121.00411139573,1.,30.658443237675));
#589 = VECTOR('',#590,1.);
#590 = DIRECTION('',(-0.998629534755,1.114693537743E-15,
    5.233595624259E-02));
#591 = ORIENTED_EDGE('',*,*,#592,.T.);
#592 = EDGE_CURVE('',#585,#307,#593,.T.);
#593 = LINE('',#594,#595);
#594 = CARTESIAN_POINT('',(62.,1.,33.750717684473));
#595 = VECTOR('',#596,1.);
#596 = DIRECTION('',(0.998629534755,-1.557992561941E-15,
    -5.233595624259E-02));
#597 = ORIENTED_EDGE('',*,*,#306,.T.);
#598 = ORIENTED_EDGE('',*,*,#599,.F.);
#599 = EDGE_CURVE('',#190,#298,#600,.T.);
#600 = LINE('',#601,#602);
#601 = CARTESIAN_POINT('',(-8.548717289614E-15,1.,3.));
#602 = VECTOR('',#603,1.);
#603 = DIRECTION('',(1.,-1.998401444325E-15,-3.330669073875E-16));
#604 = ORIENTED_EDGE('',*,*,#189,.F.);
#605 = ORIENTED_EDGE('',*,*,#569,.T.);
#606 = PLANE('',#607);
#607 = AXIS2_PLACEMENT_3D('',#608,#609,#610);
#608 = CARTESIAN_POINT('',(60.755601215707,1.,19.378594924411));
#609 = DIRECTION('',(1.214519711642E-16,1.,-1.775679551048E-15));
#610 = DIRECTION('',(1.,-1.453719600714E-15,-1.110223024625E-16));
#611 = ADVANCED_FACE('',(#612),#623,.F.);
#612 = FACE_BOUND('',#613,.T.);
#613 = EDGE_LOOP('',(#614,#615,#616,#622));
#614 = ORIENTED_EDGE('',*,*,#599,.T.);
#615 = ORIENTED_EDGE('',*,*,#297,.T.);
#616 = ORIENTED_EDGE('',*,*,#617,.F.);
#617 = EDGE_CURVE('',#198,#290,#618,.T.);
#618 = LINE('',#619,#620);
#619 = CARTESIAN_POINT('',(-5.218048324918E-15,3.000000122925,1.));
#620 = VECTOR('',#621,1.);
#621 = DIRECTION('',(1.,-1.998401444325E-15,-3.330669073875E-16));
#622 = ORIENTED_EDGE('',*,*,#197,.F.);
#623 = CYLINDRICAL_SURFACE('',#624,2.);
#624 = AXIS2_PLACEMENT_3D('',#625,#626,#627);
#625 = CARTESIAN_POINT('',(-1.032507412901E-14,3.,3.));
#626 = DIRECTION('',(-1.,1.7763568394E-15,1.110223024625E-16));
#627 = DIRECTION('',(-8.881784197001E-16,1.,-2.553512956638E-15));
#628 = ADVANCED_FACE('',(#629,#640,#651,#662,#665),#676,.T.);
#629 = FACE_BOUND('',#630,.T.);
#630 = EDGE_LOOP('',(#631,#632,#633,#639));
#631 = ORIENTED_EDGE('',*,*,#617,.T.);
#632 = ORIENTED_EDGE('',*,*,#289,.T.);
#633 = ORIENTED_EDGE('',*,*,#634,.F.);
#634 = EDGE_CURVE('',#207,#281,#635,.T.);
#635 = LINE('',#636,#637);
#636 = CARTESIAN_POINT('',(-6.206146707655E-14,67.,1.));
#637 = VECTOR('',#638,1.);
#638 = DIRECTION('',(1.,-1.998401444325E-15,-3.330669073875E-16));
#639 = ORIENTED_EDGE('',*,*,#206,.F.);
#640 = FACE_BOUND('',#641,.T.);
#641 = EDGE_LOOP('',(#642));
#642 = ORIENTED_EDGE('',*,*,#643,.T.);
#643 = EDGE_CURVE('',#644,#644,#646,.T.);
#644 = VERTEX_POINT('',#645);
#645 = CARTESIAN_POINT('',(118.,9.5,1.));
#646 = CIRCLE('',#647,1.5);
#647 = AXIS2_PLACEMENT_3D('',#648,#649,#650);
#648 = CARTESIAN_POINT('',(118.,8.,1.));
#649 = DIRECTION('',(1.221245327088E-15,-3.330669073875E-16,-1.));
#650 = DIRECTION('',(2.22044604925E-16,1.,-3.330669073875E-16));
#651 = FACE_BOUND('',#652,.T.);
#652 = EDGE_LOOP('',(#653));
#653 = ORIENTED_EDGE('',*,*,#654,.T.);
#654 = EDGE_CURVE('',#655,#655,#657,.T.);
#655 = VERTEX_POINT('',#656);
#656 = CARTESIAN_POINT('',(118.,63.5,1.));
#657 = CIRCLE('',#658,1.5);
#658 = AXIS2_PLACEMENT_3D('',#659,#660,#661);
#659 = CARTESIAN_POINT('',(118.,62.,1.));
#660 = DIRECTION('',(1.221245327088E-15,-3.330669073875E-16,-1.));
#661 = DIRECTION('',(2.22044604925E-16,1.,-3.330669073875E-16));
#662 = FACE_BOUND('',#663,.T.);
#663 = EDGE_LOOP('',(#664));
#664 = ORIENTED_EDGE('',*,*,#447,.T.);
#665 = FACE_BOUND('',#666,.T.);
#666 = EDGE_LOOP('',(#667));
#667 = ORIENTED_EDGE('',*,*,#668,.T.);
#668 = EDGE_CURVE('',#669,#669,#671,.T.);
#669 = VERTEX_POINT('',#670);
#670 = CARTESIAN_POINT('',(6.,63.5,1.));
#671 = CIRCLE('',#672,1.5);
#672 = AXIS2_PLACEMENT_3D('',#673,#674,#675);
#673 = CARTESIAN_POINT('',(6.,62.,1.));
#674 = DIRECTION('',(1.221245327088E-15,-3.330669073875E-16,-1.));
#675 = DIRECTION('',(2.22044604925E-16,1.,-3.330669073875E-16));
#676 = PLANE('',#677);
#677 = AXIS2_PLACEMENT_3D('',#678,#679,#680);
#678 = CARTESIAN_POINT('',(-5.218048324918E-15,3.000000122925,1.));
#679 = DIRECTION('',(-2.331468351713E-15,-1.110223024625E-16,1.));
#680 = DIRECTION('',(-8.881784197001E-16,1.,-2.553512956638E-15));
#681 = ADVANCED_FACE('',(#682),#693,.F.);
#682 = FACE_BOUND('',#683,.T.);
#683 = EDGE_LOOP('',(#684,#685,#686,#692));
#684 = ORIENTED_EDGE('',*,*,#634,.T.);
#685 = ORIENTED_EDGE('',*,*,#280,.T.);
#686 = ORIENTED_EDGE('',*,*,#687,.F.);
#687 = EDGE_CURVE('',#215,#273,#688,.T.);
#688 = LINE('',#689,#690);
#689 = CARTESIAN_POINT('',(-6.894485047672E-14,69.,3.000000253572));
#690 = VECTOR('',#691,1.);
#691 = DIRECTION('',(1.,-1.998401444325E-15,-3.330669073875E-16));
#692 = ORIENTED_EDGE('',*,*,#214,.F.);
#693 = CYLINDRICAL_SURFACE('',#694,2.);
#694 = AXIS2_PLACEMENT_3D('',#695,#696,#697);
#695 = CARTESIAN_POINT('',(-6.716849298982E-14,67.,3.));
#696 = DIRECTION('',(-1.,1.7763568394E-15,1.110223024625E-16));
#697 = DIRECTION('',(-8.881784197001E-16,1.,-2.553512956638E-15));
#698 = ADVANCED_FACE('',(#699),#726,.T.);
#699 = FACE_BOUND('',#700,.T.);
#700 = EDGE_LOOP('',(#701,#711,#717,#718,#719,#720));
#701 = ORIENTED_EDGE('',*,*,#702,.F.);
#702 = EDGE_CURVE('',#703,#705,#707,.T.);
#703 = VERTEX_POINT('',#704);
#704 = CARTESIAN_POINT('',(2.995888604264,69.,36.842992131272));
#705 = VERTEX_POINT('',#706);
#706 = CARTESIAN_POINT('',(121.00411139573,69.,30.658443237675));
#707 = LINE('',#708,#709);
#708 = CARTESIAN_POINT('',(2.995888604264,69.,36.842992131272));
#709 = VECTOR('',#710,1.);
#710 = DIRECTION('',(0.998629534755,-1.114693537743E-15,
    -5.233595624259E-02));
#711 = ORIENTED_EDGE('',*,*,#712,.T.);
#712 = EDGE_CURVE('',#703,#224,#713,.T.);
#713 = LINE('',#714,#715);
#714 = CARTESIAN_POINT('',(62.888491931143,69.,33.704153795452));
#715 = VECTOR('',#716,1.);
#716 = DIRECTION('',(-0.998629534755,1.557992561941E-15,
    5.233595624259E-02));
#717 = ORIENTED_EDGE('',*,*,#223,.F.);
#718 = ORIENTED_EDGE('',*,*,#687,.T.);
#719 = ORIENTED_EDGE('',*,*,#272,.T.);
#720 = ORIENTED_EDGE('',*,*,#721,.T.);
#721 = EDGE_CURVE('',#265,#705,#722,.T.);
#722 = LINE('',#723,#724);
#723 = CARTESIAN_POINT('',(62.888491931143,69.,33.704153795452));
#724 = VECTOR('',#725,1.);
#725 = DIRECTION('',(-0.998629534755,1.557992561941E-15,
    5.233595624259E-02));
#726 = PLANE('',#727);
#727 = AXIS2_PLACEMENT_3D('',#728,#729,#730);
#728 = CARTESIAN_POINT('',(60.755601213695,69.,19.378595051134));
#729 = DIRECTION('',(-1.433440798826E-16,-1.,2.298182640178E-15));
#730 = DIRECTION('',(1.221245327088E-15,-9.659150106282E-16,-1.));
#731 = ADVANCED_FACE('',(#732),#743,.T.);
#732 = FACE_BOUND('',#733,.T.);
#733 = EDGE_LOOP('',(#734,#735,#741,#742));
#734 = ORIENTED_EDGE('',*,*,#712,.F.);
#735 = ORIENTED_EDGE('',*,*,#736,.F.);
#736 = EDGE_CURVE('',#463,#703,#737,.T.);
#737 = LINE('',#738,#739);
#738 = CARTESIAN_POINT('',(2.995888604264,70.,36.842992131272));
#739 = VECTOR('',#740,1.);
#740 = DIRECTION('',(4.440892098501E-16,-1.,1.658395643034E-15));
#741 = ORIENTED_EDGE('',*,*,#497,.F.);
#742 = ORIENTED_EDGE('',*,*,#231,.F.);
#743 = PLANE('',#744);
#744 = AXIS2_PLACEMENT_3D('',#745,#746,#747);
#745 = CARTESIAN_POINT('',(124.,-1.995073962411E-13,30.501435368947));
#746 = DIRECTION('',(5.233595624259E-02,-6.972550036356E-17,
    0.998629534755));
#747 = DIRECTION('',(-0.998629534755,1.54056118685E-15,
    5.233595624259E-02));
#748 = ADVANCED_FACE('',(#749),#760,.T.);
#749 = FACE_BOUND('',#750,.T.);
#750 = EDGE_LOOP('',(#751,#752,#753,#754));
#751 = ORIENTED_EDGE('',*,*,#546,.F.);
#752 = ORIENTED_EDGE('',*,*,#314,.T.);
#753 = ORIENTED_EDGE('',*,*,#592,.F.);
#754 = ORIENTED_EDGE('',*,*,#755,.F.);
#755 = EDGE_CURVE('',#512,#585,#756,.T.);
#756 = LINE('',#757,#758);
#757 = CARTESIAN_POINT('',(121.00411139573,-2.557953848736E-13,
    30.658443237675));
#758 = VECTOR('',#759,1.);
#759 = DIRECTION('',(-4.440892098501E-16,1.,-1.658395643034E-15));
#760 = PLANE('',#761);
#761 = AXIS2_PLACEMENT_3D('',#762,#763,#764);
#762 = CARTESIAN_POINT('',(124.,-1.995073962411E-13,30.501435368947));
#763 = DIRECTION('',(5.233595624259E-02,-6.972550036356E-17,
    0.998629534755));
#764 = DIRECTION('',(-0.998629534755,1.54056118685E-15,
    5.233595624259E-02));
#765 = ADVANCED_FACE('',(#766),#777,.T.);
#766 = FACE_BOUND('',#767,.T.);
#767 = EDGE_LOOP('',(#768,#769,#770,#771));
#768 = ORIENTED_EDGE('',*,*,#721,.F.);
#769 = ORIENTED_EDGE('',*,*,#264,.T.);
#770 = ORIENTED_EDGE('',*,*,#488,.F.);
#771 = ORIENTED_EDGE('',*,*,#772,.F.);
#772 = EDGE_CURVE('',#705,#481,#773,.T.);
#773 = LINE('',#774,#775);
#774 = CARTESIAN_POINT('',(121.00411139573,69.,30.658443237674));
#775 = VECTOR('',#776,1.);
#776 = DIRECTION('',(-4.440892098501E-16,1.,-1.658395643034E-15));
#777 = PLANE('',#778);
#778 = AXIS2_PLACEMENT_3D('',#779,#780,#781);
#779 = CARTESIAN_POINT('',(124.,-1.995073962411E-13,30.501435368947));
#780 = DIRECTION('',(5.233595624259E-02,-6.972550036356E-17,
    0.998629534755));
#781 = DIRECTION('',(-0.998629534755,1.54056118685E-15,
    5.233595624259E-02));
#782 = ADVANCED_FACE('',(#783),#794,.F.);
#783 = FACE_BOUND('',#784,.F.);
#784 = EDGE_LOOP('',(#785,#791,#792,#793));
#785 = ORIENTED_EDGE('',*,*,#786,.F.);
#786 = EDGE_CURVE('',#363,#644,#787,.T.);
#787 = LINE('',#788,#789);
#788 = CARTESIAN_POINT('',(118.,9.5,9.629103081414E-14));
#789 = VECTOR('',#790,1.);
#790 = DIRECTION('',(-1.443289932013E-15,1.110223024625E-16,1.));
#791 = ORIENTED_EDGE('',*,*,#372,.F.);
#792 = ORIENTED_EDGE('',*,*,#786,.T.);
#793 = ORIENTED_EDGE('',*,*,#643,.T.);
#794 = CYLINDRICAL_SURFACE('',#795,1.5);
#795 = AXIS2_PLACEMENT_3D('',#796,#797,#798);
#796 = CARTESIAN_POINT('',(118.,8.,9.679063117522E-14));
#797 = DIRECTION('',(1.221245327088E-15,-3.330669073875E-16,-1.));
#798 = DIRECTION('',(2.22044604925E-16,1.,-3.330669073875E-16));
#799 = ADVANCED_FACE('',(#800),#811,.F.);
#800 = FACE_BOUND('',#801,.F.);
#801 = EDGE_LOOP('',(#802,#808,#809,#810));
#802 = ORIENTED_EDGE('',*,*,#803,.F.);
#803 = EDGE_CURVE('',#388,#655,#804,.T.);
#804 = LINE('',#805,#806);
#805 = CARTESIAN_POINT('',(118.,63.5,7.830541781521E-14));
#806 = VECTOR('',#807,1.);
#807 = DIRECTION('',(-1.443289932013E-15,1.110223024625E-16,1.));
#808 = ORIENTED_EDGE('',*,*,#397,.F.);
#809 = ORIENTED_EDGE('',*,*,#803,.T.);
#810 = ORIENTED_EDGE('',*,*,#654,.T.);
#811 = CYLINDRICAL_SURFACE('',#812,1.5);
#812 = AXIS2_PLACEMENT_3D('',#813,#814,#815);
#813 = CARTESIAN_POINT('',(118.,62.,7.880501817629E-14));
#814 = DIRECTION('',(1.221245327088E-15,-3.330669073875E-16,-1.));
#815 = DIRECTION('',(2.22044604925E-16,1.,-3.330669073875E-16));
#816 = ADVANCED_FACE('',(#817),#828,.F.);
#817 = FACE_BOUND('',#818,.F.);
#818 = EDGE_LOOP('',(#819,#825,#826,#827));
#819 = ORIENTED_EDGE('',*,*,#820,.F.);
#820 = EDGE_CURVE('',#413,#669,#821,.T.);
#821 = LINE('',#822,#823);
#822 = CARTESIAN_POINT('',(6.,63.5,-5.847405881861E-14));
#823 = VECTOR('',#824,1.);
#824 = DIRECTION('',(-1.443289932013E-15,1.110223024625E-16,1.));
#825 = ORIENTED_EDGE('',*,*,#422,.F.);
#826 = ORIENTED_EDGE('',*,*,#820,.T.);
#827 = ORIENTED_EDGE('',*,*,#668,.T.);
#828 = CYLINDRICAL_SURFACE('',#829,1.5);
#829 = AXIS2_PLACEMENT_3D('',#830,#831,#832);
#830 = CARTESIAN_POINT('',(6.,62.,-5.797445845753E-14));
#831 = DIRECTION('',(1.221245327088E-15,-3.330669073875E-16,-1.));
#832 = DIRECTION('',(2.22044604925E-16,1.,-3.330669073875E-16));
#833 = ADVANCED_FACE('',(#834),#878,.T.);
#834 = FACE_BOUND('',#835,.T.);
#835 = EDGE_LOOP('',(#836,#837,#838,#847,#855,#863,#871));
#836 = ORIENTED_EDGE('',*,*,#462,.F.);
#837 = ORIENTED_EDGE('',*,*,#736,.T.);
#838 = ORIENTED_EDGE('',*,*,#839,.T.);
#839 = EDGE_CURVE('',#703,#840,#842,.T.);
#840 = VERTEX_POINT('',#841);
#841 = CARTESIAN_POINT('',(3.100560516749,67.,38.840251200781));
#842 = CIRCLE('',#843,2.);
#843 = AXIS2_PLACEMENT_3D('',#844,#845,#846);
#844 = CARTESIAN_POINT('',(2.995888604264,67.,36.842992131272));
#845 = DIRECTION('',(0.998629534755,-4.843353863914E-16,
    -5.233595624259E-02));
#846 = DIRECTION('',(-5.233595624259E-02,2.324183345452E-17,
    -0.998629534755));
#847 = ORIENTED_EDGE('',*,*,#848,.T.);
#848 = EDGE_CURVE('',#840,#849,#851,.T.);
#849 = VERTEX_POINT('',#850);
#850 = CARTESIAN_POINT('',(3.100560516749,66.,38.840251200781));
#851 = LINE('',#852,#853);
#852 = CARTESIAN_POINT('',(3.100560516749,70.,38.840251200781));
#853 = VECTOR('',#854,1.);
#854 = DIRECTION('',(2.22044604925E-16,-1.,1.110223024625E-15));
#855 = ORIENTED_EDGE('',*,*,#856,.T.);
#856 = EDGE_CURVE('',#849,#857,#859,.T.);
#857 = VERTEX_POINT('',#858);
#858 = CARTESIAN_POINT('',(3.152896472991,66.,39.838880735536));
#859 = LINE('',#860,#861);
#860 = CARTESIAN_POINT('',(3.100560516749,66.,38.840251200781));
#861 = VECTOR('',#862,1.);
#862 = DIRECTION('',(5.233595624259E-02,-3.833219713373E-17,
    0.998629534755));
#863 = ORIENTED_EDGE('',*,*,#864,.F.);
#864 = EDGE_CURVE('',#865,#857,#867,.T.);
#865 = VERTEX_POINT('',#866);
#866 = CARTESIAN_POINT('',(3.152896472991,68.,39.838880735536));
#867 = LINE('',#868,#869);
#868 = CARTESIAN_POINT('',(3.152896472991,70.,39.838880735536));
#869 = VECTOR('',#870,1.);
#870 = DIRECTION('',(2.22044604925E-16,-1.,1.110223024625E-15));
#871 = ORIENTED_EDGE('',*,*,#872,.T.);
#872 = EDGE_CURVE('',#865,#465,#873,.T.);
#873 = CIRCLE('',#874,2.);
#874 = AXIS2_PLACEMENT_3D('',#875,#876,#877);
#875 = CARTESIAN_POINT('',(3.048224560506,68.,37.841621666027));
#876 = DIRECTION('',(-0.998629534755,8.580723554822E-16,
    5.233595624259E-02));
#877 = DIRECTION('',(5.233595624259E-02,-2.324183345452E-17,
    0.998629534755));
#878 = PLANE('',#879);
#879 = AXIS2_PLACEMENT_3D('',#880,#881,#882);
#880 = CARTESIAN_POINT('',(3.09682223416,68.428571428572,38.768920519727
    ));
#881 = DIRECTION('',(-0.998629534755,2.026449028339E-16,
    5.233595624259E-02));
#882 = DIRECTION('',(-5.233595624259E-02,2.324183345452E-17,
    -0.998629534755));
#883 = ADVANCED_FACE('',(#884),#903,.T.);
#884 = FACE_BOUND('',#885,.T.);
#885 = EDGE_LOOP('',(#886,#895,#896,#897));
#886 = ORIENTED_EDGE('',*,*,#887,.T.);
#887 = EDGE_CURVE('',#888,#473,#890,.T.);
#888 = VERTEX_POINT('',#889);
#889 = CARTESIAN_POINT('',(121.16111926446,68.,33.654331841938));
#890 = CIRCLE('',#891,2.);
#891 = AXIS2_PLACEMENT_3D('',#892,#893,#894);
#892 = CARTESIAN_POINT('',(121.05644735197,68.,31.657072772429));
#893 = DIRECTION('',(-0.998629534755,8.580723554822E-16,
    5.233595624259E-02));
#894 = DIRECTION('',(5.233595624259E-02,-2.324183345452E-17,
    0.998629534755));
#895 = ORIENTED_EDGE('',*,*,#472,.T.);
#896 = ORIENTED_EDGE('',*,*,#872,.F.);
#897 = ORIENTED_EDGE('',*,*,#898,.F.);
#898 = EDGE_CURVE('',#888,#865,#899,.T.);
#899 = LINE('',#900,#901);
#900 = CARTESIAN_POINT('',(121.16111926446,68.,33.654331841938));
#901 = VECTOR('',#902,1.);
#902 = DIRECTION('',(-0.998629534755,1.488430506834E-15,
    5.233595624259E-02));
#903 = CYLINDRICAL_SURFACE('',#904,2.);
#904 = AXIS2_PLACEMENT_3D('',#905,#906,#907);
#905 = CARTESIAN_POINT('',(121.05644735197,68.,31.657072772429));
#906 = DIRECTION('',(-0.998629534755,1.488430506834E-15,
    5.233595624259E-02));
#907 = DIRECTION('',(5.233595624259E-02,1.984984670565E-16,
    0.998629534755));
#908 = ADVANCED_FACE('',(#909),#945,.T.);
#909 = FACE_BOUND('',#910,.T.);
#910 = EDGE_LOOP('',(#911,#912,#913,#921,#929,#937,#944));
#911 = ORIENTED_EDGE('',*,*,#480,.T.);
#912 = ORIENTED_EDGE('',*,*,#887,.F.);
#913 = ORIENTED_EDGE('',*,*,#914,.F.);
#914 = EDGE_CURVE('',#915,#888,#917,.T.);
#915 = VERTEX_POINT('',#916);
#916 = CARTESIAN_POINT('',(121.16111926446,66.,33.654331841938));
#917 = LINE('',#918,#919);
#918 = CARTESIAN_POINT('',(121.16111926446,66.,33.654331841938));
#919 = VECTOR('',#920,1.);
#920 = DIRECTION('',(-2.22044604925E-16,1.,-1.110223024625E-15));
#921 = ORIENTED_EDGE('',*,*,#922,.F.);
#922 = EDGE_CURVE('',#923,#915,#925,.T.);
#923 = VERTEX_POINT('',#924);
#924 = CARTESIAN_POINT('',(121.10878330822,66.,32.655702307184));
#925 = LINE('',#926,#927);
#926 = CARTESIAN_POINT('',(121.10878330822,66.,32.655702307184));
#927 = VECTOR('',#928,1.);
#928 = DIRECTION('',(5.233595624259E-02,-3.833219713373E-17,
    0.998629534755));
#929 = ORIENTED_EDGE('',*,*,#930,.T.);
#930 = EDGE_CURVE('',#923,#931,#933,.T.);
#931 = VERTEX_POINT('',#932);
#932 = CARTESIAN_POINT('',(121.10878330822,67.,32.655702307184));
#933 = LINE('',#934,#935);
#934 = CARTESIAN_POINT('',(121.10878330822,66.,32.655702307184));
#935 = VECTOR('',#936,1.);
#936 = DIRECTION('',(-2.22044604925E-16,1.,-1.110223024625E-15));
#937 = ORIENTED_EDGE('',*,*,#938,.F.);
#938 = EDGE_CURVE('',#705,#931,#939,.T.);
#939 = CIRCLE('',#940,2.);
#940 = AXIS2_PLACEMENT_3D('',#941,#942,#943);
#941 = CARTESIAN_POINT('',(121.00411139573,67.,30.658443237675));
#942 = DIRECTION('',(0.998629534755,-4.843353863914E-16,
    -5.233595624259E-02));
#943 = DIRECTION('',(-5.233595624259E-02,2.324183345452E-17,
    -0.998629534755));
#944 = ORIENTED_EDGE('',*,*,#772,.T.);
#945 = PLANE('',#946);
#946 = AXIS2_PLACEMENT_3D('',#947,#948,#949);
#947 = CARTESIAN_POINT('',(121.10504502563,68.428571428571,
    32.58437162613));
#948 = DIRECTION('',(0.998629534755,1.412476201637E-15,
    -5.23359562426E-02));
#949 = DIRECTION('',(5.23359562426E-02,-2.324183345452E-17,
    0.998629534755));
#950 = ADVANCED_FACE('',(#951),#995,.T.);
#951 = FACE_BOUND('',#952,.T.);
#952 = EDGE_LOOP('',(#953,#954,#955,#964,#972,#980,#988));
#953 = ORIENTED_EDGE('',*,*,#511,.F.);
#954 = ORIENTED_EDGE('',*,*,#755,.T.);
#955 = ORIENTED_EDGE('',*,*,#956,.T.);
#956 = EDGE_CURVE('',#585,#957,#959,.T.);
#957 = VERTEX_POINT('',#958);
#958 = CARTESIAN_POINT('',(121.10878330822,3.,32.655702307184));
#959 = CIRCLE('',#960,2.);
#960 = AXIS2_PLACEMENT_3D('',#961,#962,#963);
#961 = CARTESIAN_POINT('',(121.00411139573,3.,30.658443237675));
#962 = DIRECTION('',(-0.998629534755,4.843353863914E-16,
    5.233595624259E-02));
#963 = DIRECTION('',(5.233595624259E-02,-2.324183345452E-17,
    0.998629534755));
#964 = ORIENTED_EDGE('',*,*,#965,.T.);
#965 = EDGE_CURVE('',#957,#966,#968,.T.);
#966 = VERTEX_POINT('',#967);
#967 = CARTESIAN_POINT('',(121.10878330822,4.,32.655702307184));
#968 = LINE('',#969,#970);
#969 = CARTESIAN_POINT('',(121.10878330822,-2.060573933704E-13,
    32.655702307184));
#970 = VECTOR('',#971,1.);
#971 = DIRECTION('',(-2.22044604925E-16,1.,-1.110223024625E-15));
#972 = ORIENTED_EDGE('',*,*,#973,.T.);
#973 = EDGE_CURVE('',#966,#974,#976,.T.);
#974 = VERTEX_POINT('',#975);
#975 = CARTESIAN_POINT('',(121.16111926446,4.,33.654331841938));
#976 = LINE('',#977,#978);
#977 = CARTESIAN_POINT('',(121.10878330822,4.,32.655702307184));
#978 = VECTOR('',#979,1.);
#979 = DIRECTION('',(5.233595624259E-02,-3.833219713373E-17,
    0.998629534755));
#980 = ORIENTED_EDGE('',*,*,#981,.F.);
#981 = EDGE_CURVE('',#982,#974,#984,.T.);
#982 = VERTEX_POINT('',#983);
#983 = CARTESIAN_POINT('',(121.16111926446,2.,33.654331841938));
#984 = LINE('',#985,#986);
#985 = CARTESIAN_POINT('',(121.16111926446,-1.989519660128E-13,
    33.654331841938));
#986 = VECTOR('',#987,1.);
#987 = DIRECTION('',(-2.22044604925E-16,1.,-1.110223024625E-15));
#988 = ORIENTED_EDGE('',*,*,#989,.T.);
#989 = EDGE_CURVE('',#982,#514,#990,.T.);
#990 = CIRCLE('',#991,2.);
#991 = AXIS2_PLACEMENT_3D('',#992,#993,#994);
#992 = CARTESIAN_POINT('',(121.05644735197,2.,31.657072772429));
#993 = DIRECTION('',(0.998629534755,-5.42478578022E-16,
    -5.233595624259E-02));
#994 = DIRECTION('',(-5.233595624259E-02,2.324183345452E-17,
    -0.998629534755));
#995 = PLANE('',#996);
#996 = AXIS2_PLACEMENT_3D('',#997,#998,#999);
#997 = CARTESIAN_POINT('',(121.10504502563,1.571428571428,32.58437162613
    ));
#998 = DIRECTION('',(0.998629534755,-2.426818571741E-15,
    -5.23359562426E-02));
#999 = DIRECTION('',(5.23359562426E-02,-2.324183345452E-17,
    0.998629534755));
#1000 = ADVANCED_FACE('',(#1001),#1020,.T.);
#1001 = FACE_BOUND('',#1002,.T.);
#1002 = EDGE_LOOP('',(#1003,#1012,#1013,#1014));
#1003 = ORIENTED_EDGE('',*,*,#1004,.T.);
#1004 = EDGE_CURVE('',#1005,#522,#1007,.T.);
#1005 = VERTEX_POINT('',#1006);
#1006 = CARTESIAN_POINT('',(3.152896472991,2.,39.838880735536));
#1007 = CIRCLE('',#1008,2.);
#1008 = AXIS2_PLACEMENT_3D('',#1009,#1010,#1011);
#1009 = CARTESIAN_POINT('',(3.048224560506,2.,37.841621666027));
#1010 = DIRECTION('',(0.998629534755,-5.42478578022E-16,
    -5.233595624259E-02));
#1011 = DIRECTION('',(-5.233595624259E-02,2.324183345452E-17,
    -0.998629534755));
#1012 = ORIENTED_EDGE('',*,*,#521,.T.);
#1013 = ORIENTED_EDGE('',*,*,#989,.F.);
#1014 = ORIENTED_EDGE('',*,*,#1015,.F.);
#1015 = EDGE_CURVE('',#1005,#982,#1016,.T.);
#1016 = LINE('',#1017,#1018);
#1017 = CARTESIAN_POINT('',(3.152896472991,2.,39.838880735536));
#1018 = VECTOR('',#1019,1.);
#1019 = DIRECTION('',(0.998629534755,-1.172836729373E-15,
    -5.233595624259E-02));
#1020 = CYLINDRICAL_SURFACE('',#1021,2.);
#1021 = AXIS2_PLACEMENT_3D('',#1022,#1023,#1024);
#1022 = CARTESIAN_POINT('',(3.048224560506,2.,37.841621666027));
#1023 = DIRECTION('',(0.998629534755,-1.172836729373E-15,
    -5.233595624259E-02));
#1024 = DIRECTION('',(5.233595624259E-02,1.984984670565E-16,
    0.998629534755));
#1025 = ADVANCED_FACE('',(#1026),#1062,.T.);
#1026 = FACE_BOUND('',#1027,.T.);
#1027 = EDGE_LOOP('',(#1028,#1029,#1030,#1038,#1046,#1054,#1061));
#1028 = ORIENTED_EDGE('',*,*,#529,.T.);
#1029 = ORIENTED_EDGE('',*,*,#1004,.F.);
#1030 = ORIENTED_EDGE('',*,*,#1031,.F.);
#1031 = EDGE_CURVE('',#1032,#1005,#1034,.T.);
#1032 = VERTEX_POINT('',#1033);
#1033 = CARTESIAN_POINT('',(3.152896472991,4.,39.838880735536));
#1034 = LINE('',#1035,#1036);
#1035 = CARTESIAN_POINT('',(3.152896472991,4.,39.838880735536));
#1036 = VECTOR('',#1037,1.);
#1037 = DIRECTION('',(2.22044604925E-16,-1.,1.110223024625E-15));
#1038 = ORIENTED_EDGE('',*,*,#1039,.F.);
#1039 = EDGE_CURVE('',#1040,#1032,#1042,.T.);
#1040 = VERTEX_POINT('',#1041);
#1041 = CARTESIAN_POINT('',(3.100560516749,4.,38.840251200781));
#1042 = LINE('',#1043,#1044);
#1043 = CARTESIAN_POINT('',(3.100560516749,4.,38.840251200781));
#1044 = VECTOR('',#1045,1.);
#1045 = DIRECTION('',(5.233595624259E-02,-3.833219713373E-17,
    0.998629534755));
#1046 = ORIENTED_EDGE('',*,*,#1047,.T.);
#1047 = EDGE_CURVE('',#1040,#1048,#1050,.T.);
#1048 = VERTEX_POINT('',#1049);
#1049 = CARTESIAN_POINT('',(3.100560516749,3.,38.840251200781));
#1050 = LINE('',#1051,#1052);
#1051 = CARTESIAN_POINT('',(3.100560516749,4.,38.840251200781));
#1052 = VECTOR('',#1053,1.);
#1053 = DIRECTION('',(2.22044604925E-16,-1.,1.110223024625E-15));
#1054 = ORIENTED_EDGE('',*,*,#1055,.F.);
#1055 = EDGE_CURVE('',#562,#1048,#1056,.T.);
#1056 = CIRCLE('',#1057,2.);
#1057 = AXIS2_PLACEMENT_3D('',#1058,#1059,#1060);
#1058 = CARTESIAN_POINT('',(2.995888604264,3.,36.842992131272));
#1059 = DIRECTION('',(-0.998629534755,4.843353863914E-16,
    5.233595624259E-02));
#1060 = DIRECTION('',(5.233595624259E-02,-2.324183345452E-17,
    0.998629534755));
#1061 = ORIENTED_EDGE('',*,*,#561,.T.);
#1062 = PLANE('',#1063);
#1063 = AXIS2_PLACEMENT_3D('',#1064,#1065,#1066);
#1064 = CARTESIAN_POINT('',(3.09682223416,1.571428571429,38.768920519728
    ));
#1065 = DIRECTION('',(-0.998629534755,9.688517052864E-16,
    5.233595624259E-02));
#1066 = DIRECTION('',(-5.233595624259E-02,2.324183345452E-17,
    -0.998629534755));
#1067 = ADVANCED_FACE('',(#1068),#1079,.F.);
#1068 = FACE_BOUND('',#1069,.F.);
#1069 = EDGE_LOOP('',(#1070,#1071,#1077,#1078));
#1070 = ORIENTED_EDGE('',*,*,#956,.T.);
#1071 = ORIENTED_EDGE('',*,*,#1072,.T.);
#1072 = EDGE_CURVE('',#957,#1048,#1073,.T.);
#1073 = LINE('',#1074,#1075);
#1074 = CARTESIAN_POINT('',(121.10878330822,3.,32.655702307184));
#1075 = VECTOR('',#1076,1.);
#1076 = DIRECTION('',(-0.998629534755,1.114693537743E-15,
    5.233595624259E-02));
#1077 = ORIENTED_EDGE('',*,*,#1055,.F.);
#1078 = ORIENTED_EDGE('',*,*,#584,.F.);
#1079 = CYLINDRICAL_SURFACE('',#1080,2.);
#1080 = AXIS2_PLACEMENT_3D('',#1081,#1082,#1083);
#1081 = CARTESIAN_POINT('',(121.00411139573,3.,30.658443237675));
#1082 = DIRECTION('',(-0.998629534755,1.114693537743E-15,
    5.233595624259E-02));
#1083 = DIRECTION('',(-4.156261224255E-16,-1.,1.323733625896E-15));
#1084 = ADVANCED_FACE('',(#1085),#1096,.F.);
#1085 = FACE_BOUND('',#1086,.F.);
#1086 = EDGE_LOOP('',(#1087,#1088,#1094,#1095));
#1087 = ORIENTED_EDGE('',*,*,#839,.T.);
#1088 = ORIENTED_EDGE('',*,*,#1089,.T.);
#1089 = EDGE_CURVE('',#840,#931,#1090,.T.);
#1090 = LINE('',#1091,#1092);
#1091 = CARTESIAN_POINT('',(3.100560516749,67.,38.840251200781));
#1092 = VECTOR('',#1093,1.);
#1093 = DIRECTION('',(0.998629534755,-1.114693537743E-15,
    -5.233595624259E-02));
#1094 = ORIENTED_EDGE('',*,*,#938,.F.);
#1095 = ORIENTED_EDGE('',*,*,#702,.F.);
#1096 = CYLINDRICAL_SURFACE('',#1097,2.);
#1097 = AXIS2_PLACEMENT_3D('',#1098,#1099,#1100);
#1098 = CARTESIAN_POINT('',(2.995888604264,67.,36.842992131272));
#1099 = DIRECTION('',(0.998629534755,-1.114693537743E-15,
    -5.233595624259E-02));
#1100 = DIRECTION('',(3.883778635771E-16,1.,-1.843661377489E-15));
#1101 = ADVANCED_FACE('',(#1102),#1113,.T.);
#1102 = FACE_BOUND('',#1103,.T.);
#1103 = EDGE_LOOP('',(#1104,#1105,#1111,#1112));
#1104 = ORIENTED_EDGE('',*,*,#864,.T.);
#1105 = ORIENTED_EDGE('',*,*,#1106,.T.);
#1106 = EDGE_CURVE('',#857,#915,#1107,.T.);
#1107 = LINE('',#1108,#1109);
#1108 = CARTESIAN_POINT('',(3.152896472991,66.,39.838880735536));
#1109 = VECTOR('',#1110,1.);
#1110 = DIRECTION('',(0.998629534755,-1.096778917686E-15,
    -5.233595624259E-02));
#1111 = ORIENTED_EDGE('',*,*,#914,.T.);
#1112 = ORIENTED_EDGE('',*,*,#898,.T.);
#1113 = PLANE('',#1114);
#1114 = AXIS2_PLACEMENT_3D('',#1115,#1116,#1117);
#1115 = CARTESIAN_POINT('',(62.157007868728,35.,36.746606288737));
#1116 = DIRECTION('',(5.233595624259E-02,-2.682239674201E-16,
    0.998629534755));
#1117 = DIRECTION('',(0.998629534755,-8.753402853169E-16,
    -5.233595624259E-02));
#1118 = ADVANCED_FACE('',(#1119),#1130,.F.);
#1119 = FACE_BOUND('',#1120,.F.);
#1120 = EDGE_LOOP('',(#1121,#1122,#1123,#1124));
#1121 = ORIENTED_EDGE('',*,*,#856,.T.);
#1122 = ORIENTED_EDGE('',*,*,#1106,.T.);
#1123 = ORIENTED_EDGE('',*,*,#922,.F.);
#1124 = ORIENTED_EDGE('',*,*,#1125,.F.);
#1125 = EDGE_CURVE('',#849,#923,#1126,.T.);
#1126 = LINE('',#1127,#1128);
#1127 = CARTESIAN_POINT('',(3.100560516749,66.,38.840251200781));
#1128 = VECTOR('',#1129,1.);
#1129 = DIRECTION('',(0.998629534755,-1.096778917686E-15,
    -5.233595624259E-02));
#1130 = PLANE('',#1131);
#1131 = AXIS2_PLACEMENT_3D('',#1132,#1133,#1134);
#1132 = CARTESIAN_POINT('',(3.100560516749,66.,38.840251200781));
#1133 = DIRECTION('',(2.217993179387E-16,1.,-6.742836162411E-16));
#1134 = DIRECTION('',(0.998629534755,-8.871427788681E-16,
    -5.233595624259E-02));
#1135 = ADVANCED_FACE('',(#1136),#1142,.F.);
#1136 = FACE_BOUND('',#1137,.F.);
#1137 = EDGE_LOOP('',(#1138,#1139,#1140,#1141));
#1138 = ORIENTED_EDGE('',*,*,#930,.T.);
#1139 = ORIENTED_EDGE('',*,*,#1089,.F.);
#1140 = ORIENTED_EDGE('',*,*,#848,.T.);
#1141 = ORIENTED_EDGE('',*,*,#1125,.T.);
#1142 = PLANE('',#1143);
#1143 = AXIS2_PLACEMENT_3D('',#1144,#1145,#1146);
#1144 = CARTESIAN_POINT('',(62.104671912485,35.,35.747976753983));
#1145 = DIRECTION('',(5.233595624259E-02,-2.682239674201E-16,
    0.998629534755));
#1146 = DIRECTION('',(0.998629534755,-8.753402853169E-16,
    -5.233595624259E-02));
#1147 = ADVANCED_FACE('',(#1148),#1159,.T.);
#1148 = FACE_BOUND('',#1149,.T.);
#1149 = EDGE_LOOP('',(#1150,#1151,#1157,#1158));
#1150 = ORIENTED_EDGE('',*,*,#981,.T.);
#1151 = ORIENTED_EDGE('',*,*,#1152,.T.);
#1152 = EDGE_CURVE('',#974,#1032,#1153,.T.);
#1153 = LINE('',#1154,#1155);
#1154 = CARTESIAN_POINT('',(121.16111926446,4.,33.654331841938));
#1155 = VECTOR('',#1156,1.);
#1156 = DIRECTION('',(-0.998629534755,1.096778917686E-15,
    5.233595624259E-02));
#1157 = ORIENTED_EDGE('',*,*,#1031,.T.);
#1158 = ORIENTED_EDGE('',*,*,#1015,.T.);
#1159 = PLANE('',#1160);
#1160 = AXIS2_PLACEMENT_3D('',#1161,#1162,#1163);
#1161 = CARTESIAN_POINT('',(62.157007868728,35.,36.746606288737));
#1162 = DIRECTION('',(5.233595624259E-02,-2.682239674201E-16,
    0.998629534755));
#1163 = DIRECTION('',(0.998629534755,-8.753402853169E-16,
    -5.233595624259E-02));
#1164 = ADVANCED_FACE('',(#1165),#1176,.F.);
#1165 = FACE_BOUND('',#1166,.F.);
#1166 = EDGE_LOOP('',(#1167,#1168,#1169,#1170));
#1167 = ORIENTED_EDGE('',*,*,#973,.T.);
#1168 = ORIENTED_EDGE('',*,*,#1152,.T.);
#1169 = ORIENTED_EDGE('',*,*,#1039,.F.);
#1170 = ORIENTED_EDGE('',*,*,#1171,.F.);
#1171 = EDGE_CURVE('',#966,#1040,#1172,.T.);
#1172 = LINE('',#1173,#1174);
#1173 = CARTESIAN_POINT('',(121.10878330822,4.,32.655702307184));
#1174 = VECTOR('',#1175,1.);
#1175 = DIRECTION('',(-0.998629534755,1.096778917686E-15,
    5.233595624259E-02));
#1176 = PLANE('',#1177);
#1177 = AXIS2_PLACEMENT_3D('',#1178,#1179,#1180);
#1178 = CARTESIAN_POINT('',(121.10878330822,4.,32.655702307184));
#1179 = DIRECTION('',(-2.217993179387E-16,-1.,6.742836162411E-16));
#1180 = DIRECTION('',(-0.998629534755,8.871427788681E-16,
    5.233595624259E-02));
#1181 = ADVANCED_FACE('',(#1182),#1188,.F.);
#1182 = FACE_BOUND('',#1183,.F.);
#1183 = EDGE_LOOP('',(#1184,#1185,#1186,#1187));
#1184 = ORIENTED_EDGE('',*,*,#1047,.T.);
#1185 = ORIENTED_EDGE('',*,*,#1072,.F.);
#1186 = ORIENTED_EDGE('',*,*,#965,.T.);
#1187 = ORIENTED_EDGE('',*,*,#1171,.T.);
#1188 = PLANE('',#1189);
#1189 = AXIS2_PLACEMENT_3D('',#1190,#1191,#1192);
#1190 = CARTESIAN_POINT('',(62.104671912485,35.,35.747976753983));
#1191 = DIRECTION('',(5.233595624259E-02,-2.682239674201E-16,
    0.998629534755));
#1192 = DIRECTION('',(0.998629534755,-8.753402853169E-16,
    -5.233595624259E-02));
#1193 = ( GEOMETRIC_REPRESENTATION_CONTEXT(3) 
GLOBAL_UNCERTAINTY_ASSIGNED_CONTEXT((#1197)) 
GLOBAL_UNIT_ASSIGNED_CONTEXT((#1194,#1195,#1196)) REPRESENTATION_CONTEXT
('Context #1','3D Context with UNIT and UNCERTAINTY') );
#1194 = ( LENGTH_UNIT() NAMED_UNIT(*) SI_UNIT(.MILLI.,.METRE.) );
#1195 = ( NAMED_UNIT(*) PLANE_ANGLE_UNIT() SI_UNIT($,.RADIAN.) );
#1196 = ( NAMED_UNIT(*) SI_UNIT($,.STERADIAN.) SOLID_ANGLE_UNIT() );
#1197 = UNCERTAINTY_MEASURE_WITH_UNIT(LENGTH_MEASURE(2.E-04),#1194,
  'distance_accuracy_value','confusion accuracy');
#1198 = PRODUCT_RELATED_PRODUCT_CATEGORY('part',$,(#7));
#1199 = MECHANICAL_DESIGN_GEOMETRIC_PRESENTATION_REPRESENTATION('',(
    #1200),#1193);
#1200 = STYLED_ITEM('color',(#1201),#15);
#1201 = PRESENTATION_STYLE_ASSIGNMENT((#1202,#1208));
#1202 = SURFACE_STYLE_USAGE(.BOTH.,#1203);
#1203 = SURFACE_SIDE_STYLE('',(#1204));
#1204 = SURFACE_STYLE_FILL_AREA(#1205);
#1205 = FILL_AREA_STYLE('',(#1206));
#1206 = FILL_AREA_STYLE_COLOUR('',#1207);
#1207 = COLOUR_RGB('',0.800000010877,0.800000010877,0.800000010877);
#1208 = CURVE_STYLE('',#1209,POSITIVE_LENGTH_MEASURE(0.1),#1210);
#1209 = DRAUGHTING_PRE_DEFINED_CURVE_FONT('continuous');
#1210 = COLOUR_RGB('',9.803921802644E-02,9.803921802644E-02,
  9.803921802644E-02);
ENDSEC;
END-ISO-10303-21;
