ISO-10303-21;
HEADER;
FILE_DESCRIPTION(('FreeCAD Model'),'2;1');
FILE_NAME('Open CASCADE Shape Model','2025-12-06T09:50:34',(''),(''),
  'Open CASCADE STEP processor 7.9','FreeCAD','Unknown');
FILE_SCHEMA(('AUTOMOTIVE_DESIGN { 1 0 10303 214 1 1 1 1 }'));
ENDSEC;
DATA;
#1 = APPLICATION_PROTOCOL_DEFINITION('international standard',
  'automotive_design',2000,#2);
#2 = APPLICATION_CONTEXT(
  'core data for automotive mechanical design processes');
#3 = SHAPE_DEFINITION_REPRESENTATION(#4,#10);
#4 = PRODUCT_DEFINITION_SHAPE('','',#5);
#5 = PRODUCT_DEFINITION('design','',#6,#9);
#6 = PRODUCT_DEFINITION_FORMATION('','',#7);
#7 = PRODUCT('Body','Body','',(#8));
#8 = PRODUCT_CONTEXT('',#2,'mechanical');
#9 = PRODUCT_DEFINITION_CONTEXT('part definition',#2,'design');
#10 = ADVANCED_BREP_SHAPE_REPRESENTATION('',(#11,#15),#1806);
#11 = AXIS2_PLACEMENT_3D('',#12,#13,#14);
#12 = CARTESIAN_POINT('',(0.,0.,0.));
#13 = DIRECTION('',(0.,0.,1.));
#14 = DIRECTION('',(1.,0.,-0.));
#15 = MANIFOLD_SOLID_BREP('',#16);
#16 = CLOSED_SHELL('',(#17,#124,#223,#248,#273,#297,#388,#421,#446,#470,
    #495,#520,#545,#601,#626,#643,#691,#791,#808,#913,#930,#960,#1001,
    #1018,#1064,#1098,#1115,#1148,#1165,#1198,#1215,#1232,#1249,#1266,
    #1283,#1300,#1317,#1334,#1351,#1368,#1402,#1427,#1452,#1485,#1518,
    #1557,#1596,#1621,#1646,#1658,#1670,#1682,#1707,#1732,#1757,#1782,
    #1794));
#17 = ADVANCED_FACE('',(#18,#86,#97,#108),#119,.T.);
#18 = FACE_BOUND('',#19,.T.);
#19 = EDGE_LOOP('',(#20,#30,#38,#46,#55,#63,#71,#79));
#20 = ORIENTED_EDGE('',*,*,#21,.F.);
#21 = EDGE_CURVE('',#22,#24,#26,.T.);
#22 = VERTEX_POINT('',#23);
#23 = CARTESIAN_POINT('',(1.,8.217132328032E-15,37.006674090581));
#24 = VERTEX_POINT('',#25);
#25 = CARTESIAN_POINT('',(1.,6.328271240363E-15,4.5));
#26 = LINE('',#27,#28);
#27 = CARTESIAN_POINT('',(1.,8.217132328032E-15,37.006674090581));
#28 = VECTOR('',#29,1.);
#29 = DIRECTION('',(0.,-2.22044604925E-16,-1.));
#30 = ORIENTED_EDGE('',*,*,#31,.T.);
#31 = EDGE_CURVE('',#22,#32,#34,.T.);
#32 = VERTEX_POINT('',#33);
#33 = CARTESIAN_POINT('',(1.,-70.,37.006674090581));
#34 = LINE('',#35,#36);
#35 = CARTESIAN_POINT('',(1.,8.217132328032E-15,37.006674090581));
#36 = VECTOR('',#37,1.);
#37 = DIRECTION('',(0.,-1.,2.22044604925E-16));
#38 = ORIENTED_EDGE('',*,*,#39,.T.);
#39 = EDGE_CURVE('',#32,#40,#42,.T.);
#40 = VERTEX_POINT('',#41);
#41 = CARTESIAN_POINT('',(1.,-70.,4.5));
#42 = LINE('',#43,#44);
#43 = CARTESIAN_POINT('',(1.,-70.,37.006674090581));
#44 = VECTOR('',#45,1.);
#45 = DIRECTION('',(0.,-2.22044604925E-16,-1.));
#46 = ORIENTED_EDGE('',*,*,#47,.T.);
#47 = EDGE_CURVE('',#40,#48,#50,.T.);
#48 = VERTEX_POINT('',#49);
#49 = CARTESIAN_POINT('',(1.,-68.5,3.));
#50 = CIRCLE('',#51,1.5);
#51 = AXIS2_PLACEMENT_3D('',#52,#53,#54);
#52 = CARTESIAN_POINT('',(1.,-68.5,4.5));
#53 = DIRECTION('',(1.,0.,2.22044604925E-16));
#54 = DIRECTION('',(-2.22044604925E-16,-2.22044604925E-16,1.));
#55 = ORIENTED_EDGE('',*,*,#56,.F.);
#56 = EDGE_CURVE('',#57,#48,#59,.T.);
#57 = VERTEX_POINT('',#58);
#58 = CARTESIAN_POINT('',(1.,-67.,3.));
#59 = LINE('',#60,#61);
#60 = CARTESIAN_POINT('',(1.,6.661338147751E-16,3.));
#61 = VECTOR('',#62,1.);
#62 = DIRECTION('',(0.,-1.,2.22044604925E-16));
#63 = ORIENTED_EDGE('',*,*,#64,.F.);
#64 = EDGE_CURVE('',#65,#57,#67,.T.);
#65 = VERTEX_POINT('',#66);
#66 = CARTESIAN_POINT('',(1.,-3.,3.));
#67 = LINE('',#68,#69);
#68 = CARTESIAN_POINT('',(1.,6.661338147751E-16,3.));
#69 = VECTOR('',#70,1.);
#70 = DIRECTION('',(0.,-1.,2.22044604925E-16));
#71 = ORIENTED_EDGE('',*,*,#72,.F.);
#72 = EDGE_CURVE('',#73,#65,#75,.T.);
#73 = VERTEX_POINT('',#74);
#74 = CARTESIAN_POINT('',(1.,-1.5,3.));
#75 = LINE('',#76,#77);
#76 = CARTESIAN_POINT('',(1.,6.661338147751E-16,3.));
#77 = VECTOR('',#78,1.);
#78 = DIRECTION('',(0.,-1.,2.22044604925E-16));
#79 = ORIENTED_EDGE('',*,*,#80,.F.);
#80 = EDGE_CURVE('',#24,#73,#81,.T.);
#81 = CIRCLE('',#82,1.5);
#82 = AXIS2_PLACEMENT_3D('',#83,#84,#85);
#83 = CARTESIAN_POINT('',(1.,-1.5,4.5));
#84 = DIRECTION('',(-1.,0.,-2.22044604925E-16));
#85 = DIRECTION('',(-2.22044604925E-16,-2.22044604925E-16,1.));
#86 = FACE_BOUND('',#87,.T.);
#87 = EDGE_LOOP('',(#88));
#88 = ORIENTED_EDGE('',*,*,#89,.T.);
#89 = EDGE_CURVE('',#90,#90,#92,.T.);
#90 = VERTEX_POINT('',#91);
#91 = CARTESIAN_POINT('',(1.,-55.,13.));
#92 = CIRCLE('',#93,5.);
#93 = AXIS2_PLACEMENT_3D('',#94,#95,#96);
#94 = CARTESIAN_POINT('',(1.,-55.,18.));
#95 = DIRECTION('',(-1.,-8.659560562355E-17,-2.22044604925E-16));
#96 = DIRECTION('',(2.22044604925E-16,-8.659560562355E-17,-1.));
#97 = FACE_BOUND('',#98,.T.);
#98 = EDGE_LOOP('',(#99));
#99 = ORIENTED_EDGE('',*,*,#100,.T.);
#100 = EDGE_CURVE('',#101,#101,#103,.T.);
#101 = VERTEX_POINT('',#102);
#102 = CARTESIAN_POINT('',(1.,-35.,18.));
#103 = CIRCLE('',#104,4.);
#104 = AXIS2_PLACEMENT_3D('',#105,#106,#107);
#105 = CARTESIAN_POINT('',(1.,-35.,22.));
#106 = DIRECTION('',(-1.,-8.659560562355E-17,-2.22044604925E-16));
#107 = DIRECTION('',(2.22044604925E-16,-8.659560562355E-17,-1.));
#108 = FACE_BOUND('',#109,.T.);
#109 = EDGE_LOOP('',(#110));
#110 = ORIENTED_EDGE('',*,*,#111,.T.);
#111 = EDGE_CURVE('',#112,#112,#114,.T.);
#112 = VERTEX_POINT('',#113);
#113 = CARTESIAN_POINT('',(1.,-15.,13.));
#114 = CIRCLE('',#115,5.);
#115 = AXIS2_PLACEMENT_3D('',#116,#117,#118);
#116 = CARTESIAN_POINT('',(1.,-15.,18.));
#117 = DIRECTION('',(-1.,-8.659560562355E-17,-2.22044604925E-16));
#118 = DIRECTION('',(2.22044604925E-16,-8.659560562355E-17,-1.));
#119 = PLANE('',#120);
#120 = AXIS2_PLACEMENT_3D('',#121,#122,#123);
#121 = CARTESIAN_POINT('',(1.,8.217132328032E-15,37.006674090581));
#122 = DIRECTION('',(1.,0.,0.));
#123 = DIRECTION('',(0.,-2.22044604925E-16,-1.));
#124 = ADVANCED_FACE('',(#125),#218,.T.);
#125 = FACE_BOUND('',#126,.T.);
#126 = EDGE_LOOP('',(#127,#137,#146,#154,#161,#162,#170,#178,#187,#195,
    #204,#212));
#127 = ORIENTED_EDGE('',*,*,#128,.T.);
#128 = EDGE_CURVE('',#129,#131,#133,.T.);
#129 = VERTEX_POINT('',#130);
#130 = CARTESIAN_POINT('',(125.,6.328271240363E-15,4.5));
#131 = VERTEX_POINT('',#132);
#132 = CARTESIAN_POINT('',(125.,6.820708570524E-15,30.717740576616));
#133 = LINE('',#134,#135);
#134 = CARTESIAN_POINT('',(125.,6.661338147751E-16,3.));
#135 = VECTOR('',#136,1.);
#136 = DIRECTION('',(0.,2.22044604925E-16,1.));
#137 = ORIENTED_EDGE('',*,*,#138,.T.);
#138 = EDGE_CURVE('',#131,#139,#141,.T.);
#139 = VERTEX_POINT('',#140);
#140 = CARTESIAN_POINT('',(123.13333145602,7.263809844355E-15,
    32.713291308328));
#141 = CIRCLE('',#142,2.);
#142 = AXIS2_PLACEMENT_3D('',#143,#144,#145);
#143 = CARTESIAN_POINT('',(123.,6.820708570524E-15,30.717740576616));
#144 = DIRECTION('',(0.,-1.,2.22044604925E-16));
#145 = DIRECTION('',(1.,0.,0.));
#146 = ORIENTED_EDGE('',*,*,#147,.F.);
#147 = EDGE_CURVE('',#148,#139,#150,.T.);
#148 = VERTEX_POINT('',#149);
#149 = CARTESIAN_POINT('',(3.133333076189,8.660233577827E-15,
    39.002224714041));
#150 = LINE('',#151,#152);
#151 = CARTESIAN_POINT('',(3.133333076189,8.660233577827E-15,
    39.002224714041));
#152 = VECTOR('',#153,1.);
#153 = DIRECTION('',(0.998629534765,-1.162091668432E-17,
    -5.233595604922E-02));
#154 = ORIENTED_EDGE('',*,*,#155,.T.);
#155 = EDGE_CURVE('',#148,#22,#156,.T.);
#156 = CIRCLE('',#157,2.);
#157 = AXIS2_PLACEMENT_3D('',#158,#159,#160);
#158 = CARTESIAN_POINT('',(3.,8.217132328032E-15,37.006674090581));
#159 = DIRECTION('',(0.,-1.,2.22044604925E-16));
#160 = DIRECTION('',(1.,0.,0.));
#161 = ORIENTED_EDGE('',*,*,#21,.T.);
#162 = ORIENTED_EDGE('',*,*,#163,.F.);
#163 = EDGE_CURVE('',#164,#24,#166,.T.);
#164 = VERTEX_POINT('',#165);
#165 = CARTESIAN_POINT('',(-3.330669073875E-16,6.328271240363E-15,4.5));
#166 = LINE('',#167,#168);
#167 = CARTESIAN_POINT('',(-3.330669073875E-16,6.328271240363E-15,4.5));
#168 = VECTOR('',#169,1.);
#169 = DIRECTION('',(1.,0.,2.22044604925E-16));
#170 = ORIENTED_EDGE('',*,*,#171,.T.);
#171 = EDGE_CURVE('',#164,#172,#174,.T.);
#172 = VERTEX_POINT('',#173);
#173 = CARTESIAN_POINT('',(0.,8.217132328032E-15,37.006674090581));
#174 = LINE('',#175,#176);
#175 = CARTESIAN_POINT('',(0.,6.661338147751E-16,3.));
#176 = VECTOR('',#177,1.);
#177 = DIRECTION('',(0.,2.22044604925E-16,1.));
#178 = ORIENTED_EDGE('',*,*,#179,.F.);
#179 = EDGE_CURVE('',#180,#172,#182,.T.);
#180 = VERTEX_POINT('',#181);
#181 = CARTESIAN_POINT('',(3.2,8.881784197001E-15,40.));
#182 = CIRCLE('',#183,3.);
#183 = AXIS2_PLACEMENT_3D('',#184,#185,#186);
#184 = CARTESIAN_POINT('',(3.,8.217132328032E-15,37.006674090581));
#185 = DIRECTION('',(0.,-1.,2.22044604925E-16));
#186 = DIRECTION('',(1.,0.,0.));
#187 = ORIENTED_EDGE('',*,*,#188,.F.);
#188 = EDGE_CURVE('',#189,#180,#191,.T.);
#189 = VERTEX_POINT('',#190);
#190 = CARTESIAN_POINT('',(123.2,7.485360439493E-15,33.711066486035));
#191 = LINE('',#192,#193);
#192 = CARTESIAN_POINT('',(123.2,7.485360439493E-15,33.711066486035));
#193 = VECTOR('',#194,1.);
#194 = DIRECTION('',(-0.998629534755,1.162091672734E-17,
    5.233595624294E-02));
#195 = ORIENTED_EDGE('',*,*,#196,.F.);
#196 = EDGE_CURVE('',#197,#189,#199,.T.);
#197 = VERTEX_POINT('',#198);
#198 = CARTESIAN_POINT('',(126.,6.820708570524E-15,30.717740576616));
#199 = CIRCLE('',#200,3.);
#200 = AXIS2_PLACEMENT_3D('',#201,#202,#203);
#201 = CARTESIAN_POINT('',(123.,6.820708570524E-15,30.717740576616));
#202 = DIRECTION('',(0.,-1.,2.22044604925E-16));
#203 = DIRECTION('',(1.,0.,0.));
#204 = ORIENTED_EDGE('',*,*,#205,.T.);
#205 = EDGE_CURVE('',#197,#206,#208,.T.);
#206 = VERTEX_POINT('',#207);
#207 = CARTESIAN_POINT('',(126.,6.328271240363E-15,4.5));
#208 = LINE('',#209,#210);
#209 = CARTESIAN_POINT('',(126.,6.820708570524E-15,30.717740576616));
#210 = VECTOR('',#211,1.);
#211 = DIRECTION('',(0.,-2.22044604925E-16,-1.));
#212 = ORIENTED_EDGE('',*,*,#213,.F.);
#213 = EDGE_CURVE('',#129,#206,#214,.T.);
#214 = LINE('',#215,#216);
#215 = CARTESIAN_POINT('',(125.,6.328271240363E-15,4.5));
#216 = VECTOR('',#217,1.);
#217 = DIRECTION('',(1.,0.,2.22044604925E-16));
#218 = PLANE('',#219);
#219 = AXIS2_PLACEMENT_3D('',#220,#221,#222);
#220 = CARTESIAN_POINT('',(61.170272695724,6.018768617044E-15,
    27.106124100947));
#221 = DIRECTION('',(0.,1.,0.));
#222 = DIRECTION('',(0.,0.,1.));
#223 = ADVANCED_FACE('',(#224),#243,.T.);
#224 = FACE_BOUND('',#225,.F.);
#225 = EDGE_LOOP('',(#226,#235,#241,#242));
#226 = ORIENTED_EDGE('',*,*,#227,.T.);
#227 = EDGE_CURVE('',#164,#228,#230,.T.);
#228 = VERTEX_POINT('',#229);
#229 = CARTESIAN_POINT('',(0.,-1.5,3.));
#230 = CIRCLE('',#231,1.5);
#231 = AXIS2_PLACEMENT_3D('',#232,#233,#234);
#232 = CARTESIAN_POINT('',(0.,-1.5,4.5));
#233 = DIRECTION('',(-1.,0.,-2.22044604925E-16));
#234 = DIRECTION('',(-2.22044604925E-16,-2.22044604925E-16,1.));
#235 = ORIENTED_EDGE('',*,*,#236,.T.);
#236 = EDGE_CURVE('',#228,#73,#237,.T.);
#237 = LINE('',#238,#239);
#238 = CARTESIAN_POINT('',(4.930380657631E-32,-1.5,3.));
#239 = VECTOR('',#240,1.);
#240 = DIRECTION('',(1.,0.,2.22044604925E-16));
#241 = ORIENTED_EDGE('',*,*,#80,.F.);
#242 = ORIENTED_EDGE('',*,*,#163,.F.);
#243 = CYLINDRICAL_SURFACE('',#244,1.5);
#244 = AXIS2_PLACEMENT_3D('',#245,#246,#247);
#245 = CARTESIAN_POINT('',(-3.330669073875E-16,-1.5,4.5));
#246 = DIRECTION('',(1.,0.,2.22044604925E-16));
#247 = DIRECTION('',(0.,1.,0.));
#248 = ADVANCED_FACE('',(#249),#268,.F.);
#249 = FACE_BOUND('',#250,.T.);
#250 = EDGE_LOOP('',(#251,#259,#266,#267));
#251 = ORIENTED_EDGE('',*,*,#252,.T.);
#252 = EDGE_CURVE('',#148,#253,#255,.T.);
#253 = VERTEX_POINT('',#254);
#254 = CARTESIAN_POINT('',(3.133333076189,-70.,39.002224714041));
#255 = LINE('',#256,#257);
#256 = CARTESIAN_POINT('',(3.133333076189,8.660233577827E-15,
    39.002224714041));
#257 = VECTOR('',#258,1.);
#258 = DIRECTION('',(0.,-1.,2.22044604925E-16));
#259 = ORIENTED_EDGE('',*,*,#260,.T.);
#260 = EDGE_CURVE('',#253,#32,#261,.T.);
#261 = CIRCLE('',#262,2.);
#262 = AXIS2_PLACEMENT_3D('',#263,#264,#265);
#263 = CARTESIAN_POINT('',(3.,-70.,37.006674090581));
#264 = DIRECTION('',(0.,-1.,2.22044604925E-16));
#265 = DIRECTION('',(1.,0.,0.));
#266 = ORIENTED_EDGE('',*,*,#31,.F.);
#267 = ORIENTED_EDGE('',*,*,#155,.F.);
#268 = CYLINDRICAL_SURFACE('',#269,2.);
#269 = AXIS2_PLACEMENT_3D('',#270,#271,#272);
#270 = CARTESIAN_POINT('',(3.,8.217132328032E-15,37.006674090581));
#271 = DIRECTION('',(0.,1.,-2.22044604925E-16));
#272 = DIRECTION('',(1.,0.,0.));
#273 = ADVANCED_FACE('',(#274),#292,.F.);
#274 = FACE_BOUND('',#275,.F.);
#275 = EDGE_LOOP('',(#276,#284,#290,#291));
#276 = ORIENTED_EDGE('',*,*,#277,.T.);
#277 = EDGE_CURVE('',#228,#278,#280,.T.);
#278 = VERTEX_POINT('',#279);
#279 = CARTESIAN_POINT('',(-6.661338147751E-16,-3.,3.));
#280 = LINE('',#281,#282);
#281 = CARTESIAN_POINT('',(0.,6.661338147751E-16,3.));
#282 = VECTOR('',#283,1.);
#283 = DIRECTION('',(0.,-1.,2.22044604925E-16));
#284 = ORIENTED_EDGE('',*,*,#285,.T.);
#285 = EDGE_CURVE('',#278,#65,#286,.T.);
#286 = LINE('',#287,#288);
#287 = CARTESIAN_POINT('',(-6.661338147751E-16,-3.,3.));
#288 = VECTOR('',#289,1.);
#289 = DIRECTION('',(1.,0.,2.22044604925E-16));
#290 = ORIENTED_EDGE('',*,*,#72,.F.);
#291 = ORIENTED_EDGE('',*,*,#236,.F.);
#292 = PLANE('',#293);
#293 = AXIS2_PLACEMENT_3D('',#294,#295,#296);
#294 = CARTESIAN_POINT('',(-6.661338147751E-16,-3.,3.));
#295 = DIRECTION('',(-2.22044604925E-16,0.,1.));
#296 = DIRECTION('',(0.,1.,0.));
#297 = ADVANCED_FACE('',(#298),#383,.F.);
#298 = FACE_BOUND('',#299,.F.);
#299 = EDGE_LOOP('',(#300,#310,#319,#325,#326,#327,#335,#343,#352,#360,
    #369,#377));
#300 = ORIENTED_EDGE('',*,*,#301,.T.);
#301 = EDGE_CURVE('',#302,#304,#306,.T.);
#302 = VERTEX_POINT('',#303);
#303 = CARTESIAN_POINT('',(125.,-70.,4.5));
#304 = VERTEX_POINT('',#305);
#305 = CARTESIAN_POINT('',(125.,-70.,30.717740576616));
#306 = LINE('',#307,#308);
#307 = CARTESIAN_POINT('',(125.,-70.,3.));
#308 = VECTOR('',#309,1.);
#309 = DIRECTION('',(0.,2.22044604925E-16,1.));
#310 = ORIENTED_EDGE('',*,*,#311,.T.);
#311 = EDGE_CURVE('',#304,#312,#314,.T.);
#312 = VERTEX_POINT('',#313);
#313 = CARTESIAN_POINT('',(123.13333145602,-70.,32.713291308328));
#314 = CIRCLE('',#315,2.);
#315 = AXIS2_PLACEMENT_3D('',#316,#317,#318);
#316 = CARTESIAN_POINT('',(123.,-70.,30.717740576616));
#317 = DIRECTION('',(0.,-1.,2.22044604925E-16));
#318 = DIRECTION('',(1.,0.,0.));
#319 = ORIENTED_EDGE('',*,*,#320,.F.);
#320 = EDGE_CURVE('',#253,#312,#321,.T.);
#321 = LINE('',#322,#323);
#322 = CARTESIAN_POINT('',(3.133333076189,-70.,39.002224714041));
#323 = VECTOR('',#324,1.);
#324 = DIRECTION('',(0.998629534765,-1.162091668432E-17,
    -5.233595604922E-02));
#325 = ORIENTED_EDGE('',*,*,#260,.T.);
#326 = ORIENTED_EDGE('',*,*,#39,.T.);
#327 = ORIENTED_EDGE('',*,*,#328,.F.);
#328 = EDGE_CURVE('',#329,#40,#331,.T.);
#329 = VERTEX_POINT('',#330);
#330 = CARTESIAN_POINT('',(-3.330669073875E-16,-70.,4.5));
#331 = LINE('',#332,#333);
#332 = CARTESIAN_POINT('',(-3.330669073875E-16,-70.,4.5));
#333 = VECTOR('',#334,1.);
#334 = DIRECTION('',(1.,0.,2.22044604925E-16));
#335 = ORIENTED_EDGE('',*,*,#336,.T.);
#336 = EDGE_CURVE('',#329,#337,#339,.T.);
#337 = VERTEX_POINT('',#338);
#338 = CARTESIAN_POINT('',(0.,-70.,37.006674090581));
#339 = LINE('',#340,#341);
#340 = CARTESIAN_POINT('',(0.,-70.,3.));
#341 = VECTOR('',#342,1.);
#342 = DIRECTION('',(0.,2.22044604925E-16,1.));
#343 = ORIENTED_EDGE('',*,*,#344,.F.);
#344 = EDGE_CURVE('',#345,#337,#347,.T.);
#345 = VERTEX_POINT('',#346);
#346 = CARTESIAN_POINT('',(3.2,-70.,40.));
#347 = CIRCLE('',#348,3.);
#348 = AXIS2_PLACEMENT_3D('',#349,#350,#351);
#349 = CARTESIAN_POINT('',(3.,-70.,37.006674090581));
#350 = DIRECTION('',(0.,-1.,2.22044604925E-16));
#351 = DIRECTION('',(1.,0.,0.));
#352 = ORIENTED_EDGE('',*,*,#353,.F.);
#353 = EDGE_CURVE('',#354,#345,#356,.T.);
#354 = VERTEX_POINT('',#355);
#355 = CARTESIAN_POINT('',(123.2,-70.,33.711066486035));
#356 = LINE('',#357,#358);
#357 = CARTESIAN_POINT('',(123.2,-70.,33.711066486035));
#358 = VECTOR('',#359,1.);
#359 = DIRECTION('',(-0.998629534755,1.162091672734E-17,
    5.233595624294E-02));
#360 = ORIENTED_EDGE('',*,*,#361,.F.);
#361 = EDGE_CURVE('',#362,#354,#364,.T.);
#362 = VERTEX_POINT('',#363);
#363 = CARTESIAN_POINT('',(126.,-70.,30.717740576616));
#364 = CIRCLE('',#365,3.);
#365 = AXIS2_PLACEMENT_3D('',#366,#367,#368);
#366 = CARTESIAN_POINT('',(123.,-70.,30.717740576616));
#367 = DIRECTION('',(0.,-1.,2.22044604925E-16));
#368 = DIRECTION('',(1.,0.,0.));
#369 = ORIENTED_EDGE('',*,*,#370,.T.);
#370 = EDGE_CURVE('',#362,#371,#373,.T.);
#371 = VERTEX_POINT('',#372);
#372 = CARTESIAN_POINT('',(126.,-70.,4.5));
#373 = LINE('',#374,#375);
#374 = CARTESIAN_POINT('',(126.,-70.,30.717740576616));
#375 = VECTOR('',#376,1.);
#376 = DIRECTION('',(0.,-2.22044604925E-16,-1.));
#377 = ORIENTED_EDGE('',*,*,#378,.F.);
#378 = EDGE_CURVE('',#302,#371,#379,.T.);
#379 = LINE('',#380,#381);
#380 = CARTESIAN_POINT('',(125.,-70.,4.5));
#381 = VECTOR('',#382,1.);
#382 = DIRECTION('',(1.,0.,2.22044604925E-16));
#383 = PLANE('',#384);
#384 = AXIS2_PLACEMENT_3D('',#385,#386,#387);
#385 = CARTESIAN_POINT('',(61.170272695724,-70.,27.106124100947));
#386 = DIRECTION('',(0.,1.,0.));
#387 = DIRECTION('',(0.,0.,1.));
#388 = ADVANCED_FACE('',(#389),#416,.F.);
#389 = FACE_BOUND('',#390,.T.);
#390 = EDGE_LOOP('',(#391,#400,#401,#410));
#391 = ORIENTED_EDGE('',*,*,#392,.T.);
#392 = EDGE_CURVE('',#393,#65,#395,.T.);
#393 = VERTEX_POINT('',#394);
#394 = CARTESIAN_POINT('',(3.,-3.,1.));
#395 = CIRCLE('',#396,2.);
#396 = AXIS2_PLACEMENT_3D('',#397,#398,#399);
#397 = CARTESIAN_POINT('',(3.,-3.,3.));
#398 = DIRECTION('',(0.,1.,-2.22044604925E-16));
#399 = DIRECTION('',(1.,0.,0.));
#400 = ORIENTED_EDGE('',*,*,#64,.T.);
#401 = ORIENTED_EDGE('',*,*,#402,.F.);
#402 = EDGE_CURVE('',#403,#57,#405,.T.);
#403 = VERTEX_POINT('',#404);
#404 = CARTESIAN_POINT('',(3.,-67.,1.));
#405 = CIRCLE('',#406,2.);
#406 = AXIS2_PLACEMENT_3D('',#407,#408,#409);
#407 = CARTESIAN_POINT('',(3.,-67.,3.));
#408 = DIRECTION('',(0.,1.,-2.22044604925E-16));
#409 = DIRECTION('',(1.,0.,0.));
#410 = ORIENTED_EDGE('',*,*,#411,.F.);
#411 = EDGE_CURVE('',#393,#403,#412,.T.);
#412 = LINE('',#413,#414);
#413 = CARTESIAN_POINT('',(3.,2.22044604925E-16,1.));
#414 = VECTOR('',#415,1.);
#415 = DIRECTION('',(0.,-1.,2.22044604925E-16));
#416 = CYLINDRICAL_SURFACE('',#417,2.);
#417 = AXIS2_PLACEMENT_3D('',#418,#419,#420);
#418 = CARTESIAN_POINT('',(3.,6.661338147751E-16,3.));
#419 = DIRECTION('',(0.,1.,-2.22044604925E-16));
#420 = DIRECTION('',(1.,0.,0.));
#421 = ADVANCED_FACE('',(#422),#441,.T.);
#422 = FACE_BOUND('',#423,.T.);
#423 = EDGE_LOOP('',(#424,#433,#439,#440));
#424 = ORIENTED_EDGE('',*,*,#425,.T.);
#425 = EDGE_CURVE('',#329,#426,#428,.T.);
#426 = VERTEX_POINT('',#427);
#427 = CARTESIAN_POINT('',(-3.451266460342E-31,-68.5,3.));
#428 = CIRCLE('',#429,1.5);
#429 = AXIS2_PLACEMENT_3D('',#430,#431,#432);
#430 = CARTESIAN_POINT('',(0.,-68.5,4.5));
#431 = DIRECTION('',(1.,0.,2.22044604925E-16));
#432 = DIRECTION('',(-2.22044604925E-16,-2.22044604925E-16,1.));
#433 = ORIENTED_EDGE('',*,*,#434,.T.);
#434 = EDGE_CURVE('',#426,#48,#435,.T.);
#435 = LINE('',#436,#437);
#436 = CARTESIAN_POINT('',(4.930380657631E-32,-68.5,3.));
#437 = VECTOR('',#438,1.);
#438 = DIRECTION('',(1.,0.,2.22044604925E-16));
#439 = ORIENTED_EDGE('',*,*,#47,.F.);
#440 = ORIENTED_EDGE('',*,*,#328,.F.);
#441 = CYLINDRICAL_SURFACE('',#442,1.5);
#442 = AXIS2_PLACEMENT_3D('',#443,#444,#445);
#443 = CARTESIAN_POINT('',(-3.330669073875E-16,-68.5,4.5));
#444 = DIRECTION('',(1.,0.,2.22044604925E-16));
#445 = DIRECTION('',(0.,-1.,0.));
#446 = ADVANCED_FACE('',(#447),#465,.T.);
#447 = FACE_BOUND('',#448,.T.);
#448 = EDGE_LOOP('',(#449,#457,#463,#464));
#449 = ORIENTED_EDGE('',*,*,#450,.F.);
#450 = EDGE_CURVE('',#451,#426,#453,.T.);
#451 = VERTEX_POINT('',#452);
#452 = CARTESIAN_POINT('',(-6.661338147751E-16,-67.,3.));
#453 = LINE('',#454,#455);
#454 = CARTESIAN_POINT('',(0.,6.661338147751E-16,3.));
#455 = VECTOR('',#456,1.);
#456 = DIRECTION('',(0.,-1.,2.22044604925E-16));
#457 = ORIENTED_EDGE('',*,*,#458,.T.);
#458 = EDGE_CURVE('',#451,#57,#459,.T.);
#459 = LINE('',#460,#461);
#460 = CARTESIAN_POINT('',(-6.661338147751E-16,-67.,3.));
#461 = VECTOR('',#462,1.);
#462 = DIRECTION('',(1.,0.,2.22044604925E-16));
#463 = ORIENTED_EDGE('',*,*,#56,.T.);
#464 = ORIENTED_EDGE('',*,*,#434,.F.);
#465 = PLANE('',#466);
#466 = AXIS2_PLACEMENT_3D('',#467,#468,#469);
#467 = CARTESIAN_POINT('',(-6.661338147751E-16,-67.,3.));
#468 = DIRECTION('',(2.22044604925E-16,0.,-1.));
#469 = DIRECTION('',(0.,-1.,0.));
#470 = ADVANCED_FACE('',(#471),#490,.F.);
#471 = FACE_BOUND('',#472,.F.);
#472 = EDGE_LOOP('',(#473,#482,#488,#489));
#473 = ORIENTED_EDGE('',*,*,#474,.F.);
#474 = EDGE_CURVE('',#475,#475,#477,.T.);
#475 = VERTEX_POINT('',#476);
#476 = CARTESIAN_POINT('',(1.87617844527E-15,-55.,13.));
#477 = CIRCLE('',#478,5.);
#478 = AXIS2_PLACEMENT_3D('',#479,#480,#481);
#479 = CARTESIAN_POINT('',(7.659554206446E-16,-55.,18.));
#480 = DIRECTION('',(-1.,-8.659560562355E-17,-2.22044604925E-16));
#481 = DIRECTION('',(2.22044604925E-16,-8.659560562355E-17,-1.));
#482 = ORIENTED_EDGE('',*,*,#483,.T.);
#483 = EDGE_CURVE('',#475,#90,#484,.T.);
#484 = LINE('',#485,#486);
#485 = CARTESIAN_POINT('',(1.87617844527E-15,-55.,13.));
#486 = VECTOR('',#487,1.);
#487 = DIRECTION('',(1.,8.659560562355E-17,2.22044604925E-16));
#488 = ORIENTED_EDGE('',*,*,#89,.T.);
#489 = ORIENTED_EDGE('',*,*,#483,.F.);
#490 = CYLINDRICAL_SURFACE('',#491,5.);
#491 = AXIS2_PLACEMENT_3D('',#492,#493,#494);
#492 = CARTESIAN_POINT('',(7.659554206446E-16,-55.,18.));
#493 = DIRECTION('',(-1.,-8.659560562355E-17,-2.22044604925E-16));
#494 = DIRECTION('',(2.22044604925E-16,-8.659560562355E-17,-1.));
#495 = ADVANCED_FACE('',(#496),#515,.F.);
#496 = FACE_BOUND('',#497,.F.);
#497 = EDGE_LOOP('',(#498,#507,#513,#514));
#498 = ORIENTED_EDGE('',*,*,#499,.F.);
#499 = EDGE_CURVE('',#500,#500,#502,.T.);
#500 = VERTEX_POINT('',#501);
#501 = CARTESIAN_POINT('',(-9.659566918263E-16,-35.,18.));
#502 = CIRCLE('',#503,4.);
#503 = AXIS2_PLACEMENT_3D('',#504,#505,#506);
#504 = CARTESIAN_POINT('',(-1.854135111526E-15,-35.,22.));
#505 = DIRECTION('',(-1.,-8.659560562355E-17,-2.22044604925E-16));
#506 = DIRECTION('',(2.22044604925E-16,-8.659560562355E-17,-1.));
#507 = ORIENTED_EDGE('',*,*,#508,.T.);
#508 = EDGE_CURVE('',#500,#101,#509,.T.);
#509 = LINE('',#510,#511);
#510 = CARTESIAN_POINT('',(-9.659566918263E-16,-35.,18.));
#511 = VECTOR('',#512,1.);
#512 = DIRECTION('',(1.,8.659560562355E-17,2.22044604925E-16));
#513 = ORIENTED_EDGE('',*,*,#100,.T.);
#514 = ORIENTED_EDGE('',*,*,#508,.F.);
#515 = CYLINDRICAL_SURFACE('',#516,4.);
#516 = AXIS2_PLACEMENT_3D('',#517,#518,#519);
#517 = CARTESIAN_POINT('',(-1.854135111526E-15,-35.,22.));
#518 = DIRECTION('',(-1.,-8.659560562355E-17,-2.22044604925E-16));
#519 = DIRECTION('',(2.22044604925E-16,-8.659560562355E-17,-1.));
#520 = ADVANCED_FACE('',(#521),#540,.F.);
#521 = FACE_BOUND('',#522,.F.);
#522 = EDGE_LOOP('',(#523,#532,#538,#539));
#523 = ORIENTED_EDGE('',*,*,#524,.F.);
#524 = EDGE_CURVE('',#525,#525,#527,.T.);
#525 = VERTEX_POINT('',#526);
#526 = CARTESIAN_POINT('',(-1.587645779672E-15,-15.,13.));
#527 = CIRCLE('',#528,5.);
#528 = AXIS2_PLACEMENT_3D('',#529,#530,#531);
#529 = CARTESIAN_POINT('',(-2.697868804297E-15,-15.,18.));
#530 = DIRECTION('',(-1.,-8.659560562355E-17,-2.22044604925E-16));
#531 = DIRECTION('',(2.22044604925E-16,-8.659560562355E-17,-1.));
#532 = ORIENTED_EDGE('',*,*,#533,.T.);
#533 = EDGE_CURVE('',#525,#112,#534,.T.);
#534 = LINE('',#535,#536);
#535 = CARTESIAN_POINT('',(-1.587645779672E-15,-15.,13.));
#536 = VECTOR('',#537,1.);
#537 = DIRECTION('',(1.,8.659560562355E-17,2.22044604925E-16));
#538 = ORIENTED_EDGE('',*,*,#111,.T.);
#539 = ORIENTED_EDGE('',*,*,#533,.F.);
#540 = CYLINDRICAL_SURFACE('',#541,5.);
#541 = AXIS2_PLACEMENT_3D('',#542,#543,#544);
#542 = CARTESIAN_POINT('',(-2.697868804297E-15,-15.,18.));
#543 = DIRECTION('',(-1.,-8.659560562355E-17,-2.22044604925E-16));
#544 = DIRECTION('',(2.22044604925E-16,-8.659560562355E-17,-1.));
#545 = ADVANCED_FACE('',(#546),#596,.T.);
#546 = FACE_BOUND('',#547,.T.);
#547 = EDGE_LOOP('',(#548,#558,#566,#574,#581,#582,#588,#589));
#548 = ORIENTED_EDGE('',*,*,#549,.T.);
#549 = EDGE_CURVE('',#550,#552,#554,.T.);
#550 = VERTEX_POINT('',#551);
#551 = CARTESIAN_POINT('',(125.,-1.5,3.));
#552 = VERTEX_POINT('',#553);
#553 = CARTESIAN_POINT('',(125.,-3.,3.));
#554 = LINE('',#555,#556);
#555 = CARTESIAN_POINT('',(125.,6.661338147751E-16,3.));
#556 = VECTOR('',#557,1.);
#557 = DIRECTION('',(0.,-1.,2.22044604925E-16));
#558 = ORIENTED_EDGE('',*,*,#559,.T.);
#559 = EDGE_CURVE('',#552,#560,#562,.T.);
#560 = VERTEX_POINT('',#561);
#561 = CARTESIAN_POINT('',(125.,-67.,3.));
#562 = LINE('',#563,#564);
#563 = CARTESIAN_POINT('',(125.,6.661338147751E-16,3.));
#564 = VECTOR('',#565,1.);
#565 = DIRECTION('',(0.,-1.,2.22044604925E-16));
#566 = ORIENTED_EDGE('',*,*,#567,.T.);
#567 = EDGE_CURVE('',#560,#568,#570,.T.);
#568 = VERTEX_POINT('',#569);
#569 = CARTESIAN_POINT('',(125.,-68.5,3.));
#570 = LINE('',#571,#572);
#571 = CARTESIAN_POINT('',(125.,6.661338147751E-16,3.));
#572 = VECTOR('',#573,1.);
#573 = DIRECTION('',(0.,-1.,2.22044604925E-16));
#574 = ORIENTED_EDGE('',*,*,#575,.F.);
#575 = EDGE_CURVE('',#302,#568,#576,.T.);
#576 = CIRCLE('',#577,1.5);
#577 = AXIS2_PLACEMENT_3D('',#578,#579,#580);
#578 = CARTESIAN_POINT('',(125.,-68.5,4.5));
#579 = DIRECTION('',(1.,0.,2.22044604925E-16));
#580 = DIRECTION('',(-2.22044604925E-16,-2.22044604925E-16,1.));
#581 = ORIENTED_EDGE('',*,*,#301,.T.);
#582 = ORIENTED_EDGE('',*,*,#583,.F.);
#583 = EDGE_CURVE('',#131,#304,#584,.T.);
#584 = LINE('',#585,#586);
#585 = CARTESIAN_POINT('',(125.,6.820708570524E-15,30.717740576616));
#586 = VECTOR('',#587,1.);
#587 = DIRECTION('',(0.,-1.,2.22044604925E-16));
#588 = ORIENTED_EDGE('',*,*,#128,.F.);
#589 = ORIENTED_EDGE('',*,*,#590,.T.);
#590 = EDGE_CURVE('',#129,#550,#591,.T.);
#591 = CIRCLE('',#592,1.5);
#592 = AXIS2_PLACEMENT_3D('',#593,#594,#595);
#593 = CARTESIAN_POINT('',(125.,-1.5,4.5));
#594 = DIRECTION('',(-1.,0.,-2.22044604925E-16));
#595 = DIRECTION('',(-2.22044604925E-16,-2.22044604925E-16,1.));
#596 = PLANE('',#597);
#597 = AXIS2_PLACEMENT_3D('',#598,#599,#600);
#598 = CARTESIAN_POINT('',(125.,6.661338147751E-16,3.));
#599 = DIRECTION('',(-1.,0.,0.));
#600 = DIRECTION('',(0.,2.22044604925E-16,1.));
#601 = ADVANCED_FACE('',(#602),#621,.T.);
#602 = FACE_BOUND('',#603,.F.);
#603 = EDGE_LOOP('',(#604,#605,#613,#620));
#604 = ORIENTED_EDGE('',*,*,#590,.T.);
#605 = ORIENTED_EDGE('',*,*,#606,.T.);
#606 = EDGE_CURVE('',#550,#607,#609,.T.);
#607 = VERTEX_POINT('',#608);
#608 = CARTESIAN_POINT('',(126.,-1.5,3.));
#609 = LINE('',#610,#611);
#610 = CARTESIAN_POINT('',(125.,-1.5,3.));
#611 = VECTOR('',#612,1.);
#612 = DIRECTION('',(1.,0.,2.22044604925E-16));
#613 = ORIENTED_EDGE('',*,*,#614,.F.);
#614 = EDGE_CURVE('',#206,#607,#615,.T.);
#615 = CIRCLE('',#616,1.5);
#616 = AXIS2_PLACEMENT_3D('',#617,#618,#619);
#617 = CARTESIAN_POINT('',(126.,-1.5,4.5));
#618 = DIRECTION('',(-1.,0.,-2.22044604925E-16));
#619 = DIRECTION('',(-2.22044604925E-16,-2.22044604925E-16,1.));
#620 = ORIENTED_EDGE('',*,*,#213,.F.);
#621 = CYLINDRICAL_SURFACE('',#622,1.5);
#622 = AXIS2_PLACEMENT_3D('',#623,#624,#625);
#623 = CARTESIAN_POINT('',(125.,-1.5,4.5));
#624 = DIRECTION('',(1.,0.,2.22044604925E-16));
#625 = DIRECTION('',(0.,1.,0.));
#626 = ADVANCED_FACE('',(#627),#638,.F.);
#627 = FACE_BOUND('',#628,.T.);
#628 = EDGE_LOOP('',(#629,#630,#631,#637));
#629 = ORIENTED_EDGE('',*,*,#583,.T.);
#630 = ORIENTED_EDGE('',*,*,#311,.T.);
#631 = ORIENTED_EDGE('',*,*,#632,.F.);
#632 = EDGE_CURVE('',#139,#312,#633,.T.);
#633 = LINE('',#634,#635);
#634 = CARTESIAN_POINT('',(123.13333145602,7.263809844355E-15,
    32.713291308328));
#635 = VECTOR('',#636,1.);
#636 = DIRECTION('',(0.,-1.,2.22044604925E-16));
#637 = ORIENTED_EDGE('',*,*,#138,.F.);
#638 = CYLINDRICAL_SURFACE('',#639,2.);
#639 = AXIS2_PLACEMENT_3D('',#640,#641,#642);
#640 = CARTESIAN_POINT('',(123.,6.820708570524E-15,30.717740576616));
#641 = DIRECTION('',(0.,1.,-2.22044604925E-16));
#642 = DIRECTION('',(1.,0.,0.));
#643 = ADVANCED_FACE('',(#644),#686,.T.);
#644 = FACE_BOUND('',#645,.T.);
#645 = EDGE_LOOP('',(#646,#654,#655,#656,#662,#663,#672,#680));
#646 = ORIENTED_EDGE('',*,*,#647,.F.);
#647 = EDGE_CURVE('',#607,#648,#650,.T.);
#648 = VERTEX_POINT('',#649);
#649 = CARTESIAN_POINT('',(126.,-3.,3.));
#650 = LINE('',#651,#652);
#651 = CARTESIAN_POINT('',(126.,6.661338147751E-16,3.));
#652 = VECTOR('',#653,1.);
#653 = DIRECTION('',(0.,-1.,2.22044604925E-16));
#654 = ORIENTED_EDGE('',*,*,#614,.F.);
#655 = ORIENTED_EDGE('',*,*,#205,.F.);
#656 = ORIENTED_EDGE('',*,*,#657,.T.);
#657 = EDGE_CURVE('',#197,#362,#658,.T.);
#658 = LINE('',#659,#660);
#659 = CARTESIAN_POINT('',(126.,6.820708570524E-15,30.717740576616));
#660 = VECTOR('',#661,1.);
#661 = DIRECTION('',(0.,-1.,2.22044604925E-16));
#662 = ORIENTED_EDGE('',*,*,#370,.T.);
#663 = ORIENTED_EDGE('',*,*,#664,.T.);
#664 = EDGE_CURVE('',#371,#665,#667,.T.);
#665 = VERTEX_POINT('',#666);
#666 = CARTESIAN_POINT('',(126.,-68.5,3.));
#667 = CIRCLE('',#668,1.5);
#668 = AXIS2_PLACEMENT_3D('',#669,#670,#671);
#669 = CARTESIAN_POINT('',(126.,-68.5,4.5));
#670 = DIRECTION('',(1.,0.,2.22044604925E-16));
#671 = DIRECTION('',(-2.22044604925E-16,-2.22044604925E-16,1.));
#672 = ORIENTED_EDGE('',*,*,#673,.F.);
#673 = EDGE_CURVE('',#674,#665,#676,.T.);
#674 = VERTEX_POINT('',#675);
#675 = CARTESIAN_POINT('',(126.,-67.,3.));
#676 = LINE('',#677,#678);
#677 = CARTESIAN_POINT('',(126.,6.661338147751E-16,3.));
#678 = VECTOR('',#679,1.);
#679 = DIRECTION('',(0.,-1.,2.22044604925E-16));
#680 = ORIENTED_EDGE('',*,*,#681,.F.);
#681 = EDGE_CURVE('',#648,#674,#682,.T.);
#682 = LINE('',#683,#684);
#683 = CARTESIAN_POINT('',(126.,6.661338147751E-16,3.));
#684 = VECTOR('',#685,1.);
#685 = DIRECTION('',(0.,-1.,2.22044604925E-16));
#686 = PLANE('',#687);
#687 = AXIS2_PLACEMENT_3D('',#688,#689,#690);
#688 = CARTESIAN_POINT('',(126.,6.820708570524E-15,30.717740576616));
#689 = DIRECTION('',(1.,0.,0.));
#690 = DIRECTION('',(0.,-2.22044604925E-16,-1.));
#691 = ADVANCED_FACE('',(#692,#698,#709,#720,#731,#742,#753,#764,#775),
  #786,.F.);
#692 = FACE_BOUND('',#693,.F.);
#693 = EDGE_LOOP('',(#694,#695,#696,#697));
#694 = ORIENTED_EDGE('',*,*,#252,.T.);
#695 = ORIENTED_EDGE('',*,*,#320,.T.);
#696 = ORIENTED_EDGE('',*,*,#632,.F.);
#697 = ORIENTED_EDGE('',*,*,#147,.F.);
#698 = FACE_BOUND('',#699,.F.);
#699 = EDGE_LOOP('',(#700));
#700 = ORIENTED_EDGE('',*,*,#701,.F.);
#701 = EDGE_CURVE('',#702,#702,#704,.T.);
#702 = VERTEX_POINT('',#703);
#703 = CARTESIAN_POINT('',(10.138076180497,-57.,38.635121684859));
#704 = CIRCLE('',#705,4.);
#705 = AXIS2_PLACEMENT_3D('',#706,#707,#708);
#706 = CARTESIAN_POINT('',(14.132594319556,-57.,38.425777860662));
#707 = DIRECTION('',(5.233595624294E-02,-3.205751595668E-18,
    0.998629534755));
#708 = DIRECTION('',(-0.998629534755,1.224227143276E-16,
    5.233595624294E-02));
#709 = FACE_BOUND('',#710,.F.);
#710 = EDGE_LOOP('',(#711));
#711 = ORIENTED_EDGE('',*,*,#712,.F.);
#712 = EDGE_CURVE('',#713,#713,#715,.T.);
#713 = VERTEX_POINT('',#714);
#714 = CARTESIAN_POINT('',(36.10244408438,-57.,37.274386827579));
#715 = CIRCLE('',#716,4.);
#716 = AXIS2_PLACEMENT_3D('',#717,#718,#719);
#717 = CARTESIAN_POINT('',(40.096962223439,-57.,37.065043003382));
#718 = DIRECTION('',(5.233595624294E-02,-3.205751595668E-18,
    0.998629534755));
#719 = DIRECTION('',(-0.998629534755,1.224227143276E-16,
    5.233595624294E-02));
#720 = FACE_BOUND('',#721,.F.);
#721 = EDGE_LOOP('',(#722));
#722 = ORIENTED_EDGE('',*,*,#723,.F.);
#723 = EDGE_CURVE('',#724,#724,#726,.T.);
#724 = VERTEX_POINT('',#725);
#725 = CARTESIAN_POINT('',(108.16822641689,-57.,33.497579227256));
#726 = CIRCLE('',#727,4.);
#727 = AXIS2_PLACEMENT_3D('',#728,#729,#730);
#728 = CARTESIAN_POINT('',(112.16274455595,-57.,33.288235403059));
#729 = DIRECTION('',(5.233595624294E-02,-3.205751595668E-18,
    0.998629534755));
#730 = DIRECTION('',(-0.998629534755,1.224227143276E-16,
    5.233595624294E-02));
#731 = FACE_BOUND('',#732,.F.);
#732 = EDGE_LOOP('',(#733));
#733 = ORIENTED_EDGE('',*,*,#734,.F.);
#734 = EDGE_CURVE('',#735,#735,#737,.T.);
#735 = VERTEX_POINT('',#736);
#736 = CARTESIAN_POINT('',(10.138076180497,-35.,38.635121684859));
#737 = CIRCLE('',#738,4.);
#738 = AXIS2_PLACEMENT_3D('',#739,#740,#741);
#739 = CARTESIAN_POINT('',(14.132594319556,-35.,38.425777860662));
#740 = DIRECTION('',(5.233595624294E-02,-3.205751595668E-18,
    0.998629534755));
#741 = DIRECTION('',(-0.998629534755,1.224227143276E-16,
    5.233595624294E-02));
#742 = FACE_BOUND('',#743,.F.);
#743 = EDGE_LOOP('',(#744));
#744 = ORIENTED_EDGE('',*,*,#745,.F.);
#745 = EDGE_CURVE('',#746,#746,#748,.T.);
#746 = VERTEX_POINT('',#747);
#747 = CARTESIAN_POINT('',(36.601758851763,-35.,37.248218849555));
#748 = CIRCLE('',#749,3.5);
#749 = AXIS2_PLACEMENT_3D('',#750,#751,#752);
#750 = CARTESIAN_POINT('',(40.096962223439,-35.,37.065043003382));
#751 = DIRECTION('',(5.233595624294E-02,-3.205751595668E-18,
    0.998629534755));
#752 = DIRECTION('',(-0.998629534755,1.224227143276E-16,
    5.233595624294E-02));
#753 = FACE_BOUND('',#754,.F.);
#754 = EDGE_LOOP('',(#755));
#755 = ORIENTED_EDGE('',*,*,#756,.F.);
#756 = EDGE_CURVE('',#757,#757,#759,.T.);
#757 = VERTEX_POINT('',#758);
#758 = CARTESIAN_POINT('',(10.138076180497,-13.,38.635121684859));
#759 = CIRCLE('',#760,4.);
#760 = AXIS2_PLACEMENT_3D('',#761,#762,#763);
#761 = CARTESIAN_POINT('',(14.132594319556,-13.,38.425777860662));
#762 = DIRECTION('',(5.233595624294E-02,-3.205751595668E-18,
    0.998629534755));
#763 = DIRECTION('',(-0.998629534755,1.224227143276E-16,
    5.233595624294E-02));
#764 = FACE_BOUND('',#765,.F.);
#765 = EDGE_LOOP('',(#766));
#766 = ORIENTED_EDGE('',*,*,#767,.F.);
#767 = EDGE_CURVE('',#768,#768,#770,.T.);
#768 = VERTEX_POINT('',#769);
#769 = CARTESIAN_POINT('',(36.10244408438,-13.,37.274386827579));
#770 = CIRCLE('',#771,4.);
#771 = AXIS2_PLACEMENT_3D('',#772,#773,#774);
#772 = CARTESIAN_POINT('',(40.096962223439,-13.,37.065043003382));
#773 = DIRECTION('',(5.233595624294E-02,-3.205751595668E-18,
    0.998629534755));
#774 = DIRECTION('',(-0.998629534755,1.224227143276E-16,
    5.233595624294E-02));
#775 = FACE_BOUND('',#776,.F.);
#776 = EDGE_LOOP('',(#777));
#777 = ORIENTED_EDGE('',*,*,#778,.F.);
#778 = EDGE_CURVE('',#779,#779,#781,.T.);
#779 = VERTEX_POINT('',#780);
#780 = CARTESIAN_POINT('',(106.17096734736,-35.,33.602251139354));
#781 = CIRCLE('',#782,6.);
#782 = AXIS2_PLACEMENT_3D('',#783,#784,#785);
#783 = CARTESIAN_POINT('',(112.16274455595,-35.,33.288235403059));
#784 = DIRECTION('',(5.233595624294E-02,-3.205751595668E-18,
    0.998629534755));
#785 = DIRECTION('',(-0.998629534755,1.224227143276E-16,
    5.233595624294E-02));
#786 = PLANE('',#787);
#787 = AXIS2_PLACEMENT_3D('',#788,#789,#790);
#788 = CARTESIAN_POINT('',(3.133333076189,8.660233577827E-15,
    39.002224714041));
#789 = DIRECTION('',(5.233595604922E-02,2.217403005133E-16,
    0.998629534765));
#790 = DIRECTION('',(0.998629534765,-1.162091668432E-17,
    -5.233595604922E-02));
#791 = ADVANCED_FACE('',(#792),#803,.T.);
#792 = FACE_BOUND('',#793,.F.);
#793 = EDGE_LOOP('',(#794,#795,#796,#802));
#794 = ORIENTED_EDGE('',*,*,#657,.T.);
#795 = ORIENTED_EDGE('',*,*,#361,.T.);
#796 = ORIENTED_EDGE('',*,*,#797,.F.);
#797 = EDGE_CURVE('',#189,#354,#798,.T.);
#798 = LINE('',#799,#800);
#799 = CARTESIAN_POINT('',(123.2,7.485360439493E-15,33.711066486035));
#800 = VECTOR('',#801,1.);
#801 = DIRECTION('',(0.,-1.,2.22044604925E-16));
#802 = ORIENTED_EDGE('',*,*,#196,.F.);
#803 = CYLINDRICAL_SURFACE('',#804,3.);
#804 = AXIS2_PLACEMENT_3D('',#805,#806,#807);
#805 = CARTESIAN_POINT('',(123.,6.820708570524E-15,30.717740576616));
#806 = DIRECTION('',(0.,1.,-2.22044604925E-16));
#807 = DIRECTION('',(1.,0.,0.));
#808 = ADVANCED_FACE('',(#809,#820,#831,#842,#853,#864,#875,#886,#897),
  #908,.F.);
#809 = FACE_BOUND('',#810,.F.);
#810 = EDGE_LOOP('',(#811,#812,#813,#819));
#811 = ORIENTED_EDGE('',*,*,#797,.T.);
#812 = ORIENTED_EDGE('',*,*,#353,.T.);
#813 = ORIENTED_EDGE('',*,*,#814,.F.);
#814 = EDGE_CURVE('',#180,#345,#815,.T.);
#815 = LINE('',#816,#817);
#816 = CARTESIAN_POINT('',(3.2,8.881784197001E-15,40.));
#817 = VECTOR('',#818,1.);
#818 = DIRECTION('',(0.,-1.,2.22044604925E-16));
#819 = ORIENTED_EDGE('',*,*,#188,.F.);
#820 = FACE_BOUND('',#821,.F.);
#821 = EDGE_LOOP('',(#822));
#822 = ORIENTED_EDGE('',*,*,#823,.T.);
#823 = EDGE_CURVE('',#824,#824,#826,.T.);
#824 = VERTEX_POINT('',#825);
#825 = CARTESIAN_POINT('',(108.22055697868,-57.,34.496105829679));
#826 = CIRCLE('',#827,4.);
#827 = AXIS2_PLACEMENT_3D('',#828,#829,#830);
#828 = CARTESIAN_POINT('',(112.2150751177,-57.,34.286762004707));
#829 = DIRECTION('',(5.233595624294E-02,-3.205751595668E-18,
    0.998629534755));
#830 = DIRECTION('',(-0.998629534755,1.224227143276E-16,
    5.233595624294E-02));
#831 = FACE_BOUND('',#832,.F.);
#832 = EDGE_LOOP('',(#833));
#833 = ORIENTED_EDGE('',*,*,#834,.T.);
#834 = EDGE_CURVE('',#835,#835,#837,.T.);
#835 = VERTEX_POINT('',#836);
#836 = CARTESIAN_POINT('',(106.22329790917,-35.,34.600777742165));
#837 = CIRCLE('',#838,6.);
#838 = AXIS2_PLACEMENT_3D('',#839,#840,#841);
#839 = CARTESIAN_POINT('',(112.2150751177,-35.,34.286762004707));
#840 = DIRECTION('',(5.233595624294E-02,-3.205751595668E-18,
    0.998629534755));
#841 = DIRECTION('',(-0.998629534755,1.224227143276E-16,
    5.233595624294E-02));
#842 = FACE_BOUND('',#843,.F.);
#843 = EDGE_LOOP('',(#844));
#844 = ORIENTED_EDGE('',*,*,#845,.T.);
#845 = EDGE_CURVE('',#846,#846,#848,.T.);
#846 = VERTEX_POINT('',#847);
#847 = CARTESIAN_POINT('',(36.154774646901,-57.,38.272913443983));
#848 = CIRCLE('',#849,4.);
#849 = AXIS2_PLACEMENT_3D('',#850,#851,#852);
#850 = CARTESIAN_POINT('',(40.149292785919,-57.,38.063569619011));
#851 = DIRECTION('',(5.233595624294E-02,-3.205751595668E-18,
    0.998629534755));
#852 = DIRECTION('',(-0.998629534755,1.224227143276E-16,
    5.233595624294E-02));
#853 = FACE_BOUND('',#854,.F.);
#854 = EDGE_LOOP('',(#855));
#855 = ORIENTED_EDGE('',*,*,#856,.T.);
#856 = EDGE_CURVE('',#857,#857,#859,.T.);
#857 = VERTEX_POINT('',#858);
#858 = CARTESIAN_POINT('',(10.190406743282,-57.,39.633648306299));
#859 = CIRCLE('',#860,4.);
#860 = AXIS2_PLACEMENT_3D('',#861,#862,#863);
#861 = CARTESIAN_POINT('',(14.1849248823,-57.,39.424304481328));
#862 = DIRECTION('',(5.233595624294E-02,-3.205751595668E-18,
    0.998629534755));
#863 = DIRECTION('',(-0.998629534755,1.224227143276E-16,
    5.233595624294E-02));
#864 = FACE_BOUND('',#865,.F.);
#865 = EDGE_LOOP('',(#866));
#866 = ORIENTED_EDGE('',*,*,#867,.T.);
#867 = EDGE_CURVE('',#868,#868,#870,.T.);
#868 = VERTEX_POINT('',#869);
#869 = CARTESIAN_POINT('',(36.654089414278,-35.,38.246745465861));
#870 = CIRCLE('',#871,3.5);
#871 = AXIS2_PLACEMENT_3D('',#872,#873,#874);
#872 = CARTESIAN_POINT('',(40.149292785919,-35.,38.063569619011));
#873 = DIRECTION('',(5.233595624294E-02,-3.205751595668E-18,
    0.998629534755));
#874 = DIRECTION('',(-0.998629534755,1.224227143276E-16,
    5.233595624294E-02));
#875 = FACE_BOUND('',#876,.F.);
#876 = EDGE_LOOP('',(#877));
#877 = ORIENTED_EDGE('',*,*,#878,.T.);
#878 = EDGE_CURVE('',#879,#879,#881,.T.);
#879 = VERTEX_POINT('',#880);
#880 = CARTESIAN_POINT('',(10.190406743282,-35.,39.633648306299));
#881 = CIRCLE('',#882,4.);
#882 = AXIS2_PLACEMENT_3D('',#883,#884,#885);
#883 = CARTESIAN_POINT('',(14.1849248823,-35.,39.424304481328));
#884 = DIRECTION('',(5.233595624294E-02,-3.205751595668E-18,
    0.998629534755));
#885 = DIRECTION('',(-0.998629534755,1.224227143276E-16,
    5.233595624294E-02));
#886 = FACE_BOUND('',#887,.F.);
#887 = EDGE_LOOP('',(#888));
#888 = ORIENTED_EDGE('',*,*,#889,.T.);
#889 = EDGE_CURVE('',#890,#890,#892,.T.);
#890 = VERTEX_POINT('',#891);
#891 = CARTESIAN_POINT('',(36.154774646901,-13.,38.272913443983));
#892 = CIRCLE('',#893,4.);
#893 = AXIS2_PLACEMENT_3D('',#894,#895,#896);
#894 = CARTESIAN_POINT('',(40.149292785919,-13.,38.063569619011));
#895 = DIRECTION('',(5.233595624294E-02,-3.205751595668E-18,
    0.998629534755));
#896 = DIRECTION('',(-0.998629534755,1.224227143276E-16,
    5.233595624294E-02));
#897 = FACE_BOUND('',#898,.F.);
#898 = EDGE_LOOP('',(#899));
#899 = ORIENTED_EDGE('',*,*,#900,.T.);
#900 = EDGE_CURVE('',#901,#901,#903,.T.);
#901 = VERTEX_POINT('',#902);
#902 = CARTESIAN_POINT('',(10.190406743282,-13.,39.633648306299));
#903 = CIRCLE('',#904,4.);
#904 = AXIS2_PLACEMENT_3D('',#905,#906,#907);
#905 = CARTESIAN_POINT('',(14.1849248823,-13.,39.424304481328));
#906 = DIRECTION('',(5.233595624294E-02,-3.205751595668E-18,
    0.998629534755));
#907 = DIRECTION('',(-0.998629534755,1.224227143276E-16,
    5.233595624294E-02));
#908 = PLANE('',#909);
#909 = AXIS2_PLACEMENT_3D('',#910,#911,#912);
#910 = CARTESIAN_POINT('',(123.2,7.485360439493E-15,33.711066486035));
#911 = DIRECTION('',(-5.233595624294E-02,-2.21740300511E-16,
    -0.998629534755));
#912 = DIRECTION('',(-0.998629534755,1.162091672734E-17,
    5.233595624294E-02));
#913 = ADVANCED_FACE('',(#914),#925,.T.);
#914 = FACE_BOUND('',#915,.F.);
#915 = EDGE_LOOP('',(#916,#917,#918,#924));
#916 = ORIENTED_EDGE('',*,*,#814,.T.);
#917 = ORIENTED_EDGE('',*,*,#344,.T.);
#918 = ORIENTED_EDGE('',*,*,#919,.F.);
#919 = EDGE_CURVE('',#172,#337,#920,.T.);
#920 = LINE('',#921,#922);
#921 = CARTESIAN_POINT('',(0.,8.217132328032E-15,37.006674090581));
#922 = VECTOR('',#923,1.);
#923 = DIRECTION('',(0.,-1.,2.22044604925E-16));
#924 = ORIENTED_EDGE('',*,*,#179,.F.);
#925 = CYLINDRICAL_SURFACE('',#926,3.);
#926 = AXIS2_PLACEMENT_3D('',#927,#928,#929);
#927 = CARTESIAN_POINT('',(3.,8.217132328032E-15,37.006674090581));
#928 = DIRECTION('',(0.,1.,-2.22044604925E-16));
#929 = DIRECTION('',(1.,0.,0.));
#930 = ADVANCED_FACE('',(#931,#946,#949,#952),#955,.T.);
#931 = FACE_BOUND('',#932,.T.);
#932 = EDGE_LOOP('',(#933,#934,#940,#941,#942,#943,#944,#945));
#933 = ORIENTED_EDGE('',*,*,#277,.T.);
#934 = ORIENTED_EDGE('',*,*,#935,.T.);
#935 = EDGE_CURVE('',#278,#451,#936,.T.);
#936 = LINE('',#937,#938);
#937 = CARTESIAN_POINT('',(0.,6.661338147751E-16,3.));
#938 = VECTOR('',#939,1.);
#939 = DIRECTION('',(0.,-1.,2.22044604925E-16));
#940 = ORIENTED_EDGE('',*,*,#450,.T.);
#941 = ORIENTED_EDGE('',*,*,#425,.F.);
#942 = ORIENTED_EDGE('',*,*,#336,.T.);
#943 = ORIENTED_EDGE('',*,*,#919,.F.);
#944 = ORIENTED_EDGE('',*,*,#171,.F.);
#945 = ORIENTED_EDGE('',*,*,#227,.T.);
#946 = FACE_BOUND('',#947,.T.);
#947 = EDGE_LOOP('',(#948));
#948 = ORIENTED_EDGE('',*,*,#474,.F.);
#949 = FACE_BOUND('',#950,.T.);
#950 = EDGE_LOOP('',(#951));
#951 = ORIENTED_EDGE('',*,*,#524,.F.);
#952 = FACE_BOUND('',#953,.T.);
#953 = EDGE_LOOP('',(#954));
#954 = ORIENTED_EDGE('',*,*,#499,.F.);
#955 = PLANE('',#956);
#956 = AXIS2_PLACEMENT_3D('',#957,#958,#959);
#957 = CARTESIAN_POINT('',(0.,6.661338147751E-16,3.));
#958 = DIRECTION('',(-1.,0.,0.));
#959 = DIRECTION('',(0.,2.22044604925E-16,1.));
#960 = ADVANCED_FACE('',(#961),#996,.F.);
#961 = FACE_BOUND('',#962,.F.);
#962 = EDGE_LOOP('',(#963,#972,#980,#988,#994,#995));
#963 = ORIENTED_EDGE('',*,*,#964,.F.);
#964 = EDGE_CURVE('',#965,#278,#967,.T.);
#965 = VERTEX_POINT('',#966);
#966 = CARTESIAN_POINT('',(3.,-3.,6.661338147751E-16));
#967 = CIRCLE('',#968,3.);
#968 = AXIS2_PLACEMENT_3D('',#969,#970,#971);
#969 = CARTESIAN_POINT('',(3.,-3.,3.));
#970 = DIRECTION('',(0.,1.,-2.22044604925E-16));
#971 = DIRECTION('',(1.,0.,0.));
#972 = ORIENTED_EDGE('',*,*,#973,.T.);
#973 = EDGE_CURVE('',#965,#974,#976,.T.);
#974 = VERTEX_POINT('',#975);
#975 = CARTESIAN_POINT('',(11.,-3.,1.554312234475E-15));
#976 = LINE('',#977,#978);
#977 = CARTESIAN_POINT('',(0.,-3.,0.));
#978 = VECTOR('',#979,1.);
#979 = DIRECTION('',(1.,0.,2.22044604925E-16));
#980 = ORIENTED_EDGE('',*,*,#981,.F.);
#981 = EDGE_CURVE('',#982,#974,#984,.T.);
#982 = VERTEX_POINT('',#983);
#983 = CARTESIAN_POINT('',(11.,-3.,1.));
#984 = LINE('',#985,#986);
#985 = CARTESIAN_POINT('',(11.,-3.,0.5));
#986 = VECTOR('',#987,1.);
#987 = DIRECTION('',(0.,0.,-1.));
#988 = ORIENTED_EDGE('',*,*,#989,.F.);
#989 = EDGE_CURVE('',#393,#982,#990,.T.);
#990 = LINE('',#991,#992);
#991 = CARTESIAN_POINT('',(1.5,-3.,1.));
#992 = VECTOR('',#993,1.);
#993 = DIRECTION('',(1.,0.,0.));
#994 = ORIENTED_EDGE('',*,*,#392,.T.);
#995 = ORIENTED_EDGE('',*,*,#285,.F.);
#996 = PLANE('',#997);
#997 = AXIS2_PLACEMENT_3D('',#998,#999,#1000);
#998 = CARTESIAN_POINT('',(0.,-3.,0.));
#999 = DIRECTION('',(0.,-1.,0.));
#1000 = DIRECTION('',(-2.22044604925E-16,0.,1.));
#1001 = ADVANCED_FACE('',(#1002),#1013,.T.);
#1002 = FACE_BOUND('',#1003,.T.);
#1003 = EDGE_LOOP('',(#1004,#1005,#1011,#1012));
#1004 = ORIENTED_EDGE('',*,*,#575,.T.);
#1005 = ORIENTED_EDGE('',*,*,#1006,.T.);
#1006 = EDGE_CURVE('',#568,#665,#1007,.T.);
#1007 = LINE('',#1008,#1009);
#1008 = CARTESIAN_POINT('',(125.,-68.5,3.));
#1009 = VECTOR('',#1010,1.);
#1010 = DIRECTION('',(1.,0.,2.22044604925E-16));
#1011 = ORIENTED_EDGE('',*,*,#664,.F.);
#1012 = ORIENTED_EDGE('',*,*,#378,.F.);
#1013 = CYLINDRICAL_SURFACE('',#1014,1.5);
#1014 = AXIS2_PLACEMENT_3D('',#1015,#1016,#1017);
#1015 = CARTESIAN_POINT('',(125.,-68.5,4.5));
#1016 = DIRECTION('',(1.,0.,2.22044604925E-16));
#1017 = DIRECTION('',(0.,-1.,0.));
#1018 = ADVANCED_FACE('',(#1019,#1037,#1048),#1059,.T.);
#1019 = FACE_BOUND('',#1020,.T.);
#1020 = EDGE_LOOP('',(#1021,#1022,#1023,#1031));
#1021 = ORIENTED_EDGE('',*,*,#989,.F.);
#1022 = ORIENTED_EDGE('',*,*,#411,.T.);
#1023 = ORIENTED_EDGE('',*,*,#1024,.T.);
#1024 = EDGE_CURVE('',#403,#1025,#1027,.T.);
#1025 = VERTEX_POINT('',#1026);
#1026 = CARTESIAN_POINT('',(11.,-67.,1.));
#1027 = LINE('',#1028,#1029);
#1028 = CARTESIAN_POINT('',(1.5,-67.,1.));
#1029 = VECTOR('',#1030,1.);
#1030 = DIRECTION('',(1.,0.,0.));
#1031 = ORIENTED_EDGE('',*,*,#1032,.F.);
#1032 = EDGE_CURVE('',#982,#1025,#1033,.T.);
#1033 = LINE('',#1034,#1035);
#1034 = CARTESIAN_POINT('',(11.,2.22044604925E-16,1.));
#1035 = VECTOR('',#1036,1.);
#1036 = DIRECTION('',(0.,-1.,2.22044604925E-16));
#1037 = FACE_BOUND('',#1038,.T.);
#1038 = EDGE_LOOP('',(#1039));
#1039 = ORIENTED_EDGE('',*,*,#1040,.T.);
#1040 = EDGE_CURVE('',#1041,#1041,#1043,.T.);
#1041 = VERTEX_POINT('',#1042);
#1042 = CARTESIAN_POINT('',(9.5,-62.,1.));
#1043 = CIRCLE('',#1044,2.5);
#1044 = AXIS2_PLACEMENT_3D('',#1045,#1046,#1047);
#1045 = CARTESIAN_POINT('',(7.,-62.,1.));
#1046 = DIRECTION('',(0.,-1.224646799147E-16,-1.));
#1047 = DIRECTION('',(1.,0.,0.));
#1048 = FACE_BOUND('',#1049,.T.);
#1049 = EDGE_LOOP('',(#1050));
#1050 = ORIENTED_EDGE('',*,*,#1051,.T.);
#1051 = EDGE_CURVE('',#1052,#1052,#1054,.T.);
#1052 = VERTEX_POINT('',#1053);
#1053 = CARTESIAN_POINT('',(9.5,-8.,1.));
#1054 = CIRCLE('',#1055,2.5);
#1055 = AXIS2_PLACEMENT_3D('',#1056,#1057,#1058);
#1056 = CARTESIAN_POINT('',(7.,-8.,1.));
#1057 = DIRECTION('',(0.,-1.224646799147E-16,-1.));
#1058 = DIRECTION('',(1.,0.,0.));
#1059 = PLANE('',#1060);
#1060 = AXIS2_PLACEMENT_3D('',#1061,#1062,#1063);
#1061 = CARTESIAN_POINT('',(3.,2.22044604925E-16,1.));
#1062 = DIRECTION('',(0.,2.22044604925E-16,1.));
#1063 = DIRECTION('',(1.,0.,0.));
#1064 = ADVANCED_FACE('',(#1065),#1093,.T.);
#1065 = FACE_BOUND('',#1066,.T.);
#1066 = EDGE_LOOP('',(#1067,#1076,#1084,#1090,#1091,#1092));
#1067 = ORIENTED_EDGE('',*,*,#1068,.F.);
#1068 = EDGE_CURVE('',#1069,#451,#1071,.T.);
#1069 = VERTEX_POINT('',#1070);
#1070 = CARTESIAN_POINT('',(3.,-67.,7.771561172376E-15));
#1071 = CIRCLE('',#1072,3.);
#1072 = AXIS2_PLACEMENT_3D('',#1073,#1074,#1075);
#1073 = CARTESIAN_POINT('',(3.,-67.,3.));
#1074 = DIRECTION('',(0.,1.,-2.22044604925E-16));
#1075 = DIRECTION('',(1.,0.,0.));
#1076 = ORIENTED_EDGE('',*,*,#1077,.T.);
#1077 = EDGE_CURVE('',#1069,#1078,#1080,.T.);
#1078 = VERTEX_POINT('',#1079);
#1079 = CARTESIAN_POINT('',(11.,-67.,8.659739592076E-15));
#1080 = LINE('',#1081,#1082);
#1081 = CARTESIAN_POINT('',(0.,-67.,0.));
#1082 = VECTOR('',#1083,1.);
#1083 = DIRECTION('',(1.,0.,2.22044604925E-16));
#1084 = ORIENTED_EDGE('',*,*,#1085,.F.);
#1085 = EDGE_CURVE('',#1025,#1078,#1086,.T.);
#1086 = LINE('',#1087,#1088);
#1087 = CARTESIAN_POINT('',(11.,-67.,0.5));
#1088 = VECTOR('',#1089,1.);
#1089 = DIRECTION('',(0.,0.,-1.));
#1090 = ORIENTED_EDGE('',*,*,#1024,.F.);
#1091 = ORIENTED_EDGE('',*,*,#402,.T.);
#1092 = ORIENTED_EDGE('',*,*,#458,.F.);
#1093 = PLANE('',#1094);
#1094 = AXIS2_PLACEMENT_3D('',#1095,#1096,#1097);
#1095 = CARTESIAN_POINT('',(0.,-67.,0.));
#1096 = DIRECTION('',(0.,-1.,0.));
#1097 = DIRECTION('',(-2.22044604925E-16,0.,1.));
#1098 = ADVANCED_FACE('',(#1099),#1110,.F.);
#1099 = FACE_BOUND('',#1100,.F.);
#1100 = EDGE_LOOP('',(#1101,#1102,#1108,#1109));
#1101 = ORIENTED_EDGE('',*,*,#549,.T.);
#1102 = ORIENTED_EDGE('',*,*,#1103,.T.);
#1103 = EDGE_CURVE('',#552,#648,#1104,.T.);
#1104 = LINE('',#1105,#1106);
#1105 = CARTESIAN_POINT('',(-6.661338147751E-16,-3.,3.));
#1106 = VECTOR('',#1107,1.);
#1107 = DIRECTION('',(1.,0.,2.22044604925E-16));
#1108 = ORIENTED_EDGE('',*,*,#647,.F.);
#1109 = ORIENTED_EDGE('',*,*,#606,.F.);
#1110 = PLANE('',#1111);
#1111 = AXIS2_PLACEMENT_3D('',#1112,#1113,#1114);
#1112 = CARTESIAN_POINT('',(-6.661338147751E-16,-3.,3.));
#1113 = DIRECTION('',(-2.22044604925E-16,0.,1.));
#1114 = DIRECTION('',(0.,1.,0.));
#1115 = ADVANCED_FACE('',(#1116),#1143,.F.);
#1116 = FACE_BOUND('',#1117,.T.);
#1117 = EDGE_LOOP('',(#1118,#1127,#1135,#1142));
#1118 = ORIENTED_EDGE('',*,*,#1119,.T.);
#1119 = EDGE_CURVE('',#552,#1120,#1122,.T.);
#1120 = VERTEX_POINT('',#1121);
#1121 = CARTESIAN_POINT('',(123.,-3.,1.));
#1122 = CIRCLE('',#1123,2.);
#1123 = AXIS2_PLACEMENT_3D('',#1124,#1125,#1126);
#1124 = CARTESIAN_POINT('',(123.,-3.,3.));
#1125 = DIRECTION('',(0.,1.,-2.22044604925E-16));
#1126 = DIRECTION('',(1.,0.,0.));
#1127 = ORIENTED_EDGE('',*,*,#1128,.T.);
#1128 = EDGE_CURVE('',#1120,#1129,#1131,.T.);
#1129 = VERTEX_POINT('',#1130);
#1130 = CARTESIAN_POINT('',(123.,-67.,1.));
#1131 = LINE('',#1132,#1133);
#1132 = CARTESIAN_POINT('',(123.,2.22044604925E-16,1.));
#1133 = VECTOR('',#1134,1.);
#1134 = DIRECTION('',(0.,-1.,2.22044604925E-16));
#1135 = ORIENTED_EDGE('',*,*,#1136,.F.);
#1136 = EDGE_CURVE('',#560,#1129,#1137,.T.);
#1137 = CIRCLE('',#1138,2.);
#1138 = AXIS2_PLACEMENT_3D('',#1139,#1140,#1141);
#1139 = CARTESIAN_POINT('',(123.,-67.,3.));
#1140 = DIRECTION('',(0.,1.,-2.22044604925E-16));
#1141 = DIRECTION('',(1.,0.,0.));
#1142 = ORIENTED_EDGE('',*,*,#559,.F.);
#1143 = CYLINDRICAL_SURFACE('',#1144,2.);
#1144 = AXIS2_PLACEMENT_3D('',#1145,#1146,#1147);
#1145 = CARTESIAN_POINT('',(123.,6.661338147751E-16,3.));
#1146 = DIRECTION('',(0.,1.,-2.22044604925E-16));
#1147 = DIRECTION('',(1.,0.,0.));
#1148 = ADVANCED_FACE('',(#1149),#1160,.T.);
#1149 = FACE_BOUND('',#1150,.T.);
#1150 = EDGE_LOOP('',(#1151,#1152,#1158,#1159));
#1151 = ORIENTED_EDGE('',*,*,#567,.F.);
#1152 = ORIENTED_EDGE('',*,*,#1153,.T.);
#1153 = EDGE_CURVE('',#560,#674,#1154,.T.);
#1154 = LINE('',#1155,#1156);
#1155 = CARTESIAN_POINT('',(-6.661338147751E-16,-67.,3.));
#1156 = VECTOR('',#1157,1.);
#1157 = DIRECTION('',(1.,0.,2.22044604925E-16));
#1158 = ORIENTED_EDGE('',*,*,#673,.T.);
#1159 = ORIENTED_EDGE('',*,*,#1006,.F.);
#1160 = PLANE('',#1161);
#1161 = AXIS2_PLACEMENT_3D('',#1162,#1163,#1164);
#1162 = CARTESIAN_POINT('',(-6.661338147751E-16,-67.,3.));
#1163 = DIRECTION('',(2.22044604925E-16,0.,-1.));
#1164 = DIRECTION('',(0.,-1.,0.));
#1165 = ADVANCED_FACE('',(#1166),#1193,.T.);
#1166 = FACE_BOUND('',#1167,.F.);
#1167 = EDGE_LOOP('',(#1168,#1177,#1185,#1192));
#1168 = ORIENTED_EDGE('',*,*,#1169,.T.);
#1169 = EDGE_CURVE('',#648,#1170,#1172,.T.);
#1170 = VERTEX_POINT('',#1171);
#1171 = CARTESIAN_POINT('',(123.,-3.,1.398881011028E-14));
#1172 = CIRCLE('',#1173,3.);
#1173 = AXIS2_PLACEMENT_3D('',#1174,#1175,#1176);
#1174 = CARTESIAN_POINT('',(123.,-3.,3.));
#1175 = DIRECTION('',(0.,1.,-2.22044604925E-16));
#1176 = DIRECTION('',(1.,0.,0.));
#1177 = ORIENTED_EDGE('',*,*,#1178,.T.);
#1178 = EDGE_CURVE('',#1170,#1179,#1181,.T.);
#1179 = VERTEX_POINT('',#1180);
#1180 = CARTESIAN_POINT('',(123.,-67.,2.109423746788E-14));
#1181 = LINE('',#1182,#1183);
#1182 = CARTESIAN_POINT('',(123.,0.,0.));
#1183 = VECTOR('',#1184,1.);
#1184 = DIRECTION('',(0.,-1.,2.22044604925E-16));
#1185 = ORIENTED_EDGE('',*,*,#1186,.F.);
#1186 = EDGE_CURVE('',#674,#1179,#1187,.T.);
#1187 = CIRCLE('',#1188,3.);
#1188 = AXIS2_PLACEMENT_3D('',#1189,#1190,#1191);
#1189 = CARTESIAN_POINT('',(123.,-67.,3.));
#1190 = DIRECTION('',(0.,1.,-2.22044604925E-16));
#1191 = DIRECTION('',(1.,0.,0.));
#1192 = ORIENTED_EDGE('',*,*,#681,.F.);
#1193 = CYLINDRICAL_SURFACE('',#1194,3.);
#1194 = AXIS2_PLACEMENT_3D('',#1195,#1196,#1197);
#1195 = CARTESIAN_POINT('',(123.,6.661338147751E-16,3.));
#1196 = DIRECTION('',(0.,1.,-2.22044604925E-16));
#1197 = DIRECTION('',(1.,0.,0.));
#1198 = ADVANCED_FACE('',(#1199),#1210,.F.);
#1199 = FACE_BOUND('',#1200,.F.);
#1200 = EDGE_LOOP('',(#1201,#1202,#1208,#1209));
#1201 = ORIENTED_EDGE('',*,*,#856,.F.);
#1202 = ORIENTED_EDGE('',*,*,#1203,.T.);
#1203 = EDGE_CURVE('',#857,#702,#1204,.T.);
#1204 = LINE('',#1205,#1206);
#1205 = CARTESIAN_POINT('',(10.195775285821,-57.,39.736086200302));
#1206 = VECTOR('',#1207,1.);
#1207 = DIRECTION('',(-5.233595624294E-02,3.205751595668E-18,
    -0.998629534755));
#1208 = ORIENTED_EDGE('',*,*,#701,.T.);
#1209 = ORIENTED_EDGE('',*,*,#1203,.F.);
#1210 = CYLINDRICAL_SURFACE('',#1211,4.);
#1211 = AXIS2_PLACEMENT_3D('',#1212,#1213,#1214);
#1212 = CARTESIAN_POINT('',(14.190293424839,-57.,39.52674237533));
#1213 = DIRECTION('',(5.233595624294E-02,-3.205751595668E-18,
    0.998629534755));
#1214 = DIRECTION('',(-0.998629534755,1.224227143276E-16,
    5.233595624294E-02));
#1215 = ADVANCED_FACE('',(#1216),#1227,.F.);
#1216 = FACE_BOUND('',#1217,.F.);
#1217 = EDGE_LOOP('',(#1218,#1219,#1225,#1226));
#1218 = ORIENTED_EDGE('',*,*,#845,.F.);
#1219 = ORIENTED_EDGE('',*,*,#1220,.T.);
#1220 = EDGE_CURVE('',#846,#713,#1221,.T.);
#1221 = LINE('',#1222,#1223);
#1222 = CARTESIAN_POINT('',(36.16014318944,-57.,38.375351337985));
#1223 = VECTOR('',#1224,1.);
#1224 = DIRECTION('',(-5.233595624294E-02,3.205751595668E-18,
    -0.998629534755));
#1225 = ORIENTED_EDGE('',*,*,#712,.T.);
#1226 = ORIENTED_EDGE('',*,*,#1220,.F.);
#1227 = CYLINDRICAL_SURFACE('',#1228,4.);
#1228 = AXIS2_PLACEMENT_3D('',#1229,#1230,#1231);
#1229 = CARTESIAN_POINT('',(40.154661328458,-57.,38.166007513013));
#1230 = DIRECTION('',(5.233595624294E-02,-3.205751595668E-18,
    0.998629534755));
#1231 = DIRECTION('',(-0.998629534755,1.224227143276E-16,
    5.233595624294E-02));
#1232 = ADVANCED_FACE('',(#1233),#1244,.F.);
#1233 = FACE_BOUND('',#1234,.F.);
#1234 = EDGE_LOOP('',(#1235,#1236,#1242,#1243));
#1235 = ORIENTED_EDGE('',*,*,#823,.F.);
#1236 = ORIENTED_EDGE('',*,*,#1237,.T.);
#1237 = EDGE_CURVE('',#824,#724,#1238,.T.);
#1238 = LINE('',#1239,#1240);
#1239 = CARTESIAN_POINT('',(108.22592552122,-57.,34.598543723682));
#1240 = VECTOR('',#1241,1.);
#1241 = DIRECTION('',(-5.233595624294E-02,3.205751595668E-18,
    -0.998629534755));
#1242 = ORIENTED_EDGE('',*,*,#723,.T.);
#1243 = ORIENTED_EDGE('',*,*,#1237,.F.);
#1244 = CYLINDRICAL_SURFACE('',#1245,4.);
#1245 = AXIS2_PLACEMENT_3D('',#1246,#1247,#1248);
#1246 = CARTESIAN_POINT('',(112.22044366023,-57.,34.38919989871));
#1247 = DIRECTION('',(5.233595624294E-02,-3.205751595668E-18,
    0.998629534755));
#1248 = DIRECTION('',(-0.998629534755,1.224227143276E-16,
    5.233595624294E-02));
#1249 = ADVANCED_FACE('',(#1250),#1261,.F.);
#1250 = FACE_BOUND('',#1251,.F.);
#1251 = EDGE_LOOP('',(#1252,#1253,#1259,#1260));
#1252 = ORIENTED_EDGE('',*,*,#878,.F.);
#1253 = ORIENTED_EDGE('',*,*,#1254,.T.);
#1254 = EDGE_CURVE('',#879,#735,#1255,.T.);
#1255 = LINE('',#1256,#1257);
#1256 = CARTESIAN_POINT('',(10.195775285821,-35.,39.736086200302));
#1257 = VECTOR('',#1258,1.);
#1258 = DIRECTION('',(-5.233595624294E-02,3.205751595668E-18,
    -0.998629534755));
#1259 = ORIENTED_EDGE('',*,*,#734,.T.);
#1260 = ORIENTED_EDGE('',*,*,#1254,.F.);
#1261 = CYLINDRICAL_SURFACE('',#1262,4.);
#1262 = AXIS2_PLACEMENT_3D('',#1263,#1264,#1265);
#1263 = CARTESIAN_POINT('',(14.190293424839,-35.,39.52674237533));
#1264 = DIRECTION('',(5.233595624294E-02,-3.205751595668E-18,
    0.998629534755));
#1265 = DIRECTION('',(-0.998629534755,1.224227143276E-16,
    5.233595624294E-02));
#1266 = ADVANCED_FACE('',(#1267),#1278,.F.);
#1267 = FACE_BOUND('',#1268,.F.);
#1268 = EDGE_LOOP('',(#1269,#1270,#1276,#1277));
#1269 = ORIENTED_EDGE('',*,*,#867,.F.);
#1270 = ORIENTED_EDGE('',*,*,#1271,.T.);
#1271 = EDGE_CURVE('',#868,#746,#1272,.T.);
#1272 = LINE('',#1273,#1274);
#1273 = CARTESIAN_POINT('',(36.659457956817,-35.,38.349183359864));
#1274 = VECTOR('',#1275,1.);
#1275 = DIRECTION('',(-5.233595624294E-02,3.205751595668E-18,
    -0.998629534755));
#1276 = ORIENTED_EDGE('',*,*,#745,.T.);
#1277 = ORIENTED_EDGE('',*,*,#1271,.F.);
#1278 = CYLINDRICAL_SURFACE('',#1279,3.5);
#1279 = AXIS2_PLACEMENT_3D('',#1280,#1281,#1282);
#1280 = CARTESIAN_POINT('',(40.154661328458,-35.,38.166007513013));
#1281 = DIRECTION('',(5.233595624294E-02,-3.205751595668E-18,
    0.998629534755));
#1282 = DIRECTION('',(-0.998629534755,1.224227143276E-16,
    5.233595624294E-02));
#1283 = ADVANCED_FACE('',(#1284),#1295,.F.);
#1284 = FACE_BOUND('',#1285,.F.);
#1285 = EDGE_LOOP('',(#1286,#1287,#1293,#1294));
#1286 = ORIENTED_EDGE('',*,*,#900,.F.);
#1287 = ORIENTED_EDGE('',*,*,#1288,.T.);
#1288 = EDGE_CURVE('',#901,#757,#1289,.T.);
#1289 = LINE('',#1290,#1291);
#1290 = CARTESIAN_POINT('',(10.195775285821,-13.,39.736086200302));
#1291 = VECTOR('',#1292,1.);
#1292 = DIRECTION('',(-5.233595624294E-02,3.205751595668E-18,
    -0.998629534755));
#1293 = ORIENTED_EDGE('',*,*,#756,.T.);
#1294 = ORIENTED_EDGE('',*,*,#1288,.F.);
#1295 = CYLINDRICAL_SURFACE('',#1296,4.);
#1296 = AXIS2_PLACEMENT_3D('',#1297,#1298,#1299);
#1297 = CARTESIAN_POINT('',(14.190293424839,-13.,39.52674237533));
#1298 = DIRECTION('',(5.233595624294E-02,-3.205751595668E-18,
    0.998629534755));
#1299 = DIRECTION('',(-0.998629534755,1.224227143276E-16,
    5.233595624294E-02));
#1300 = ADVANCED_FACE('',(#1301),#1312,.F.);
#1301 = FACE_BOUND('',#1302,.F.);
#1302 = EDGE_LOOP('',(#1303,#1304,#1310,#1311));
#1303 = ORIENTED_EDGE('',*,*,#889,.F.);
#1304 = ORIENTED_EDGE('',*,*,#1305,.T.);
#1305 = EDGE_CURVE('',#890,#768,#1306,.T.);
#1306 = LINE('',#1307,#1308);
#1307 = CARTESIAN_POINT('',(36.16014318944,-13.,38.375351337985));
#1308 = VECTOR('',#1309,1.);
#1309 = DIRECTION('',(-5.233595624294E-02,3.205751595668E-18,
    -0.998629534755));
#1310 = ORIENTED_EDGE('',*,*,#767,.T.);
#1311 = ORIENTED_EDGE('',*,*,#1305,.F.);
#1312 = CYLINDRICAL_SURFACE('',#1313,4.);
#1313 = AXIS2_PLACEMENT_3D('',#1314,#1315,#1316);
#1314 = CARTESIAN_POINT('',(40.154661328458,-13.,38.166007513013));
#1315 = DIRECTION('',(5.233595624294E-02,-3.205751595668E-18,
    0.998629534755));
#1316 = DIRECTION('',(-0.998629534755,1.224227143276E-16,
    5.233595624294E-02));
#1317 = ADVANCED_FACE('',(#1318),#1329,.F.);
#1318 = FACE_BOUND('',#1319,.F.);
#1319 = EDGE_LOOP('',(#1320,#1321,#1327,#1328));
#1320 = ORIENTED_EDGE('',*,*,#834,.F.);
#1321 = ORIENTED_EDGE('',*,*,#1322,.T.);
#1322 = EDGE_CURVE('',#835,#779,#1323,.T.);
#1323 = LINE('',#1324,#1325);
#1324 = CARTESIAN_POINT('',(106.22866645171,-35.,34.703215636167));
#1325 = VECTOR('',#1326,1.);
#1326 = DIRECTION('',(-5.233595624294E-02,3.205751595668E-18,
    -0.998629534755));
#1327 = ORIENTED_EDGE('',*,*,#778,.T.);
#1328 = ORIENTED_EDGE('',*,*,#1322,.F.);
#1329 = CYLINDRICAL_SURFACE('',#1330,6.);
#1330 = AXIS2_PLACEMENT_3D('',#1331,#1332,#1333);
#1331 = CARTESIAN_POINT('',(112.22044366023,-35.,34.38919989871));
#1332 = DIRECTION('',(5.233595624294E-02,-3.205751595668E-18,
    0.998629534755));
#1333 = DIRECTION('',(-0.998629534755,1.224227143276E-16,
    5.233595624294E-02));
#1334 = ADVANCED_FACE('',(#1335),#1346,.T.);
#1335 = FACE_BOUND('',#1336,.F.);
#1336 = EDGE_LOOP('',(#1337,#1338,#1339,#1340));
#1337 = ORIENTED_EDGE('',*,*,#964,.T.);
#1338 = ORIENTED_EDGE('',*,*,#935,.T.);
#1339 = ORIENTED_EDGE('',*,*,#1068,.F.);
#1340 = ORIENTED_EDGE('',*,*,#1341,.F.);
#1341 = EDGE_CURVE('',#965,#1069,#1342,.T.);
#1342 = LINE('',#1343,#1344);
#1343 = CARTESIAN_POINT('',(3.,0.,0.));
#1344 = VECTOR('',#1345,1.);
#1345 = DIRECTION('',(0.,-1.,2.22044604925E-16));
#1346 = CYLINDRICAL_SURFACE('',#1347,3.);
#1347 = AXIS2_PLACEMENT_3D('',#1348,#1349,#1350);
#1348 = CARTESIAN_POINT('',(3.,6.661338147751E-16,3.));
#1349 = DIRECTION('',(0.,1.,-2.22044604925E-16));
#1350 = DIRECTION('',(1.,0.,0.));
#1351 = ADVANCED_FACE('',(#1352),#1363,.T.);
#1352 = FACE_BOUND('',#1353,.T.);
#1353 = EDGE_LOOP('',(#1354,#1355,#1356,#1357));
#1354 = ORIENTED_EDGE('',*,*,#981,.F.);
#1355 = ORIENTED_EDGE('',*,*,#1032,.T.);
#1356 = ORIENTED_EDGE('',*,*,#1085,.T.);
#1357 = ORIENTED_EDGE('',*,*,#1358,.F.);
#1358 = EDGE_CURVE('',#974,#1078,#1359,.T.);
#1359 = LINE('',#1360,#1361);
#1360 = CARTESIAN_POINT('',(11.,0.,0.));
#1361 = VECTOR('',#1362,1.);
#1362 = DIRECTION('',(0.,-1.,2.22044604925E-16));
#1363 = PLANE('',#1364);
#1364 = AXIS2_PLACEMENT_3D('',#1365,#1366,#1367);
#1365 = CARTESIAN_POINT('',(11.,2.22044604925E-16,1.));
#1366 = DIRECTION('',(1.,0.,0.));
#1367 = DIRECTION('',(0.,-2.22044604925E-16,-1.));
#1368 = ADVANCED_FACE('',(#1369,#1375,#1386),#1397,.T.);
#1369 = FACE_BOUND('',#1370,.T.);
#1370 = EDGE_LOOP('',(#1371,#1372,#1373,#1374));
#1371 = ORIENTED_EDGE('',*,*,#973,.T.);
#1372 = ORIENTED_EDGE('',*,*,#1358,.T.);
#1373 = ORIENTED_EDGE('',*,*,#1077,.F.);
#1374 = ORIENTED_EDGE('',*,*,#1341,.F.);
#1375 = FACE_BOUND('',#1376,.T.);
#1376 = EDGE_LOOP('',(#1377));
#1377 = ORIENTED_EDGE('',*,*,#1378,.F.);
#1378 = EDGE_CURVE('',#1379,#1379,#1381,.T.);
#1379 = VERTEX_POINT('',#1380);
#1380 = CARTESIAN_POINT('',(10.,-62.,7.592810154714E-15));
#1381 = CIRCLE('',#1382,3.);
#1382 = AXIS2_PLACEMENT_3D('',#1383,#1384,#1385);
#1383 = CARTESIAN_POINT('',(7.,-62.,7.592810154714E-15));
#1384 = DIRECTION('',(0.,-1.224646799147E-16,-1.));
#1385 = DIRECTION('',(1.,0.,0.));
#1386 = FACE_BOUND('',#1387,.T.);
#1387 = EDGE_LOOP('',(#1388));
#1388 = ORIENTED_EDGE('',*,*,#1389,.F.);
#1389 = EDGE_CURVE('',#1390,#1390,#1392,.T.);
#1390 = VERTEX_POINT('',#1391);
#1391 = CARTESIAN_POINT('',(10.,-8.,9.797174393179E-16));
#1392 = CIRCLE('',#1393,3.);
#1393 = AXIS2_PLACEMENT_3D('',#1394,#1395,#1396);
#1394 = CARTESIAN_POINT('',(7.,-8.,9.797174393179E-16));
#1395 = DIRECTION('',(0.,-1.224646799147E-16,-1.));
#1396 = DIRECTION('',(1.,0.,0.));
#1397 = PLANE('',#1398);
#1398 = AXIS2_PLACEMENT_3D('',#1399,#1400,#1401);
#1399 = CARTESIAN_POINT('',(11.,0.,0.));
#1400 = DIRECTION('',(0.,-2.22044604925E-16,-1.));
#1401 = DIRECTION('',(-1.,0.,0.));
#1402 = ADVANCED_FACE('',(#1403),#1422,.F.);
#1403 = FACE_BOUND('',#1404,.F.);
#1404 = EDGE_LOOP('',(#1405,#1414,#1420,#1421));
#1405 = ORIENTED_EDGE('',*,*,#1406,.F.);
#1406 = EDGE_CURVE('',#1407,#1407,#1409,.T.);
#1407 = VERTEX_POINT('',#1408);
#1408 = CARTESIAN_POINT('',(9.5,-62.,0.5));
#1409 = CIRCLE('',#1410,2.5);
#1410 = AXIS2_PLACEMENT_3D('',#1411,#1412,#1413);
#1411 = CARTESIAN_POINT('',(7.,-62.,0.5));
#1412 = DIRECTION('',(0.,-1.224646799147E-16,-1.));
#1413 = DIRECTION('',(1.,0.,0.));
#1414 = ORIENTED_EDGE('',*,*,#1415,.T.);
#1415 = EDGE_CURVE('',#1407,#1041,#1416,.T.);
#1416 = LINE('',#1417,#1418);
#1417 = CARTESIAN_POINT('',(9.5,-62.,7.592810154714E-15));
#1418 = VECTOR('',#1419,1.);
#1419 = DIRECTION('',(0.,1.224646799147E-16,1.));
#1420 = ORIENTED_EDGE('',*,*,#1040,.T.);
#1421 = ORIENTED_EDGE('',*,*,#1415,.F.);
#1422 = CYLINDRICAL_SURFACE('',#1423,2.5);
#1423 = AXIS2_PLACEMENT_3D('',#1424,#1425,#1426);
#1424 = CARTESIAN_POINT('',(7.,-62.,7.592810154714E-15));
#1425 = DIRECTION('',(0.,-1.224646799147E-16,-1.));
#1426 = DIRECTION('',(1.,0.,0.));
#1427 = ADVANCED_FACE('',(#1428),#1447,.F.);
#1428 = FACE_BOUND('',#1429,.F.);
#1429 = EDGE_LOOP('',(#1430,#1439,#1445,#1446));
#1430 = ORIENTED_EDGE('',*,*,#1431,.F.);
#1431 = EDGE_CURVE('',#1432,#1432,#1434,.T.);
#1432 = VERTEX_POINT('',#1433);
#1433 = CARTESIAN_POINT('',(9.5,-8.,0.5));
#1434 = CIRCLE('',#1435,2.5);
#1435 = AXIS2_PLACEMENT_3D('',#1436,#1437,#1438);
#1436 = CARTESIAN_POINT('',(7.,-8.,0.5));
#1437 = DIRECTION('',(0.,-1.224646799147E-16,-1.));
#1438 = DIRECTION('',(1.,0.,0.));
#1439 = ORIENTED_EDGE('',*,*,#1440,.T.);
#1440 = EDGE_CURVE('',#1432,#1052,#1441,.T.);
#1441 = LINE('',#1442,#1443);
#1442 = CARTESIAN_POINT('',(9.5,-8.,9.797174393179E-16));
#1443 = VECTOR('',#1444,1.);
#1444 = DIRECTION('',(0.,1.224646799147E-16,1.));
#1445 = ORIENTED_EDGE('',*,*,#1051,.T.);
#1446 = ORIENTED_EDGE('',*,*,#1440,.F.);
#1447 = CYLINDRICAL_SURFACE('',#1448,2.5);
#1448 = AXIS2_PLACEMENT_3D('',#1449,#1450,#1451);
#1449 = CARTESIAN_POINT('',(7.,-8.,9.797174393179E-16));
#1450 = DIRECTION('',(0.,-1.224646799147E-16,-1.));
#1451 = DIRECTION('',(1.,0.,0.));
#1452 = ADVANCED_FACE('',(#1453),#1480,.F.);
#1453 = FACE_BOUND('',#1454,.F.);
#1454 = EDGE_LOOP('',(#1455,#1465,#1471,#1472,#1473,#1474));
#1455 = ORIENTED_EDGE('',*,*,#1456,.F.);
#1456 = EDGE_CURVE('',#1457,#1459,#1461,.T.);
#1457 = VERTEX_POINT('',#1458);
#1458 = CARTESIAN_POINT('',(115.,-3.,1.310063169058E-14));
#1459 = VERTEX_POINT('',#1460);
#1460 = CARTESIAN_POINT('',(115.,-3.,1.));
#1461 = LINE('',#1462,#1463);
#1462 = CARTESIAN_POINT('',(115.,-3.,0.));
#1463 = VECTOR('',#1464,1.);
#1464 = DIRECTION('',(0.,0.,1.));
#1465 = ORIENTED_EDGE('',*,*,#1466,.T.);
#1466 = EDGE_CURVE('',#1457,#1170,#1467,.T.);
#1467 = LINE('',#1468,#1469);
#1468 = CARTESIAN_POINT('',(0.,-3.,0.));
#1469 = VECTOR('',#1470,1.);
#1470 = DIRECTION('',(1.,0.,2.22044604925E-16));
#1471 = ORIENTED_EDGE('',*,*,#1169,.F.);
#1472 = ORIENTED_EDGE('',*,*,#1103,.F.);
#1473 = ORIENTED_EDGE('',*,*,#1119,.T.);
#1474 = ORIENTED_EDGE('',*,*,#1475,.F.);
#1475 = EDGE_CURVE('',#1459,#1120,#1476,.T.);
#1476 = LINE('',#1477,#1478);
#1477 = CARTESIAN_POINT('',(57.5,-3.,1.));
#1478 = VECTOR('',#1479,1.);
#1479 = DIRECTION('',(1.,0.,0.));
#1480 = PLANE('',#1481);
#1481 = AXIS2_PLACEMENT_3D('',#1482,#1483,#1484);
#1482 = CARTESIAN_POINT('',(0.,-3.,0.));
#1483 = DIRECTION('',(0.,-1.,0.));
#1484 = DIRECTION('',(-2.22044604925E-16,0.,1.));
#1485 = ADVANCED_FACE('',(#1486),#1513,.T.);
#1486 = FACE_BOUND('',#1487,.T.);
#1487 = EDGE_LOOP('',(#1488,#1498,#1504,#1505,#1506,#1507));
#1488 = ORIENTED_EDGE('',*,*,#1489,.F.);
#1489 = EDGE_CURVE('',#1490,#1492,#1494,.T.);
#1490 = VERTEX_POINT('',#1491);
#1491 = CARTESIAN_POINT('',(115.,-67.,2.020605904818E-14));
#1492 = VERTEX_POINT('',#1493);
#1493 = CARTESIAN_POINT('',(115.,-67.,1.));
#1494 = LINE('',#1495,#1496);
#1495 = CARTESIAN_POINT('',(115.,-67.,0.));
#1496 = VECTOR('',#1497,1.);
#1497 = DIRECTION('',(0.,0.,1.));
#1498 = ORIENTED_EDGE('',*,*,#1499,.T.);
#1499 = EDGE_CURVE('',#1490,#1179,#1500,.T.);
#1500 = LINE('',#1501,#1502);
#1501 = CARTESIAN_POINT('',(0.,-67.,0.));
#1502 = VECTOR('',#1503,1.);
#1503 = DIRECTION('',(1.,0.,2.22044604925E-16));
#1504 = ORIENTED_EDGE('',*,*,#1186,.F.);
#1505 = ORIENTED_EDGE('',*,*,#1153,.F.);
#1506 = ORIENTED_EDGE('',*,*,#1136,.T.);
#1507 = ORIENTED_EDGE('',*,*,#1508,.F.);
#1508 = EDGE_CURVE('',#1492,#1129,#1509,.T.);
#1509 = LINE('',#1510,#1511);
#1510 = CARTESIAN_POINT('',(57.5,-67.,1.));
#1511 = VECTOR('',#1512,1.);
#1512 = DIRECTION('',(1.,0.,0.));
#1513 = PLANE('',#1514);
#1514 = AXIS2_PLACEMENT_3D('',#1515,#1516,#1517);
#1515 = CARTESIAN_POINT('',(0.,-67.,0.));
#1516 = DIRECTION('',(0.,-1.,0.));
#1517 = DIRECTION('',(-2.22044604925E-16,0.,1.));
#1518 = ADVANCED_FACE('',(#1519,#1530,#1541),#1552,.T.);
#1519 = FACE_BOUND('',#1520,.T.);
#1520 = EDGE_LOOP('',(#1521,#1522,#1528,#1529));
#1521 = ORIENTED_EDGE('',*,*,#1475,.F.);
#1522 = ORIENTED_EDGE('',*,*,#1523,.T.);
#1523 = EDGE_CURVE('',#1459,#1492,#1524,.T.);
#1524 = LINE('',#1525,#1526);
#1525 = CARTESIAN_POINT('',(115.,2.22044604925E-16,1.));
#1526 = VECTOR('',#1527,1.);
#1527 = DIRECTION('',(0.,-1.,2.22044604925E-16));
#1528 = ORIENTED_EDGE('',*,*,#1508,.T.);
#1529 = ORIENTED_EDGE('',*,*,#1128,.F.);
#1530 = FACE_BOUND('',#1531,.T.);
#1531 = EDGE_LOOP('',(#1532));
#1532 = ORIENTED_EDGE('',*,*,#1533,.T.);
#1533 = EDGE_CURVE('',#1534,#1534,#1536,.T.);
#1534 = VERTEX_POINT('',#1535);
#1535 = CARTESIAN_POINT('',(121.5,-62.,1.));
#1536 = CIRCLE('',#1537,2.5);
#1537 = AXIS2_PLACEMENT_3D('',#1538,#1539,#1540);
#1538 = CARTESIAN_POINT('',(119.,-62.,1.));
#1539 = DIRECTION('',(0.,-1.224646799147E-16,-1.));
#1540 = DIRECTION('',(1.,0.,0.));
#1541 = FACE_BOUND('',#1542,.T.);
#1542 = EDGE_LOOP('',(#1543));
#1543 = ORIENTED_EDGE('',*,*,#1544,.T.);
#1544 = EDGE_CURVE('',#1545,#1545,#1547,.T.);
#1545 = VERTEX_POINT('',#1546);
#1546 = CARTESIAN_POINT('',(121.5,-8.,1.));
#1547 = CIRCLE('',#1548,2.5);
#1548 = AXIS2_PLACEMENT_3D('',#1549,#1550,#1551);
#1549 = CARTESIAN_POINT('',(119.,-8.,1.));
#1550 = DIRECTION('',(0.,-1.224646799147E-16,-1.));
#1551 = DIRECTION('',(1.,0.,0.));
#1552 = PLANE('',#1553);
#1553 = AXIS2_PLACEMENT_3D('',#1554,#1555,#1556);
#1554 = CARTESIAN_POINT('',(115.,2.22044604925E-16,1.));
#1555 = DIRECTION('',(0.,2.22044604925E-16,1.));
#1556 = DIRECTION('',(1.,0.,0.));
#1557 = ADVANCED_FACE('',(#1558,#1569,#1580),#1591,.T.);
#1558 = FACE_BOUND('',#1559,.T.);
#1559 = EDGE_LOOP('',(#1560,#1561,#1562,#1563));
#1560 = ORIENTED_EDGE('',*,*,#1466,.T.);
#1561 = ORIENTED_EDGE('',*,*,#1178,.T.);
#1562 = ORIENTED_EDGE('',*,*,#1499,.F.);
#1563 = ORIENTED_EDGE('',*,*,#1564,.F.);
#1564 = EDGE_CURVE('',#1457,#1490,#1565,.T.);
#1565 = LINE('',#1566,#1567);
#1566 = CARTESIAN_POINT('',(115.,0.,0.));
#1567 = VECTOR('',#1568,1.);
#1568 = DIRECTION('',(0.,-1.,2.22044604925E-16));
#1569 = FACE_BOUND('',#1570,.T.);
#1570 = EDGE_LOOP('',(#1571));
#1571 = ORIENTED_EDGE('',*,*,#1572,.F.);
#1572 = EDGE_CURVE('',#1573,#1573,#1575,.T.);
#1573 = VERTEX_POINT('',#1574);
#1574 = CARTESIAN_POINT('',(122.,-62.,7.592810154714E-15));
#1575 = CIRCLE('',#1576,3.);
#1576 = AXIS2_PLACEMENT_3D('',#1577,#1578,#1579);
#1577 = CARTESIAN_POINT('',(119.,-62.,7.592810154714E-15));
#1578 = DIRECTION('',(0.,-1.224646799147E-16,-1.));
#1579 = DIRECTION('',(1.,0.,0.));
#1580 = FACE_BOUND('',#1581,.T.);
#1581 = EDGE_LOOP('',(#1582));
#1582 = ORIENTED_EDGE('',*,*,#1583,.F.);
#1583 = EDGE_CURVE('',#1584,#1584,#1586,.T.);
#1584 = VERTEX_POINT('',#1585);
#1585 = CARTESIAN_POINT('',(122.,-8.,9.797174393179E-16));
#1586 = CIRCLE('',#1587,3.);
#1587 = AXIS2_PLACEMENT_3D('',#1588,#1589,#1590);
#1588 = CARTESIAN_POINT('',(119.,-8.,9.797174393179E-16));
#1589 = DIRECTION('',(0.,-1.224646799147E-16,-1.));
#1590 = DIRECTION('',(1.,0.,0.));
#1591 = PLANE('',#1592);
#1592 = AXIS2_PLACEMENT_3D('',#1593,#1594,#1595);
#1593 = CARTESIAN_POINT('',(123.,0.,0.));
#1594 = DIRECTION('',(0.,-2.22044604925E-16,-1.));
#1595 = DIRECTION('',(-1.,0.,0.));
#1596 = ADVANCED_FACE('',(#1597),#1616,.F.);
#1597 = FACE_BOUND('',#1598,.F.);
#1598 = EDGE_LOOP('',(#1599,#1607,#1614,#1615));
#1599 = ORIENTED_EDGE('',*,*,#1600,.T.);
#1600 = EDGE_CURVE('',#1379,#1601,#1603,.T.);
#1601 = VERTEX_POINT('',#1602);
#1602 = CARTESIAN_POINT('',(10.,-62.,0.5));
#1603 = LINE('',#1604,#1605);
#1604 = CARTESIAN_POINT('',(10.,-62.,7.592810154714E-15));
#1605 = VECTOR('',#1606,1.);
#1606 = DIRECTION('',(0.,1.224646799147E-16,1.));
#1607 = ORIENTED_EDGE('',*,*,#1608,.T.);
#1608 = EDGE_CURVE('',#1601,#1601,#1609,.T.);
#1609 = CIRCLE('',#1610,3.);
#1610 = AXIS2_PLACEMENT_3D('',#1611,#1612,#1613);
#1611 = CARTESIAN_POINT('',(7.,-62.,0.5));
#1612 = DIRECTION('',(0.,-1.224646799147E-16,-1.));
#1613 = DIRECTION('',(1.,0.,0.));
#1614 = ORIENTED_EDGE('',*,*,#1600,.F.);
#1615 = ORIENTED_EDGE('',*,*,#1378,.F.);
#1616 = CYLINDRICAL_SURFACE('',#1617,3.);
#1617 = AXIS2_PLACEMENT_3D('',#1618,#1619,#1620);
#1618 = CARTESIAN_POINT('',(7.,-62.,7.592810154714E-15));
#1619 = DIRECTION('',(0.,-1.224646799147E-16,-1.));
#1620 = DIRECTION('',(1.,0.,0.));
#1621 = ADVANCED_FACE('',(#1622),#1641,.F.);
#1622 = FACE_BOUND('',#1623,.F.);
#1623 = EDGE_LOOP('',(#1624,#1632,#1639,#1640));
#1624 = ORIENTED_EDGE('',*,*,#1625,.T.);
#1625 = EDGE_CURVE('',#1390,#1626,#1628,.T.);
#1626 = VERTEX_POINT('',#1627);
#1627 = CARTESIAN_POINT('',(10.,-8.,0.5));
#1628 = LINE('',#1629,#1630);
#1629 = CARTESIAN_POINT('',(10.,-8.,9.797174393179E-16));
#1630 = VECTOR('',#1631,1.);
#1631 = DIRECTION('',(0.,1.224646799147E-16,1.));
#1632 = ORIENTED_EDGE('',*,*,#1633,.T.);
#1633 = EDGE_CURVE('',#1626,#1626,#1634,.T.);
#1634 = CIRCLE('',#1635,3.);
#1635 = AXIS2_PLACEMENT_3D('',#1636,#1637,#1638);
#1636 = CARTESIAN_POINT('',(7.,-8.,0.5));
#1637 = DIRECTION('',(0.,-1.224646799147E-16,-1.));
#1638 = DIRECTION('',(1.,0.,0.));
#1639 = ORIENTED_EDGE('',*,*,#1625,.F.);
#1640 = ORIENTED_EDGE('',*,*,#1389,.F.);
#1641 = CYLINDRICAL_SURFACE('',#1642,3.);
#1642 = AXIS2_PLACEMENT_3D('',#1643,#1644,#1645);
#1643 = CARTESIAN_POINT('',(7.,-8.,9.797174393179E-16));
#1644 = DIRECTION('',(0.,-1.224646799147E-16,-1.));
#1645 = DIRECTION('',(1.,0.,0.));
#1646 = ADVANCED_FACE('',(#1647,#1650),#1653,.F.);
#1647 = FACE_BOUND('',#1648,.F.);
#1648 = EDGE_LOOP('',(#1649));
#1649 = ORIENTED_EDGE('',*,*,#1608,.F.);
#1650 = FACE_BOUND('',#1651,.F.);
#1651 = EDGE_LOOP('',(#1652));
#1652 = ORIENTED_EDGE('',*,*,#1406,.T.);
#1653 = PLANE('',#1654);
#1654 = AXIS2_PLACEMENT_3D('',#1655,#1656,#1657);
#1655 = CARTESIAN_POINT('',(63.,-35.,0.5));
#1656 = DIRECTION('',(0.,0.,1.));
#1657 = DIRECTION('',(1.,0.,0.));
#1658 = ADVANCED_FACE('',(#1659,#1662),#1665,.F.);
#1659 = FACE_BOUND('',#1660,.F.);
#1660 = EDGE_LOOP('',(#1661));
#1661 = ORIENTED_EDGE('',*,*,#1633,.F.);
#1662 = FACE_BOUND('',#1663,.F.);
#1663 = EDGE_LOOP('',(#1664));
#1664 = ORIENTED_EDGE('',*,*,#1431,.T.);
#1665 = PLANE('',#1666);
#1666 = AXIS2_PLACEMENT_3D('',#1667,#1668,#1669);
#1667 = CARTESIAN_POINT('',(63.,-35.,0.5));
#1668 = DIRECTION('',(0.,0.,1.));
#1669 = DIRECTION('',(1.,0.,0.));
#1670 = ADVANCED_FACE('',(#1671),#1677,.T.);
#1671 = FACE_BOUND('',#1672,.T.);
#1672 = EDGE_LOOP('',(#1673,#1674,#1675,#1676));
#1673 = ORIENTED_EDGE('',*,*,#1456,.F.);
#1674 = ORIENTED_EDGE('',*,*,#1564,.T.);
#1675 = ORIENTED_EDGE('',*,*,#1489,.T.);
#1676 = ORIENTED_EDGE('',*,*,#1523,.F.);
#1677 = PLANE('',#1678);
#1678 = AXIS2_PLACEMENT_3D('',#1679,#1680,#1681);
#1679 = CARTESIAN_POINT('',(115.,0.,0.));
#1680 = DIRECTION('',(-1.,0.,0.));
#1681 = DIRECTION('',(0.,2.22044604925E-16,1.));
#1682 = ADVANCED_FACE('',(#1683),#1702,.F.);
#1683 = FACE_BOUND('',#1684,.F.);
#1684 = EDGE_LOOP('',(#1685,#1694,#1700,#1701));
#1685 = ORIENTED_EDGE('',*,*,#1686,.F.);
#1686 = EDGE_CURVE('',#1687,#1687,#1689,.T.);
#1687 = VERTEX_POINT('',#1688);
#1688 = CARTESIAN_POINT('',(121.5,-62.,0.5));
#1689 = CIRCLE('',#1690,2.5);
#1690 = AXIS2_PLACEMENT_3D('',#1691,#1692,#1693);
#1691 = CARTESIAN_POINT('',(119.,-62.,0.5));
#1692 = DIRECTION('',(0.,-1.224646799147E-16,-1.));
#1693 = DIRECTION('',(1.,0.,0.));
#1694 = ORIENTED_EDGE('',*,*,#1695,.T.);
#1695 = EDGE_CURVE('',#1687,#1534,#1696,.T.);
#1696 = LINE('',#1697,#1698);
#1697 = CARTESIAN_POINT('',(121.5,-62.,7.592810154714E-15));
#1698 = VECTOR('',#1699,1.);
#1699 = DIRECTION('',(0.,1.224646799147E-16,1.));
#1700 = ORIENTED_EDGE('',*,*,#1533,.T.);
#1701 = ORIENTED_EDGE('',*,*,#1695,.F.);
#1702 = CYLINDRICAL_SURFACE('',#1703,2.5);
#1703 = AXIS2_PLACEMENT_3D('',#1704,#1705,#1706);
#1704 = CARTESIAN_POINT('',(119.,-62.,7.592810154714E-15));
#1705 = DIRECTION('',(0.,-1.224646799147E-16,-1.));
#1706 = DIRECTION('',(1.,0.,0.));
#1707 = ADVANCED_FACE('',(#1708),#1727,.F.);
#1708 = FACE_BOUND('',#1709,.F.);
#1709 = EDGE_LOOP('',(#1710,#1719,#1725,#1726));
#1710 = ORIENTED_EDGE('',*,*,#1711,.F.);
#1711 = EDGE_CURVE('',#1712,#1712,#1714,.T.);
#1712 = VERTEX_POINT('',#1713);
#1713 = CARTESIAN_POINT('',(121.5,-8.,0.5));
#1714 = CIRCLE('',#1715,2.5);
#1715 = AXIS2_PLACEMENT_3D('',#1716,#1717,#1718);
#1716 = CARTESIAN_POINT('',(119.,-8.,0.5));
#1717 = DIRECTION('',(0.,-1.224646799147E-16,-1.));
#1718 = DIRECTION('',(1.,0.,0.));
#1719 = ORIENTED_EDGE('',*,*,#1720,.T.);
#1720 = EDGE_CURVE('',#1712,#1545,#1721,.T.);
#1721 = LINE('',#1722,#1723);
#1722 = CARTESIAN_POINT('',(121.5,-8.,9.797174393179E-16));
#1723 = VECTOR('',#1724,1.);
#1724 = DIRECTION('',(0.,1.224646799147E-16,1.));
#1725 = ORIENTED_EDGE('',*,*,#1544,.T.);
#1726 = ORIENTED_EDGE('',*,*,#1720,.F.);
#1727 = CYLINDRICAL_SURFACE('',#1728,2.5);
#1728 = AXIS2_PLACEMENT_3D('',#1729,#1730,#1731);
#1729 = CARTESIAN_POINT('',(119.,-8.,9.797174393179E-16));
#1730 = DIRECTION('',(0.,-1.224646799147E-16,-1.));
#1731 = DIRECTION('',(1.,0.,0.));
#1732 = ADVANCED_FACE('',(#1733),#1752,.F.);
#1733 = FACE_BOUND('',#1734,.F.);
#1734 = EDGE_LOOP('',(#1735,#1743,#1750,#1751));
#1735 = ORIENTED_EDGE('',*,*,#1736,.T.);
#1736 = EDGE_CURVE('',#1573,#1737,#1739,.T.);
#1737 = VERTEX_POINT('',#1738);
#1738 = CARTESIAN_POINT('',(122.,-62.,0.5));
#1739 = LINE('',#1740,#1741);
#1740 = CARTESIAN_POINT('',(122.,-62.,7.592810154714E-15));
#1741 = VECTOR('',#1742,1.);
#1742 = DIRECTION('',(0.,1.224646799147E-16,1.));
#1743 = ORIENTED_EDGE('',*,*,#1744,.T.);
#1744 = EDGE_CURVE('',#1737,#1737,#1745,.T.);
#1745 = CIRCLE('',#1746,3.);
#1746 = AXIS2_PLACEMENT_3D('',#1747,#1748,#1749);
#1747 = CARTESIAN_POINT('',(119.,-62.,0.5));
#1748 = DIRECTION('',(0.,-1.224646799147E-16,-1.));
#1749 = DIRECTION('',(1.,0.,0.));
#1750 = ORIENTED_EDGE('',*,*,#1736,.F.);
#1751 = ORIENTED_EDGE('',*,*,#1572,.F.);
#1752 = CYLINDRICAL_SURFACE('',#1753,3.);
#1753 = AXIS2_PLACEMENT_3D('',#1754,#1755,#1756);
#1754 = CARTESIAN_POINT('',(119.,-62.,7.592810154714E-15));
#1755 = DIRECTION('',(0.,-1.224646799147E-16,-1.));
#1756 = DIRECTION('',(1.,0.,0.));
#1757 = ADVANCED_FACE('',(#1758),#1777,.F.);
#1758 = FACE_BOUND('',#1759,.F.);
#1759 = EDGE_LOOP('',(#1760,#1768,#1775,#1776));
#1760 = ORIENTED_EDGE('',*,*,#1761,.T.);
#1761 = EDGE_CURVE('',#1584,#1762,#1764,.T.);
#1762 = VERTEX_POINT('',#1763);
#1763 = CARTESIAN_POINT('',(122.,-8.,0.5));
#1764 = LINE('',#1765,#1766);
#1765 = CARTESIAN_POINT('',(122.,-8.,9.797174393179E-16));
#1766 = VECTOR('',#1767,1.);
#1767 = DIRECTION('',(0.,1.224646799147E-16,1.));
#1768 = ORIENTED_EDGE('',*,*,#1769,.T.);
#1769 = EDGE_CURVE('',#1762,#1762,#1770,.T.);
#1770 = CIRCLE('',#1771,3.);
#1771 = AXIS2_PLACEMENT_3D('',#1772,#1773,#1774);
#1772 = CARTESIAN_POINT('',(119.,-8.,0.5));
#1773 = DIRECTION('',(0.,-1.224646799147E-16,-1.));
#1774 = DIRECTION('',(1.,0.,0.));
#1775 = ORIENTED_EDGE('',*,*,#1761,.F.);
#1776 = ORIENTED_EDGE('',*,*,#1583,.F.);
#1777 = CYLINDRICAL_SURFACE('',#1778,3.);
#1778 = AXIS2_PLACEMENT_3D('',#1779,#1780,#1781);
#1779 = CARTESIAN_POINT('',(119.,-8.,9.797174393179E-16));
#1780 = DIRECTION('',(0.,-1.224646799147E-16,-1.));
#1781 = DIRECTION('',(1.,0.,0.));
#1782 = ADVANCED_FACE('',(#1783,#1786),#1789,.F.);
#1783 = FACE_BOUND('',#1784,.F.);
#1784 = EDGE_LOOP('',(#1785));
#1785 = ORIENTED_EDGE('',*,*,#1744,.F.);
#1786 = FACE_BOUND('',#1787,.F.);
#1787 = EDGE_LOOP('',(#1788));
#1788 = ORIENTED_EDGE('',*,*,#1686,.T.);
#1789 = PLANE('',#1790);
#1790 = AXIS2_PLACEMENT_3D('',#1791,#1792,#1793);
#1791 = CARTESIAN_POINT('',(63.,-35.,0.5));
#1792 = DIRECTION('',(0.,0.,1.));
#1793 = DIRECTION('',(1.,0.,0.));
#1794 = ADVANCED_FACE('',(#1795,#1798),#1801,.F.);
#1795 = FACE_BOUND('',#1796,.F.);
#1796 = EDGE_LOOP('',(#1797));
#1797 = ORIENTED_EDGE('',*,*,#1769,.F.);
#1798 = FACE_BOUND('',#1799,.F.);
#1799 = EDGE_LOOP('',(#1800));
#1800 = ORIENTED_EDGE('',*,*,#1711,.T.);
#1801 = PLANE('',#1802);
#1802 = AXIS2_PLACEMENT_3D('',#1803,#1804,#1805);
#1803 = CARTESIAN_POINT('',(63.,-35.,0.5));
#1804 = DIRECTION('',(0.,0.,1.));
#1805 = DIRECTION('',(1.,0.,0.));
#1806 = ( GEOMETRIC_REPRESENTATION_CONTEXT(3) 
GLOBAL_UNCERTAINTY_ASSIGNED_CONTEXT((#1810)) 
GLOBAL_UNIT_ASSIGNED_CONTEXT((#1807,#1808,#1809)) REPRESENTATION_CONTEXT
('Context #1','3D Context with UNIT and UNCERTAINTY') );
#1807 = ( LENGTH_UNIT() NAMED_UNIT(*) SI_UNIT(.MILLI.,.METRE.) );
#1808 = ( NAMED_UNIT(*) PLANE_ANGLE_UNIT() SI_UNIT($,.RADIAN.) );
#1809 = ( NAMED_UNIT(*) SI_UNIT($,.STERADIAN.) SOLID_ANGLE_UNIT() );
#1810 = UNCERTAINTY_MEASURE_WITH_UNIT(LENGTH_MEASURE(2.E-05),#1807,
  'distance_accuracy_value','confusion accuracy');
#1811 = PRODUCT_RELATED_PRODUCT_CATEGORY('part',$,(#7));
#1812 = MECHANICAL_DESIGN_GEOMETRIC_PRESENTATION_REPRESENTATION('',(
    #1813),#1806);
#1813 = STYLED_ITEM('color',(#1814),#15);
#1814 = PRESENTATION_STYLE_ASSIGNMENT((#1815,#1821));
#1815 = SURFACE_STYLE_USAGE(.BOTH.,#1816);
#1816 = SURFACE_SIDE_STYLE('',(#1817));
#1817 = SURFACE_STYLE_FILL_AREA(#1818);
#1818 = FILL_AREA_STYLE('',(#1819));
#1819 = FILL_AREA_STYLE_COLOUR('',#1820);
#1820 = COLOUR_RGB('',0.800000010877,0.800000010877,0.800000010877);
#1821 = CURVE_STYLE('',#1822,POSITIVE_LENGTH_MEASURE(0.1),#1823);
#1822 = DRAUGHTING_PRE_DEFINED_CURVE_FONT('continuous');
#1823 = COLOUR_RGB('',9.803921802644E-02,9.803921802644E-02,
  9.803921802644E-02);
ENDSEC;
END-ISO-10303-21;
